<svg xmlns="http://www.w3.org/2000/svg" xmlns:xlink="http://www.w3.org/1999/xlink" width="500" zoomAndPan="magnify" viewBox="0 0 375 374.999991" height="500" preserveAspectRatio="xMidYMid meet" version="1.0"><defs><g/><clipPath id="1c68f1fbea"><path d="M 140.90625 118.570312 L 201 118.570312 L 201 215.320312 L 140.90625 215.320312 Z M 140.90625 118.570312 " clip-rule="nonzero"/></clipPath><clipPath id="fe4a082db2"><path d="M 154.648438 215.386719 C 152.71875 215.386719 150.6875 214.980469 148.753906 214.0625 C 141.949219 210.808594 139.003906 202.664062 142.253906 195.742188 L 174.867188 126.832031 C 178.117188 120.011719 186.246094 117.058594 193.152344 120.316406 C 199.960938 123.574219 202.90625 131.71875 199.65625 138.640625 L 167.042969 207.550781 C 164.707031 212.539062 159.726562 215.386719 154.648438 215.386719 Z M 154.648438 215.386719 " clip-rule="nonzero"/></clipPath><linearGradient x1="86.966745" gradientTransform="matrix(0.535243, 0, 0, 0.535243, 140.928422, 118.569697)" y1="-28.272128" x2="151.155633" gradientUnits="userSpaceOnUse" y2="169.269091" id="fcb6e94f07"><stop stop-opacity="1" stop-color="rgb(94.898987%, 54.499817%, 18.798828%)" offset="0"/><stop stop-opacity="1" stop-color="rgb(94.898987%, 54.499817%, 18.798828%)" offset="0.125"/><stop stop-opacity="1" stop-color="rgb(94.898987%, 54.499817%, 18.798828%)" offset="0.15625"/><stop stop-opacity="1" stop-color="rgb(94.898987%, 54.469299%, 18.77594%)" offset="0.171875"/><stop stop-opacity="1" stop-color="rgb(94.898987%, 54.327393%, 18.667603%)" offset="0.172343"/><stop stop-opacity="1" stop-color="rgb(94.898987%, 54.217529%, 18.583679%)" offset="0.179688"/><stop stop-opacity="1" stop-color="rgb(94.898987%, 54.10614%, 18.49823%)" offset="0.1875"/><stop stop-opacity="1" stop-color="rgb(94.898987%, 53.884888%, 18.328857%)" offset="0.195312"/><stop stop-opacity="1" stop-color="rgb(94.898987%, 53.662109%, 18.159485%)" offset="0.203125"/><stop stop-opacity="1" stop-color="rgb(94.898987%, 53.440857%, 17.991638%)" offset="0.210937"/><stop stop-opacity="1" stop-color="rgb(94.898987%, 53.219604%, 17.822266%)" offset="0.21875"/><stop stop-opacity="1" stop-color="rgb(94.898987%, 52.998352%, 17.652893%)" offset="0.226562"/><stop stop-opacity="1" stop-color="rgb(94.898987%, 52.7771%, 17.483521%)" offset="0.234375"/><stop stop-opacity="1" stop-color="rgb(94.898987%, 52.554321%, 17.314148%)" offset="0.242188"/><stop stop-opacity="1" stop-color="rgb(94.898987%, 52.333069%, 17.144775%)" offset="0.25"/><stop stop-opacity="1" stop-color="rgb(94.898987%, 52.111816%, 16.975403%)" offset="0.257812"/><stop stop-opacity="1" stop-color="rgb(94.898987%, 51.890564%, 16.80603%)" offset="0.265625"/><stop stop-opacity="1" stop-color="rgb(94.898987%, 51.669312%, 16.636658%)" offset="0.273438"/><stop stop-opacity="1" stop-color="rgb(94.898987%, 51.446533%, 16.468811%)" offset="0.28125"/><stop stop-opacity="1" stop-color="rgb(94.898987%, 51.225281%, 16.299438%)" offset="0.289062"/><stop stop-opacity="1" stop-color="rgb(94.898987%, 51.004028%, 16.130066%)" offset="0.296875"/><stop stop-opacity="1" stop-color="rgb(94.898987%, 50.782776%, 15.960693%)" offset="0.304687"/><stop stop-opacity="1" stop-color="rgb(94.898987%, 50.559998%, 15.791321%)" offset="0.3125"/><stop stop-opacity="1" stop-color="rgb(94.898987%, 50.338745%, 15.621948%)" offset="0.320312"/><stop stop-opacity="1" stop-color="rgb(94.898987%, 50.117493%, 15.452576%)" offset="0.328125"/><stop stop-opacity="1" stop-color="rgb(94.898987%, 49.89624%, 15.283203%)" offset="0.335937"/><stop stop-opacity="1" stop-color="rgb(94.898987%, 49.674988%, 15.115356%)" offset="0.34375"/><stop stop-opacity="1" stop-color="rgb(94.898987%, 49.452209%, 14.945984%)" offset="0.351562"/><stop stop-opacity="1" stop-color="rgb(94.898987%, 49.230957%, 14.776611%)" offset="0.359375"/><stop stop-opacity="1" stop-color="rgb(94.898987%, 49.009705%, 14.607239%)" offset="0.367187"/><stop stop-opacity="1" stop-color="rgb(94.898987%, 48.788452%, 14.437866%)" offset="0.375"/><stop stop-opacity="1" stop-color="rgb(94.898987%, 48.5672%, 14.268494%)" offset="0.382812"/><stop stop-opacity="1" stop-color="rgb(94.898987%, 48.344421%, 14.099121%)" offset="0.390625"/><stop stop-opacity="1" stop-color="rgb(94.898987%, 48.123169%, 13.929749%)" offset="0.398437"/><stop stop-opacity="1" stop-color="rgb(94.898987%, 47.901917%, 13.760376%)" offset="0.40625"/><stop stop-opacity="1" stop-color="rgb(94.898987%, 47.680664%, 13.592529%)" offset="0.414062"/><stop stop-opacity="1" stop-color="rgb(94.898987%, 47.459412%, 13.423157%)" offset="0.421875"/><stop stop-opacity="1" stop-color="rgb(94.898987%, 47.236633%, 13.253784%)" offset="0.429688"/><stop stop-opacity="1" stop-color="rgb(94.898987%, 47.015381%, 13.084412%)" offset="0.4375"/><stop stop-opacity="1" stop-color="rgb(94.898987%, 46.794128%, 12.915039%)" offset="0.445312"/><stop stop-opacity="1" stop-color="rgb(94.898987%, 46.572876%, 12.745667%)" offset="0.453125"/><stop stop-opacity="1" stop-color="rgb(94.898987%, 46.351624%, 12.576294%)" offset="0.460938"/><stop stop-opacity="1" stop-color="rgb(94.898987%, 46.128845%, 12.406921%)" offset="0.46875"/><stop stop-opacity="1" stop-color="rgb(94.898987%, 45.907593%, 12.239075%)" offset="0.476562"/><stop stop-opacity="1" stop-color="rgb(94.898987%, 45.68634%, 12.069702%)" offset="0.484375"/><stop stop-opacity="1" stop-color="rgb(94.898987%, 45.465088%, 11.90033%)" offset="0.492187"/><stop stop-opacity="1" stop-color="rgb(94.898987%, 45.243835%, 11.730957%)" offset="0.5"/><stop stop-opacity="1" stop-color="rgb(94.898987%, 45.021057%, 11.561584%)" offset="0.507812"/><stop stop-opacity="1" stop-color="rgb(94.898987%, 44.799805%, 11.392212%)" offset="0.515625"/><stop stop-opacity="1" stop-color="rgb(94.898987%, 44.578552%, 11.222839%)" offset="0.523438"/><stop stop-opacity="1" stop-color="rgb(94.898987%, 44.3573%, 11.053467%)" offset="0.53125"/><stop stop-opacity="1" stop-color="rgb(94.898987%, 44.136047%, 10.884094%)" offset="0.539062"/><stop stop-opacity="1" stop-color="rgb(94.898987%, 43.913269%, 10.716248%)" offset="0.546875"/><stop stop-opacity="1" stop-color="rgb(94.898987%, 43.692017%, 10.546875%)" offset="0.554688"/><stop stop-opacity="1" stop-color="rgb(94.898987%, 43.470764%, 10.377502%)" offset="0.5625"/><stop stop-opacity="1" stop-color="rgb(94.898987%, 43.249512%, 10.20813%)" offset="0.570312"/><stop stop-opacity="1" stop-color="rgb(94.898987%, 43.028259%, 10.038757%)" offset="0.578125"/><stop stop-opacity="1" stop-color="rgb(94.898987%, 42.805481%, 9.869385%)" offset="0.585938"/><stop stop-opacity="1" stop-color="rgb(94.898987%, 42.584229%, 9.700012%)" offset="0.59375"/><stop stop-opacity="1" stop-color="rgb(94.898987%, 42.362976%, 9.53064%)" offset="0.601562"/><stop stop-opacity="1" stop-color="rgb(94.898987%, 42.141724%, 9.362793%)" offset="0.609375"/><stop stop-opacity="1" stop-color="rgb(94.898987%, 41.920471%, 9.19342%)" offset="0.617188"/><stop stop-opacity="1" stop-color="rgb(94.898987%, 41.697693%, 9.024048%)" offset="0.625"/><stop stop-opacity="1" stop-color="rgb(94.898987%, 41.47644%, 8.854675%)" offset="0.632812"/><stop stop-opacity="1" stop-color="rgb(94.898987%, 41.255188%, 8.685303%)" offset="0.640625"/><stop stop-opacity="1" stop-color="rgb(94.898987%, 41.033936%, 8.51593%)" offset="0.648438"/><stop stop-opacity="1" stop-color="rgb(94.898987%, 40.812683%, 8.346558%)" offset="0.65625"/><stop stop-opacity="1" stop-color="rgb(94.898987%, 40.589905%, 8.177185%)" offset="0.664062"/><stop stop-opacity="1" stop-color="rgb(94.898987%, 40.368652%, 8.007812%)" offset="0.671875"/><stop stop-opacity="1" stop-color="rgb(94.898987%, 40.1474%, 7.839966%)" offset="0.679688"/><stop stop-opacity="1" stop-color="rgb(94.898987%, 39.926147%, 7.670593%)" offset="0.6875"/><stop stop-opacity="1" stop-color="rgb(94.898987%, 39.704895%, 7.501221%)" offset="0.695312"/><stop stop-opacity="1" stop-color="rgb(94.898987%, 39.482117%, 7.331848%)" offset="0.703125"/><stop stop-opacity="1" stop-color="rgb(94.898987%, 39.260864%, 7.162476%)" offset="0.710938"/><stop stop-opacity="1" stop-color="rgb(94.898987%, 39.039612%, 6.993103%)" offset="0.71875"/><stop stop-opacity="1" stop-color="rgb(94.898987%, 38.818359%, 6.82373%)" offset="0.726562"/><stop stop-opacity="1" stop-color="rgb(94.898987%, 38.595581%, 6.654358%)" offset="0.734375"/><stop stop-opacity="1" stop-color="rgb(94.898987%, 38.374329%, 6.486511%)" offset="0.742188"/><stop stop-opacity="1" stop-color="rgb(94.898987%, 38.153076%, 6.317139%)" offset="0.75"/><stop stop-opacity="1" stop-color="rgb(94.898987%, 37.931824%, 6.147766%)" offset="0.757812"/><stop stop-opacity="1" stop-color="rgb(94.898987%, 37.710571%, 5.978394%)" offset="0.765625"/><stop stop-opacity="1" stop-color="rgb(94.898987%, 37.487793%, 5.809021%)" offset="0.773438"/><stop stop-opacity="1" stop-color="rgb(94.898987%, 37.266541%, 5.639648%)" offset="0.78125"/><stop stop-opacity="1" stop-color="rgb(94.898987%, 37.045288%, 5.470276%)" offset="0.789062"/><stop stop-opacity="1" stop-color="rgb(94.898987%, 36.824036%, 5.300903%)" offset="0.796875"/><stop stop-opacity="1" stop-color="rgb(94.898987%, 36.602783%, 5.131531%)" offset="0.804688"/><stop stop-opacity="1" stop-color="rgb(94.898987%, 36.380005%, 4.963684%)" offset="0.8125"/><stop stop-opacity="1" stop-color="rgb(94.898987%, 36.158752%, 4.794312%)" offset="0.820312"/><stop stop-opacity="1" stop-color="rgb(94.898987%, 35.9375%, 4.624939%)" offset="0.827657"/><stop stop-opacity="1" stop-color="rgb(94.898987%, 35.827637%, 4.541016%)" offset="0.828125"/><stop stop-opacity="1" stop-color="rgb(94.898987%, 35.716248%, 4.455566%)" offset="0.835938"/><stop stop-opacity="1" stop-color="rgb(94.898987%, 35.494995%, 4.286194%)" offset="0.84375"/><stop stop-opacity="1" stop-color="rgb(94.898987%, 35.272217%, 4.116821%)" offset="0.851562"/><stop stop-opacity="1" stop-color="rgb(94.898987%, 35.050964%, 3.947449%)" offset="0.859375"/><stop stop-opacity="1" stop-color="rgb(94.898987%, 34.829712%, 3.778076%)" offset="0.867187"/><stop stop-opacity="1" stop-color="rgb(94.898987%, 34.608459%, 3.610229%)" offset="0.875"/><stop stop-opacity="1" stop-color="rgb(94.898987%, 34.387207%, 3.440857%)" offset="0.882812"/><stop stop-opacity="1" stop-color="rgb(94.898987%, 34.164429%, 3.271484%)" offset="0.890625"/><stop stop-opacity="1" stop-color="rgb(94.898987%, 33.943176%, 3.102112%)" offset="0.898437"/><stop stop-opacity="1" stop-color="rgb(94.898987%, 33.721924%, 2.932739%)" offset="0.90625"/><stop stop-opacity="1" stop-color="rgb(94.898987%, 33.500671%, 2.763367%)" offset="0.914062"/><stop stop-opacity="1" stop-color="rgb(94.898987%, 33.279419%, 2.593994%)" offset="0.921875"/><stop stop-opacity="1" stop-color="rgb(94.898987%, 33.056641%, 2.424622%)" offset="0.929688"/><stop stop-opacity="1" stop-color="rgb(94.898987%, 32.835388%, 2.255249%)" offset="0.9375"/><stop stop-opacity="1" stop-color="rgb(94.898987%, 32.61261%, 2.084351%)" offset="1"/></linearGradient><clipPath id="6779d011b6"><path d="M 173 118.570312 L 233.90625 118.570312 L 233.90625 215.320312 L 173 215.320312 Z M 173 118.570312 " clip-rule="nonzero"/></clipPath><clipPath id="2535c138f7"><path d="M 219.875 215.386719 C 214.691406 215.386719 209.816406 212.4375 207.480469 207.550781 L 174.867188 138.640625 C 171.613281 131.820312 174.5625 123.574219 181.367188 120.316406 C 188.175781 117.058594 196.40625 120.011719 199.65625 126.832031 L 232.269531 195.742188 C 235.519531 202.5625 232.574219 210.808594 225.765625 214.066406 C 223.835938 214.980469 221.90625 215.386719 219.875 215.386719 Z M 219.875 215.386719 " clip-rule="nonzero"/></clipPath><linearGradient x1="177.161598" gradientTransform="matrix(0.535243, 0, 0, 0.535243, 140.928422, 118.569697)" y1="172.186524" x2="14.400936" gradientUnits="userSpaceOnUse" y2="106.697756" id="a26b435271"><stop stop-opacity="1" stop-color="rgb(94.898987%, 54.499817%, 18.798828%)" offset="0"/><stop stop-opacity="1" stop-color="rgb(94.898987%, 54.405212%, 18.727112%)" offset="0.125"/><stop stop-opacity="1" stop-color="rgb(94.898987%, 54.199219%, 18.569946%)" offset="0.132812"/><stop stop-opacity="1" stop-color="rgb(94.898987%, 53.979492%, 18.4021%)" offset="0.140625"/><stop stop-opacity="1" stop-color="rgb(94.898987%, 53.759766%, 18.234253%)" offset="0.148437"/><stop stop-opacity="1" stop-color="rgb(94.898987%, 53.540039%, 18.066406%)" offset="0.15625"/><stop stop-opacity="1" stop-color="rgb(94.898987%, 53.318787%, 17.89856%)" offset="0.164062"/><stop stop-opacity="1" stop-color="rgb(94.898987%, 53.09906%, 17.730713%)" offset="0.171875"/><stop stop-opacity="1" stop-color="rgb(94.898987%, 52.879333%, 17.56134%)" offset="0.179687"/><stop stop-opacity="1" stop-color="rgb(94.898987%, 52.659607%, 17.393494%)" offset="0.1875"/><stop stop-opacity="1" stop-color="rgb(94.898987%, 52.438354%, 17.225647%)" offset="0.195312"/><stop stop-opacity="1" stop-color="rgb(94.898987%, 52.218628%, 17.0578%)" offset="0.203125"/><stop stop-opacity="1" stop-color="rgb(94.898987%, 51.998901%, 16.889954%)" offset="0.210937"/><stop stop-opacity="1" stop-color="rgb(94.898987%, 51.777649%, 16.722107%)" offset="0.21875"/><stop stop-opacity="1" stop-color="rgb(94.898987%, 51.557922%, 16.552734%)" offset="0.226562"/><stop stop-opacity="1" stop-color="rgb(94.898987%, 51.338196%, 16.384888%)" offset="0.234375"/><stop stop-opacity="1" stop-color="rgb(94.898987%, 51.118469%, 16.217041%)" offset="0.242187"/><stop stop-opacity="1" stop-color="rgb(94.898987%, 50.897217%, 16.049194%)" offset="0.25"/><stop stop-opacity="1" stop-color="rgb(94.898987%, 50.67749%, 15.881348%)" offset="0.257812"/><stop stop-opacity="1" stop-color="rgb(94.898987%, 50.457764%, 15.713501%)" offset="0.265625"/><stop stop-opacity="1" stop-color="rgb(94.898987%, 50.238037%, 15.544128%)" offset="0.273438"/><stop stop-opacity="1" stop-color="rgb(94.898987%, 50.016785%, 15.376282%)" offset="0.28125"/><stop stop-opacity="1" stop-color="rgb(94.898987%, 49.797058%, 15.208435%)" offset="0.289062"/><stop stop-opacity="1" stop-color="rgb(94.898987%, 49.577332%, 15.040588%)" offset="0.296875"/><stop stop-opacity="1" stop-color="rgb(94.898987%, 49.356079%, 14.872742%)" offset="0.304687"/><stop stop-opacity="1" stop-color="rgb(94.898987%, 49.136353%, 14.704895%)" offset="0.3125"/><stop stop-opacity="1" stop-color="rgb(94.898987%, 48.916626%, 14.535522%)" offset="0.320312"/><stop stop-opacity="1" stop-color="rgb(94.898987%, 48.696899%, 14.367676%)" offset="0.328125"/><stop stop-opacity="1" stop-color="rgb(94.898987%, 48.475647%, 14.199829%)" offset="0.335937"/><stop stop-opacity="1" stop-color="rgb(94.898987%, 48.25592%, 14.031982%)" offset="0.34375"/><stop stop-opacity="1" stop-color="rgb(94.898987%, 48.036194%, 13.864136%)" offset="0.351562"/><stop stop-opacity="1" stop-color="rgb(94.898987%, 47.816467%, 13.696289%)" offset="0.359375"/><stop stop-opacity="1" stop-color="rgb(94.898987%, 47.595215%, 13.526917%)" offset="0.367187"/><stop stop-opacity="1" stop-color="rgb(94.898987%, 47.375488%, 13.35907%)" offset="0.375"/><stop stop-opacity="1" stop-color="rgb(94.898987%, 47.155762%, 13.191223%)" offset="0.382812"/><stop stop-opacity="1" stop-color="rgb(94.898987%, 46.934509%, 13.023376%)" offset="0.384593"/><stop stop-opacity="1" stop-color="rgb(94.898987%, 46.824646%, 12.939453%)" offset="0.390625"/><stop stop-opacity="1" stop-color="rgb(94.898987%, 46.714783%, 12.85553%)" offset="0.398437"/><stop stop-opacity="1" stop-color="rgb(94.898987%, 46.495056%, 12.687683%)" offset="0.40625"/><stop stop-opacity="1" stop-color="rgb(94.898987%, 46.27533%, 12.518311%)" offset="0.414062"/><stop stop-opacity="1" stop-color="rgb(94.898987%, 46.054077%, 12.350464%)" offset="0.421875"/><stop stop-opacity="1" stop-color="rgb(94.898987%, 45.834351%, 12.182617%)" offset="0.429687"/><stop stop-opacity="1" stop-color="rgb(94.898987%, 45.614624%, 12.014771%)" offset="0.4375"/><stop stop-opacity="1" stop-color="rgb(94.898987%, 45.394897%, 11.846924%)" offset="0.445312"/><stop stop-opacity="1" stop-color="rgb(94.898987%, 45.173645%, 11.677551%)" offset="0.453125"/><stop stop-opacity="1" stop-color="rgb(94.898987%, 44.953918%, 11.509705%)" offset="0.460938"/><stop stop-opacity="1" stop-color="rgb(94.898987%, 44.734192%, 11.341858%)" offset="0.46875"/><stop stop-opacity="1" stop-color="rgb(94.898987%, 44.514465%, 11.174011%)" offset="0.476562"/><stop stop-opacity="1" stop-color="rgb(94.898987%, 44.293213%, 11.006165%)" offset="0.484375"/><stop stop-opacity="1" stop-color="rgb(94.898987%, 44.073486%, 10.838318%)" offset="0.492187"/><stop stop-opacity="1" stop-color="rgb(94.898987%, 43.85376%, 10.668945%)" offset="0.5"/><stop stop-opacity="1" stop-color="rgb(94.898987%, 43.632507%, 10.501099%)" offset="0.507812"/><stop stop-opacity="1" stop-color="rgb(94.898987%, 43.412781%, 10.333252%)" offset="0.515625"/><stop stop-opacity="1" stop-color="rgb(94.898987%, 43.193054%, 10.165405%)" offset="0.523438"/><stop stop-opacity="1" stop-color="rgb(94.898987%, 42.973328%, 9.997559%)" offset="0.53125"/><stop stop-opacity="1" stop-color="rgb(94.898987%, 42.752075%, 9.829712%)" offset="0.539062"/><stop stop-opacity="1" stop-color="rgb(94.898987%, 42.532349%, 9.660339%)" offset="0.546875"/><stop stop-opacity="1" stop-color="rgb(94.898987%, 42.312622%, 9.492493%)" offset="0.554687"/><stop stop-opacity="1" stop-color="rgb(94.898987%, 42.092896%, 9.324646%)" offset="0.5625"/><stop stop-opacity="1" stop-color="rgb(94.898987%, 41.871643%, 9.156799%)" offset="0.570313"/><stop stop-opacity="1" stop-color="rgb(94.898987%, 41.651917%, 8.988953%)" offset="0.578125"/><stop stop-opacity="1" stop-color="rgb(94.898987%, 41.43219%, 8.821106%)" offset="0.585938"/><stop stop-opacity="1" stop-color="rgb(94.898987%, 41.210938%, 8.651733%)" offset="0.59375"/><stop stop-opacity="1" stop-color="rgb(94.898987%, 40.991211%, 8.483887%)" offset="0.601562"/><stop stop-opacity="1" stop-color="rgb(94.898987%, 40.771484%, 8.31604%)" offset="0.609375"/><stop stop-opacity="1" stop-color="rgb(94.898987%, 40.551758%, 8.148193%)" offset="0.615407"/><stop stop-opacity="1" stop-color="rgb(94.898987%, 40.441895%, 8.06427%)" offset="0.617188"/><stop stop-opacity="1" stop-color="rgb(94.898987%, 40.330505%, 7.980347%)" offset="0.625"/><stop stop-opacity="1" stop-color="rgb(94.898987%, 40.110779%, 7.8125%)" offset="0.632812"/><stop stop-opacity="1" stop-color="rgb(94.898987%, 39.891052%, 7.643127%)" offset="0.640625"/><stop stop-opacity="1" stop-color="rgb(94.898987%, 39.671326%, 7.475281%)" offset="0.648437"/><stop stop-opacity="1" stop-color="rgb(94.898987%, 39.450073%, 7.307434%)" offset="0.65625"/><stop stop-opacity="1" stop-color="rgb(94.898987%, 39.230347%, 7.139587%)" offset="0.664062"/><stop stop-opacity="1" stop-color="rgb(94.898987%, 39.01062%, 6.971741%)" offset="0.671875"/><stop stop-opacity="1" stop-color="rgb(94.898987%, 38.790894%, 6.803894%)" offset="0.679687"/><stop stop-opacity="1" stop-color="rgb(94.898987%, 38.569641%, 6.634521%)" offset="0.6875"/><stop stop-opacity="1" stop-color="rgb(94.898987%, 38.349915%, 6.466675%)" offset="0.695312"/><stop stop-opacity="1" stop-color="rgb(94.898987%, 38.130188%, 6.298828%)" offset="0.703125"/><stop stop-opacity="1" stop-color="rgb(94.898987%, 37.908936%, 6.130981%)" offset="0.710938"/><stop stop-opacity="1" stop-color="rgb(94.898987%, 37.689209%, 5.963135%)" offset="0.71875"/><stop stop-opacity="1" stop-color="rgb(94.898987%, 37.469482%, 5.795288%)" offset="0.726562"/><stop stop-opacity="1" stop-color="rgb(94.898987%, 37.249756%, 5.625916%)" offset="0.734375"/><stop stop-opacity="1" stop-color="rgb(94.898987%, 37.028503%, 5.458069%)" offset="0.742188"/><stop stop-opacity="1" stop-color="rgb(94.898987%, 36.808777%, 5.290222%)" offset="0.75"/><stop stop-opacity="1" stop-color="rgb(94.898987%, 36.58905%, 5.122375%)" offset="0.757812"/><stop stop-opacity="1" stop-color="rgb(94.898987%, 36.369324%, 4.954529%)" offset="0.765625"/><stop stop-opacity="1" stop-color="rgb(94.898987%, 36.148071%, 4.786682%)" offset="0.773437"/><stop stop-opacity="1" stop-color="rgb(94.898987%, 35.928345%, 4.61731%)" offset="0.78125"/><stop stop-opacity="1" stop-color="rgb(94.898987%, 35.708618%, 4.449463%)" offset="0.789062"/><stop stop-opacity="1" stop-color="rgb(94.898987%, 35.487366%, 4.281616%)" offset="0.796875"/><stop stop-opacity="1" stop-color="rgb(94.898987%, 35.267639%, 4.11377%)" offset="0.804688"/><stop stop-opacity="1" stop-color="rgb(94.898987%, 35.047913%, 3.945923%)" offset="0.8125"/><stop stop-opacity="1" stop-color="rgb(94.898987%, 34.828186%, 3.778076%)" offset="0.820313"/><stop stop-opacity="1" stop-color="rgb(94.898987%, 34.606934%, 3.608704%)" offset="0.828125"/><stop stop-opacity="1" stop-color="rgb(94.898987%, 34.387207%, 3.440857%)" offset="0.835938"/><stop stop-opacity="1" stop-color="rgb(94.898987%, 34.16748%, 3.27301%)" offset="0.84375"/><stop stop-opacity="1" stop-color="rgb(94.898987%, 33.947754%, 3.105164%)" offset="0.851563"/><stop stop-opacity="1" stop-color="rgb(94.898987%, 33.726501%, 2.937317%)" offset="0.859375"/><stop stop-opacity="1" stop-color="rgb(94.898987%, 33.506775%, 2.76947%)" offset="0.867188"/><stop stop-opacity="1" stop-color="rgb(94.898987%, 33.287048%, 2.600098%)" offset="0.875"/><stop stop-opacity="1" stop-color="rgb(94.898987%, 33.067322%, 2.432251%)" offset="0.882812"/><stop stop-opacity="1" stop-color="rgb(94.898987%, 32.846069%, 2.264404%)" offset="0.890625"/><stop stop-opacity="1" stop-color="rgb(94.898987%, 32.617188%, 2.088928%)" offset="0.90625"/><stop stop-opacity="1" stop-color="rgb(94.898987%, 32.499695%, 1.998901%)" offset="0.9375"/><stop stop-opacity="1" stop-color="rgb(94.898987%, 32.499695%, 1.998901%)" offset="1"/></linearGradient></defs><g clip-path="url(#1c68f1fbea)"><g clip-path="url(#fe4a082db2)"><path fill="url(#fcb6e94f07)" d="M 140.90625 118.570312 L 140.90625 215.320312 L 202.90625 215.320312 L 202.90625 118.570312 Z M 140.90625 118.570312 " fill-rule="nonzero"/></g></g><g clip-path="url(#6779d011b6)"><g clip-path="url(#2535c138f7)"><path fill="url(#a26b435271)" d="M 171.613281 118.570312 L 171.613281 215.320312 L 233.90625 215.320312 L 233.90625 118.570312 Z M 171.613281 118.570312 " fill-rule="nonzero"/></g></g><g fill="#023e8a" fill-opacity="1"><g transform="translate(121.5789, 250.380276)"><g><path d="M 10.765625 -3.40625 L 4.0625 -3.40625 L 2.84375 0 L 0.71875 0 L 6.265625 -15.25 L 8.578125 -15.25 L 14.109375 0 L 11.984375 0 Z M 10.1875 -5.03125 L 7.40625 -12.78125 L 4.640625 -5.03125 Z M 10.1875 -5.03125 "/></g></g></g><g fill="#023e8a" fill-opacity="1"><g transform="translate(140.804258, 250.380276)"><g><path d="M 6.5625 0.15625 C 5.539062 0.15625 4.628906 -0.0195312 3.828125 -0.375 C 3.035156 -0.738281 2.410156 -1.238281 1.953125 -1.875 C 1.503906 -2.519531 1.269531 -3.257812 1.25 -4.09375 L 3.390625 -4.09375 C 3.460938 -3.375 3.757812 -2.769531 4.28125 -2.28125 C 4.800781 -1.789062 5.5625 -1.546875 6.5625 -1.546875 C 7.507812 -1.546875 8.257812 -1.78125 8.8125 -2.25 C 9.363281 -2.726562 9.640625 -3.34375 9.640625 -4.09375 C 9.640625 -4.675781 9.476562 -5.148438 9.15625 -5.515625 C 8.832031 -5.890625 8.425781 -6.171875 7.9375 -6.359375 C 7.457031 -6.546875 6.804688 -6.75 5.984375 -6.96875 C 4.972656 -7.238281 4.160156 -7.503906 3.546875 -7.765625 C 2.941406 -8.023438 2.421875 -8.4375 1.984375 -9 C 1.554688 -9.570312 1.34375 -10.332031 1.34375 -11.28125 C 1.34375 -12.125 1.554688 -12.863281 1.984375 -13.5 C 2.410156 -14.144531 3.003906 -14.644531 3.765625 -15 C 4.535156 -15.351562 5.421875 -15.53125 6.421875 -15.53125 C 7.859375 -15.53125 9.035156 -15.171875 9.953125 -14.453125 C 10.867188 -13.734375 11.382812 -12.78125 11.5 -11.59375 L 9.3125 -11.59375 C 9.238281 -12.175781 8.925781 -12.691406 8.375 -13.140625 C 7.832031 -13.585938 7.113281 -13.8125 6.21875 -13.8125 C 5.382812 -13.8125 4.703125 -13.59375 4.171875 -13.15625 C 3.648438 -12.726562 3.390625 -12.128906 3.390625 -11.359375 C 3.390625 -10.796875 3.546875 -10.335938 3.859375 -9.984375 C 4.171875 -9.628906 4.554688 -9.359375 5.015625 -9.171875 C 5.484375 -8.992188 6.132812 -8.789062 6.96875 -8.5625 C 7.976562 -8.28125 8.789062 -8.003906 9.40625 -7.734375 C 10.03125 -7.460938 10.5625 -7.039062 11 -6.46875 C 11.4375 -5.90625 11.65625 -5.144531 11.65625 -4.1875 C 11.65625 -3.4375 11.457031 -2.726562 11.0625 -2.0625 C 10.664062 -1.40625 10.078125 -0.867188 9.296875 -0.453125 C 8.523438 -0.046875 7.613281 0.15625 6.5625 0.15625 Z M 6.5625 0.15625 "/></g></g></g><g fill="#023e8a" fill-opacity="1"><g transform="translate(158.115958, 250.380276)"><g><path d="M 6.5625 0.15625 C 5.539062 0.15625 4.628906 -0.0195312 3.828125 -0.375 C 3.035156 -0.738281 2.410156 -1.238281 1.953125 -1.875 C 1.503906 -2.519531 1.269531 -3.257812 1.25 -4.09375 L 3.390625 -4.09375 C 3.460938 -3.375 3.757812 -2.769531 4.28125 -2.28125 C 4.800781 -1.789062 5.5625 -1.546875 6.5625 -1.546875 C 7.507812 -1.546875 8.257812 -1.78125 8.8125 -2.25 C 9.363281 -2.726562 9.640625 -3.34375 9.640625 -4.09375 C 9.640625 -4.675781 9.476562 -5.148438 9.15625 -5.515625 C 8.832031 -5.890625 8.425781 -6.171875 7.9375 -6.359375 C 7.457031 -6.546875 6.804688 -6.75 5.984375 -6.96875 C 4.972656 -7.238281 4.160156 -7.503906 3.546875 -7.765625 C 2.941406 -8.023438 2.421875 -8.4375 1.984375 -9 C 1.554688 -9.570312 1.34375 -10.332031 1.34375 -11.28125 C 1.34375 -12.125 1.554688 -12.863281 1.984375 -13.5 C 2.410156 -14.144531 3.003906 -14.644531 3.765625 -15 C 4.535156 -15.351562 5.421875 -15.53125 6.421875 -15.53125 C 7.859375 -15.53125 9.035156 -15.171875 9.953125 -14.453125 C 10.867188 -13.734375 11.382812 -12.78125 11.5 -11.59375 L 9.3125 -11.59375 C 9.238281 -12.175781 8.925781 -12.691406 8.375 -13.140625 C 7.832031 -13.585938 7.113281 -13.8125 6.21875 -13.8125 C 5.382812 -13.8125 4.703125 -13.59375 4.171875 -13.15625 C 3.648438 -12.726562 3.390625 -12.128906 3.390625 -11.359375 C 3.390625 -10.796875 3.546875 -10.335938 3.859375 -9.984375 C 4.171875 -9.628906 4.554688 -9.359375 5.015625 -9.171875 C 5.484375 -8.992188 6.132812 -8.789062 6.96875 -8.5625 C 7.976562 -8.28125 8.789062 -8.003906 9.40625 -7.734375 C 10.03125 -7.460938 10.5625 -7.039062 11 -6.46875 C 11.4375 -5.90625 11.65625 -5.144531 11.65625 -4.1875 C 11.65625 -3.4375 11.457031 -2.726562 11.0625 -2.0625 C 10.664062 -1.40625 10.078125 -0.867188 9.296875 -0.453125 C 8.523438 -0.046875 7.613281 0.15625 6.5625 0.15625 Z M 6.5625 0.15625 "/></g></g></g><g fill="#023e8a" fill-opacity="1"><g transform="translate(175.427658, 250.380276)"><g><path d="M 3.65625 -15.328125 L 3.65625 -5.625 C 3.65625 -4.269531 3.988281 -3.257812 4.65625 -2.59375 C 5.320312 -1.9375 6.25 -1.609375 7.4375 -1.609375 C 8.613281 -1.609375 9.535156 -1.9375 10.203125 -2.59375 C 10.867188 -3.257812 11.203125 -4.269531 11.203125 -5.625 L 11.203125 -15.328125 L 13.203125 -15.328125 L 13.203125 -5.65625 C 13.203125 -4.375 12.941406 -3.296875 12.421875 -2.421875 C 11.910156 -1.554688 11.21875 -0.910156 10.34375 -0.484375 C 9.476562 -0.0546875 8.5 0.15625 7.40625 0.15625 C 6.320312 0.15625 5.34375 -0.0546875 4.46875 -0.484375 C 3.601562 -0.910156 2.914062 -1.554688 2.40625 -2.421875 C 1.90625 -3.296875 1.65625 -4.375 1.65625 -5.65625 L 1.65625 -15.328125 Z M 3.65625 -15.328125 "/></g></g></g><g fill="#f25305" fill-opacity="1"><g transform="translate(194.680462, 250.380276)"><g><path d="M 10.359375 -15.328125 L 10.359375 -13.703125 L 3.703125 -13.703125 L 3.703125 -8.53125 L 9.109375 -8.53125 L 9.109375 -6.90625 L 3.703125 -6.90625 L 3.703125 0 L 1.6875 0 L 1.6875 -15.328125 Z M 10.359375 -15.328125 "/></g></g></g><g fill="#f25305" fill-opacity="1"><g transform="translate(210.166485, 250.380276)"><g><path d="M 3.703125 -1.625 L 9.0625 -1.625 L 9.0625 0 L 1.6875 0 L 1.6875 -15.328125 L 3.703125 -15.328125 Z M 3.703125 -1.625 "/></g></g></g><g fill="#f25305" fill-opacity="1"><g transform="translate(224.068784, 250.380276)"><g><path d="M 3.703125 -13.703125 L 3.703125 -8.578125 L 9.28125 -8.578125 L 9.28125 -6.9375 L 3.703125 -6.9375 L 3.703125 -1.65625 L 9.9375 -1.65625 L 9.9375 0 L 1.6875 0 L 1.6875 -15.359375 L 9.9375 -15.359375 L 9.9375 -13.703125 Z M 3.703125 -13.703125 "/></g></g></g><g fill="#f25305" fill-opacity="1"><g transform="translate(239.752768, 250.380276)"><g><path d="M 7.96875 -7.65625 L 12.671875 0 L 10.40625 0 L 6.734375 -5.984375 L 3.234375 0 L 1.015625 0 L 5.703125 -7.65625 L 0.984375 -15.328125 L 3.234375 -15.328125 L 6.9375 -9.328125 L 10.453125 -15.328125 L 12.6875 -15.328125 Z M 7.96875 -7.65625 "/></g></g></g></svg>