<svg xmlns="http://www.w3.org/2000/svg" xmlns:xlink="http://www.w3.org/1999/xlink" viewBox="0 0 500 150" preserveAspectRatio="xMidYMid meet" version="1.0">
  <defs>
    <clipPath id="clip1">
      <path d="M 40 25 L 100 25 L 100 125 L 40 125 Z M 40 25" clip-rule="nonzero"/>
    </clipPath>
    <clipPath id="clip2">
      <path d="M 54.648438 125 C 52.71875 125 50.6875 124.59375 48.753906 123.675781 C 41.949219 120.421875 39.003906 112.277344 42.253906 105.355469 L 74.867188 36.445312 C 78.117188 29.625 86.246094 26.671875 93.152344 29.929688 C 99.960938 33.1875 102.90625 41.332031 99.65625 48.253906 L 67.042969 117.164062 C 64.707031 122.152344 59.726562 125 54.648438 125 Z"/>
    </clipPath>
    <linearGradient x1="86.966745" gradientTransform="matrix(0.535243, 0, 0, 0.535243, 40, 25)" y1="-28.272128" x2="151.155633" gradientUnits="userSpaceOnUse" y2="169.269091" id="gradient1">
      <stop stop-opacity="1" stop-color="rgb(94.898987%, 54.499817%, 18.798828%)" offset="0"/>
      <stop stop-opacity="1" stop-color="rgb(94.898987%, 32.61261%, 2.084351%)" offset="1"/>
    </linearGradient>
    <clipPath id="clip3">
      <path d="M 73 25 L 133.90625 25 L 133.90625 125 L 73 125 Z M 73 25"/>
    </clipPath>
    <clipPath id="clip4">
      <path d="M 119.875 125 C 114.691406 125 109.816406 122.050781 107.480469 117.164062 L 74.867188 48.253906 C 71.613281 41.433594 74.5625 33.1875 81.367188 29.929688 C 88.175781 26.671875 96.40625 29.625 99.65625 36.445312 L 132.269531 105.355469 C 135.519531 112.175781 132.574219 120.421875 125.765625 123.679688 C 123.835938 124.59375 121.90625 125 119.875 125 Z"/>
    </clipPath>
    <linearGradient x1="177.161598" gradientTransform="matrix(0.535243, 0, 0, 0.535243, 40, 25)" y1="172.186524" x2="14.400936" gradientUnits="userSpaceOnUse" y2="106.697756" id="gradient2">
      <stop stop-opacity="1" stop-color="rgb(94.898987%, 54.499817%, 18.798828%)" offset="0"/>
      <stop stop-opacity="1" stop-color="rgb(94.898987%, 32.499695%, 1.998901%)" offset="1"/>
    </linearGradient>
  </defs>
  
  <g transform="translate(120, 0)">
    <!-- A Symbol -->
    <g>
      <g clip-path="url(#clip1)">
        <g clip-path="url(#clip2)">
          <path fill="url(#gradient1)" d="M 40 25 L 40 125 L 102 125 L 102 25 Z M 40 25" fill-rule="nonzero"/>
        </g>
      </g>
      <g clip-path="url(#clip3)">
        <g clip-path="url(#clip4)">
          <path fill="url(#gradient2)" d="M 71.613281 25 L 71.613281 125 L 133.90625 125 L 133.90625 25 Z M 71.613281 25" fill-rule="nonzero"/>
        </g>
      </g>
    </g>
    
    <!-- ASSUFLEX Text -->
    <g transform="translate(130, 20)">
      <!-- A -->
      <g fill="#023e8a" fill-opacity="1">
        <path d="M 10.765625 -3.40625 L 4.0625 -3.40625 L 2.84375 0 L 0.71875 0 L 6.265625 -15.25 L 8.578125 -15.25 L 14.109375 0 L 11.984375 0 Z M 10.1875 -5.03125 L 7.40625 -12.78125 L 4.640625 -5.03125 Z" transform="translate(0, 75)"/>
      </g>
      
      <!-- S -->
      <g fill="#023e8a" fill-opacity="1">
        <path d="M 6.5625 0.15625 C 5.539062 0.15625 4.628906 -0.0195312 3.828125 -0.375 C 3.035156 -0.738281 2.410156 -1.238281 1.953125 -1.875 C 1.503906 -2.519531 1.269531 -3.257812 1.25 -4.09375 L 3.390625 -4.09375 C 3.460938 -3.375 3.757812 -2.769531 4.28125 -2.28125 C 4.800781 -1.789062 5.5625 -1.546875 6.5625 -1.546875 C 7.507812 -1.546875 8.257812 -1.78125 8.8125 -2.25 C 9.363281 -2.726562 9.640625 -3.34375 9.640625 -4.09375 C 9.640625 -4.675781 9.476562 -5.148438 9.15625 -5.515625 C 8.832031 -5.890625 8.425781 -6.171875 7.9375 -6.359375 C 7.457031 -6.546875 6.804688 -6.75 5.984375 -6.96875 C 4.972656 -7.238281 4.160156 -7.503906 3.546875 -7.765625 C 2.941406 -8.023438 2.421875 -8.4375 1.984375 -9 C 1.554688 -9.570312 1.34375 -10.332031 1.34375 -11.28125 C 1.34375 -12.125 1.554688 -12.863281 1.984375 -13.5 C 2.410156 -14.144531 3.003906 -14.644531 3.765625 -15 C 4.535156 -15.351562 5.421875 -15.53125 6.421875 -15.53125 C 7.859375 -15.53125 9.035156 -15.171875 9.953125 -14.453125 C 10.867188 -13.734375 11.382812 -12.78125 11.5 -11.59375 L 9.3125 -11.59375 C 9.238281 -12.175781 8.925781 -12.691406 8.375 -13.140625 C 7.832031 -13.585938 7.113281 -13.8125 6.21875 -13.8125 C 5.382812 -13.8125 4.703125 -13.59375 4.171875 -13.15625 C 3.648438 -12.726562 3.390625 -12.128906 3.390625 -11.359375 C 3.390625 -10.796875 3.546875 -10.335938 3.859375 -9.984375 C 4.171875 -9.628906 4.554688 -9.359375 5.015625 -9.171875 C 5.484375 -8.992188 6.132812 -8.789062 6.96875 -8.5625 C 7.976562 -8.28125 8.789062 -8.003906 9.40625 -7.734375 C 10.03125 -7.460938 10.5625 -7.039062 11 -6.46875 C 11.4375 -5.90625 11.65625 -5.144531 11.65625 -4.1875 C 11.65625 -3.4375 11.457031 -2.726562 11.0625 -2.0625 C 10.664062 -1.40625 10.078125 -0.867188 9.296875 -0.453125 C 8.523438 -0.046875 7.613281 0.15625 6.5625 0.15625 Z" transform="translate(20, 75)"/>
      </g>
      
      <!-- S -->
      <g fill="#023e8a" fill-opacity="1">
        <path d="M 6.5625 0.15625 C 5.539062 0.15625 4.628906 -0.0195312 3.828125 -0.375 C 3.035156 -0.738281 2.410156 -1.238281 1.953125 -1.875 C 1.503906 -2.519531 1.269531 -3.257812 1.25 -4.09375 L 3.390625 -4.09375 C 3.460938 -3.375 3.757812 -2.769531 4.28125 -2.28125 C 4.800781 -1.789062 5.5625 -1.546875 6.5625 -1.546875 C 7.507812 -1.546875 8.257812 -1.78125 8.8125 -2.25 C 9.363281 -2.726562 9.640625 -3.34375 9.640625 -4.09375 C 9.640625 -4.675781 9.476562 -5.148438 9.15625 -5.515625 C 8.832031 -5.890625 8.425781 -6.171875 7.9375 -6.359375 C 7.457031 -6.546875 6.804688 -6.75 5.984375 -6.96875 C 4.972656 -7.238281 4.160156 -7.503906 3.546875 -7.765625 C 2.941406 -8.023438 2.421875 -8.4375 1.984375 -9 C 1.554688 -9.570312 1.34375 -10.332031 1.34375 -11.28125 C 1.34375 -12.125 1.554688 -12.863281 1.984375 -13.5 C 2.410156 -14.144531 3.003906 -14.644531 3.765625 -15 C 4.535156 -15.351562 5.421875 -15.53125 6.421875 -15.53125 C 7.859375 -15.53125 9.035156 -15.171875 9.953125 -14.453125 C 10.867188 -13.734375 11.382812 -12.78125 11.5 -11.59375 L 9.3125 -11.59375 C 9.238281 -12.175781 8.925781 -12.691406 8.375 -13.140625 C 7.832031 -13.585938 7.113281 -13.8125 6.21875 -13.8125 C 5.382812 -13.8125 4.703125 -13.59375 4.171875 -13.15625 C 3.648438 -12.726562 3.390625 -12.128906 3.390625 -11.359375 C 3.390625 -10.796875 3.546875 -10.335938 3.859375 -9.984375 C 4.171875 -9.628906 4.554688 -9.359375 5.015625 -9.171875 C 5.484375 -8.992188 6.132812 -8.789062 6.96875 -8.5625 C 7.976562 -8.28125 8.789062 -8.003906 9.40625 -7.734375 C 10.03125 -7.460938 10.5625 -7.039062 11 -6.46875 C 11.4375 -5.90625 11.65625 -5.144531 11.65625 -4.1875 C 11.65625 -3.4375 11.457031 -2.726562 11.0625 -2.0625 C 10.664062 -1.40625 10.078125 -0.867188 9.296875 -0.453125 C 8.523438 -0.046875 7.613281 0.15625 6.5625 0.15625 Z" transform="translate(40, 75)"/>
      </g>
      
      <!-- U -->
      <g fill="#023e8a" fill-opacity="1">
        <path d="M 3.65625 -15.328125 L 3.65625 -5.625 C 3.65625 -4.269531 3.988281 -3.257812 4.65625 -2.59375 C 5.320312 -1.9375 6.25 -1.609375 7.4375 -1.609375 C 8.613281 -1.609375 9.535156 -1.9375 10.203125 -2.59375 C 10.867188 -3.257812 11.203125 -4.269531 11.203125 -5.625 L 11.203125 -15.328125 L 13.203125 -15.328125 L 13.203125 -5.65625 C 13.203125 -4.375 12.941406 -3.296875 12.421875 -2.421875 C 11.910156 -1.554688 11.21875 -0.910156 10.34375 -0.484375 C 9.476562 -0.0546875 8.5 0.15625 7.40625 0.15625 C 6.320312 0.15625 5.34375 -0.0546875 4.46875 -0.484375 C 3.601562 -0.910156 2.914062 -1.554688 2.40625 -2.421875 C 1.90625 -3.296875 1.65625 -4.375 1.65625 -5.65625 L 1.65625 -15.328125 Z" transform="translate(60, 75)"/>
      </g>
      
      <!-- F -->
      <g fill="#f25305" fill-opacity="1">
        <path d="M 10.359375 -15.328125 L 10.359375 -13.703125 L 3.703125 -13.703125 L 3.703125 -8.53125 L 9.109375 -8.53125 L 9.109375 -6.90625 L 3.703125 -6.90625 L 3.703125 0 L 1.6875 0 L 1.6875 -15.328125 Z" transform="translate(85, 75)"/>
      </g>
      
      <!-- L -->
      <g fill="#f25305" fill-opacity="1">
        <path d="M 3.703125 -1.625 L 9.0625 -1.625 L 9.0625 0 L 1.6875 0 L 1.6875 -15.328125 L 3.703125 -15.328125 Z" transform="translate(100, 75)"/>
      </g>
      
      <!-- E -->
      <g fill="#f25305" fill-opacity="1">
        <path d="M 3.703125 -13.703125 L 3.703125 -8.578125 L 9.28125 -8.578125 L 9.28125 -6.9375 L 3.703125 -6.9375 L 3.703125 -1.65625 L 9.9375 -1.65625 L 9.9375 0 L 1.6875 0 L 1.6875 -15.359375 L 9.9375 -15.359375 L 9.9375 -13.703125 Z" transform="translate(115, 75)"/>
      </g>
      
      <!-- X -->
      <g fill="#f25305" fill-opacity="1">
        <path d="M 7.96875 -7.65625 L 12.671875 0 L 10.40625 0 L 6.734375 -5.984375 L 3.234375 0 L 1.015625 0 L 5.703125 -7.65625 L 0.984375 -15.328125 L 3.234375 -15.328125 L 6.9375 -9.328125 L 10.453125 -15.328125 L 12.6875 -15.328125 Z" transform="translate(130, 75)"/>
      </g>
    </g>
  </g>
</svg>