<svg xmlns="http://www.w3.org/2000/svg" xmlns:xlink="http://www.w3.org/1999/xlink" width="170" zoomAndPan="magnify" viewBox="0 0 127.5 37.5" height="50" preserveAspectRatio="xMidYMid meet" version="1.0"><defs><g/><clipPath id="3bf3834a69"><path d="M 0.59375 2.46875 L 21 2.46875 L 21 34.296875 L 0.59375 34.296875 Z M 0.59375 2.46875 " clip-rule="nonzero"/></clipPath><clipPath id="d421849da3"><path d="M 5.140625 34.507812 C 4.5 34.507812 3.828125 34.371094 3.1875 34.070312 C 0.9375 32.992188 -0.0390625 30.296875 1.039062 28.007812 L 11.828125 5.203125 C 12.90625 2.949219 15.59375 1.96875 17.878906 3.046875 C 20.132812 4.125 21.109375 6.820312 20.03125 9.109375 L 9.242188 31.914062 C 8.46875 33.5625 6.820312 34.507812 5.140625 34.507812 Z M 5.140625 34.507812 " clip-rule="nonzero"/></clipPath><linearGradient x1="86.966878" gradientTransform="matrix(0.17711, 0, 0, 0.17711, 0.59907, 2.47002)" y1="-28.27172" x2="150.842601" gradientUnits="userSpaceOnUse" y2="168.305734" id="41f5f9de56"><stop stop-opacity="1" stop-color="rgb(94.898987%, 54.499817%, 18.798828%)" offset="0"/><stop stop-opacity="1" stop-color="rgb(94.898987%, 54.499817%, 18.798828%)" offset="0.125"/><stop stop-opacity="1" stop-color="rgb(94.898987%, 54.499817%, 18.798828%)" offset="0.15625"/><stop stop-opacity="1" stop-color="rgb(94.898987%, 54.47998%, 18.785095%)" offset="0.171875"/><stop stop-opacity="1" stop-color="rgb(94.898987%, 54.351807%, 18.687439%)" offset="0.173186"/><stop stop-opacity="1" stop-color="rgb(94.898987%, 54.241943%, 18.603516%)" offset="0.179688"/><stop stop-opacity="1" stop-color="rgb(94.898987%, 54.13208%, 18.518066%)" offset="0.1875"/><stop stop-opacity="1" stop-color="rgb(94.898987%, 53.910828%, 18.35022%)" offset="0.195312"/><stop stop-opacity="1" stop-color="rgb(94.898987%, 53.691101%, 18.180847%)" offset="0.203125"/><stop stop-opacity="1" stop-color="rgb(94.898987%, 53.469849%, 18.013%)" offset="0.210938"/><stop stop-opacity="1" stop-color="rgb(94.898987%, 53.250122%, 17.845154%)" offset="0.21875"/><stop stop-opacity="1" stop-color="rgb(94.898987%, 53.02887%, 17.675781%)" offset="0.226562"/><stop stop-opacity="1" stop-color="rgb(94.898987%, 52.809143%, 17.507935%)" offset="0.234375"/><stop stop-opacity="1" stop-color="rgb(94.898987%, 52.587891%, 17.340088%)" offset="0.242188"/><stop stop-opacity="1" stop-color="rgb(94.898987%, 52.368164%, 17.170715%)" offset="0.25"/><stop stop-opacity="1" stop-color="rgb(94.898987%, 52.146912%, 17.002869%)" offset="0.257812"/><stop stop-opacity="1" stop-color="rgb(94.898987%, 51.927185%, 16.835022%)" offset="0.265625"/><stop stop-opacity="1" stop-color="rgb(94.898987%, 51.705933%, 16.665649%)" offset="0.273438"/><stop stop-opacity="1" stop-color="rgb(94.898987%, 51.486206%, 16.497803%)" offset="0.28125"/><stop stop-opacity="1" stop-color="rgb(94.898987%, 51.264954%, 16.329956%)" offset="0.289062"/><stop stop-opacity="1" stop-color="rgb(94.898987%, 51.045227%, 16.160583%)" offset="0.296875"/><stop stop-opacity="1" stop-color="rgb(94.898987%, 50.823975%, 15.992737%)" offset="0.304688"/><stop stop-opacity="1" stop-color="rgb(94.898987%, 50.604248%, 15.82489%)" offset="0.3125"/><stop stop-opacity="1" stop-color="rgb(94.898987%, 50.382996%, 15.655518%)" offset="0.320312"/><stop stop-opacity="1" stop-color="rgb(94.898987%, 50.163269%, 15.487671%)" offset="0.328125"/><stop stop-opacity="1" stop-color="rgb(94.898987%, 49.942017%, 15.319824%)" offset="0.335938"/><stop stop-opacity="1" stop-color="rgb(94.898987%, 49.72229%, 15.150452%)" offset="0.34375"/><stop stop-opacity="1" stop-color="rgb(94.898987%, 49.501038%, 14.982605%)" offset="0.351563"/><stop stop-opacity="1" stop-color="rgb(94.898987%, 49.281311%, 14.814758%)" offset="0.359375"/><stop stop-opacity="1" stop-color="rgb(94.898987%, 49.060059%, 14.645386%)" offset="0.367188"/><stop stop-opacity="1" stop-color="rgb(94.898987%, 48.840332%, 14.477539%)" offset="0.375"/><stop stop-opacity="1" stop-color="rgb(94.898987%, 48.61908%, 14.309692%)" offset="0.382813"/><stop stop-opacity="1" stop-color="rgb(94.898987%, 48.399353%, 14.14032%)" offset="0.390625"/><stop stop-opacity="1" stop-color="rgb(94.898987%, 48.178101%, 13.972473%)" offset="0.398438"/><stop stop-opacity="1" stop-color="rgb(94.898987%, 47.958374%, 13.804626%)" offset="0.40625"/><stop stop-opacity="1" stop-color="rgb(94.898987%, 47.737122%, 13.635254%)" offset="0.414063"/><stop stop-opacity="1" stop-color="rgb(94.898987%, 47.517395%, 13.467407%)" offset="0.421875"/><stop stop-opacity="1" stop-color="rgb(94.898987%, 47.296143%, 13.299561%)" offset="0.429688"/><stop stop-opacity="1" stop-color="rgb(94.898987%, 47.076416%, 13.130188%)" offset="0.4375"/><stop stop-opacity="1" stop-color="rgb(94.898987%, 46.855164%, 12.962341%)" offset="0.445313"/><stop stop-opacity="1" stop-color="rgb(94.898987%, 46.635437%, 12.794495%)" offset="0.453125"/><stop stop-opacity="1" stop-color="rgb(94.898987%, 46.414185%, 12.625122%)" offset="0.460938"/><stop stop-opacity="1" stop-color="rgb(94.898987%, 46.194458%, 12.457275%)" offset="0.46875"/><stop stop-opacity="1" stop-color="rgb(94.898987%, 45.973206%, 12.289429%)" offset="0.476562"/><stop stop-opacity="1" stop-color="rgb(94.898987%, 45.753479%, 12.120056%)" offset="0.484375"/><stop stop-opacity="1" stop-color="rgb(94.898987%, 45.532227%, 11.952209%)" offset="0.492188"/><stop stop-opacity="1" stop-color="rgb(94.898987%, 45.3125%, 11.782837%)" offset="0.5"/><stop stop-opacity="1" stop-color="rgb(94.898987%, 45.091248%, 11.61499%)" offset="0.507812"/><stop stop-opacity="1" stop-color="rgb(94.898987%, 44.871521%, 11.447144%)" offset="0.515625"/><stop stop-opacity="1" stop-color="rgb(94.898987%, 44.650269%, 11.277771%)" offset="0.523438"/><stop stop-opacity="1" stop-color="rgb(94.898987%, 44.430542%, 11.109924%)" offset="0.53125"/><stop stop-opacity="1" stop-color="rgb(94.898987%, 44.20929%, 10.942078%)" offset="0.539062"/><stop stop-opacity="1" stop-color="rgb(94.898987%, 43.989563%, 10.772705%)" offset="0.546875"/><stop stop-opacity="1" stop-color="rgb(94.898987%, 43.768311%, 10.604858%)" offset="0.554688"/><stop stop-opacity="1" stop-color="rgb(94.898987%, 43.548584%, 10.437012%)" offset="0.5625"/><stop stop-opacity="1" stop-color="rgb(94.898987%, 43.327332%, 10.267639%)" offset="0.570313"/><stop stop-opacity="1" stop-color="rgb(94.898987%, 43.107605%, 10.099792%)" offset="0.578125"/><stop stop-opacity="1" stop-color="rgb(94.898987%, 42.886353%, 9.931946%)" offset="0.585938"/><stop stop-opacity="1" stop-color="rgb(94.898987%, 42.666626%, 9.762573%)" offset="0.59375"/><stop stop-opacity="1" stop-color="rgb(94.898987%, 42.445374%, 9.594727%)" offset="0.601563"/><stop stop-opacity="1" stop-color="rgb(94.898987%, 42.225647%, 9.42688%)" offset="0.609375"/><stop stop-opacity="1" stop-color="rgb(94.898987%, 42.004395%, 9.257507%)" offset="0.617188"/><stop stop-opacity="1" stop-color="rgb(94.898987%, 41.784668%, 9.089661%)" offset="0.625"/><stop stop-opacity="1" stop-color="rgb(94.898987%, 41.563416%, 8.921814%)" offset="0.632813"/><stop stop-opacity="1" stop-color="rgb(94.898987%, 41.343689%, 8.752441%)" offset="0.640625"/><stop stop-opacity="1" stop-color="rgb(94.898987%, 41.122437%, 8.584595%)" offset="0.648438"/><stop stop-opacity="1" stop-color="rgb(94.898987%, 40.90271%, 8.416748%)" offset="0.65625"/><stop stop-opacity="1" stop-color="rgb(94.898987%, 40.681458%, 8.247375%)" offset="0.664063"/><stop stop-opacity="1" stop-color="rgb(94.898987%, 40.461731%, 8.079529%)" offset="0.671875"/><stop stop-opacity="1" stop-color="rgb(94.898987%, 40.240479%, 7.911682%)" offset="0.679688"/><stop stop-opacity="1" stop-color="rgb(94.898987%, 40.020752%, 7.74231%)" offset="0.6875"/><stop stop-opacity="1" stop-color="rgb(94.898987%, 39.7995%, 7.574463%)" offset="0.695313"/><stop stop-opacity="1" stop-color="rgb(94.898987%, 39.579773%, 7.406616%)" offset="0.703125"/><stop stop-opacity="1" stop-color="rgb(94.898987%, 39.358521%, 7.237244%)" offset="0.710938"/><stop stop-opacity="1" stop-color="rgb(94.898987%, 39.138794%, 7.069397%)" offset="0.71875"/><stop stop-opacity="1" stop-color="rgb(94.898987%, 38.917542%, 6.90155%)" offset="0.726563"/><stop stop-opacity="1" stop-color="rgb(94.898987%, 38.697815%, 6.732178%)" offset="0.734375"/><stop stop-opacity="1" stop-color="rgb(94.898987%, 38.476562%, 6.564331%)" offset="0.742188"/><stop stop-opacity="1" stop-color="rgb(94.898987%, 38.256836%, 6.396484%)" offset="0.75"/><stop stop-opacity="1" stop-color="rgb(94.898987%, 38.035583%, 6.227112%)" offset="0.757813"/><stop stop-opacity="1" stop-color="rgb(94.898987%, 37.815857%, 6.059265%)" offset="0.765625"/><stop stop-opacity="1" stop-color="rgb(94.898987%, 37.594604%, 5.891418%)" offset="0.773438"/><stop stop-opacity="1" stop-color="rgb(94.898987%, 37.374878%, 5.722046%)" offset="0.78125"/><stop stop-opacity="1" stop-color="rgb(94.898987%, 37.153625%, 5.554199%)" offset="0.789063"/><stop stop-opacity="1" stop-color="rgb(94.898987%, 36.933899%, 5.386353%)" offset="0.796875"/><stop stop-opacity="1" stop-color="rgb(94.898987%, 36.712646%, 5.21698%)" offset="0.804688"/><stop stop-opacity="1" stop-color="rgb(94.898987%, 36.49292%, 5.049133%)" offset="0.8125"/><stop stop-opacity="1" stop-color="rgb(94.898987%, 36.271667%, 4.879761%)" offset="0.820312"/><stop stop-opacity="1" stop-color="rgb(94.898987%, 36.051941%, 4.711914%)" offset="0.826814"/><stop stop-opacity="1" stop-color="rgb(94.898987%, 35.942078%, 4.627991%)" offset="0.828125"/><stop stop-opacity="1" stop-color="rgb(94.898987%, 35.830688%, 4.544067%)" offset="0.835938"/><stop stop-opacity="1" stop-color="rgb(94.898987%, 35.610962%, 4.374695%)" offset="0.84375"/><stop stop-opacity="1" stop-color="rgb(94.898987%, 35.389709%, 4.206848%)" offset="0.851562"/><stop stop-opacity="1" stop-color="rgb(94.898987%, 35.169983%, 4.039001%)" offset="0.859375"/><stop stop-opacity="1" stop-color="rgb(94.898987%, 34.94873%, 3.869629%)" offset="0.867187"/><stop stop-opacity="1" stop-color="rgb(94.898987%, 34.729004%, 3.701782%)" offset="0.875"/><stop stop-opacity="1" stop-color="rgb(94.898987%, 34.507751%, 3.533936%)" offset="0.882813"/><stop stop-opacity="1" stop-color="rgb(94.898987%, 34.288025%, 3.364563%)" offset="0.890625"/><stop stop-opacity="1" stop-color="rgb(94.898987%, 34.066772%, 3.196716%)" offset="0.898438"/><stop stop-opacity="1" stop-color="rgb(94.898987%, 33.847046%, 3.02887%)" offset="0.90625"/><stop stop-opacity="1" stop-color="rgb(94.898987%, 33.625793%, 2.859497%)" offset="0.914062"/><stop stop-opacity="1" stop-color="rgb(94.898987%, 33.406067%, 2.69165%)" offset="0.921875"/><stop stop-opacity="1" stop-color="rgb(94.898987%, 33.184814%, 2.523804%)" offset="0.929688"/><stop stop-opacity="1" stop-color="rgb(94.898987%, 32.965088%, 2.354431%)" offset="0.9375"/><stop stop-opacity="1" stop-color="rgb(94.898987%, 32.676697%, 2.134705%)" offset="1"/></linearGradient><clipPath id="4e2c6b2fea"><path d="M 11 2.46875 L 31.675781 2.46875 L 31.675781 34.296875 L 11 34.296875 Z M 11 2.46875 " clip-rule="nonzero"/></clipPath><clipPath id="d8b97cc16f"><path d="M 26.722656 34.507812 C 25.007812 34.507812 23.394531 33.53125 22.621094 31.914062 L 11.828125 9.109375 C 10.753906 6.855469 11.726562 4.125 13.980469 3.046875 C 16.234375 1.96875 18.957031 2.949219 20.03125 5.203125 L 30.824219 28.007812 C 31.898438 30.261719 30.925781 32.992188 28.671875 34.070312 C 28.03125 34.371094 27.394531 34.507812 26.722656 34.507812 Z M 26.722656 34.507812 " clip-rule="nonzero"/></clipPath><linearGradient x1="178.310562" gradientTransform="matrix(0.17711, 0, 0, 0.17711, 0.59907, 2.47002)" y1="172.648825" x2="14.400934" gradientUnits="userSpaceOnUse" y2="106.697755" id="b77b20437e"><stop stop-opacity="1" stop-color="rgb(94.898987%, 54.499817%, 18.798828%)" offset="0"/><stop stop-opacity="1" stop-color="rgb(94.898987%, 54.492188%, 18.792725%)" offset="0.125"/><stop stop-opacity="1" stop-color="rgb(94.898987%, 54.373169%, 18.702698%)" offset="0.132812"/><stop stop-opacity="1" stop-color="rgb(94.898987%, 54.150391%, 18.533325%)" offset="0.140625"/><stop stop-opacity="1" stop-color="rgb(94.898987%, 53.929138%, 18.363953%)" offset="0.148438"/><stop stop-opacity="1" stop-color="rgb(94.898987%, 53.707886%, 18.19458%)" offset="0.15625"/><stop stop-opacity="1" stop-color="rgb(94.898987%, 53.486633%, 18.025208%)" offset="0.164062"/><stop stop-opacity="1" stop-color="rgb(94.898987%, 53.263855%, 17.855835%)" offset="0.171875"/><stop stop-opacity="1" stop-color="rgb(94.898987%, 53.042603%, 17.686462%)" offset="0.179688"/><stop stop-opacity="1" stop-color="rgb(94.898987%, 52.82135%, 17.51709%)" offset="0.1875"/><stop stop-opacity="1" stop-color="rgb(94.898987%, 52.598572%, 17.347717%)" offset="0.195312"/><stop stop-opacity="1" stop-color="rgb(94.898987%, 52.377319%, 17.178345%)" offset="0.203125"/><stop stop-opacity="1" stop-color="rgb(94.898987%, 52.156067%, 17.008972%)" offset="0.210938"/><stop stop-opacity="1" stop-color="rgb(94.898987%, 51.934814%, 16.8396%)" offset="0.21875"/><stop stop-opacity="1" stop-color="rgb(94.898987%, 51.712036%, 16.670227%)" offset="0.226563"/><stop stop-opacity="1" stop-color="rgb(94.898987%, 51.490784%, 16.500854%)" offset="0.234375"/><stop stop-opacity="1" stop-color="rgb(94.898987%, 51.269531%, 16.333008%)" offset="0.242188"/><stop stop-opacity="1" stop-color="rgb(94.898987%, 51.046753%, 16.163635%)" offset="0.25"/><stop stop-opacity="1" stop-color="rgb(94.898987%, 50.8255%, 15.994263%)" offset="0.257813"/><stop stop-opacity="1" stop-color="rgb(94.898987%, 50.604248%, 15.82489%)" offset="0.265625"/><stop stop-opacity="1" stop-color="rgb(94.898987%, 50.382996%, 15.655518%)" offset="0.273438"/><stop stop-opacity="1" stop-color="rgb(94.898987%, 50.160217%, 15.486145%)" offset="0.28125"/><stop stop-opacity="1" stop-color="rgb(94.898987%, 49.938965%, 15.316772%)" offset="0.289062"/><stop stop-opacity="1" stop-color="rgb(94.898987%, 49.717712%, 15.1474%)" offset="0.296875"/><stop stop-opacity="1" stop-color="rgb(94.898987%, 49.494934%, 14.978027%)" offset="0.304688"/><stop stop-opacity="1" stop-color="rgb(94.898987%, 49.273682%, 14.808655%)" offset="0.3125"/><stop stop-opacity="1" stop-color="rgb(94.898987%, 49.052429%, 14.639282%)" offset="0.320312"/><stop stop-opacity="1" stop-color="rgb(94.898987%, 48.831177%, 14.46991%)" offset="0.328125"/><stop stop-opacity="1" stop-color="rgb(94.898987%, 48.608398%, 14.300537%)" offset="0.335938"/><stop stop-opacity="1" stop-color="rgb(94.898987%, 48.387146%, 14.131165%)" offset="0.34375"/><stop stop-opacity="1" stop-color="rgb(94.898987%, 48.165894%, 13.961792%)" offset="0.351563"/><stop stop-opacity="1" stop-color="rgb(94.898987%, 47.943115%, 13.792419%)" offset="0.359375"/><stop stop-opacity="1" stop-color="rgb(94.898987%, 47.721863%, 13.623047%)" offset="0.367188"/><stop stop-opacity="1" stop-color="rgb(94.898987%, 47.50061%, 13.453674%)" offset="0.375"/><stop stop-opacity="1" stop-color="rgb(94.898987%, 47.279358%, 13.284302%)" offset="0.379647"/><stop stop-opacity="1" stop-color="rgb(94.898987%, 47.167969%, 13.200378%)" offset="0.382813"/><stop stop-opacity="1" stop-color="rgb(94.898987%, 47.05658%, 13.116455%)" offset="0.390625"/><stop stop-opacity="1" stop-color="rgb(94.898987%, 46.835327%, 12.947083%)" offset="0.398438"/><stop stop-opacity="1" stop-color="rgb(94.898987%, 46.614075%, 12.77771%)" offset="0.40625"/><stop stop-opacity="1" stop-color="rgb(94.898987%, 46.391296%, 12.608337%)" offset="0.414062"/><stop stop-opacity="1" stop-color="rgb(94.898987%, 46.170044%, 12.438965%)" offset="0.421875"/><stop stop-opacity="1" stop-color="rgb(94.898987%, 45.948792%, 12.269592%)" offset="0.429688"/><stop stop-opacity="1" stop-color="rgb(94.898987%, 45.726013%, 12.10022%)" offset="0.4375"/><stop stop-opacity="1" stop-color="rgb(94.898987%, 45.504761%, 11.930847%)" offset="0.445313"/><stop stop-opacity="1" stop-color="rgb(94.898987%, 45.283508%, 11.761475%)" offset="0.453125"/><stop stop-opacity="1" stop-color="rgb(94.898987%, 45.062256%, 11.592102%)" offset="0.460938"/><stop stop-opacity="1" stop-color="rgb(94.898987%, 44.839478%, 11.422729%)" offset="0.46875"/><stop stop-opacity="1" stop-color="rgb(94.898987%, 44.618225%, 11.253357%)" offset="0.476563"/><stop stop-opacity="1" stop-color="rgb(94.898987%, 44.396973%, 11.083984%)" offset="0.484375"/><stop stop-opacity="1" stop-color="rgb(94.898987%, 44.174194%, 10.914612%)" offset="0.492188"/><stop stop-opacity="1" stop-color="rgb(94.898987%, 43.952942%, 10.745239%)" offset="0.5"/><stop stop-opacity="1" stop-color="rgb(94.898987%, 43.731689%, 10.575867%)" offset="0.507812"/><stop stop-opacity="1" stop-color="rgb(94.898987%, 43.510437%, 10.406494%)" offset="0.515625"/><stop stop-opacity="1" stop-color="rgb(94.898987%, 43.287659%, 10.237122%)" offset="0.523438"/><stop stop-opacity="1" stop-color="rgb(94.898987%, 43.066406%, 10.067749%)" offset="0.53125"/><stop stop-opacity="1" stop-color="rgb(94.898987%, 42.845154%, 9.899902%)" offset="0.539062"/><stop stop-opacity="1" stop-color="rgb(94.898987%, 42.622375%, 9.73053%)" offset="0.546875"/><stop stop-opacity="1" stop-color="rgb(94.898987%, 42.401123%, 9.561157%)" offset="0.554688"/><stop stop-opacity="1" stop-color="rgb(94.898987%, 42.179871%, 9.391785%)" offset="0.5625"/><stop stop-opacity="1" stop-color="rgb(94.898987%, 41.958618%, 9.222412%)" offset="0.570313"/><stop stop-opacity="1" stop-color="rgb(94.898987%, 41.73584%, 9.05304%)" offset="0.578125"/><stop stop-opacity="1" stop-color="rgb(94.898987%, 41.514587%, 8.883667%)" offset="0.585938"/><stop stop-opacity="1" stop-color="rgb(94.898987%, 41.293335%, 8.714294%)" offset="0.59375"/><stop stop-opacity="1" stop-color="rgb(94.898987%, 41.070557%, 8.544922%)" offset="0.601563"/><stop stop-opacity="1" stop-color="rgb(94.898987%, 40.849304%, 8.375549%)" offset="0.609375"/><stop stop-opacity="1" stop-color="rgb(94.898987%, 40.628052%, 8.206177%)" offset="0.617188"/><stop stop-opacity="1" stop-color="rgb(94.898987%, 40.406799%, 8.036804%)" offset="0.620353"/><stop stop-opacity="1" stop-color="rgb(94.898987%, 40.29541%, 7.952881%)" offset="0.625"/><stop stop-opacity="1" stop-color="rgb(94.898987%, 40.184021%, 7.867432%)" offset="0.632812"/><stop stop-opacity="1" stop-color="rgb(94.898987%, 39.962769%, 7.698059%)" offset="0.640625"/><stop stop-opacity="1" stop-color="rgb(94.898987%, 39.741516%, 7.528687%)" offset="0.648438"/><stop stop-opacity="1" stop-color="rgb(94.898987%, 39.518738%, 7.359314%)" offset="0.65625"/><stop stop-opacity="1" stop-color="rgb(94.898987%, 39.297485%, 7.189941%)" offset="0.664062"/><stop stop-opacity="1" stop-color="rgb(94.898987%, 39.076233%, 7.020569%)" offset="0.671875"/><stop stop-opacity="1" stop-color="rgb(94.898987%, 38.85498%, 6.851196%)" offset="0.679688"/><stop stop-opacity="1" stop-color="rgb(94.898987%, 38.632202%, 6.68335%)" offset="0.6875"/><stop stop-opacity="1" stop-color="rgb(94.898987%, 38.41095%, 6.513977%)" offset="0.695312"/><stop stop-opacity="1" stop-color="rgb(94.898987%, 38.189697%, 6.344604%)" offset="0.703125"/><stop stop-opacity="1" stop-color="rgb(94.898987%, 37.966919%, 6.175232%)" offset="0.710938"/><stop stop-opacity="1" stop-color="rgb(94.898987%, 37.745667%, 6.005859%)" offset="0.71875"/><stop stop-opacity="1" stop-color="rgb(94.898987%, 37.524414%, 5.836487%)" offset="0.726562"/><stop stop-opacity="1" stop-color="rgb(94.898987%, 37.303162%, 5.667114%)" offset="0.734375"/><stop stop-opacity="1" stop-color="rgb(94.898987%, 37.080383%, 5.497742%)" offset="0.742188"/><stop stop-opacity="1" stop-color="rgb(94.898987%, 36.859131%, 5.328369%)" offset="0.75"/><stop stop-opacity="1" stop-color="rgb(94.898987%, 36.637878%, 5.158997%)" offset="0.757812"/><stop stop-opacity="1" stop-color="rgb(94.898987%, 36.4151%, 4.989624%)" offset="0.765625"/><stop stop-opacity="1" stop-color="rgb(94.898987%, 36.193848%, 4.820251%)" offset="0.773438"/><stop stop-opacity="1" stop-color="rgb(94.898987%, 35.972595%, 4.650879%)" offset="0.78125"/><stop stop-opacity="1" stop-color="rgb(94.898987%, 35.751343%, 4.481506%)" offset="0.789062"/><stop stop-opacity="1" stop-color="rgb(94.898987%, 35.528564%, 4.312134%)" offset="0.796875"/><stop stop-opacity="1" stop-color="rgb(94.898987%, 35.307312%, 4.142761%)" offset="0.804688"/><stop stop-opacity="1" stop-color="rgb(94.898987%, 35.08606%, 3.973389%)" offset="0.8125"/><stop stop-opacity="1" stop-color="rgb(94.898987%, 34.863281%, 3.804016%)" offset="0.820312"/><stop stop-opacity="1" stop-color="rgb(94.898987%, 34.642029%, 3.634644%)" offset="0.828125"/><stop stop-opacity="1" stop-color="rgb(94.898987%, 34.420776%, 3.466797%)" offset="0.835938"/><stop stop-opacity="1" stop-color="rgb(94.898987%, 34.199524%, 3.297424%)" offset="0.84375"/><stop stop-opacity="1" stop-color="rgb(94.898987%, 33.976746%, 3.128052%)" offset="0.851562"/><stop stop-opacity="1" stop-color="rgb(94.898987%, 33.755493%, 2.958679%)" offset="0.859375"/><stop stop-opacity="1" stop-color="rgb(94.898987%, 33.534241%, 2.789307%)" offset="0.867188"/><stop stop-opacity="1" stop-color="rgb(94.898987%, 33.311462%, 2.619934%)" offset="0.875"/><stop stop-opacity="1" stop-color="rgb(94.898987%, 33.09021%, 2.450562%)" offset="0.882812"/><stop stop-opacity="1" stop-color="rgb(94.898987%, 32.868958%, 2.281189%)" offset="0.890625"/><stop stop-opacity="1" stop-color="rgb(94.898987%, 32.627869%, 2.098083%)" offset="0.90625"/><stop stop-opacity="1" stop-color="rgb(94.898987%, 32.499695%, 1.998901%)" offset="0.9375"/><stop stop-opacity="1" stop-color="rgb(94.898987%, 32.499695%, 1.998901%)" offset="1"/></linearGradient></defs><g clip-path="url(#3bf3834a69)"><g clip-path="url(#d421849da3)"><path fill="url(#41f5f9de56)" d="M 0.59375 2.46875 L 0.59375 34.296875 L 21.109375 34.296875 L 21.109375 2.46875 Z M 0.59375 2.46875 " fill-rule="nonzero"/></g></g><g clip-path="url(#4e2c6b2fea)"><g clip-path="url(#d8b97cc16f)"><path fill="url(#b77b20437e)" d="M 10.753906 2.46875 L 10.753906 34.296875 L 31.675781 34.296875 L 31.675781 2.46875 Z M 10.753906 2.46875 " fill-rule="nonzero"/></g></g><g fill="#023e8a" fill-opacity="1"><g transform="translate(32.436522, 19.88486)"><g><path d="M 7.90625 -2 L 3.5625 -2 L 2.765625 0 L -0.203125 0 L 4.328125 -10.265625 L 7.1875 -10.265625 L 11.734375 0 L 8.71875 0 Z M 7.0625 -4.140625 L 5.734375 -7.421875 L 4.421875 -4.140625 Z M 7.0625 -4.140625 "/></g></g></g><g fill="#023e8a" fill-opacity="1"><g transform="translate(44.588105, 19.88486)"><g><path d="M 4.640625 0.203125 C 3.804688 0.203125 3 0.101562 2.21875 -0.09375 C 1.4375 -0.300781 0.800781 -0.578125 0.3125 -0.921875 L 1.265625 -3.0625 C 1.722656 -2.757812 2.253906 -2.515625 2.859375 -2.328125 C 3.460938 -2.140625 4.0625 -2.046875 4.65625 -2.046875 C 5.769531 -2.046875 6.328125 -2.328125 6.328125 -2.890625 C 6.328125 -3.179688 6.164062 -3.394531 5.84375 -3.53125 C 5.53125 -3.675781 5.019531 -3.828125 4.3125 -3.984375 C 3.539062 -4.148438 2.894531 -4.328125 2.375 -4.515625 C 1.851562 -4.710938 1.40625 -5.019531 1.03125 -5.4375 C 0.664062 -5.863281 0.484375 -6.429688 0.484375 -7.140625 C 0.484375 -7.765625 0.65625 -8.328125 1 -8.828125 C 1.34375 -9.335938 1.851562 -9.738281 2.53125 -10.03125 C 3.207031 -10.320312 4.039062 -10.46875 5.03125 -10.46875 C 5.707031 -10.46875 6.375 -10.390625 7.03125 -10.234375 C 7.6875 -10.085938 8.265625 -9.867188 8.765625 -9.578125 L 7.859375 -7.421875 C 6.878906 -7.953125 5.929688 -8.21875 5.015625 -8.21875 C 4.441406 -8.21875 4.019531 -8.128906 3.75 -7.953125 C 3.488281 -7.785156 3.359375 -7.566406 3.359375 -7.296875 C 3.359375 -7.015625 3.515625 -6.804688 3.828125 -6.671875 C 4.140625 -6.535156 4.644531 -6.394531 5.34375 -6.25 C 6.125 -6.082031 6.769531 -5.898438 7.28125 -5.703125 C 7.800781 -5.515625 8.25 -5.210938 8.625 -4.796875 C 9 -4.390625 9.1875 -3.828125 9.1875 -3.109375 C 9.1875 -2.492188 9.015625 -1.9375 8.671875 -1.4375 C 8.328125 -0.9375 7.8125 -0.535156 7.125 -0.234375 C 6.445312 0.0546875 5.617188 0.203125 4.640625 0.203125 Z M 4.640625 0.203125 "/></g></g></g><g fill="#023e8a" fill-opacity="1"><g transform="translate(54.69981, 19.88486)"><g><path d="M 4.640625 0.203125 C 3.804688 0.203125 3 0.101562 2.21875 -0.09375 C 1.4375 -0.300781 0.800781 -0.578125 0.3125 -0.921875 L 1.265625 -3.0625 C 1.722656 -2.757812 2.253906 -2.515625 2.859375 -2.328125 C 3.460938 -2.140625 4.0625 -2.046875 4.65625 -2.046875 C 5.769531 -2.046875 6.328125 -2.328125 6.328125 -2.890625 C 6.328125 -3.179688 6.164062 -3.394531 5.84375 -3.53125 C 5.53125 -3.675781 5.019531 -3.828125 4.3125 -3.984375 C 3.539062 -4.148438 2.894531 -4.328125 2.375 -4.515625 C 1.851562 -4.710938 1.40625 -5.019531 1.03125 -5.4375 C 0.664062 -5.863281 0.484375 -6.429688 0.484375 -7.140625 C 0.484375 -7.765625 0.65625 -8.328125 1 -8.828125 C 1.34375 -9.335938 1.851562 -9.738281 2.53125 -10.03125 C 3.207031 -10.320312 4.039062 -10.46875 5.03125 -10.46875 C 5.707031 -10.46875 6.375 -10.390625 7.03125 -10.234375 C 7.6875 -10.085938 8.265625 -9.867188 8.765625 -9.578125 L 7.859375 -7.421875 C 6.878906 -7.953125 5.929688 -8.21875 5.015625 -8.21875 C 4.441406 -8.21875 4.019531 -8.128906 3.75 -7.953125 C 3.488281 -7.785156 3.359375 -7.566406 3.359375 -7.296875 C 3.359375 -7.015625 3.515625 -6.804688 3.828125 -6.671875 C 4.140625 -6.535156 4.644531 -6.394531 5.34375 -6.25 C 6.125 -6.082031 6.769531 -5.898438 7.28125 -5.703125 C 7.800781 -5.515625 8.25 -5.210938 8.625 -4.796875 C 9 -4.390625 9.1875 -3.828125 9.1875 -3.109375 C 9.1875 -2.492188 9.015625 -1.9375 8.671875 -1.4375 C 8.328125 -0.9375 7.8125 -0.535156 7.125 -0.234375 C 6.445312 0.0546875 5.617188 0.203125 4.640625 0.203125 Z M 4.640625 0.203125 "/></g></g></g><g fill="#023e8a" fill-opacity="1"><g transform="translate(64.811514, 19.88486)"><g><path d="M 5.765625 0.203125 C 4.242188 0.203125 3.054688 -0.207031 2.203125 -1.03125 C 1.359375 -1.863281 0.9375 -3.046875 0.9375 -4.578125 L 0.9375 -10.265625 L 3.84375 -10.265625 L 3.84375 -4.671875 C 3.84375 -3.023438 4.492188 -2.203125 5.796875 -2.203125 C 7.085938 -2.203125 7.734375 -3.023438 7.734375 -4.671875 L 7.734375 -10.265625 L 10.59375 -10.265625 L 10.59375 -4.578125 C 10.59375 -3.046875 10.171875 -1.863281 9.328125 -1.03125 C 8.484375 -0.207031 7.296875 0.203125 5.765625 0.203125 Z M 5.765625 0.203125 "/></g></g></g><g fill="#f25305" fill-opacity="1"><g transform="translate(76.971625, 19.88486)"><g><path d="M 3.9375 -8.03125 L 3.9375 -5.765625 L 8.46875 -5.765625 L 8.46875 -3.515625 L 3.9375 -3.515625 L 3.9375 0 L 1.03125 0 L 1.03125 -10.265625 L 9.078125 -10.265625 L 9.078125 -8.03125 Z M 3.9375 -8.03125 "/></g></g></g><g fill="#f25305" fill-opacity="1"><g transform="translate(87.009956, 19.88486)"><g><path d="M 1.03125 -10.265625 L 3.9375 -10.265625 L 3.9375 -2.296875 L 8.828125 -2.296875 L 8.828125 0 L 1.03125 0 Z M 1.03125 -10.265625 "/></g></g></g><g fill="#f25305" fill-opacity="1"><g transform="translate(96.578669, 19.88486)"><g><path d="M 9.265625 -2.25 L 9.265625 0 L 1.03125 0 L 1.03125 -10.265625 L 9.078125 -10.265625 L 9.078125 -8.03125 L 3.90625 -8.03125 L 3.90625 -6.296875 L 8.46875 -6.296875 L 8.46875 -4.125 L 3.90625 -4.125 L 3.90625 -2.25 Z M 9.265625 -2.25 "/></g></g></g><g fill="#f25305" fill-opacity="1"><g transform="translate(107.057267, 19.88486)"><g><path d="M 7.515625 0 L 5.390625 -3.1875 L 3.28125 0 L -0.03125 0 L 3.71875 -5.1875 L 0.125 -10.265625 L 3.40625 -10.265625 L 5.453125 -7.3125 L 7.484375 -10.265625 L 10.625 -10.265625 L 7.046875 -5.3125 L 10.859375 0 Z M 7.515625 0 "/></g></g></g><g fill="#023e8a" fill-opacity="1"><g transform="translate(32.618494, 29.833478)"><g><path d="M 1.703125 0.046875 C 1.410156 0.046875 1.128906 0 0.859375 -0.09375 C 0.585938 -0.1875 0.378906 -0.300781 0.234375 -0.4375 L 0.4375 -0.875 C 0.582031 -0.738281 0.769531 -0.628906 1 -0.546875 C 1.226562 -0.460938 1.460938 -0.421875 1.703125 -0.421875 C 2.023438 -0.421875 2.265625 -0.472656 2.421875 -0.578125 C 2.585938 -0.691406 2.671875 -0.835938 2.671875 -1.015625 C 2.671875 -1.148438 2.625 -1.257812 2.53125 -1.34375 C 2.445312 -1.425781 2.34375 -1.488281 2.21875 -1.53125 C 2.09375 -1.582031 1.910156 -1.632812 1.671875 -1.6875 C 1.378906 -1.757812 1.144531 -1.828125 0.96875 -1.890625 C 0.789062 -1.960938 0.640625 -2.070312 0.515625 -2.21875 C 0.390625 -2.363281 0.328125 -2.5625 0.328125 -2.8125 C 0.328125 -3.019531 0.378906 -3.207031 0.484375 -3.375 C 0.585938 -3.539062 0.75 -3.671875 0.96875 -3.765625 C 1.195312 -3.867188 1.472656 -3.921875 1.796875 -3.921875 C 2.023438 -3.921875 2.25 -3.890625 2.46875 -3.828125 C 2.695312 -3.765625 2.890625 -3.679688 3.046875 -3.578125 L 2.859375 -3.125 C 2.703125 -3.226562 2.53125 -3.304688 2.34375 -3.359375 C 2.15625 -3.421875 1.972656 -3.453125 1.796875 -3.453125 C 1.484375 -3.453125 1.25 -3.394531 1.09375 -3.28125 C 0.9375 -3.164062 0.859375 -3.015625 0.859375 -2.828125 C 0.859375 -2.703125 0.898438 -2.597656 0.984375 -2.515625 C 1.078125 -2.429688 1.1875 -2.363281 1.3125 -2.3125 C 1.445312 -2.269531 1.628906 -2.222656 1.859375 -2.171875 C 2.148438 -2.097656 2.382812 -2.023438 2.5625 -1.953125 C 2.738281 -1.890625 2.890625 -1.785156 3.015625 -1.640625 C 3.140625 -1.492188 3.203125 -1.300781 3.203125 -1.0625 C 3.203125 -0.851562 3.144531 -0.664062 3.03125 -0.5 C 2.925781 -0.332031 2.757812 -0.195312 2.53125 -0.09375 C 2.3125 0 2.035156 0.046875 1.703125 0.046875 Z M 1.703125 0.046875 "/></g></g></g><g fill="#023e8a" fill-opacity="1"><g transform="translate(35.96193, 29.833478)"><g><path d="M 1.578125 -2.953125 C 1.972656 -2.953125 2.28125 -2.851562 2.5 -2.65625 C 2.71875 -2.457031 2.828125 -2.160156 2.828125 -1.765625 L 2.828125 0 L 2.328125 0 L 2.328125 -0.390625 C 2.234375 -0.253906 2.101562 -0.148438 1.9375 -0.078125 C 1.78125 -0.00390625 1.585938 0.03125 1.359375 0.03125 C 1.035156 0.03125 0.773438 -0.046875 0.578125 -0.203125 C 0.378906 -0.359375 0.28125 -0.566406 0.28125 -0.828125 C 0.28125 -1.085938 0.375 -1.296875 0.5625 -1.453125 C 0.75 -1.609375 1.046875 -1.6875 1.453125 -1.6875 L 2.296875 -1.6875 L 2.296875 -1.796875 C 2.296875 -2.023438 2.226562 -2.195312 2.09375 -2.3125 C 1.957031 -2.4375 1.765625 -2.5 1.515625 -2.5 C 1.335938 -2.5 1.164062 -2.46875 1 -2.40625 C 0.832031 -2.351562 0.691406 -2.28125 0.578125 -2.1875 L 0.359375 -2.578125 C 0.515625 -2.703125 0.695312 -2.796875 0.90625 -2.859375 C 1.113281 -2.921875 1.335938 -2.953125 1.578125 -2.953125 Z M 1.453125 -0.375 C 1.648438 -0.375 1.820312 -0.414062 1.96875 -0.5 C 2.125 -0.59375 2.234375 -0.722656 2.296875 -0.890625 L 2.296875 -1.3125 L 1.484375 -1.3125 C 1.023438 -1.3125 0.796875 -1.160156 0.796875 -0.859375 C 0.796875 -0.703125 0.851562 -0.582031 0.96875 -0.5 C 1.082031 -0.414062 1.242188 -0.375 1.453125 -0.375 Z M 1.453125 -0.375 "/></g></g></g><g fill="#023e8a" fill-opacity="1"><g transform="translate(39.178261, 29.833478)"><g><path d="M 2.0625 -2.953125 C 2.4375 -2.953125 2.734375 -2.84375 2.953125 -2.625 C 3.171875 -2.414062 3.28125 -2.101562 3.28125 -1.6875 L 3.28125 0 L 2.75 0 L 2.75 -1.625 C 2.75 -1.90625 2.679688 -2.117188 2.546875 -2.265625 C 2.410156 -2.410156 2.21875 -2.484375 1.96875 -2.484375 C 1.675781 -2.484375 1.445312 -2.398438 1.28125 -2.234375 C 1.113281 -2.066406 1.03125 -1.828125 1.03125 -1.515625 L 1.03125 0 L 0.5 0 L 0.5 -2.9375 L 1.015625 -2.9375 L 1.015625 -2.484375 C 1.117188 -2.640625 1.257812 -2.753906 1.4375 -2.828125 C 1.625 -2.910156 1.832031 -2.953125 2.0625 -2.953125 Z M 2.0625 -2.953125 "/></g></g></g><g fill="#023e8a" fill-opacity="1"><g transform="translate(42.853276, 29.833478)"><g><path d="M 2.15625 -0.171875 C 2.070312 -0.109375 1.972656 -0.0546875 1.859375 -0.015625 C 1.742188 0.015625 1.628906 0.03125 1.515625 0.03125 C 1.210938 0.03125 0.976562 -0.046875 0.8125 -0.203125 C 0.65625 -0.359375 0.578125 -0.585938 0.578125 -0.890625 L 0.578125 -2.5 L 0.078125 -2.5 L 0.078125 -2.9375 L 0.578125 -2.9375 L 0.578125 -3.578125 L 1.109375 -3.578125 L 1.109375 -2.9375 L 1.953125 -2.9375 L 1.953125 -2.5 L 1.109375 -2.5 L 1.109375 -0.90625 C 1.109375 -0.75 1.144531 -0.628906 1.21875 -0.546875 C 1.300781 -0.460938 1.421875 -0.421875 1.578125 -0.421875 C 1.734375 -0.421875 1.867188 -0.460938 1.984375 -0.546875 Z M 2.15625 -0.171875 "/></g></g></g><g fill="#023e8a" fill-opacity="1"><g transform="translate(44.953283, 29.833478)"><g><path d="M 3.15625 -1.453125 C 3.15625 -1.410156 3.148438 -1.351562 3.140625 -1.28125 L 0.765625 -1.28125 C 0.796875 -1.03125 0.90625 -0.828125 1.09375 -0.671875 C 1.289062 -0.515625 1.535156 -0.4375 1.828125 -0.4375 C 2.171875 -0.4375 2.453125 -0.550781 2.671875 -0.78125 L 2.96875 -0.4375 C 2.832031 -0.28125 2.664062 -0.160156 2.46875 -0.078125 C 2.269531 -0.00390625 2.050781 0.03125 1.8125 0.03125 C 1.5 0.03125 1.222656 -0.03125 0.984375 -0.15625 C 0.742188 -0.28125 0.554688 -0.457031 0.421875 -0.6875 C 0.296875 -0.914062 0.234375 -1.175781 0.234375 -1.46875 C 0.234375 -1.75 0.296875 -2.003906 0.421875 -2.234375 C 0.546875 -2.460938 0.71875 -2.640625 0.9375 -2.765625 C 1.164062 -2.890625 1.421875 -2.953125 1.703125 -2.953125 C 1.984375 -2.953125 2.234375 -2.890625 2.453125 -2.765625 C 2.671875 -2.640625 2.84375 -2.460938 2.96875 -2.234375 C 3.09375 -2.003906 3.15625 -1.742188 3.15625 -1.453125 Z M 1.703125 -2.515625 C 1.453125 -2.515625 1.238281 -2.4375 1.0625 -2.28125 C 0.894531 -2.125 0.796875 -1.921875 0.765625 -1.671875 L 2.640625 -1.671875 C 2.609375 -1.921875 2.503906 -2.125 2.328125 -2.28125 C 2.160156 -2.4375 1.953125 -2.515625 1.703125 -2.515625 Z M 2.03125 -4.078125 L 2.71875 -4.078125 L 1.78125 -3.359375 L 1.28125 -3.359375 Z M 2.03125 -4.078125 "/></g></g></g><g fill="#023e8a" fill-opacity="1"><g transform="translate(48.246983, 29.833478)"><g/></g></g><g fill="#023e8a" fill-opacity="1"><g transform="translate(49.645148, 29.833478)"><g><path d="M 3.40625 0.0625 L 2.890625 -0.453125 C 2.554688 -0.117188 2.128906 0.046875 1.609375 0.046875 C 1.347656 0.046875 1.113281 0.00390625 0.90625 -0.078125 C 0.695312 -0.160156 0.535156 -0.28125 0.421875 -0.4375 C 0.304688 -0.59375 0.25 -0.769531 0.25 -0.96875 C 0.25 -1.195312 0.320312 -1.398438 0.46875 -1.578125 C 0.613281 -1.765625 0.851562 -1.957031 1.1875 -2.15625 C 1.019531 -2.320312 0.898438 -2.472656 0.828125 -2.609375 C 0.753906 -2.742188 0.71875 -2.882812 0.71875 -3.03125 C 0.71875 -3.289062 0.8125 -3.5 1 -3.65625 C 1.195312 -3.820312 1.453125 -3.90625 1.765625 -3.90625 C 2.066406 -3.90625 2.300781 -3.832031 2.46875 -3.6875 C 2.644531 -3.539062 2.734375 -3.34375 2.734375 -3.09375 C 2.734375 -2.894531 2.664062 -2.71875 2.53125 -2.5625 C 2.40625 -2.414062 2.195312 -2.253906 1.90625 -2.078125 L 2.859375 -1.140625 C 2.972656 -1.347656 3.054688 -1.582031 3.109375 -1.84375 L 3.53125 -1.703125 C 3.457031 -1.359375 3.34375 -1.0625 3.1875 -0.8125 L 3.71875 -0.296875 Z M 1.765625 -3.515625 C 1.597656 -3.515625 1.460938 -3.472656 1.359375 -3.390625 C 1.265625 -3.304688 1.21875 -3.191406 1.21875 -3.046875 C 1.21875 -2.941406 1.242188 -2.84375 1.296875 -2.75 C 1.347656 -2.664062 1.453125 -2.546875 1.609375 -2.390625 C 1.859375 -2.523438 2.03125 -2.644531 2.125 -2.75 C 2.226562 -2.851562 2.28125 -2.96875 2.28125 -3.09375 C 2.28125 -3.21875 2.234375 -3.316406 2.140625 -3.390625 C 2.054688 -3.472656 1.929688 -3.515625 1.765625 -3.515625 Z M 1.640625 -0.390625 C 2.023438 -0.390625 2.335938 -0.515625 2.578125 -0.765625 L 1.484375 -1.859375 C 1.210938 -1.710938 1.023438 -1.570312 0.921875 -1.4375 C 0.816406 -1.3125 0.765625 -1.171875 0.765625 -1.015625 C 0.765625 -0.828125 0.84375 -0.675781 1 -0.5625 C 1.164062 -0.445312 1.378906 -0.390625 1.640625 -0.390625 Z M 1.640625 -0.390625 "/></g></g></g><g fill="#023e8a" fill-opacity="1"><g transform="translate(53.347793, 29.833478)"><g/></g></g><g fill="#023e8a" fill-opacity="1"><g transform="translate(54.745958, 29.833478)"><g><path d="M 2.0625 -2.953125 C 2.34375 -2.953125 2.59375 -2.890625 2.8125 -2.765625 C 3.039062 -2.640625 3.21875 -2.460938 3.34375 -2.234375 C 3.476562 -2.015625 3.546875 -1.757812 3.546875 -1.46875 C 3.546875 -1.164062 3.476562 -0.898438 3.34375 -0.671875 C 3.21875 -0.453125 3.039062 -0.28125 2.8125 -0.15625 C 2.59375 -0.03125 2.34375 0.03125 2.0625 0.03125 C 1.851562 0.03125 1.660156 -0.00390625 1.484375 -0.078125 C 1.304688 -0.160156 1.15625 -0.28125 1.03125 -0.4375 L 1.03125 1.078125 L 0.5 1.078125 L 0.5 -2.9375 L 1.015625 -2.9375 L 1.015625 -2.46875 C 1.128906 -2.625 1.273438 -2.742188 1.453125 -2.828125 C 1.640625 -2.910156 1.84375 -2.953125 2.0625 -2.953125 Z M 2.015625 -0.4375 C 2.203125 -0.4375 2.367188 -0.476562 2.515625 -0.5625 C 2.671875 -0.644531 2.789062 -0.765625 2.875 -0.921875 C 2.957031 -1.078125 3 -1.257812 3 -1.46875 C 3 -1.664062 2.957031 -1.84375 2.875 -2 C 2.789062 -2.15625 2.671875 -2.273438 2.515625 -2.359375 C 2.367188 -2.453125 2.203125 -2.5 2.015625 -2.5 C 1.828125 -2.5 1.65625 -2.453125 1.5 -2.359375 C 1.351562 -2.273438 1.238281 -2.15625 1.15625 -2 C 1.070312 -1.84375 1.03125 -1.664062 1.03125 -1.46875 C 1.03125 -1.257812 1.070312 -1.078125 1.15625 -0.921875 C 1.238281 -0.765625 1.351562 -0.644531 1.5 -0.5625 C 1.65625 -0.476562 1.828125 -0.4375 2.015625 -0.4375 Z M 2.015625 -0.4375 "/></g></g></g><g fill="#023e8a" fill-opacity="1"><g transform="translate(58.426496, 29.833478)"><g><path d="M 1.015625 -2.4375 C 1.109375 -2.601562 1.242188 -2.726562 1.421875 -2.8125 C 1.597656 -2.90625 1.816406 -2.953125 2.078125 -2.953125 L 2.078125 -2.4375 C 2.046875 -2.445312 2.003906 -2.453125 1.953125 -2.453125 C 1.671875 -2.453125 1.445312 -2.363281 1.28125 -2.1875 C 1.113281 -2.019531 1.03125 -1.773438 1.03125 -1.453125 L 1.03125 0 L 0.5 0 L 0.5 -2.9375 L 1.015625 -2.9375 Z M 1.015625 -2.4375 "/></g></g></g><g fill="#023e8a" fill-opacity="1"><g transform="translate(60.537556, 29.833478)"><g><path d="M 3.15625 -1.453125 C 3.15625 -1.410156 3.148438 -1.351562 3.140625 -1.28125 L 0.765625 -1.28125 C 0.796875 -1.03125 0.90625 -0.828125 1.09375 -0.671875 C 1.289062 -0.515625 1.535156 -0.4375 1.828125 -0.4375 C 2.171875 -0.4375 2.453125 -0.550781 2.671875 -0.78125 L 2.96875 -0.4375 C 2.832031 -0.28125 2.664062 -0.160156 2.46875 -0.078125 C 2.269531 -0.00390625 2.050781 0.03125 1.8125 0.03125 C 1.5 0.03125 1.222656 -0.03125 0.984375 -0.15625 C 0.742188 -0.28125 0.554688 -0.457031 0.421875 -0.6875 C 0.296875 -0.914062 0.234375 -1.175781 0.234375 -1.46875 C 0.234375 -1.75 0.296875 -2.003906 0.421875 -2.234375 C 0.546875 -2.460938 0.71875 -2.640625 0.9375 -2.765625 C 1.164062 -2.890625 1.421875 -2.953125 1.703125 -2.953125 C 1.984375 -2.953125 2.234375 -2.890625 2.453125 -2.765625 C 2.671875 -2.640625 2.84375 -2.460938 2.96875 -2.234375 C 3.09375 -2.003906 3.15625 -1.742188 3.15625 -1.453125 Z M 1.703125 -2.515625 C 1.453125 -2.515625 1.238281 -2.4375 1.0625 -2.28125 C 0.894531 -2.125 0.796875 -1.921875 0.765625 -1.671875 L 2.640625 -1.671875 C 2.609375 -1.921875 2.503906 -2.125 2.328125 -2.28125 C 2.160156 -2.4375 1.953125 -2.515625 1.703125 -2.515625 Z M 2.03125 -4.078125 L 2.71875 -4.078125 L 1.78125 -3.359375 L 1.28125 -3.359375 Z M 2.03125 -4.078125 "/></g></g></g><g fill="#023e8a" fill-opacity="1"><g transform="translate(63.775993, 29.833478)"><g><path d="M 3.09375 -2.9375 L 1.8125 0 L 1.265625 0 L -0.015625 -2.9375 L 0.546875 -2.9375 L 1.546875 -0.578125 L 2.578125 -2.9375 Z M 3.09375 -2.9375 "/></g></g></g><g fill="#023e8a" fill-opacity="1"><g transform="translate(66.693906, 29.833478)"><g><path d="M 1.765625 0.03125 C 1.472656 0.03125 1.207031 -0.03125 0.96875 -0.15625 C 0.738281 -0.289062 0.554688 -0.46875 0.421875 -0.6875 C 0.296875 -0.914062 0.234375 -1.175781 0.234375 -1.46875 C 0.234375 -1.75 0.296875 -2.003906 0.421875 -2.234375 C 0.554688 -2.460938 0.738281 -2.640625 0.96875 -2.765625 C 1.207031 -2.890625 1.472656 -2.953125 1.765625 -2.953125 C 2.054688 -2.953125 2.316406 -2.890625 2.546875 -2.765625 C 2.773438 -2.640625 2.953125 -2.460938 3.078125 -2.234375 C 3.210938 -2.003906 3.28125 -1.75 3.28125 -1.46875 C 3.28125 -1.175781 3.210938 -0.914062 3.078125 -0.6875 C 2.953125 -0.46875 2.773438 -0.289062 2.546875 -0.15625 C 2.316406 -0.03125 2.054688 0.03125 1.765625 0.03125 Z M 1.765625 -0.4375 C 1.953125 -0.4375 2.117188 -0.476562 2.265625 -0.5625 C 2.410156 -0.644531 2.523438 -0.765625 2.609375 -0.921875 C 2.703125 -1.078125 2.75 -1.257812 2.75 -1.46875 C 2.75 -1.664062 2.703125 -1.84375 2.609375 -2 C 2.523438 -2.15625 2.410156 -2.273438 2.265625 -2.359375 C 2.117188 -2.453125 1.953125 -2.5 1.765625 -2.5 C 1.578125 -2.5 1.40625 -2.453125 1.25 -2.359375 C 1.101562 -2.273438 0.984375 -2.15625 0.890625 -2 C 0.804688 -1.84375 0.765625 -1.664062 0.765625 -1.46875 C 0.765625 -1.257812 0.804688 -1.078125 0.890625 -0.921875 C 0.984375 -0.765625 1.101562 -0.644531 1.25 -0.5625 C 1.40625 -0.476562 1.578125 -0.4375 1.765625 -0.4375 Z M 1.765625 -0.4375 "/></g></g></g><g fill="#023e8a" fill-opacity="1"><g transform="translate(70.031819, 29.833478)"><g><path d="M 3.09375 -2.9375 L 1.671875 0.296875 C 1.546875 0.585938 1.398438 0.796875 1.234375 0.921875 C 1.066406 1.046875 0.863281 1.109375 0.625 1.109375 C 0.488281 1.109375 0.351562 1.082031 0.21875 1.03125 C 0.0820312 0.988281 -0.03125 0.921875 -0.125 0.828125 L 0.109375 0.4375 C 0.253906 0.582031 0.425781 0.65625 0.625 0.65625 C 0.757812 0.65625 0.867188 0.617188 0.953125 0.546875 C 1.035156 0.484375 1.113281 0.367188 1.1875 0.203125 L 1.28125 0 L -0.015625 -2.9375 L 0.546875 -2.9375 L 1.5625 -0.59375 L 2.578125 -2.9375 Z M 3.09375 -2.9375 "/></g></g></g><g fill="#023e8a" fill-opacity="1"><g transform="translate(72.938678, 29.833478)"><g><path d="M 1.578125 -2.953125 C 1.972656 -2.953125 2.28125 -2.851562 2.5 -2.65625 C 2.71875 -2.457031 2.828125 -2.160156 2.828125 -1.765625 L 2.828125 0 L 2.328125 0 L 2.328125 -0.390625 C 2.234375 -0.253906 2.101562 -0.148438 1.9375 -0.078125 C 1.78125 -0.00390625 1.585938 0.03125 1.359375 0.03125 C 1.035156 0.03125 0.773438 -0.046875 0.578125 -0.203125 C 0.378906 -0.359375 0.28125 -0.566406 0.28125 -0.828125 C 0.28125 -1.085938 0.375 -1.296875 0.5625 -1.453125 C 0.75 -1.609375 1.046875 -1.6875 1.453125 -1.6875 L 2.296875 -1.6875 L 2.296875 -1.796875 C 2.296875 -2.023438 2.226562 -2.195312 2.09375 -2.3125 C 1.957031 -2.4375 1.765625 -2.5 1.515625 -2.5 C 1.335938 -2.5 1.164062 -2.46875 1 -2.40625 C 0.832031 -2.351562 0.691406 -2.28125 0.578125 -2.1875 L 0.359375 -2.578125 C 0.515625 -2.703125 0.695312 -2.796875 0.90625 -2.859375 C 1.113281 -2.921875 1.335938 -2.953125 1.578125 -2.953125 Z M 1.453125 -0.375 C 1.648438 -0.375 1.820312 -0.414062 1.96875 -0.5 C 2.125 -0.59375 2.234375 -0.722656 2.296875 -0.890625 L 2.296875 -1.3125 L 1.484375 -1.3125 C 1.023438 -1.3125 0.796875 -1.160156 0.796875 -0.859375 C 0.796875 -0.703125 0.851562 -0.582031 0.96875 -0.5 C 1.082031 -0.414062 1.242188 -0.375 1.453125 -0.375 Z M 1.453125 -0.375 "/></g></g></g><g fill="#023e8a" fill-opacity="1"><g transform="translate(76.155009, 29.833478)"><g><path d="M 2.0625 -2.953125 C 2.4375 -2.953125 2.734375 -2.84375 2.953125 -2.625 C 3.171875 -2.414062 3.28125 -2.101562 3.28125 -1.6875 L 3.28125 0 L 2.75 0 L 2.75 -1.625 C 2.75 -1.90625 2.679688 -2.117188 2.546875 -2.265625 C 2.410156 -2.410156 2.21875 -2.484375 1.96875 -2.484375 C 1.675781 -2.484375 1.445312 -2.398438 1.28125 -2.234375 C 1.113281 -2.066406 1.03125 -1.828125 1.03125 -1.515625 L 1.03125 0 L 0.5 0 L 0.5 -2.9375 L 1.015625 -2.9375 L 1.015625 -2.484375 C 1.117188 -2.640625 1.257812 -2.753906 1.4375 -2.828125 C 1.625 -2.910156 1.832031 -2.953125 2.0625 -2.953125 Z M 2.0625 -2.953125 "/></g></g></g><g fill="#023e8a" fill-opacity="1"><g transform="translate(79.8466, 29.833478)"><g><path d="M 1.78125 0.03125 C 1.476562 0.03125 1.207031 -0.03125 0.96875 -0.15625 C 0.738281 -0.289062 0.554688 -0.46875 0.421875 -0.6875 C 0.296875 -0.914062 0.234375 -1.175781 0.234375 -1.46875 C 0.234375 -1.75 0.296875 -2.003906 0.421875 -2.234375 C 0.554688 -2.460938 0.738281 -2.640625 0.96875 -2.765625 C 1.207031 -2.890625 1.476562 -2.953125 1.78125 -2.953125 C 2.039062 -2.953125 2.273438 -2.898438 2.484375 -2.796875 C 2.691406 -2.691406 2.851562 -2.535156 2.96875 -2.328125 L 2.578125 -2.078125 C 2.484375 -2.210938 2.367188 -2.316406 2.234375 -2.390625 C 2.097656 -2.460938 1.945312 -2.5 1.78125 -2.5 C 1.582031 -2.5 1.40625 -2.453125 1.25 -2.359375 C 1.101562 -2.273438 0.984375 -2.15625 0.890625 -2 C 0.804688 -1.84375 0.765625 -1.664062 0.765625 -1.46875 C 0.765625 -1.257812 0.804688 -1.078125 0.890625 -0.921875 C 0.984375 -0.765625 1.101562 -0.644531 1.25 -0.5625 C 1.40625 -0.476562 1.582031 -0.4375 1.78125 -0.4375 C 1.945312 -0.4375 2.097656 -0.46875 2.234375 -0.53125 C 2.367188 -0.601562 2.484375 -0.710938 2.578125 -0.859375 L 2.96875 -0.59375 C 2.851562 -0.394531 2.691406 -0.238281 2.484375 -0.125 C 2.273438 -0.0195312 2.039062 0.03125 1.78125 0.03125 Z M 1.78125 0.03125 "/></g></g></g><g fill="#023e8a" fill-opacity="1"><g transform="translate(82.869511, 29.833478)"><g><path d="M 3.15625 -1.453125 C 3.15625 -1.410156 3.148438 -1.351562 3.140625 -1.28125 L 0.765625 -1.28125 C 0.796875 -1.03125 0.90625 -0.828125 1.09375 -0.671875 C 1.289062 -0.515625 1.535156 -0.4375 1.828125 -0.4375 C 2.171875 -0.4375 2.453125 -0.550781 2.671875 -0.78125 L 2.96875 -0.4375 C 2.832031 -0.28125 2.664062 -0.160156 2.46875 -0.078125 C 2.269531 -0.00390625 2.050781 0.03125 1.8125 0.03125 C 1.5 0.03125 1.222656 -0.03125 0.984375 -0.15625 C 0.742188 -0.28125 0.554688 -0.457031 0.421875 -0.6875 C 0.296875 -0.914062 0.234375 -1.175781 0.234375 -1.46875 C 0.234375 -1.75 0.296875 -2.003906 0.421875 -2.234375 C 0.546875 -2.460938 0.71875 -2.640625 0.9375 -2.765625 C 1.164062 -2.890625 1.421875 -2.953125 1.703125 -2.953125 C 1.984375 -2.953125 2.234375 -2.890625 2.453125 -2.765625 C 2.671875 -2.640625 2.84375 -2.460938 2.96875 -2.234375 C 3.09375 -2.003906 3.15625 -1.742188 3.15625 -1.453125 Z M 1.703125 -2.515625 C 1.453125 -2.515625 1.238281 -2.4375 1.0625 -2.28125 C 0.894531 -2.125 0.796875 -1.921875 0.765625 -1.671875 L 2.640625 -1.671875 C 2.609375 -1.921875 2.503906 -2.125 2.328125 -2.28125 C 2.160156 -2.4375 1.953125 -2.515625 1.703125 -2.515625 Z M 1.703125 -2.515625 "/></g></g></g><g fill="#023e8a" fill-opacity="1"><g transform="translate(86.163209, 29.833478)"><g/></g></g><g fill="#023e8a" fill-opacity="1"><g transform="translate(87.561375, 29.833478)"><g><path d="M 3.265625 -4.109375 L 3.265625 0 L 2.765625 0 L 2.765625 -0.46875 C 2.640625 -0.300781 2.488281 -0.175781 2.3125 -0.09375 C 2.132812 -0.0078125 1.9375 0.03125 1.71875 0.03125 C 1.425781 0.03125 1.164062 -0.03125 0.9375 -0.15625 C 0.71875 -0.28125 0.546875 -0.453125 0.421875 -0.671875 C 0.296875 -0.898438 0.234375 -1.164062 0.234375 -1.46875 C 0.234375 -1.757812 0.296875 -2.015625 0.421875 -2.234375 C 0.546875 -2.460938 0.71875 -2.640625 0.9375 -2.765625 C 1.164062 -2.890625 1.425781 -2.953125 1.71875 -2.953125 C 1.925781 -2.953125 2.117188 -2.910156 2.296875 -2.828125 C 2.472656 -2.753906 2.617188 -2.640625 2.734375 -2.484375 L 2.734375 -4.109375 Z M 1.765625 -0.4375 C 1.941406 -0.4375 2.101562 -0.476562 2.25 -0.5625 C 2.40625 -0.644531 2.523438 -0.765625 2.609375 -0.921875 C 2.703125 -1.078125 2.75 -1.257812 2.75 -1.46875 C 2.75 -1.664062 2.703125 -1.84375 2.609375 -2 C 2.523438 -2.15625 2.40625 -2.273438 2.25 -2.359375 C 2.101562 -2.453125 1.941406 -2.5 1.765625 -2.5 C 1.578125 -2.5 1.40625 -2.453125 1.25 -2.359375 C 1.101562 -2.273438 0.984375 -2.15625 0.890625 -2 C 0.804688 -1.84375 0.765625 -1.664062 0.765625 -1.46875 C 0.765625 -1.257812 0.804688 -1.078125 0.890625 -0.921875 C 0.984375 -0.765625 1.101562 -0.644531 1.25 -0.5625 C 1.40625 -0.476562 1.578125 -0.4375 1.765625 -0.4375 Z M 1.765625 -0.4375 "/></g></g></g><g fill="#023e8a" fill-opacity="1"><g transform="translate(91.241912, 29.833478)"><g><path d="M 0.640625 -4.140625 C 0.742188 -4.140625 0.828125 -4.101562 0.890625 -4.03125 C 0.960938 -3.957031 1 -3.867188 1 -3.765625 C 1 -3.703125 0.992188 -3.644531 0.984375 -3.59375 C 0.972656 -3.539062 0.945312 -3.46875 0.90625 -3.375 L 0.640625 -2.59375 L 0.296875 -2.59375 L 0.5 -3.421875 C 0.425781 -3.441406 0.367188 -3.484375 0.328125 -3.546875 C 0.285156 -3.609375 0.265625 -3.679688 0.265625 -3.765625 C 0.265625 -3.867188 0.296875 -3.957031 0.359375 -4.03125 C 0.429688 -4.101562 0.523438 -4.140625 0.640625 -4.140625 Z M 0.640625 -4.140625 "/></g></g></g><g fill="#023e8a" fill-opacity="1"><g transform="translate(92.258758, 29.833478)"><g><path d="M 3.15625 -1.453125 C 3.15625 -1.410156 3.148438 -1.351562 3.140625 -1.28125 L 0.765625 -1.28125 C 0.796875 -1.03125 0.90625 -0.828125 1.09375 -0.671875 C 1.289062 -0.515625 1.535156 -0.4375 1.828125 -0.4375 C 2.171875 -0.4375 2.453125 -0.550781 2.671875 -0.78125 L 2.96875 -0.4375 C 2.832031 -0.28125 2.664062 -0.160156 2.46875 -0.078125 C 2.269531 -0.00390625 2.050781 0.03125 1.8125 0.03125 C 1.5 0.03125 1.222656 -0.03125 0.984375 -0.15625 C 0.742188 -0.28125 0.554688 -0.457031 0.421875 -0.6875 C 0.296875 -0.914062 0.234375 -1.175781 0.234375 -1.46875 C 0.234375 -1.75 0.296875 -2.003906 0.421875 -2.234375 C 0.546875 -2.460938 0.71875 -2.640625 0.9375 -2.765625 C 1.164062 -2.890625 1.421875 -2.953125 1.703125 -2.953125 C 1.984375 -2.953125 2.234375 -2.890625 2.453125 -2.765625 C 2.671875 -2.640625 2.84375 -2.460938 2.96875 -2.234375 C 3.09375 -2.003906 3.15625 -1.742188 3.15625 -1.453125 Z M 1.703125 -2.515625 C 1.453125 -2.515625 1.238281 -2.4375 1.0625 -2.28125 C 0.894531 -2.125 0.796875 -1.921875 0.765625 -1.671875 L 2.640625 -1.671875 C 2.609375 -1.921875 2.503906 -2.125 2.328125 -2.28125 C 2.160156 -2.4375 1.953125 -2.515625 1.703125 -2.515625 Z M 1.703125 -2.515625 "/></g></g></g><g fill="#023e8a" fill-opacity="1"><g transform="translate(95.469566, 29.833478)"><g><path d="M 2.375 0 L 1.53125 -1.125 L 0.671875 0 L 0.078125 0 L 1.234375 -1.5 L 0.125 -2.9375 L 0.71875 -2.9375 L 1.53125 -1.875 L 2.328125 -2.9375 L 2.921875 -2.9375 L 1.8125 -1.5 L 2.96875 0 Z M 2.375 0 "/></g></g></g><g fill="#023e8a" fill-opacity="1"><g transform="translate(98.332211, 29.833478)"><g><path d="M 1.78125 0.03125 C 1.476562 0.03125 1.207031 -0.03125 0.96875 -0.15625 C 0.738281 -0.289062 0.554688 -0.46875 0.421875 -0.6875 C 0.296875 -0.914062 0.234375 -1.175781 0.234375 -1.46875 C 0.234375 -1.75 0.296875 -2.003906 0.421875 -2.234375 C 0.554688 -2.460938 0.738281 -2.640625 0.96875 -2.765625 C 1.207031 -2.890625 1.476562 -2.953125 1.78125 -2.953125 C 2.039062 -2.953125 2.273438 -2.898438 2.484375 -2.796875 C 2.691406 -2.691406 2.851562 -2.535156 2.96875 -2.328125 L 2.578125 -2.078125 C 2.484375 -2.210938 2.367188 -2.316406 2.234375 -2.390625 C 2.097656 -2.460938 1.945312 -2.5 1.78125 -2.5 C 1.582031 -2.5 1.40625 -2.453125 1.25 -2.359375 C 1.101562 -2.273438 0.984375 -2.15625 0.890625 -2 C 0.804688 -1.84375 0.765625 -1.664062 0.765625 -1.46875 C 0.765625 -1.257812 0.804688 -1.078125 0.890625 -0.921875 C 0.984375 -0.765625 1.101562 -0.644531 1.25 -0.5625 C 1.40625 -0.476562 1.582031 -0.4375 1.78125 -0.4375 C 1.945312 -0.4375 2.097656 -0.46875 2.234375 -0.53125 C 2.367188 -0.601562 2.484375 -0.710938 2.578125 -0.859375 L 2.96875 -0.59375 C 2.851562 -0.394531 2.691406 -0.238281 2.484375 -0.125 C 2.273438 -0.0195312 2.039062 0.03125 1.78125 0.03125 Z M 1.78125 0.03125 "/></g></g></g><g fill="#023e8a" fill-opacity="1"><g transform="translate(101.355122, 29.833478)"><g><path d="M 3.15625 -1.453125 C 3.15625 -1.410156 3.148438 -1.351562 3.140625 -1.28125 L 0.765625 -1.28125 C 0.796875 -1.03125 0.90625 -0.828125 1.09375 -0.671875 C 1.289062 -0.515625 1.535156 -0.4375 1.828125 -0.4375 C 2.171875 -0.4375 2.453125 -0.550781 2.671875 -0.78125 L 2.96875 -0.4375 C 2.832031 -0.28125 2.664062 -0.160156 2.46875 -0.078125 C 2.269531 -0.00390625 2.050781 0.03125 1.8125 0.03125 C 1.5 0.03125 1.222656 -0.03125 0.984375 -0.15625 C 0.742188 -0.28125 0.554688 -0.457031 0.421875 -0.6875 C 0.296875 -0.914062 0.234375 -1.175781 0.234375 -1.46875 C 0.234375 -1.75 0.296875 -2.003906 0.421875 -2.234375 C 0.546875 -2.460938 0.71875 -2.640625 0.9375 -2.765625 C 1.164062 -2.890625 1.421875 -2.953125 1.703125 -2.953125 C 1.984375 -2.953125 2.234375 -2.890625 2.453125 -2.765625 C 2.671875 -2.640625 2.84375 -2.460938 2.96875 -2.234375 C 3.09375 -2.003906 3.15625 -1.742188 3.15625 -1.453125 Z M 1.703125 -2.515625 C 1.453125 -2.515625 1.238281 -2.4375 1.0625 -2.28125 C 0.894531 -2.125 0.796875 -1.921875 0.765625 -1.671875 L 2.640625 -1.671875 C 2.609375 -1.921875 2.503906 -2.125 2.328125 -2.28125 C 2.160156 -2.4375 1.953125 -2.515625 1.703125 -2.515625 Z M 1.703125 -2.515625 "/></g></g></g><g fill="#023e8a" fill-opacity="1"><g transform="translate(104.64882, 29.833478)"><g><path d="M 0.5 -4.109375 L 1.03125 -4.109375 L 1.03125 0 L 0.5 0 Z M 0.5 -4.109375 "/></g></g></g><g fill="#023e8a" fill-opacity="1"><g transform="translate(106.102246, 29.833478)"><g><path d="M 0.5 -4.109375 L 1.03125 -4.109375 L 1.03125 0 L 0.5 0 Z M 0.5 -4.109375 "/></g></g></g><g fill="#023e8a" fill-opacity="1"><g transform="translate(107.555673, 29.833478)"><g><path d="M 3.15625 -1.453125 C 3.15625 -1.410156 3.148438 -1.351562 3.140625 -1.28125 L 0.765625 -1.28125 C 0.796875 -1.03125 0.90625 -0.828125 1.09375 -0.671875 C 1.289062 -0.515625 1.535156 -0.4375 1.828125 -0.4375 C 2.171875 -0.4375 2.453125 -0.550781 2.671875 -0.78125 L 2.96875 -0.4375 C 2.832031 -0.28125 2.664062 -0.160156 2.46875 -0.078125 C 2.269531 -0.00390625 2.050781 0.03125 1.8125 0.03125 C 1.5 0.03125 1.222656 -0.03125 0.984375 -0.15625 C 0.742188 -0.28125 0.554688 -0.457031 0.421875 -0.6875 C 0.296875 -0.914062 0.234375 -1.175781 0.234375 -1.46875 C 0.234375 -1.75 0.296875 -2.003906 0.421875 -2.234375 C 0.546875 -2.460938 0.71875 -2.640625 0.9375 -2.765625 C 1.164062 -2.890625 1.421875 -2.953125 1.703125 -2.953125 C 1.984375 -2.953125 2.234375 -2.890625 2.453125 -2.765625 C 2.671875 -2.640625 2.84375 -2.460938 2.96875 -2.234375 C 3.09375 -2.003906 3.15625 -1.742188 3.15625 -1.453125 Z M 1.703125 -2.515625 C 1.453125 -2.515625 1.238281 -2.4375 1.0625 -2.28125 C 0.894531 -2.125 0.796875 -1.921875 0.765625 -1.671875 L 2.640625 -1.671875 C 2.609375 -1.921875 2.503906 -2.125 2.328125 -2.28125 C 2.160156 -2.4375 1.953125 -2.515625 1.703125 -2.515625 Z M 1.703125 -2.515625 "/></g></g></g><g fill="#023e8a" fill-opacity="1"><g transform="translate(110.849371, 29.833478)"><g><path d="M 2.0625 -2.953125 C 2.4375 -2.953125 2.734375 -2.84375 2.953125 -2.625 C 3.171875 -2.414062 3.28125 -2.101562 3.28125 -1.6875 L 3.28125 0 L 2.75 0 L 2.75 -1.625 C 2.75 -1.90625 2.679688 -2.117188 2.546875 -2.265625 C 2.410156 -2.410156 2.21875 -2.484375 1.96875 -2.484375 C 1.675781 -2.484375 1.445312 -2.398438 1.28125 -2.234375 C 1.113281 -2.066406 1.03125 -1.828125 1.03125 -1.515625 L 1.03125 0 L 0.5 0 L 0.5 -2.9375 L 1.015625 -2.9375 L 1.015625 -2.484375 C 1.117188 -2.640625 1.257812 -2.753906 1.4375 -2.828125 C 1.625 -2.910156 1.832031 -2.953125 2.0625 -2.953125 Z M 2.0625 -2.953125 "/></g></g></g><g fill="#023e8a" fill-opacity="1"><g transform="translate(114.540962, 29.833478)"><g><path d="M 1.78125 0.03125 C 1.476562 0.03125 1.207031 -0.03125 0.96875 -0.15625 C 0.738281 -0.289062 0.554688 -0.46875 0.421875 -0.6875 C 0.296875 -0.914062 0.234375 -1.175781 0.234375 -1.46875 C 0.234375 -1.75 0.296875 -2.003906 0.421875 -2.234375 C 0.554688 -2.460938 0.738281 -2.640625 0.96875 -2.765625 C 1.207031 -2.890625 1.476562 -2.953125 1.78125 -2.953125 C 2.039062 -2.953125 2.273438 -2.898438 2.484375 -2.796875 C 2.691406 -2.691406 2.851562 -2.535156 2.96875 -2.328125 L 2.578125 -2.078125 C 2.484375 -2.210938 2.367188 -2.316406 2.234375 -2.390625 C 2.097656 -2.460938 1.945312 -2.5 1.78125 -2.5 C 1.582031 -2.5 1.40625 -2.453125 1.25 -2.359375 C 1.101562 -2.273438 0.984375 -2.15625 0.890625 -2 C 0.804688 -1.84375 0.765625 -1.664062 0.765625 -1.46875 C 0.765625 -1.257812 0.804688 -1.078125 0.890625 -0.921875 C 0.984375 -0.765625 1.101562 -0.644531 1.25 -0.5625 C 1.40625 -0.476562 1.582031 -0.4375 1.78125 -0.4375 C 1.945312 -0.4375 2.097656 -0.46875 2.234375 -0.53125 C 2.367188 -0.601562 2.484375 -0.710938 2.578125 -0.859375 L 2.96875 -0.59375 C 2.851562 -0.394531 2.691406 -0.238281 2.484375 -0.125 C 2.273438 -0.0195312 2.039062 0.03125 1.78125 0.03125 Z M 1.78125 0.03125 "/></g></g></g><g fill="#023e8a" fill-opacity="1"><g transform="translate(117.563873, 29.833478)"><g><path d="M 3.15625 -1.453125 C 3.15625 -1.410156 3.148438 -1.351562 3.140625 -1.28125 L 0.765625 -1.28125 C 0.796875 -1.03125 0.90625 -0.828125 1.09375 -0.671875 C 1.289062 -0.515625 1.535156 -0.4375 1.828125 -0.4375 C 2.171875 -0.4375 2.453125 -0.550781 2.671875 -0.78125 L 2.96875 -0.4375 C 2.832031 -0.28125 2.664062 -0.160156 2.46875 -0.078125 C 2.269531 -0.00390625 2.050781 0.03125 1.8125 0.03125 C 1.5 0.03125 1.222656 -0.03125 0.984375 -0.15625 C 0.742188 -0.28125 0.554688 -0.457031 0.421875 -0.6875 C 0.296875 -0.914062 0.234375 -1.175781 0.234375 -1.46875 C 0.234375 -1.75 0.296875 -2.003906 0.421875 -2.234375 C 0.546875 -2.460938 0.71875 -2.640625 0.9375 -2.765625 C 1.164062 -2.890625 1.421875 -2.953125 1.703125 -2.953125 C 1.984375 -2.953125 2.234375 -2.890625 2.453125 -2.765625 C 2.671875 -2.640625 2.84375 -2.460938 2.96875 -2.234375 C 3.09375 -2.003906 3.15625 -1.742188 3.15625 -1.453125 Z M 1.703125 -2.515625 C 1.453125 -2.515625 1.238281 -2.4375 1.0625 -2.28125 C 0.894531 -2.125 0.796875 -1.921875 0.765625 -1.671875 L 2.640625 -1.671875 C 2.609375 -1.921875 2.503906 -2.125 2.328125 -2.28125 C 2.160156 -2.4375 1.953125 -2.515625 1.703125 -2.515625 Z M 1.703125 -2.515625 "/></g></g></g></svg>