<svg xmlns="http://www.w3.org/2000/svg" xmlns:xlink="http://www.w3.org/1999/xlink" width="170" zoomAndPan="magnify" viewBox="0 0 127.5 37.5" height="50" preserveAspectRatio="xMidYMid meet" version="1.0"><defs><g/><clipPath id="2c2df14635"><path d="M 8.136719 5.535156 L 25 5.535156 L 25 31.4375 L 8.136719 31.4375 Z M 8.136719 5.535156 " clip-rule="nonzero"/></clipPath><clipPath id="32a349038c"><path d="M 11.820312 31.445312 C 11.300781 31.445312 10.757812 31.335938 10.242188 31.089844 C 8.417969 30.21875 7.632812 28.039062 8.5 26.1875 L 17.230469 7.746094 C 18.097656 5.921875 20.273438 5.128906 22.125 6.003906 C 23.945312 6.875 24.734375 9.054688 23.863281 10.90625 L 15.136719 29.347656 C 14.511719 30.683594 13.179688 31.445312 11.820312 31.445312 Z M 11.820312 31.445312 " clip-rule="nonzero"/></clipPath><linearGradient x1="86.964049" gradientTransform="matrix(0.143247, 0, 0, 0.143247, 8.146672, 5.534635)" y1="-28.280424" x2="151.178963" gradientUnits="userSpaceOnUse" y2="169.340888" id="ec71023643"><stop stop-opacity="1" stop-color="rgb(94.898987%, 54.499817%, 18.798828%)" offset="0"/><stop stop-opacity="1" stop-color="rgb(94.898987%, 54.499817%, 18.798828%)" offset="0.125"/><stop stop-opacity="1" stop-color="rgb(94.898987%, 54.499817%, 18.798828%)" offset="0.15625"/><stop stop-opacity="1" stop-color="rgb(94.898987%, 54.467773%, 18.77594%)" offset="0.171875"/><stop stop-opacity="1" stop-color="rgb(94.898987%, 54.325867%, 18.667603%)" offset="0.172315"/><stop stop-opacity="1" stop-color="rgb(94.898987%, 54.216003%, 18.583679%)" offset="0.179687"/><stop stop-opacity="1" stop-color="rgb(94.898987%, 54.104614%, 18.49823%)" offset="0.1875"/><stop stop-opacity="1" stop-color="rgb(94.898987%, 53.883362%, 18.328857%)" offset="0.195312"/><stop stop-opacity="1" stop-color="rgb(94.898987%, 53.662109%, 18.159485%)" offset="0.203125"/><stop stop-opacity="1" stop-color="rgb(94.898987%, 53.439331%, 17.990112%)" offset="0.210938"/><stop stop-opacity="1" stop-color="rgb(94.898987%, 53.218079%, 17.82074%)" offset="0.21875"/><stop stop-opacity="1" stop-color="rgb(94.898987%, 52.996826%, 17.651367%)" offset="0.226562"/><stop stop-opacity="1" stop-color="rgb(94.898987%, 52.775574%, 17.481995%)" offset="0.234375"/><stop stop-opacity="1" stop-color="rgb(94.898987%, 52.552795%, 17.312622%)" offset="0.242187"/><stop stop-opacity="1" stop-color="rgb(94.898987%, 52.331543%, 17.14325%)" offset="0.25"/><stop stop-opacity="1" stop-color="rgb(94.898987%, 52.110291%, 16.973877%)" offset="0.257812"/><stop stop-opacity="1" stop-color="rgb(94.898987%, 51.889038%, 16.804504%)" offset="0.265625"/><stop stop-opacity="1" stop-color="rgb(94.898987%, 51.66626%, 16.636658%)" offset="0.273438"/><stop stop-opacity="1" stop-color="rgb(94.898987%, 51.445007%, 16.467285%)" offset="0.28125"/><stop stop-opacity="1" stop-color="rgb(94.898987%, 51.223755%, 16.297913%)" offset="0.289062"/><stop stop-opacity="1" stop-color="rgb(94.898987%, 51.000977%, 16.12854%)" offset="0.296875"/><stop stop-opacity="1" stop-color="rgb(94.898987%, 50.779724%, 15.959167%)" offset="0.304688"/><stop stop-opacity="1" stop-color="rgb(94.898987%, 50.558472%, 15.789795%)" offset="0.3125"/><stop stop-opacity="1" stop-color="rgb(94.898987%, 50.337219%, 15.620422%)" offset="0.320312"/><stop stop-opacity="1" stop-color="rgb(94.898987%, 50.114441%, 15.45105%)" offset="0.328125"/><stop stop-opacity="1" stop-color="rgb(94.898987%, 49.893188%, 15.281677%)" offset="0.335937"/><stop stop-opacity="1" stop-color="rgb(94.898987%, 49.671936%, 15.112305%)" offset="0.34375"/><stop stop-opacity="1" stop-color="rgb(94.898987%, 49.450684%, 14.942932%)" offset="0.351562"/><stop stop-opacity="1" stop-color="rgb(94.898987%, 49.227905%, 14.77356%)" offset="0.359375"/><stop stop-opacity="1" stop-color="rgb(94.898987%, 49.006653%, 14.604187%)" offset="0.367188"/><stop stop-opacity="1" stop-color="rgb(94.898987%, 48.7854%, 14.434814%)" offset="0.375"/><stop stop-opacity="1" stop-color="rgb(94.898987%, 48.564148%, 14.266968%)" offset="0.382812"/><stop stop-opacity="1" stop-color="rgb(94.898987%, 48.34137%, 14.097595%)" offset="0.390625"/><stop stop-opacity="1" stop-color="rgb(94.898987%, 48.120117%, 13.928223%)" offset="0.398437"/><stop stop-opacity="1" stop-color="rgb(94.898987%, 47.898865%, 13.75885%)" offset="0.40625"/><stop stop-opacity="1" stop-color="rgb(94.898987%, 47.677612%, 13.589478%)" offset="0.414062"/><stop stop-opacity="1" stop-color="rgb(94.898987%, 47.454834%, 13.420105%)" offset="0.421875"/><stop stop-opacity="1" stop-color="rgb(94.898987%, 47.233582%, 13.250732%)" offset="0.429687"/><stop stop-opacity="1" stop-color="rgb(94.898987%, 47.012329%, 13.08136%)" offset="0.4375"/><stop stop-opacity="1" stop-color="rgb(94.898987%, 46.791077%, 12.911987%)" offset="0.445312"/><stop stop-opacity="1" stop-color="rgb(94.898987%, 46.568298%, 12.742615%)" offset="0.453125"/><stop stop-opacity="1" stop-color="rgb(94.898987%, 46.347046%, 12.573242%)" offset="0.460938"/><stop stop-opacity="1" stop-color="rgb(94.898987%, 46.125793%, 12.40387%)" offset="0.46875"/><stop stop-opacity="1" stop-color="rgb(94.898987%, 45.903015%, 12.234497%)" offset="0.476562"/><stop stop-opacity="1" stop-color="rgb(94.898987%, 45.681763%, 12.065125%)" offset="0.484375"/><stop stop-opacity="1" stop-color="rgb(94.898987%, 45.46051%, 11.897278%)" offset="0.492187"/><stop stop-opacity="1" stop-color="rgb(94.898987%, 45.239258%, 11.727905%)" offset="0.5"/><stop stop-opacity="1" stop-color="rgb(94.898987%, 45.016479%, 11.558533%)" offset="0.507812"/><stop stop-opacity="1" stop-color="rgb(94.898987%, 44.795227%, 11.38916%)" offset="0.515625"/><stop stop-opacity="1" stop-color="rgb(94.898987%, 44.573975%, 11.219788%)" offset="0.523438"/><stop stop-opacity="1" stop-color="rgb(94.898987%, 44.352722%, 11.050415%)" offset="0.53125"/><stop stop-opacity="1" stop-color="rgb(94.898987%, 44.129944%, 10.881042%)" offset="0.539062"/><stop stop-opacity="1" stop-color="rgb(94.898987%, 43.908691%, 10.71167%)" offset="0.546875"/><stop stop-opacity="1" stop-color="rgb(94.898987%, 43.687439%, 10.542297%)" offset="0.554688"/><stop stop-opacity="1" stop-color="rgb(94.898987%, 43.466187%, 10.372925%)" offset="0.5625"/><stop stop-opacity="1" stop-color="rgb(94.898987%, 43.243408%, 10.203552%)" offset="0.570312"/><stop stop-opacity="1" stop-color="rgb(94.898987%, 43.022156%, 10.03418%)" offset="0.578125"/><stop stop-opacity="1" stop-color="rgb(94.898987%, 42.800903%, 9.864807%)" offset="0.585938"/><stop stop-opacity="1" stop-color="rgb(94.898987%, 42.579651%, 9.695435%)" offset="0.59375"/><stop stop-opacity="1" stop-color="rgb(94.898987%, 42.356873%, 9.527588%)" offset="0.601562"/><stop stop-opacity="1" stop-color="rgb(94.898987%, 42.13562%, 9.358215%)" offset="0.609375"/><stop stop-opacity="1" stop-color="rgb(94.898987%, 41.914368%, 9.188843%)" offset="0.617188"/><stop stop-opacity="1" stop-color="rgb(94.898987%, 41.691589%, 9.01947%)" offset="0.625"/><stop stop-opacity="1" stop-color="rgb(94.898987%, 41.470337%, 8.850098%)" offset="0.632812"/><stop stop-opacity="1" stop-color="rgb(94.898987%, 41.249084%, 8.680725%)" offset="0.640625"/><stop stop-opacity="1" stop-color="rgb(94.898987%, 41.027832%, 8.511353%)" offset="0.648438"/><stop stop-opacity="1" stop-color="rgb(94.898987%, 40.805054%, 8.34198%)" offset="0.65625"/><stop stop-opacity="1" stop-color="rgb(94.898987%, 40.583801%, 8.172607%)" offset="0.664062"/><stop stop-opacity="1" stop-color="rgb(94.898987%, 40.362549%, 8.003235%)" offset="0.671875"/><stop stop-opacity="1" stop-color="rgb(94.898987%, 40.141296%, 7.833862%)" offset="0.679688"/><stop stop-opacity="1" stop-color="rgb(94.898987%, 39.918518%, 7.66449%)" offset="0.6875"/><stop stop-opacity="1" stop-color="rgb(94.898987%, 39.697266%, 7.495117%)" offset="0.695312"/><stop stop-opacity="1" stop-color="rgb(94.898987%, 39.476013%, 7.325745%)" offset="0.703125"/><stop stop-opacity="1" stop-color="rgb(94.898987%, 39.254761%, 7.157898%)" offset="0.710937"/><stop stop-opacity="1" stop-color="rgb(94.898987%, 39.031982%, 6.988525%)" offset="0.71875"/><stop stop-opacity="1" stop-color="rgb(94.898987%, 38.81073%, 6.819153%)" offset="0.726562"/><stop stop-opacity="1" stop-color="rgb(94.898987%, 38.589478%, 6.64978%)" offset="0.734375"/><stop stop-opacity="1" stop-color="rgb(94.898987%, 38.368225%, 6.480408%)" offset="0.742188"/><stop stop-opacity="1" stop-color="rgb(94.898987%, 38.145447%, 6.311035%)" offset="0.75"/><stop stop-opacity="1" stop-color="rgb(94.898987%, 37.924194%, 6.141663%)" offset="0.757812"/><stop stop-opacity="1" stop-color="rgb(94.898987%, 37.702942%, 5.97229%)" offset="0.765625"/><stop stop-opacity="1" stop-color="rgb(94.898987%, 37.480164%, 5.802917%)" offset="0.773438"/><stop stop-opacity="1" stop-color="rgb(94.898987%, 37.258911%, 5.633545%)" offset="0.78125"/><stop stop-opacity="1" stop-color="rgb(94.898987%, 37.037659%, 5.464172%)" offset="0.789062"/><stop stop-opacity="1" stop-color="rgb(94.898987%, 36.816406%, 5.2948%)" offset="0.796875"/><stop stop-opacity="1" stop-color="rgb(94.898987%, 36.593628%, 5.125427%)" offset="0.804687"/><stop stop-opacity="1" stop-color="rgb(94.898987%, 36.372375%, 4.957581%)" offset="0.8125"/><stop stop-opacity="1" stop-color="rgb(94.898987%, 36.151123%, 4.788208%)" offset="0.820312"/><stop stop-opacity="1" stop-color="rgb(94.898987%, 35.929871%, 4.618835%)" offset="0.827685"/><stop stop-opacity="1" stop-color="rgb(94.898987%, 35.818481%, 4.534912%)" offset="0.828125"/><stop stop-opacity="1" stop-color="rgb(94.898987%, 35.707092%, 4.449463%)" offset="0.835938"/><stop stop-opacity="1" stop-color="rgb(94.898987%, 35.48584%, 4.28009%)" offset="0.84375"/><stop stop-opacity="1" stop-color="rgb(94.898987%, 35.264587%, 4.110718%)" offset="0.851562"/><stop stop-opacity="1" stop-color="rgb(94.898987%, 35.043335%, 3.941345%)" offset="0.859375"/><stop stop-opacity="1" stop-color="rgb(94.898987%, 34.820557%, 3.771973%)" offset="0.867188"/><stop stop-opacity="1" stop-color="rgb(94.898987%, 34.599304%, 3.6026%)" offset="0.875"/><stop stop-opacity="1" stop-color="rgb(94.898987%, 34.378052%, 3.433228%)" offset="0.882812"/><stop stop-opacity="1" stop-color="rgb(94.898987%, 34.156799%, 3.263855%)" offset="0.890625"/><stop stop-opacity="1" stop-color="rgb(94.898987%, 33.934021%, 3.094482%)" offset="0.898437"/><stop stop-opacity="1" stop-color="rgb(94.898987%, 33.712769%, 2.92511%)" offset="0.90625"/><stop stop-opacity="1" stop-color="rgb(94.898987%, 33.491516%, 2.755737%)" offset="0.914062"/><stop stop-opacity="1" stop-color="rgb(94.898987%, 33.270264%, 2.587891%)" offset="0.921875"/><stop stop-opacity="1" stop-color="rgb(94.898987%, 33.047485%, 2.418518%)" offset="0.929688"/><stop stop-opacity="1" stop-color="rgb(94.898987%, 32.826233%, 2.249146%)" offset="0.9375"/><stop stop-opacity="1" stop-color="rgb(94.898987%, 32.608032%, 2.081299%)" offset="1"/></linearGradient><clipPath id="5e95fb66b6"><path d="M 16 5.535156 L 33 5.535156 L 33 31.4375 L 16 31.4375 Z M 16 5.535156 " clip-rule="nonzero"/></clipPath><clipPath id="0bf9eca53d"><path d="M 29.273438 31.445312 C 27.886719 31.445312 26.582031 30.65625 25.957031 29.347656 L 17.230469 10.90625 C 16.359375 9.082031 17.148438 6.875 18.96875 6.003906 C 20.792969 5.128906 22.992188 5.921875 23.863281 7.746094 L 32.59375 26.1875 C 33.460938 28.011719 32.671875 30.21875 30.851562 31.09375 C 30.335938 31.335938 29.820312 31.445312 29.273438 31.445312 Z M 29.273438 31.445312 " clip-rule="nonzero"/></clipPath><linearGradient x1="178.816172" gradientTransform="matrix(0.143247, 0, 0, 0.143247, 8.146672, 5.534635)" y1="172.852263" x2="14.400932" gradientUnits="userSpaceOnUse" y2="106.697754" id="4825168d62"><stop stop-opacity="1" stop-color="rgb(94.898987%, 54.499817%, 18.798828%)" offset="0"/><stop stop-opacity="1" stop-color="rgb(94.898987%, 54.499817%, 18.798828%)" offset="0.125"/><stop stop-opacity="1" stop-color="rgb(94.898987%, 54.307556%, 18.652344%)" offset="0.140625"/><stop stop-opacity="1" stop-color="rgb(94.898987%, 54.003906%, 18.42041%)" offset="0.148437"/><stop stop-opacity="1" stop-color="rgb(94.898987%, 53.782654%, 18.251038%)" offset="0.15625"/><stop stop-opacity="1" stop-color="rgb(94.898987%, 53.559875%, 18.081665%)" offset="0.164062"/><stop stop-opacity="1" stop-color="rgb(94.898987%, 53.337097%, 17.912292%)" offset="0.171875"/><stop stop-opacity="1" stop-color="rgb(94.898987%, 53.115845%, 17.741394%)" offset="0.179687"/><stop stop-opacity="1" stop-color="rgb(94.898987%, 52.893066%, 17.572021%)" offset="0.1875"/><stop stop-opacity="1" stop-color="rgb(94.898987%, 52.670288%, 17.402649%)" offset="0.195312"/><stop stop-opacity="1" stop-color="rgb(94.898987%, 52.44751%, 17.23175%)" offset="0.203125"/><stop stop-opacity="1" stop-color="rgb(94.898987%, 52.226257%, 17.062378%)" offset="0.210937"/><stop stop-opacity="1" stop-color="rgb(94.898987%, 52.003479%, 16.893005%)" offset="0.21875"/><stop stop-opacity="1" stop-color="rgb(94.898987%, 51.780701%, 16.723633%)" offset="0.226562"/><stop stop-opacity="1" stop-color="rgb(94.898987%, 51.557922%, 16.552734%)" offset="0.234375"/><stop stop-opacity="1" stop-color="rgb(94.898987%, 51.33667%, 16.383362%)" offset="0.242188"/><stop stop-opacity="1" stop-color="rgb(94.898987%, 51.113892%, 16.213989%)" offset="0.25"/><stop stop-opacity="1" stop-color="rgb(94.898987%, 50.891113%, 16.043091%)" offset="0.257812"/><stop stop-opacity="1" stop-color="rgb(94.898987%, 50.668335%, 15.873718%)" offset="0.265625"/><stop stop-opacity="1" stop-color="rgb(94.898987%, 50.447083%, 15.704346%)" offset="0.273438"/><stop stop-opacity="1" stop-color="rgb(94.898987%, 50.224304%, 15.534973%)" offset="0.28125"/><stop stop-opacity="1" stop-color="rgb(94.898987%, 50.001526%, 15.364075%)" offset="0.289062"/><stop stop-opacity="1" stop-color="rgb(94.898987%, 49.778748%, 15.194702%)" offset="0.296875"/><stop stop-opacity="1" stop-color="rgb(94.898987%, 49.557495%, 15.02533%)" offset="0.304687"/><stop stop-opacity="1" stop-color="rgb(94.898987%, 49.334717%, 14.854431%)" offset="0.3125"/><stop stop-opacity="1" stop-color="rgb(94.898987%, 49.111938%, 14.685059%)" offset="0.320312"/><stop stop-opacity="1" stop-color="rgb(94.898987%, 48.890686%, 14.515686%)" offset="0.328125"/><stop stop-opacity="1" stop-color="rgb(94.898987%, 48.667908%, 14.346313%)" offset="0.335938"/><stop stop-opacity="1" stop-color="rgb(94.898987%, 48.445129%, 14.175415%)" offset="0.34375"/><stop stop-opacity="1" stop-color="rgb(94.898987%, 48.222351%, 14.006042%)" offset="0.351562"/><stop stop-opacity="1" stop-color="rgb(94.898987%, 48.001099%, 13.83667%)" offset="0.359375"/><stop stop-opacity="1" stop-color="rgb(94.898987%, 47.77832%, 13.665771%)" offset="0.367187"/><stop stop-opacity="1" stop-color="rgb(94.898987%, 47.555542%, 13.496399%)" offset="0.375"/><stop stop-opacity="1" stop-color="rgb(94.898987%, 47.332764%, 13.327026%)" offset="0.38089"/><stop stop-opacity="1" stop-color="rgb(94.898987%, 47.2229%, 13.241577%)" offset="0.382812"/><stop stop-opacity="1" stop-color="rgb(94.898987%, 47.111511%, 13.156128%)" offset="0.390625"/><stop stop-opacity="1" stop-color="rgb(94.898987%, 46.888733%, 12.986755%)" offset="0.398438"/><stop stop-opacity="1" stop-color="rgb(94.898987%, 46.665955%, 12.817383%)" offset="0.40625"/><stop stop-opacity="1" stop-color="rgb(94.898987%, 46.443176%, 12.64801%)" offset="0.414062"/><stop stop-opacity="1" stop-color="rgb(94.898987%, 46.221924%, 12.477112%)" offset="0.421875"/><stop stop-opacity="1" stop-color="rgb(94.898987%, 45.999146%, 12.307739%)" offset="0.429688"/><stop stop-opacity="1" stop-color="rgb(94.898987%, 45.776367%, 12.138367%)" offset="0.4375"/><stop stop-opacity="1" stop-color="rgb(94.898987%, 45.553589%, 11.967468%)" offset="0.445312"/><stop stop-opacity="1" stop-color="rgb(94.898987%, 45.332336%, 11.798096%)" offset="0.453125"/><stop stop-opacity="1" stop-color="rgb(94.898987%, 45.109558%, 11.628723%)" offset="0.460938"/><stop stop-opacity="1" stop-color="rgb(94.898987%, 44.88678%, 11.459351%)" offset="0.46875"/><stop stop-opacity="1" stop-color="rgb(94.898987%, 44.665527%, 11.288452%)" offset="0.476562"/><stop stop-opacity="1" stop-color="rgb(94.898987%, 44.442749%, 11.11908%)" offset="0.484375"/><stop stop-opacity="1" stop-color="rgb(94.898987%, 44.219971%, 10.949707%)" offset="0.492187"/><stop stop-opacity="1" stop-color="rgb(94.898987%, 43.997192%, 10.778809%)" offset="0.5"/><stop stop-opacity="1" stop-color="rgb(94.898987%, 43.77594%, 10.609436%)" offset="0.507812"/><stop stop-opacity="1" stop-color="rgb(94.898987%, 43.553162%, 10.440063%)" offset="0.515625"/><stop stop-opacity="1" stop-color="rgb(94.898987%, 43.330383%, 10.270691%)" offset="0.523438"/><stop stop-opacity="1" stop-color="rgb(94.898987%, 43.107605%, 10.099792%)" offset="0.53125"/><stop stop-opacity="1" stop-color="rgb(94.898987%, 42.886353%, 9.93042%)" offset="0.539062"/><stop stop-opacity="1" stop-color="rgb(94.898987%, 42.663574%, 9.761047%)" offset="0.546875"/><stop stop-opacity="1" stop-color="rgb(94.898987%, 42.440796%, 9.590149%)" offset="0.554688"/><stop stop-opacity="1" stop-color="rgb(94.898987%, 42.218018%, 9.420776%)" offset="0.5625"/><stop stop-opacity="1" stop-color="rgb(94.898987%, 41.996765%, 9.251404%)" offset="0.570312"/><stop stop-opacity="1" stop-color="rgb(94.898987%, 41.773987%, 9.082031%)" offset="0.578125"/><stop stop-opacity="1" stop-color="rgb(94.898987%, 41.551208%, 8.911133%)" offset="0.585938"/><stop stop-opacity="1" stop-color="rgb(94.898987%, 41.32843%, 8.74176%)" offset="0.59375"/><stop stop-opacity="1" stop-color="rgb(94.898987%, 41.107178%, 8.572388%)" offset="0.601562"/><stop stop-opacity="1" stop-color="rgb(94.898987%, 40.884399%, 8.401489%)" offset="0.609375"/><stop stop-opacity="1" stop-color="rgb(94.898987%, 40.661621%, 8.232117%)" offset="0.617187"/><stop stop-opacity="1" stop-color="rgb(94.898987%, 40.440369%, 8.062744%)" offset="0.61911"/><stop stop-opacity="1" stop-color="rgb(94.898987%, 40.328979%, 7.978821%)" offset="0.625"/><stop stop-opacity="1" stop-color="rgb(94.898987%, 40.21759%, 7.893372%)" offset="0.632812"/><stop stop-opacity="1" stop-color="rgb(94.898987%, 39.994812%, 7.722473%)" offset="0.640625"/><stop stop-opacity="1" stop-color="rgb(94.898987%, 39.772034%, 7.553101%)" offset="0.648437"/><stop stop-opacity="1" stop-color="rgb(94.898987%, 39.550781%, 7.383728%)" offset="0.65625"/><stop stop-opacity="1" stop-color="rgb(94.898987%, 39.328003%, 7.21283%)" offset="0.664062"/><stop stop-opacity="1" stop-color="rgb(94.898987%, 39.105225%, 7.043457%)" offset="0.671875"/><stop stop-opacity="1" stop-color="rgb(94.898987%, 38.882446%, 6.874084%)" offset="0.679687"/><stop stop-opacity="1" stop-color="rgb(94.898987%, 38.661194%, 6.703186%)" offset="0.6875"/><stop stop-opacity="1" stop-color="rgb(94.898987%, 38.438416%, 6.533813%)" offset="0.695312"/><stop stop-opacity="1" stop-color="rgb(94.898987%, 38.215637%, 6.364441%)" offset="0.703125"/><stop stop-opacity="1" stop-color="rgb(94.898987%, 37.992859%, 6.195068%)" offset="0.710937"/><stop stop-opacity="1" stop-color="rgb(94.898987%, 37.771606%, 6.02417%)" offset="0.71875"/><stop stop-opacity="1" stop-color="rgb(94.898987%, 37.548828%, 5.854797%)" offset="0.726562"/><stop stop-opacity="1" stop-color="rgb(94.898987%, 37.32605%, 5.685425%)" offset="0.734375"/><stop stop-opacity="1" stop-color="rgb(94.898987%, 37.103271%, 5.514526%)" offset="0.742188"/><stop stop-opacity="1" stop-color="rgb(94.898987%, 36.882019%, 5.345154%)" offset="0.75"/><stop stop-opacity="1" stop-color="rgb(94.898987%, 36.659241%, 5.175781%)" offset="0.757812"/><stop stop-opacity="1" stop-color="rgb(94.898987%, 36.436462%, 5.006409%)" offset="0.765625"/><stop stop-opacity="1" stop-color="rgb(94.898987%, 36.21521%, 4.83551%)" offset="0.773438"/><stop stop-opacity="1" stop-color="rgb(94.898987%, 35.992432%, 4.666138%)" offset="0.78125"/><stop stop-opacity="1" stop-color="rgb(94.898987%, 35.769653%, 4.496765%)" offset="0.789062"/><stop stop-opacity="1" stop-color="rgb(94.898987%, 35.546875%, 4.325867%)" offset="0.796875"/><stop stop-opacity="1" stop-color="rgb(94.898987%, 35.325623%, 4.156494%)" offset="0.804687"/><stop stop-opacity="1" stop-color="rgb(94.898987%, 35.102844%, 3.987122%)" offset="0.8125"/><stop stop-opacity="1" stop-color="rgb(94.898987%, 34.880066%, 3.817749%)" offset="0.820312"/><stop stop-opacity="1" stop-color="rgb(94.898987%, 34.657288%, 3.646851%)" offset="0.828125"/><stop stop-opacity="1" stop-color="rgb(94.898987%, 34.436035%, 3.477478%)" offset="0.835938"/><stop stop-opacity="1" stop-color="rgb(94.898987%, 34.213257%, 3.308105%)" offset="0.84375"/><stop stop-opacity="1" stop-color="rgb(94.898987%, 33.990479%, 3.137207%)" offset="0.851562"/><stop stop-opacity="1" stop-color="rgb(94.898987%, 33.7677%, 2.967834%)" offset="0.859375"/><stop stop-opacity="1" stop-color="rgb(94.898987%, 33.546448%, 2.798462%)" offset="0.867188"/><stop stop-opacity="1" stop-color="rgb(94.898987%, 33.323669%, 2.629089%)" offset="0.875"/><stop stop-opacity="1" stop-color="rgb(94.898987%, 33.100891%, 2.458191%)" offset="0.882812"/><stop stop-opacity="1" stop-color="rgb(94.898987%, 32.879639%, 2.288818%)" offset="0.890625"/><stop stop-opacity="1" stop-color="rgb(94.898987%, 32.633972%, 2.101135%)" offset="0.90625"/><stop stop-opacity="1" stop-color="rgb(94.898987%, 32.499695%, 1.998901%)" offset="0.9375"/><stop stop-opacity="1" stop-color="rgb(94.898987%, 32.499695%, 1.998901%)" offset="1"/></linearGradient></defs><g clip-path="url(#2c2df14635)"><g clip-path="url(#32a349038c)"><path fill="url(#ec71023643)" d="M 8.136719 5.535156 L 8.136719 31.4375 L 24.734375 31.4375 L 24.734375 5.535156 Z M 8.136719 5.535156 " fill-rule="nonzero"/></g></g><g clip-path="url(#5e95fb66b6)"><g clip-path="url(#0bf9eca53d)"><path fill="url(#4825168d62)" d="M 16.359375 5.535156 L 16.359375 31.4375 L 33.300781 31.4375 L 33.300781 5.535156 Z M 16.359375 5.535156 " fill-rule="nonzero"/></g></g><g fill="#023e8a" fill-opacity="1"><g transform="translate(30.387947, 20.341386)"><g><path d="M 5.828125 -1.5625 L 2.5625 -1.5625 L 2.03125 0 L 0.3125 0 L 3.25 -8.1875 L 5.15625 -8.1875 L 8.09375 0 L 6.359375 0 Z M 5.375 -2.875 L 4.203125 -6.296875 L 3.015625 -2.875 Z M 5.375 -2.875 "/></g></g></g><g fill="#023e8a" fill-opacity="1"><g transform="translate(39.26821, 20.341386)"><g><path d="M 3.640625 0.078125 C 3.066406 0.078125 2.550781 -0.015625 2.09375 -0.203125 C 1.632812 -0.398438 1.269531 -0.679688 1 -1.046875 C 0.738281 -1.421875 0.601562 -1.859375 0.59375 -2.359375 L 2.359375 -2.359375 C 2.378906 -2.023438 2.492188 -1.757812 2.703125 -1.5625 C 2.921875 -1.363281 3.21875 -1.265625 3.59375 -1.265625 C 3.976562 -1.265625 4.28125 -1.351562 4.5 -1.53125 C 4.71875 -1.71875 4.828125 -1.960938 4.828125 -2.265625 C 4.828125 -2.503906 4.753906 -2.703125 4.609375 -2.859375 C 4.460938 -3.015625 4.273438 -3.132812 4.046875 -3.21875 C 3.828125 -3.3125 3.519531 -3.414062 3.125 -3.53125 C 2.59375 -3.6875 2.160156 -3.835938 1.828125 -3.984375 C 1.503906 -4.140625 1.222656 -4.367188 0.984375 -4.671875 C 0.742188 -4.984375 0.625 -5.398438 0.625 -5.921875 C 0.625 -6.398438 0.742188 -6.816406 0.984375 -7.171875 C 1.222656 -7.535156 1.5625 -7.8125 2 -8 C 2.4375 -8.195312 2.9375 -8.296875 3.5 -8.296875 C 4.34375 -8.296875 5.03125 -8.085938 5.5625 -7.671875 C 6.09375 -7.265625 6.382812 -6.695312 6.4375 -5.96875 L 4.625 -5.96875 C 4.613281 -6.25 4.492188 -6.476562 4.265625 -6.65625 C 4.046875 -6.84375 3.753906 -6.9375 3.390625 -6.9375 C 3.066406 -6.9375 2.804688 -6.851562 2.609375 -6.6875 C 2.421875 -6.53125 2.328125 -6.296875 2.328125 -5.984375 C 2.328125 -5.765625 2.398438 -5.582031 2.546875 -5.4375 C 2.691406 -5.289062 2.867188 -5.171875 3.078125 -5.078125 C 3.296875 -4.992188 3.601562 -4.890625 4 -4.765625 C 4.53125 -4.609375 4.960938 -4.453125 5.296875 -4.296875 C 5.628906 -4.140625 5.914062 -3.90625 6.15625 -3.59375 C 6.40625 -3.28125 6.53125 -2.875 6.53125 -2.375 C 6.53125 -1.9375 6.414062 -1.53125 6.1875 -1.15625 C 5.957031 -0.78125 5.625 -0.476562 5.1875 -0.25 C 4.75 -0.03125 4.234375 0.078125 3.640625 0.078125 Z M 3.640625 0.078125 "/></g></g></g><g fill="#023e8a" fill-opacity="1"><g transform="translate(46.894973, 20.341386)"><g><path d="M 3.640625 0.078125 C 3.066406 0.078125 2.550781 -0.015625 2.09375 -0.203125 C 1.632812 -0.398438 1.269531 -0.679688 1 -1.046875 C 0.738281 -1.421875 0.601562 -1.859375 0.59375 -2.359375 L 2.359375 -2.359375 C 2.378906 -2.023438 2.492188 -1.757812 2.703125 -1.5625 C 2.921875 -1.363281 3.21875 -1.265625 3.59375 -1.265625 C 3.976562 -1.265625 4.28125 -1.351562 4.5 -1.53125 C 4.71875 -1.71875 4.828125 -1.960938 4.828125 -2.265625 C 4.828125 -2.503906 4.753906 -2.703125 4.609375 -2.859375 C 4.460938 -3.015625 4.273438 -3.132812 4.046875 -3.21875 C 3.828125 -3.3125 3.519531 -3.414062 3.125 -3.53125 C 2.59375 -3.6875 2.160156 -3.835938 1.828125 -3.984375 C 1.503906 -4.140625 1.222656 -4.367188 0.984375 -4.671875 C 0.742188 -4.984375 0.625 -5.398438 0.625 -5.921875 C 0.625 -6.398438 0.742188 -6.816406 0.984375 -7.171875 C 1.222656 -7.535156 1.5625 -7.8125 2 -8 C 2.4375 -8.195312 2.9375 -8.296875 3.5 -8.296875 C 4.34375 -8.296875 5.03125 -8.085938 5.5625 -7.671875 C 6.09375 -7.265625 6.382812 -6.695312 6.4375 -5.96875 L 4.625 -5.96875 C 4.613281 -6.25 4.492188 -6.476562 4.265625 -6.65625 C 4.046875 -6.84375 3.753906 -6.9375 3.390625 -6.9375 C 3.066406 -6.9375 2.804688 -6.851562 2.609375 -6.6875 C 2.421875 -6.53125 2.328125 -6.296875 2.328125 -5.984375 C 2.328125 -5.765625 2.398438 -5.582031 2.546875 -5.4375 C 2.691406 -5.289062 2.867188 -5.171875 3.078125 -5.078125 C 3.296875 -4.992188 3.601562 -4.890625 4 -4.765625 C 4.53125 -4.609375 4.960938 -4.453125 5.296875 -4.296875 C 5.628906 -4.140625 5.914062 -3.90625 6.15625 -3.59375 C 6.40625 -3.28125 6.53125 -2.875 6.53125 -2.375 C 6.53125 -1.9375 6.414062 -1.53125 6.1875 -1.15625 C 5.957031 -0.78125 5.625 -0.476562 5.1875 -0.25 C 4.75 -0.03125 4.234375 0.078125 3.640625 0.078125 Z M 3.640625 0.078125 "/></g></g></g><g fill="#023e8a" fill-opacity="1"><g transform="translate(54.521735, 20.341386)"><g><path d="M 2.421875 -8.1875 L 2.421875 -3.125 C 2.421875 -2.5625 2.566406 -2.132812 2.859375 -1.84375 C 3.148438 -1.550781 3.554688 -1.40625 4.078125 -1.40625 C 4.609375 -1.40625 5.019531 -1.550781 5.3125 -1.84375 C 5.601562 -2.132812 5.75 -2.5625 5.75 -3.125 L 5.75 -8.1875 L 7.390625 -8.1875 L 7.390625 -3.125 C 7.390625 -2.4375 7.238281 -1.847656 6.9375 -1.359375 C 6.644531 -0.878906 6.242188 -0.519531 5.734375 -0.28125 C 5.234375 -0.0390625 4.675781 0.078125 4.0625 0.078125 C 3.445312 0.078125 2.890625 -0.0390625 2.390625 -0.28125 C 1.898438 -0.519531 1.507812 -0.878906 1.21875 -1.359375 C 0.925781 -1.847656 0.78125 -2.4375 0.78125 -3.125 L 0.78125 -8.1875 Z M 2.421875 -8.1875 "/></g></g></g><g fill="#f25305" fill-opacity="1"><g transform="translate(63.185027, 20.341386)"><g><path d="M 5.859375 -8.1875 L 5.859375 -6.859375 L 2.453125 -6.859375 L 2.453125 -4.765625 L 5.0625 -4.765625 L 5.0625 -3.453125 L 2.453125 -3.453125 L 2.453125 0 L 0.8125 0 L 0.8125 -8.1875 Z M 5.859375 -8.1875 "/></g></g></g><g fill="#f25305" fill-opacity="1"><g transform="translate(69.886319, 20.341386)"><g><path d="M 2.453125 -1.296875 L 5.140625 -1.296875 L 5.140625 0 L 0.8125 0 L 0.8125 -8.1875 L 2.453125 -8.1875 Z M 2.453125 -1.296875 "/></g></g></g><g fill="#f25305" fill-opacity="1"><g transform="translate(75.755845, 20.341386)"><g><path d="M 2.453125 -6.859375 L 2.453125 -4.8125 L 5.203125 -4.8125 L 5.203125 -3.5 L 2.453125 -3.5 L 2.453125 -1.34375 L 5.5625 -1.34375 L 5.5625 0 L 0.8125 0 L 0.8125 -8.1875 L 5.5625 -8.1875 L 5.5625 -6.859375 Z M 2.453125 -6.859375 "/></g></g></g><g fill="#f25305" fill-opacity="1"><g transform="translate(82.480561, 20.341386)"><g><path d="M 5.703125 0 L 3.9375 -2.75 L 2.328125 0 L 0.484375 0 L 3.0625 -4.125 L 0.453125 -8.1875 L 2.328125 -8.1875 L 4.109375 -5.4375 L 5.703125 -8.1875 L 7.546875 -8.1875 L 4.984375 -4.0625 L 7.59375 0 Z M 5.703125 0 "/></g></g></g><g fill="#023e8a" fill-opacity="1"><g transform="translate(33.557792, 26.993994)"><g><path d="M 1.5 0.03125 C 1.269531 0.03125 1.0625 -0.00390625 0.875 -0.078125 C 0.695312 -0.160156 0.550781 -0.273438 0.4375 -0.421875 C 0.332031 -0.578125 0.28125 -0.753906 0.28125 -0.953125 L 0.890625 -0.953125 C 0.898438 -0.796875 0.957031 -0.671875 1.0625 -0.578125 C 1.164062 -0.484375 1.3125 -0.4375 1.5 -0.4375 C 1.695312 -0.4375 1.847656 -0.484375 1.953125 -0.578125 C 2.066406 -0.671875 2.125 -0.789062 2.125 -0.9375 C 2.125 -1.050781 2.085938 -1.144531 2.015625 -1.21875 C 1.953125 -1.289062 1.867188 -1.347656 1.765625 -1.390625 C 1.660156 -1.429688 1.519531 -1.472656 1.34375 -1.515625 C 1.125 -1.578125 0.941406 -1.640625 0.796875 -1.703125 C 0.660156 -1.765625 0.539062 -1.859375 0.4375 -1.984375 C 0.34375 -2.109375 0.296875 -2.28125 0.296875 -2.5 C 0.296875 -2.695312 0.34375 -2.867188 0.4375 -3.015625 C 0.539062 -3.160156 0.679688 -3.269531 0.859375 -3.34375 C 1.035156 -3.425781 1.238281 -3.46875 1.46875 -3.46875 C 1.800781 -3.46875 2.070312 -3.382812 2.28125 -3.21875 C 2.5 -3.0625 2.617188 -2.835938 2.640625 -2.546875 L 2.03125 -2.546875 C 2.019531 -2.671875 1.957031 -2.773438 1.84375 -2.859375 C 1.738281 -2.953125 1.597656 -3 1.421875 -3 C 1.253906 -3 1.117188 -2.957031 1.015625 -2.875 C 0.921875 -2.789062 0.875 -2.671875 0.875 -2.515625 C 0.875 -2.410156 0.90625 -2.320312 0.96875 -2.25 C 1.03125 -2.1875 1.109375 -2.132812 1.203125 -2.09375 C 1.304688 -2.0625 1.441406 -2.019531 1.609375 -1.96875 C 1.835938 -1.90625 2.023438 -1.84375 2.171875 -1.78125 C 2.316406 -1.71875 2.4375 -1.617188 2.53125 -1.484375 C 2.632812 -1.359375 2.6875 -1.1875 2.6875 -0.96875 C 2.6875 -0.800781 2.640625 -0.640625 2.546875 -0.484375 C 2.453125 -0.328125 2.3125 -0.203125 2.125 -0.109375 C 1.945312 -0.015625 1.738281 0.03125 1.5 0.03125 Z M 1.5 0.03125 "/></g></g></g><g fill="#023e8a" fill-opacity="1"><g transform="translate(36.45913, 26.993994)"><g><path d="M 2.4375 -0.703125 L 1 -0.703125 L 0.75 0 L 0.171875 0 L 1.390625 -3.4375 L 2.046875 -3.4375 L 3.28125 0 L 2.6875 0 Z M 2.28125 -1.15625 L 1.71875 -2.75 L 1.15625 -1.15625 Z M 2.28125 -1.15625 "/></g></g></g><g fill="#023e8a" fill-opacity="1"><g transform="translate(39.819354, 26.993994)"><g><path d="M 3.1875 0 L 2.625 0 L 0.9375 -2.5625 L 0.9375 0 L 0.375 0 L 0.375 -3.4375 L 0.9375 -3.4375 L 2.625 -0.875 L 2.625 -3.4375 L 3.1875 -3.4375 Z M 3.1875 0 "/></g></g></g><g fill="#023e8a" fill-opacity="1"><g transform="translate(43.297998, 26.993994)"><g><path d="M 2.59375 -3.4375 L 2.59375 -2.96875 L 1.671875 -2.96875 L 1.671875 0 L 1.109375 0 L 1.109375 -2.96875 L 0.1875 -2.96875 L 0.1875 -3.4375 Z M 2.59375 -3.4375 "/></g></g></g><g fill="#023e8a" fill-opacity="1"><g transform="translate(46.001969, 26.993994)"><g><path d="M 0.9375 -2.984375 L 0.9375 -1.96875 L 2.125 -1.96875 L 2.125 -1.515625 L 0.9375 -1.515625 L 0.9375 -0.453125 L 2.265625 -0.453125 L 2.265625 0 L 0.375 0 L 0.375 -3.4375 L 2.265625 -3.4375 L 2.265625 -2.984375 Z M 1.796875 -4.171875 L 0.703125 -3.625 L 0.703125 -4.046875 L 1.796875 -4.65625 Z M 1.796875 -4.171875 "/></g></g></g><g fill="#023e8a" fill-opacity="1"><g transform="translate(48.508567, 26.993994)"><g/></g></g><g fill="#023e8a" fill-opacity="1"><g transform="translate(49.712525, 26.993994)"><g><path d="M 3.015625 0 L 2.59375 -0.421875 C 2.425781 -0.253906 2.242188 -0.128906 2.046875 -0.046875 C 1.859375 0.0234375 1.644531 0.0625 1.40625 0.0625 C 1.164062 0.0625 0.953125 0.0195312 0.765625 -0.0625 C 0.578125 -0.144531 0.429688 -0.265625 0.328125 -0.421875 C 0.222656 -0.585938 0.171875 -0.773438 0.171875 -0.984375 C 0.171875 -1.222656 0.238281 -1.4375 0.375 -1.625 C 0.507812 -1.8125 0.710938 -1.957031 0.984375 -2.0625 C 0.878906 -2.175781 0.804688 -2.28125 0.765625 -2.375 C 0.734375 -2.476562 0.71875 -2.59375 0.71875 -2.71875 C 0.71875 -2.875 0.753906 -3.007812 0.828125 -3.125 C 0.910156 -3.238281 1.019531 -3.332031 1.15625 -3.40625 C 1.300781 -3.476562 1.472656 -3.515625 1.671875 -3.515625 C 1.859375 -3.515625 2.019531 -3.472656 2.15625 -3.390625 C 2.300781 -3.316406 2.40625 -3.21875 2.46875 -3.09375 C 2.539062 -2.96875 2.566406 -2.828125 2.546875 -2.671875 L 1.984375 -2.671875 C 1.992188 -2.785156 1.96875 -2.875 1.90625 -2.9375 C 1.84375 -3.007812 1.753906 -3.046875 1.640625 -3.046875 C 1.535156 -3.046875 1.445312 -3.015625 1.375 -2.953125 C 1.3125 -2.890625 1.28125 -2.8125 1.28125 -2.71875 C 1.28125 -2.632812 1.304688 -2.546875 1.359375 -2.453125 C 1.410156 -2.367188 1.5 -2.257812 1.625 -2.125 L 2.53125 -1.21875 L 2.890625 -1.796875 L 3.484375 -1.796875 L 3.046875 -1.03125 L 2.921875 -0.828125 L 3.75 0 Z M 1.40625 -0.421875 C 1.71875 -0.421875 1.992188 -0.546875 2.234375 -0.796875 L 1.3125 -1.703125 C 0.925781 -1.546875 0.734375 -1.3125 0.734375 -1 C 0.734375 -0.832031 0.796875 -0.691406 0.921875 -0.578125 C 1.046875 -0.472656 1.207031 -0.421875 1.40625 -0.421875 Z M 1.40625 -0.421875 "/></g></g></g><g fill="#023e8a" fill-opacity="1"><g transform="translate(53.388541, 26.993994)"><g/></g></g><g fill="#023e8a" fill-opacity="1"><g transform="translate(54.5925, 26.993994)"><g><path d="M 2.765625 -2.40625 C 2.765625 -2.226562 2.722656 -2.0625 2.640625 -1.90625 C 2.554688 -1.757812 2.425781 -1.632812 2.25 -1.53125 C 2.070312 -1.4375 1.84375 -1.390625 1.5625 -1.390625 L 0.9375 -1.390625 L 0.9375 0 L 0.375 0 L 0.375 -3.4375 L 1.5625 -3.4375 C 1.820312 -3.4375 2.039062 -3.390625 2.21875 -3.296875 C 2.40625 -3.203125 2.539062 -3.078125 2.625 -2.921875 C 2.71875 -2.773438 2.765625 -2.601562 2.765625 -2.40625 Z M 1.5625 -1.84375 C 1.769531 -1.84375 1.925781 -1.890625 2.03125 -1.984375 C 2.132812 -2.085938 2.1875 -2.226562 2.1875 -2.40625 C 2.1875 -2.78125 1.976562 -2.96875 1.5625 -2.96875 L 0.9375 -2.96875 L 0.9375 -1.84375 Z M 1.5625 -1.84375 "/></g></g></g><g fill="#023e8a" fill-opacity="1"><g transform="translate(57.449428, 26.993994)"><g><path d="M 2.15625 0 L 1.359375 -1.375 L 0.9375 -1.375 L 0.9375 0 L 0.375 0 L 0.375 -3.4375 L 1.5625 -3.4375 C 1.820312 -3.4375 2.039062 -3.390625 2.21875 -3.296875 C 2.40625 -3.203125 2.539062 -3.078125 2.625 -2.921875 C 2.71875 -2.765625 2.765625 -2.59375 2.765625 -2.40625 C 2.765625 -2.175781 2.695312 -1.96875 2.5625 -1.78125 C 2.4375 -1.601562 2.238281 -1.484375 1.96875 -1.421875 L 2.828125 0 Z M 0.9375 -1.828125 L 1.5625 -1.828125 C 1.769531 -1.828125 1.925781 -1.878906 2.03125 -1.984375 C 2.132812 -2.085938 2.1875 -2.226562 2.1875 -2.40625 C 2.1875 -2.582031 2.132812 -2.71875 2.03125 -2.8125 C 1.925781 -2.914062 1.769531 -2.96875 1.5625 -2.96875 L 0.9375 -2.96875 Z M 0.9375 -1.828125 "/></g></g></g><g fill="#023e8a" fill-opacity="1"><g transform="translate(60.488929, 26.993994)"><g><path d="M 0.9375 -2.984375 L 0.9375 -1.96875 L 2.125 -1.96875 L 2.125 -1.515625 L 0.9375 -1.515625 L 0.9375 -0.453125 L 2.265625 -0.453125 L 2.265625 0 L 0.375 0 L 0.375 -3.4375 L 2.265625 -3.4375 L 2.265625 -2.984375 Z M 1.796875 -4.171875 L 0.703125 -3.625 L 0.703125 -4.046875 L 1.796875 -4.65625 Z M 1.796875 -4.171875 "/></g></g></g><g fill="#023e8a" fill-opacity="1"><g transform="translate(62.995526, 26.993994)"><g><path d="M 3.328125 -3.4375 L 2.046875 0 L 1.390625 0 L 0.09375 -3.4375 L 0.703125 -3.4375 L 1.71875 -0.578125 L 2.734375 -3.4375 Z M 3.328125 -3.4375 "/></g></g></g><g fill="#023e8a" fill-opacity="1"><g transform="translate(66.340949, 26.993994)"><g><path d="M 1.9375 0.03125 C 1.613281 0.03125 1.316406 -0.0390625 1.046875 -0.1875 C 0.785156 -0.34375 0.578125 -0.550781 0.421875 -0.8125 C 0.265625 -1.082031 0.1875 -1.382812 0.1875 -1.71875 C 0.1875 -2.0625 0.265625 -2.363281 0.421875 -2.625 C 0.578125 -2.894531 0.785156 -3.101562 1.046875 -3.25 C 1.316406 -3.394531 1.613281 -3.46875 1.9375 -3.46875 C 2.257812 -3.46875 2.550781 -3.394531 2.8125 -3.25 C 3.082031 -3.101562 3.296875 -2.894531 3.453125 -2.625 C 3.609375 -2.363281 3.6875 -2.0625 3.6875 -1.71875 C 3.6875 -1.382812 3.609375 -1.082031 3.453125 -0.8125 C 3.296875 -0.550781 3.082031 -0.34375 2.8125 -0.1875 C 2.550781 -0.0390625 2.257812 0.03125 1.9375 0.03125 Z M 1.9375 -0.453125 C 2.164062 -0.453125 2.367188 -0.503906 2.546875 -0.609375 C 2.722656 -0.710938 2.859375 -0.859375 2.953125 -1.046875 C 3.054688 -1.242188 3.109375 -1.46875 3.109375 -1.71875 C 3.109375 -1.976562 3.054688 -2.203125 2.953125 -2.390625 C 2.859375 -2.578125 2.722656 -2.722656 2.546875 -2.828125 C 2.367188 -2.929688 2.164062 -2.984375 1.9375 -2.984375 C 1.707031 -2.984375 1.503906 -2.929688 1.328125 -2.828125 C 1.148438 -2.722656 1.007812 -2.578125 0.90625 -2.390625 C 0.8125 -2.203125 0.765625 -1.976562 0.765625 -1.71875 C 0.765625 -1.46875 0.8125 -1.242188 0.90625 -1.046875 C 1.007812 -0.859375 1.148438 -0.710938 1.328125 -0.609375 C 1.503906 -0.503906 1.707031 -0.453125 1.9375 -0.453125 Z M 1.9375 -0.453125 "/></g></g></g><g fill="#023e8a" fill-opacity="1"><g transform="translate(70.130453, 26.993994)"><g><path d="M 2.90625 -3.4375 L 1.78125 -1.25 L 1.78125 0 L 1.21875 0 L 1.21875 -1.25 L 0.078125 -3.4375 L 0.703125 -3.4375 L 1.5 -1.75 L 2.296875 -3.4375 Z M 2.90625 -3.4375 "/></g></g></g><g fill="#023e8a" fill-opacity="1"><g transform="translate(73.036727, 26.993994)"><g><path d="M 2.4375 -0.703125 L 1 -0.703125 L 0.75 0 L 0.171875 0 L 1.390625 -3.4375 L 2.046875 -3.4375 L 3.28125 0 L 2.6875 0 Z M 2.28125 -1.15625 L 1.71875 -2.75 L 1.15625 -1.15625 Z M 2.28125 -1.15625 "/></g></g></g><g fill="#023e8a" fill-opacity="1"><g transform="translate(76.396952, 26.993994)"><g><path d="M 3.1875 0 L 2.625 0 L 0.9375 -2.5625 L 0.9375 0 L 0.375 0 L 0.375 -3.4375 L 0.9375 -3.4375 L 2.625 -0.875 L 2.625 -3.4375 L 3.1875 -3.4375 Z M 3.1875 0 "/></g></g></g><g fill="#023e8a" fill-opacity="1"><g transform="translate(79.875595, 26.993994)"><g><path d="M 0.1875 -1.71875 C 0.1875 -2.0625 0.265625 -2.363281 0.421875 -2.625 C 0.578125 -2.894531 0.785156 -3.101562 1.046875 -3.25 C 1.316406 -3.394531 1.613281 -3.46875 1.9375 -3.46875 C 2.300781 -3.46875 2.625 -3.378906 2.90625 -3.203125 C 3.195312 -3.023438 3.40625 -2.769531 3.53125 -2.4375 L 2.859375 -2.4375 C 2.765625 -2.625 2.640625 -2.757812 2.484375 -2.84375 C 2.328125 -2.9375 2.144531 -2.984375 1.9375 -2.984375 C 1.707031 -2.984375 1.503906 -2.929688 1.328125 -2.828125 C 1.148438 -2.722656 1.007812 -2.578125 0.90625 -2.390625 C 0.8125 -2.203125 0.765625 -1.976562 0.765625 -1.71875 C 0.765625 -1.46875 0.8125 -1.242188 0.90625 -1.046875 C 1.007812 -0.859375 1.148438 -0.710938 1.328125 -0.609375 C 1.503906 -0.503906 1.707031 -0.453125 1.9375 -0.453125 C 2.144531 -0.453125 2.328125 -0.492188 2.484375 -0.578125 C 2.640625 -0.671875 2.765625 -0.8125 2.859375 -1 L 3.53125 -1 C 3.40625 -0.664062 3.195312 -0.410156 2.90625 -0.234375 C 2.625 -0.0546875 2.300781 0.03125 1.9375 0.03125 C 1.613281 0.03125 1.316406 -0.0390625 1.046875 -0.1875 C 0.785156 -0.34375 0.578125 -0.550781 0.421875 -0.8125 C 0.265625 -1.082031 0.1875 -1.382812 0.1875 -1.71875 Z M 0.1875 -1.71875 "/></g></g></g><g fill="#023e8a" fill-opacity="1"><g transform="translate(83.61082, 26.993994)"><g><path d="M 0.9375 -2.984375 L 0.9375 -1.96875 L 2.125 -1.96875 L 2.125 -1.515625 L 0.9375 -1.515625 L 0.9375 -0.453125 L 2.265625 -0.453125 L 2.265625 0 L 0.375 0 L 0.375 -3.4375 L 2.265625 -3.4375 L 2.265625 -2.984375 Z M 0.9375 -2.984375 "/></g></g></g><g fill="#023e8a" fill-opacity="1"><g transform="translate(86.117417, 26.993994)"><g/></g></g><g fill="#023e8a" fill-opacity="1"><g transform="translate(87.321379, 26.993994)"><g><path d="M 1.484375 -3.4375 C 1.859375 -3.4375 2.179688 -3.363281 2.453125 -3.21875 C 2.722656 -3.082031 2.929688 -2.882812 3.078125 -2.625 C 3.234375 -2.363281 3.3125 -2.054688 3.3125 -1.703125 C 3.3125 -1.359375 3.234375 -1.054688 3.078125 -0.796875 C 2.929688 -0.535156 2.722656 -0.335938 2.453125 -0.203125 C 2.179688 -0.0664062 1.859375 0 1.484375 0 L 0.375 0 L 0.375 -3.4375 Z M 1.484375 -0.453125 C 1.890625 -0.453125 2.195312 -0.5625 2.40625 -0.78125 C 2.625 -1 2.734375 -1.304688 2.734375 -1.703125 C 2.734375 -2.097656 2.625 -2.40625 2.40625 -2.625 C 2.195312 -2.851562 1.890625 -2.96875 1.484375 -2.96875 L 0.9375 -2.96875 L 0.9375 -0.453125 Z M 1.484375 -0.453125 "/></g></g></g><g fill="#023e8a" fill-opacity="1"><g transform="translate(90.740813, 26.993994)"><g><path d="M 0.453125 -3.4375 L 1.078125 -3.4375 L 0.546875 -2.25 L 0.15625 -2.25 Z M 0.453125 -3.4375 "/></g></g></g><g fill="#023e8a" fill-opacity="1"><g transform="translate(91.855954, 26.993994)"><g><path d="M 0.9375 -2.984375 L 0.9375 -1.96875 L 2.125 -1.96875 L 2.125 -1.515625 L 0.9375 -1.515625 L 0.9375 -0.453125 L 2.265625 -0.453125 L 2.265625 0 L 0.375 0 L 0.375 -3.4375 L 2.265625 -3.4375 L 2.265625 -2.984375 Z M 0.9375 -2.984375 "/></g></g></g><g fill="#023e8a" fill-opacity="1"><g transform="translate(94.362551, 26.993994)"><g><path d="M 1.953125 -1.71875 L 3.015625 0 L 2.375 0 L 1.609375 -1.25 L 0.875 0 L 0.25 0 L 1.3125 -1.71875 L 0.25 -3.4375 L 0.875 -3.4375 L 1.65625 -2.171875 L 2.390625 -3.4375 L 3.015625 -3.4375 Z M 1.953125 -1.71875 "/></g></g></g><g fill="#023e8a" fill-opacity="1"><g transform="translate(97.540209, 26.993994)"><g><path d="M 0.1875 -1.71875 C 0.1875 -2.0625 0.265625 -2.363281 0.421875 -2.625 C 0.578125 -2.894531 0.785156 -3.101562 1.046875 -3.25 C 1.316406 -3.394531 1.613281 -3.46875 1.9375 -3.46875 C 2.300781 -3.46875 2.625 -3.378906 2.90625 -3.203125 C 3.195312 -3.023438 3.40625 -2.769531 3.53125 -2.4375 L 2.859375 -2.4375 C 2.765625 -2.625 2.640625 -2.757812 2.484375 -2.84375 C 2.328125 -2.9375 2.144531 -2.984375 1.9375 -2.984375 C 1.707031 -2.984375 1.503906 -2.929688 1.328125 -2.828125 C 1.148438 -2.722656 1.007812 -2.578125 0.90625 -2.390625 C 0.8125 -2.203125 0.765625 -1.976562 0.765625 -1.71875 C 0.765625 -1.46875 0.8125 -1.242188 0.90625 -1.046875 C 1.007812 -0.859375 1.148438 -0.710938 1.328125 -0.609375 C 1.503906 -0.503906 1.707031 -0.453125 1.9375 -0.453125 C 2.144531 -0.453125 2.328125 -0.492188 2.484375 -0.578125 C 2.640625 -0.671875 2.765625 -0.8125 2.859375 -1 L 3.53125 -1 C 3.40625 -0.664062 3.195312 -0.410156 2.90625 -0.234375 C 2.625 -0.0546875 2.300781 0.03125 1.9375 0.03125 C 1.613281 0.03125 1.316406 -0.0390625 1.046875 -0.1875 C 0.785156 -0.34375 0.578125 -0.550781 0.421875 -0.8125 C 0.265625 -1.082031 0.1875 -1.382812 0.1875 -1.71875 Z M 0.1875 -1.71875 "/></g></g></g><g fill="#023e8a" fill-opacity="1"><g transform="translate(101.275435, 26.993994)"><g><path d="M 0.9375 -2.984375 L 0.9375 -1.96875 L 2.125 -1.96875 L 2.125 -1.515625 L 0.9375 -1.515625 L 0.9375 -0.453125 L 2.265625 -0.453125 L 2.265625 0 L 0.375 0 L 0.375 -3.4375 L 2.265625 -3.4375 L 2.265625 -2.984375 Z M 0.9375 -2.984375 "/></g></g></g><g fill="#023e8a" fill-opacity="1"><g transform="translate(103.782032, 26.993994)"><g><path d="M 0.9375 -0.453125 L 2.09375 -0.453125 L 2.09375 0 L 0.375 0 L 0.375 -3.4375 L 0.9375 -3.4375 Z M 0.9375 -0.453125 "/></g></g></g><g fill="#023e8a" fill-opacity="1"><g transform="translate(105.893889, 26.993994)"><g><path d="M 0.9375 -0.453125 L 2.09375 -0.453125 L 2.09375 0 L 0.375 0 L 0.375 -3.4375 L 0.9375 -3.4375 Z M 0.9375 -0.453125 "/></g></g></g><g fill="#023e8a" fill-opacity="1"><g transform="translate(108.005746, 26.993994)"><g><path d="M 0.9375 -2.984375 L 0.9375 -1.96875 L 2.125 -1.96875 L 2.125 -1.515625 L 0.9375 -1.515625 L 0.9375 -0.453125 L 2.265625 -0.453125 L 2.265625 0 L 0.375 0 L 0.375 -3.4375 L 2.265625 -3.4375 L 2.265625 -2.984375 Z M 0.9375 -2.984375 "/></g></g></g><g fill="#023e8a" fill-opacity="1"><g transform="translate(110.512343, 26.993994)"><g><path d="M 3.1875 0 L 2.625 0 L 0.9375 -2.5625 L 0.9375 0 L 0.375 0 L 0.375 -3.4375 L 0.9375 -3.4375 L 2.625 -0.875 L 2.625 -3.4375 L 3.1875 -3.4375 Z M 3.1875 0 "/></g></g></g><g fill="#023e8a" fill-opacity="1"><g transform="translate(113.990986, 26.993994)"><g><path d="M 0.1875 -1.71875 C 0.1875 -2.0625 0.265625 -2.363281 0.421875 -2.625 C 0.578125 -2.894531 0.785156 -3.101562 1.046875 -3.25 C 1.316406 -3.394531 1.613281 -3.46875 1.9375 -3.46875 C 2.300781 -3.46875 2.625 -3.378906 2.90625 -3.203125 C 3.195312 -3.023438 3.40625 -2.769531 3.53125 -2.4375 L 2.859375 -2.4375 C 2.765625 -2.625 2.640625 -2.757812 2.484375 -2.84375 C 2.328125 -2.9375 2.144531 -2.984375 1.9375 -2.984375 C 1.707031 -2.984375 1.503906 -2.929688 1.328125 -2.828125 C 1.148438 -2.722656 1.007812 -2.578125 0.90625 -2.390625 C 0.8125 -2.203125 0.765625 -1.976562 0.765625 -1.71875 C 0.765625 -1.46875 0.8125 -1.242188 0.90625 -1.046875 C 1.007812 -0.859375 1.148438 -0.710938 1.328125 -0.609375 C 1.503906 -0.503906 1.707031 -0.453125 1.9375 -0.453125 C 2.144531 -0.453125 2.328125 -0.492188 2.484375 -0.578125 C 2.640625 -0.671875 2.765625 -0.8125 2.859375 -1 L 3.53125 -1 C 3.40625 -0.664062 3.195312 -0.410156 2.90625 -0.234375 C 2.625 -0.0546875 2.300781 0.03125 1.9375 0.03125 C 1.613281 0.03125 1.316406 -0.0390625 1.046875 -0.1875 C 0.785156 -0.34375 0.578125 -0.550781 0.421875 -0.8125 C 0.265625 -1.082031 0.1875 -1.382812 0.1875 -1.71875 Z M 0.1875 -1.71875 "/></g></g></g><g fill="#023e8a" fill-opacity="1"><g transform="translate(117.726212, 26.993994)"><g><path d="M 0.9375 -2.984375 L 0.9375 -1.96875 L 2.125 -1.96875 L 2.125 -1.515625 L 0.9375 -1.515625 L 0.9375 -0.453125 L 2.265625 -0.453125 L 2.265625 0 L 0.375 0 L 0.375 -3.4375 L 2.265625 -3.4375 L 2.265625 -2.984375 Z M 0.9375 -2.984375 "/></g></g></g></svg>