<svg xmlns="http://www.w3.org/2000/svg" xmlns:xlink="http://www.w3.org/1999/xlink" width="170" zoomAndPan="magnify" viewBox="0 0 127.5 37.5" height="50" preserveAspectRatio="xMidYMid meet" version="1.0"><defs><g/><clipPath id="0648f5d325"><path d="M 4.292969 2.765625 L 24 2.765625 L 24 34.59375 L 4.292969 34.59375 Z M 4.292969 2.765625 " clip-rule="nonzero"/></clipPath><clipPath id="2f8d46dcaf"><path d="M 8.757812 34.214844 C 8.128906 34.214844 7.46875 34.082031 6.84375 33.785156 C 4.632812 32.726562 3.675781 30.082031 4.730469 27.832031 L 15.324219 5.449219 C 16.378906 3.234375 19.019531 2.277344 21.261719 3.335938 C 23.472656 4.394531 24.429688 7.039062 23.375 9.285156 L 12.78125 31.667969 C 12.023438 33.289062 10.40625 34.214844 8.757812 34.214844 Z M 8.757812 34.214844 " clip-rule="nonzero"/></clipPath><linearGradient x1="86.966717" gradientTransform="matrix(0.173852, 0, 0, 0.173852, 4.299887, 2.767318)" y1="-28.272215" x2="151.192614" gradientUnits="userSpaceOnUse" y2="169.382898" id="8ed79706c4"><stop stop-opacity="1" stop-color="rgb(94.898987%, 54.499817%, 18.798828%)" offset="0"/><stop stop-opacity="1" stop-color="rgb(94.898987%, 54.499817%, 18.798828%)" offset="0.125"/><stop stop-opacity="1" stop-color="rgb(94.898987%, 54.499817%, 18.798828%)" offset="0.15625"/><stop stop-opacity="1" stop-color="rgb(94.898987%, 54.467773%, 18.774414%)" offset="0.171875"/><stop stop-opacity="1" stop-color="rgb(94.898987%, 54.324341%, 18.666077%)" offset="0.172244"/><stop stop-opacity="1" stop-color="rgb(94.898987%, 54.214478%, 18.582153%)" offset="0.179688"/><stop stop-opacity="1" stop-color="rgb(94.898987%, 54.103088%, 18.496704%)" offset="0.1875"/><stop stop-opacity="1" stop-color="rgb(94.898987%, 53.881836%, 18.327332%)" offset="0.195312"/><stop stop-opacity="1" stop-color="rgb(94.898987%, 53.659058%, 18.157959%)" offset="0.203125"/><stop stop-opacity="1" stop-color="rgb(94.898987%, 53.437805%, 17.988586%)" offset="0.210937"/><stop stop-opacity="1" stop-color="rgb(94.898987%, 53.216553%, 17.819214%)" offset="0.21875"/><stop stop-opacity="1" stop-color="rgb(94.898987%, 52.993774%, 17.649841%)" offset="0.226563"/><stop stop-opacity="1" stop-color="rgb(94.898987%, 52.772522%, 17.480469%)" offset="0.234375"/><stop stop-opacity="1" stop-color="rgb(94.898987%, 52.55127%, 17.311096%)" offset="0.242187"/><stop stop-opacity="1" stop-color="rgb(94.898987%, 52.330017%, 17.141724%)" offset="0.25"/><stop stop-opacity="1" stop-color="rgb(94.898987%, 52.107239%, 16.972351%)" offset="0.257812"/><stop stop-opacity="1" stop-color="rgb(94.898987%, 51.885986%, 16.802979%)" offset="0.265625"/><stop stop-opacity="1" stop-color="rgb(94.898987%, 51.664734%, 16.633606%)" offset="0.273438"/><stop stop-opacity="1" stop-color="rgb(94.898987%, 51.441956%, 16.464233%)" offset="0.28125"/><stop stop-opacity="1" stop-color="rgb(94.898987%, 51.220703%, 16.294861%)" offset="0.289063"/><stop stop-opacity="1" stop-color="rgb(94.898987%, 50.999451%, 16.125488%)" offset="0.296875"/><stop stop-opacity="1" stop-color="rgb(94.898987%, 50.778198%, 15.956116%)" offset="0.304688"/><stop stop-opacity="1" stop-color="rgb(94.898987%, 50.55542%, 15.788269%)" offset="0.3125"/><stop stop-opacity="1" stop-color="rgb(94.898987%, 50.334167%, 15.618896%)" offset="0.320312"/><stop stop-opacity="1" stop-color="rgb(94.898987%, 50.112915%, 15.449524%)" offset="0.328125"/><stop stop-opacity="1" stop-color="rgb(94.898987%, 49.890137%, 15.280151%)" offset="0.335938"/><stop stop-opacity="1" stop-color="rgb(94.898987%, 49.668884%, 15.110779%)" offset="0.34375"/><stop stop-opacity="1" stop-color="rgb(94.898987%, 49.447632%, 14.941406%)" offset="0.351562"/><stop stop-opacity="1" stop-color="rgb(94.898987%, 49.226379%, 14.772034%)" offset="0.359375"/><stop stop-opacity="1" stop-color="rgb(94.898987%, 49.003601%, 14.602661%)" offset="0.367188"/><stop stop-opacity="1" stop-color="rgb(94.898987%, 48.782349%, 14.433289%)" offset="0.375"/><stop stop-opacity="1" stop-color="rgb(94.898987%, 48.561096%, 14.263916%)" offset="0.382812"/><stop stop-opacity="1" stop-color="rgb(94.898987%, 48.338318%, 14.094543%)" offset="0.390625"/><stop stop-opacity="1" stop-color="rgb(94.898987%, 48.117065%, 13.925171%)" offset="0.398438"/><stop stop-opacity="1" stop-color="rgb(94.898987%, 47.895813%, 13.755798%)" offset="0.40625"/><stop stop-opacity="1" stop-color="rgb(94.898987%, 47.673035%, 13.586426%)" offset="0.414062"/><stop stop-opacity="1" stop-color="rgb(94.898987%, 47.451782%, 13.417053%)" offset="0.421875"/><stop stop-opacity="1" stop-color="rgb(94.898987%, 47.23053%, 13.247681%)" offset="0.429688"/><stop stop-opacity="1" stop-color="rgb(94.898987%, 47.009277%, 13.078308%)" offset="0.4375"/><stop stop-opacity="1" stop-color="rgb(94.898987%, 46.786499%, 12.908936%)" offset="0.445312"/><stop stop-opacity="1" stop-color="rgb(94.898987%, 46.565247%, 12.739563%)" offset="0.453125"/><stop stop-opacity="1" stop-color="rgb(94.898987%, 46.343994%, 12.571716%)" offset="0.460938"/><stop stop-opacity="1" stop-color="rgb(94.898987%, 46.121216%, 12.402344%)" offset="0.46875"/><stop stop-opacity="1" stop-color="rgb(94.898987%, 45.899963%, 12.232971%)" offset="0.476562"/><stop stop-opacity="1" stop-color="rgb(94.898987%, 45.678711%, 12.063599%)" offset="0.484375"/><stop stop-opacity="1" stop-color="rgb(94.898987%, 45.457458%, 11.894226%)" offset="0.492188"/><stop stop-opacity="1" stop-color="rgb(94.898987%, 45.23468%, 11.724854%)" offset="0.5"/><stop stop-opacity="1" stop-color="rgb(94.898987%, 45.013428%, 11.555481%)" offset="0.507812"/><stop stop-opacity="1" stop-color="rgb(94.898987%, 44.792175%, 11.386108%)" offset="0.515625"/><stop stop-opacity="1" stop-color="rgb(94.898987%, 44.569397%, 11.216736%)" offset="0.523437"/><stop stop-opacity="1" stop-color="rgb(94.898987%, 44.348145%, 11.047363%)" offset="0.53125"/><stop stop-opacity="1" stop-color="rgb(94.898987%, 44.126892%, 10.877991%)" offset="0.539062"/><stop stop-opacity="1" stop-color="rgb(94.898987%, 43.90564%, 10.708618%)" offset="0.546875"/><stop stop-opacity="1" stop-color="rgb(94.898987%, 43.682861%, 10.539246%)" offset="0.554687"/><stop stop-opacity="1" stop-color="rgb(94.898987%, 43.461609%, 10.369873%)" offset="0.5625"/><stop stop-opacity="1" stop-color="rgb(94.898987%, 43.240356%, 10.2005%)" offset="0.570312"/><stop stop-opacity="1" stop-color="rgb(94.898987%, 43.017578%, 10.031128%)" offset="0.578125"/><stop stop-opacity="1" stop-color="rgb(94.898987%, 42.796326%, 9.861755%)" offset="0.585937"/><stop stop-opacity="1" stop-color="rgb(94.898987%, 42.575073%, 9.692383%)" offset="0.59375"/><stop stop-opacity="1" stop-color="rgb(94.898987%, 42.353821%, 9.524536%)" offset="0.601562"/><stop stop-opacity="1" stop-color="rgb(94.898987%, 42.131042%, 9.355164%)" offset="0.609375"/><stop stop-opacity="1" stop-color="rgb(94.898987%, 41.90979%, 9.185791%)" offset="0.617188"/><stop stop-opacity="1" stop-color="rgb(94.898987%, 41.688538%, 9.016418%)" offset="0.625"/><stop stop-opacity="1" stop-color="rgb(94.898987%, 41.465759%, 8.847046%)" offset="0.632812"/><stop stop-opacity="1" stop-color="rgb(94.898987%, 41.244507%, 8.677673%)" offset="0.640625"/><stop stop-opacity="1" stop-color="rgb(94.898987%, 41.023254%, 8.508301%)" offset="0.648437"/><stop stop-opacity="1" stop-color="rgb(94.898987%, 40.802002%, 8.338928%)" offset="0.65625"/><stop stop-opacity="1" stop-color="rgb(94.898987%, 40.579224%, 8.169556%)" offset="0.664062"/><stop stop-opacity="1" stop-color="rgb(94.898987%, 40.357971%, 8.000183%)" offset="0.671875"/><stop stop-opacity="1" stop-color="rgb(94.898987%, 40.136719%, 7.830811%)" offset="0.679688"/><stop stop-opacity="1" stop-color="rgb(94.898987%, 39.91394%, 7.661438%)" offset="0.6875"/><stop stop-opacity="1" stop-color="rgb(94.898987%, 39.692688%, 7.492065%)" offset="0.695312"/><stop stop-opacity="1" stop-color="rgb(94.898987%, 39.471436%, 7.322693%)" offset="0.703125"/><stop stop-opacity="1" stop-color="rgb(94.898987%, 39.250183%, 7.15332%)" offset="0.710937"/><stop stop-opacity="1" stop-color="rgb(94.898987%, 39.027405%, 6.983948%)" offset="0.71875"/><stop stop-opacity="1" stop-color="rgb(94.898987%, 38.806152%, 6.814575%)" offset="0.726562"/><stop stop-opacity="1" stop-color="rgb(94.898987%, 38.5849%, 6.645203%)" offset="0.734375"/><stop stop-opacity="1" stop-color="rgb(94.898987%, 38.362122%, 6.47583%)" offset="0.742188"/><stop stop-opacity="1" stop-color="rgb(94.898987%, 38.140869%, 6.307983%)" offset="0.75"/><stop stop-opacity="1" stop-color="rgb(94.898987%, 37.919617%, 6.138611%)" offset="0.757812"/><stop stop-opacity="1" stop-color="rgb(94.898987%, 37.698364%, 5.969238%)" offset="0.765625"/><stop stop-opacity="1" stop-color="rgb(94.898987%, 37.475586%, 5.799866%)" offset="0.773437"/><stop stop-opacity="1" stop-color="rgb(94.898987%, 37.254333%, 5.630493%)" offset="0.78125"/><stop stop-opacity="1" stop-color="rgb(94.898987%, 37.033081%, 5.461121%)" offset="0.789062"/><stop stop-opacity="1" stop-color="rgb(94.898987%, 36.810303%, 5.291748%)" offset="0.796875"/><stop stop-opacity="1" stop-color="rgb(94.898987%, 36.58905%, 5.122375%)" offset="0.804688"/><stop stop-opacity="1" stop-color="rgb(94.898987%, 36.367798%, 4.953003%)" offset="0.8125"/><stop stop-opacity="1" stop-color="rgb(94.898987%, 36.146545%, 4.78363%)" offset="0.820312"/><stop stop-opacity="1" stop-color="rgb(94.898987%, 35.923767%, 4.614258%)" offset="0.827756"/><stop stop-opacity="1" stop-color="rgb(94.898987%, 35.813904%, 4.530334%)" offset="0.828125"/><stop stop-opacity="1" stop-color="rgb(94.898987%, 35.702515%, 4.444885%)" offset="0.835937"/><stop stop-opacity="1" stop-color="rgb(94.898987%, 35.481262%, 4.275513%)" offset="0.84375"/><stop stop-opacity="1" stop-color="rgb(94.898987%, 35.258484%, 4.10614%)" offset="0.851562"/><stop stop-opacity="1" stop-color="rgb(94.898987%, 35.037231%, 3.936768%)" offset="0.859375"/><stop stop-opacity="1" stop-color="rgb(94.898987%, 34.815979%, 3.767395%)" offset="0.867188"/><stop stop-opacity="1" stop-color="rgb(94.898987%, 34.594727%, 3.598022%)" offset="0.875"/><stop stop-opacity="1" stop-color="rgb(94.898987%, 34.371948%, 3.42865%)" offset="0.882812"/><stop stop-opacity="1" stop-color="rgb(94.898987%, 34.150696%, 3.259277%)" offset="0.890625"/><stop stop-opacity="1" stop-color="rgb(94.898987%, 33.929443%, 3.091431%)" offset="0.898437"/><stop stop-opacity="1" stop-color="rgb(94.898987%, 33.706665%, 2.922058%)" offset="0.90625"/><stop stop-opacity="1" stop-color="rgb(94.898987%, 33.485413%, 2.752686%)" offset="0.914062"/><stop stop-opacity="1" stop-color="rgb(94.898987%, 33.26416%, 2.583313%)" offset="0.921875"/><stop stop-opacity="1" stop-color="rgb(94.898987%, 33.042908%, 2.41394%)" offset="0.929688"/><stop stop-opacity="1" stop-color="rgb(94.898987%, 32.820129%, 2.244568%)" offset="0.9375"/><stop stop-opacity="1" stop-color="rgb(94.898987%, 32.60498%, 2.079773%)" offset="1"/></linearGradient><clipPath id="3bf7cd9326"><path d="M 14 2.765625 L 34.636719 2.765625 L 34.636719 34.59375 L 14 34.59375 Z M 14 2.765625 " clip-rule="nonzero"/></clipPath><clipPath id="3f05d567fd"><path d="M 29.941406 34.214844 C 28.257812 34.214844 26.675781 33.257812 25.917969 31.667969 L 15.324219 9.285156 C 14.265625 7.070312 15.222656 4.394531 17.433594 3.335938 C 19.644531 2.277344 22.320312 3.234375 23.375 5.449219 L 33.96875 27.832031 C 35.023438 30.046875 34.066406 32.726562 31.855469 33.785156 C 31.230469 34.082031 30.601562 34.214844 29.941406 34.214844 Z M 29.941406 34.214844 " clip-rule="nonzero"/></clipPath><linearGradient x1="177.889161" gradientTransform="matrix(0.173852, 0, 0, 0.173852, 4.299887, 2.767318)" y1="172.479269" x2="14.400931" gradientUnits="userSpaceOnUse" y2="106.697754" id="77ee2b9bee"><stop stop-opacity="1" stop-color="rgb(94.898987%, 54.499817%, 18.798828%)" offset="0"/><stop stop-opacity="1" stop-color="rgb(94.898987%, 54.460144%, 18.768311%)" offset="0.125"/><stop stop-opacity="1" stop-color="rgb(94.898987%, 54.309082%, 18.65387%)" offset="0.132812"/><stop stop-opacity="1" stop-color="rgb(94.898987%, 54.08783%, 18.484497%)" offset="0.140625"/><stop stop-opacity="1" stop-color="rgb(94.898987%, 53.866577%, 18.31665%)" offset="0.148438"/><stop stop-opacity="1" stop-color="rgb(94.898987%, 53.645325%, 18.147278%)" offset="0.15625"/><stop stop-opacity="1" stop-color="rgb(94.898987%, 53.424072%, 17.977905%)" offset="0.164063"/><stop stop-opacity="1" stop-color="rgb(94.898987%, 53.20282%, 17.810059%)" offset="0.171875"/><stop stop-opacity="1" stop-color="rgb(94.898987%, 52.981567%, 17.640686%)" offset="0.179688"/><stop stop-opacity="1" stop-color="rgb(94.898987%, 52.761841%, 17.471313%)" offset="0.1875"/><stop stop-opacity="1" stop-color="rgb(94.898987%, 52.540588%, 17.303467%)" offset="0.195313"/><stop stop-opacity="1" stop-color="rgb(94.898987%, 52.319336%, 17.134094%)" offset="0.203125"/><stop stop-opacity="1" stop-color="rgb(94.898987%, 52.098083%, 16.964722%)" offset="0.210938"/><stop stop-opacity="1" stop-color="rgb(94.898987%, 51.876831%, 16.796875%)" offset="0.21875"/><stop stop-opacity="1" stop-color="rgb(94.898987%, 51.655579%, 16.627502%)" offset="0.226562"/><stop stop-opacity="1" stop-color="rgb(94.898987%, 51.434326%, 16.459656%)" offset="0.234375"/><stop stop-opacity="1" stop-color="rgb(94.898987%, 51.213074%, 16.290283%)" offset="0.242188"/><stop stop-opacity="1" stop-color="rgb(94.898987%, 50.991821%, 16.120911%)" offset="0.25"/><stop stop-opacity="1" stop-color="rgb(94.898987%, 50.770569%, 15.953064%)" offset="0.257813"/><stop stop-opacity="1" stop-color="rgb(94.898987%, 50.549316%, 15.783691%)" offset="0.265625"/><stop stop-opacity="1" stop-color="rgb(94.898987%, 50.32959%, 15.614319%)" offset="0.273438"/><stop stop-opacity="1" stop-color="rgb(94.898987%, 50.108337%, 15.446472%)" offset="0.28125"/><stop stop-opacity="1" stop-color="rgb(94.898987%, 49.887085%, 15.2771%)" offset="0.289062"/><stop stop-opacity="1" stop-color="rgb(94.898987%, 49.665833%, 15.107727%)" offset="0.296875"/><stop stop-opacity="1" stop-color="rgb(94.898987%, 49.44458%, 14.93988%)" offset="0.304688"/><stop stop-opacity="1" stop-color="rgb(94.898987%, 49.223328%, 14.770508%)" offset="0.3125"/><stop stop-opacity="1" stop-color="rgb(94.898987%, 49.002075%, 14.601135%)" offset="0.320313"/><stop stop-opacity="1" stop-color="rgb(94.898987%, 48.780823%, 14.433289%)" offset="0.328125"/><stop stop-opacity="1" stop-color="rgb(94.898987%, 48.55957%, 14.263916%)" offset="0.335938"/><stop stop-opacity="1" stop-color="rgb(94.898987%, 48.338318%, 14.094543%)" offset="0.34375"/><stop stop-opacity="1" stop-color="rgb(94.898987%, 48.117065%, 13.926697%)" offset="0.351562"/><stop stop-opacity="1" stop-color="rgb(94.898987%, 47.895813%, 13.757324%)" offset="0.359375"/><stop stop-opacity="1" stop-color="rgb(94.898987%, 47.676086%, 13.587952%)" offset="0.367188"/><stop stop-opacity="1" stop-color="rgb(94.898987%, 47.454834%, 13.420105%)" offset="0.375"/><stop stop-opacity="1" stop-color="rgb(94.898987%, 47.233582%, 13.250732%)" offset="0.382812"/><stop stop-opacity="1" stop-color="rgb(94.898987%, 47.012329%, 13.08136%)" offset="0.38315"/><stop stop-opacity="1" stop-color="rgb(94.898987%, 46.902466%, 12.997437%)" offset="0.390625"/><stop stop-opacity="1" stop-color="rgb(94.898987%, 46.791077%, 12.913513%)" offset="0.398437"/><stop stop-opacity="1" stop-color="rgb(94.898987%, 46.569824%, 12.744141%)" offset="0.40625"/><stop stop-opacity="1" stop-color="rgb(94.898987%, 46.348572%, 12.574768%)" offset="0.414062"/><stop stop-opacity="1" stop-color="rgb(94.898987%, 46.127319%, 12.406921%)" offset="0.421875"/><stop stop-opacity="1" stop-color="rgb(94.898987%, 45.906067%, 12.237549%)" offset="0.429688"/><stop stop-opacity="1" stop-color="rgb(94.898987%, 45.684814%, 12.068176%)" offset="0.4375"/><stop stop-opacity="1" stop-color="rgb(94.898987%, 45.463562%, 11.90033%)" offset="0.445312"/><stop stop-opacity="1" stop-color="rgb(94.898987%, 45.24231%, 11.730957%)" offset="0.453125"/><stop stop-opacity="1" stop-color="rgb(94.898987%, 45.022583%, 11.561584%)" offset="0.460937"/><stop stop-opacity="1" stop-color="rgb(94.898987%, 44.801331%, 11.393738%)" offset="0.46875"/><stop stop-opacity="1" stop-color="rgb(94.898987%, 44.580078%, 11.224365%)" offset="0.476563"/><stop stop-opacity="1" stop-color="rgb(94.898987%, 44.358826%, 11.054993%)" offset="0.484375"/><stop stop-opacity="1" stop-color="rgb(94.898987%, 44.137573%, 10.887146%)" offset="0.492188"/><stop stop-opacity="1" stop-color="rgb(94.898987%, 43.916321%, 10.717773%)" offset="0.5"/><stop stop-opacity="1" stop-color="rgb(94.898987%, 43.695068%, 10.548401%)" offset="0.507813"/><stop stop-opacity="1" stop-color="rgb(94.898987%, 43.473816%, 10.380554%)" offset="0.515625"/><stop stop-opacity="1" stop-color="rgb(94.898987%, 43.252563%, 10.211182%)" offset="0.523438"/><stop stop-opacity="1" stop-color="rgb(94.898987%, 43.031311%, 10.041809%)" offset="0.53125"/><stop stop-opacity="1" stop-color="rgb(94.898987%, 42.810059%, 9.873962%)" offset="0.539062"/><stop stop-opacity="1" stop-color="rgb(94.898987%, 42.590332%, 9.70459%)" offset="0.546875"/><stop stop-opacity="1" stop-color="rgb(94.898987%, 42.36908%, 9.535217%)" offset="0.554688"/><stop stop-opacity="1" stop-color="rgb(94.898987%, 42.147827%, 9.367371%)" offset="0.5625"/><stop stop-opacity="1" stop-color="rgb(94.898987%, 41.926575%, 9.197998%)" offset="0.570312"/><stop stop-opacity="1" stop-color="rgb(94.898987%, 41.705322%, 9.028625%)" offset="0.578125"/><stop stop-opacity="1" stop-color="rgb(94.898987%, 41.48407%, 8.860779%)" offset="0.585938"/><stop stop-opacity="1" stop-color="rgb(94.898987%, 41.262817%, 8.691406%)" offset="0.59375"/><stop stop-opacity="1" stop-color="rgb(94.898987%, 41.041565%, 8.522034%)" offset="0.601562"/><stop stop-opacity="1" stop-color="rgb(94.898987%, 40.820312%, 8.354187%)" offset="0.609375"/><stop stop-opacity="1" stop-color="rgb(94.898987%, 40.59906%, 8.184814%)" offset="0.61685"/><stop stop-opacity="1" stop-color="rgb(94.898987%, 40.489197%, 8.100891%)" offset="0.617188"/><stop stop-opacity="1" stop-color="rgb(94.898987%, 40.377808%, 8.015442%)" offset="0.625"/><stop stop-opacity="1" stop-color="rgb(94.898987%, 40.156555%, 7.847595%)" offset="0.632812"/><stop stop-opacity="1" stop-color="rgb(94.898987%, 39.936829%, 7.678223%)" offset="0.640625"/><stop stop-opacity="1" stop-color="rgb(94.898987%, 39.715576%, 7.50885%)" offset="0.648437"/><stop stop-opacity="1" stop-color="rgb(94.898987%, 39.494324%, 7.341003%)" offset="0.65625"/><stop stop-opacity="1" stop-color="rgb(94.898987%, 39.273071%, 7.171631%)" offset="0.664062"/><stop stop-opacity="1" stop-color="rgb(94.898987%, 39.051819%, 7.002258%)" offset="0.671875"/><stop stop-opacity="1" stop-color="rgb(94.898987%, 38.830566%, 6.834412%)" offset="0.679688"/><stop stop-opacity="1" stop-color="rgb(94.898987%, 38.609314%, 6.665039%)" offset="0.6875"/><stop stop-opacity="1" stop-color="rgb(94.898987%, 38.388062%, 6.495667%)" offset="0.695312"/><stop stop-opacity="1" stop-color="rgb(94.898987%, 38.166809%, 6.32782%)" offset="0.703125"/><stop stop-opacity="1" stop-color="rgb(94.898987%, 37.945557%, 6.158447%)" offset="0.710938"/><stop stop-opacity="1" stop-color="rgb(94.898987%, 37.724304%, 5.989075%)" offset="0.71875"/><stop stop-opacity="1" stop-color="rgb(94.898987%, 37.503052%, 5.821228%)" offset="0.726562"/><stop stop-opacity="1" stop-color="rgb(94.898987%, 37.283325%, 5.651855%)" offset="0.734375"/><stop stop-opacity="1" stop-color="rgb(94.898987%, 37.062073%, 5.482483%)" offset="0.742188"/><stop stop-opacity="1" stop-color="rgb(94.898987%, 36.84082%, 5.314636%)" offset="0.75"/><stop stop-opacity="1" stop-color="rgb(94.898987%, 36.619568%, 5.145264%)" offset="0.757812"/><stop stop-opacity="1" stop-color="rgb(94.898987%, 36.398315%, 4.975891%)" offset="0.765625"/><stop stop-opacity="1" stop-color="rgb(94.898987%, 36.177063%, 4.808044%)" offset="0.773437"/><stop stop-opacity="1" stop-color="rgb(94.898987%, 35.955811%, 4.638672%)" offset="0.78125"/><stop stop-opacity="1" stop-color="rgb(94.898987%, 35.734558%, 4.469299%)" offset="0.789062"/><stop stop-opacity="1" stop-color="rgb(94.898987%, 35.513306%, 4.301453%)" offset="0.796875"/><stop stop-opacity="1" stop-color="rgb(94.898987%, 35.292053%, 4.13208%)" offset="0.804688"/><stop stop-opacity="1" stop-color="rgb(94.898987%, 35.070801%, 3.964233%)" offset="0.8125"/><stop stop-opacity="1" stop-color="rgb(94.898987%, 34.849548%, 3.794861%)" offset="0.820312"/><stop stop-opacity="1" stop-color="rgb(94.898987%, 34.629822%, 3.625488%)" offset="0.828125"/><stop stop-opacity="1" stop-color="rgb(94.898987%, 34.408569%, 3.457642%)" offset="0.835938"/><stop stop-opacity="1" stop-color="rgb(94.898987%, 34.187317%, 3.288269%)" offset="0.84375"/><stop stop-opacity="1" stop-color="rgb(94.898987%, 33.966064%, 3.118896%)" offset="0.851563"/><stop stop-opacity="1" stop-color="rgb(94.898987%, 33.744812%, 2.95105%)" offset="0.859375"/><stop stop-opacity="1" stop-color="rgb(94.898987%, 33.52356%, 2.781677%)" offset="0.867188"/><stop stop-opacity="1" stop-color="rgb(94.898987%, 33.302307%, 2.612305%)" offset="0.875"/><stop stop-opacity="1" stop-color="rgb(94.898987%, 33.081055%, 2.444458%)" offset="0.882812"/><stop stop-opacity="1" stop-color="rgb(94.898987%, 32.859802%, 2.275085%)" offset="0.890625"/><stop stop-opacity="1" stop-color="rgb(94.898987%, 32.624817%, 2.095032%)" offset="0.90625"/><stop stop-opacity="1" stop-color="rgb(94.898987%, 32.499695%, 1.998901%)" offset="0.9375"/><stop stop-opacity="1" stop-color="rgb(94.898987%, 32.499695%, 1.998901%)" offset="1"/></linearGradient></defs><g clip-path="url(#0648f5d325)"><g clip-path="url(#2f8d46dcaf)"><path fill="url(#8ed79706c4)" d="M 4.292969 2.765625 L 4.292969 34.214844 L 24.429688 34.214844 L 24.429688 2.765625 Z M 4.292969 2.765625 " fill-rule="nonzero"/></g></g><g clip-path="url(#3bf7cd9326)"><g clip-path="url(#3f05d567fd)"><path fill="url(#77ee2b9bee)" d="M 14.265625 2.765625 L 14.265625 34.214844 L 34.636719 34.214844 L 34.636719 2.765625 Z M 14.265625 2.765625 " fill-rule="nonzero"/></g></g><g fill="#023e8a" fill-opacity="1"><g transform="translate(32.486435, 21.907895)"><g><path d="M 7.78125 -2.078125 L 3.4375 -2.078125 L 2.71875 0 L 0.40625 0 L 4.34375 -10.953125 L 6.890625 -10.953125 L 10.828125 0 L 8.515625 0 Z M 7.1875 -3.84375 L 5.609375 -8.421875 L 4.03125 -3.84375 Z M 7.1875 -3.84375 "/></g></g></g><g fill="#023e8a" fill-opacity="1"><g transform="translate(44.356065, 21.907895)"><g><path d="M 4.859375 0.109375 C 4.097656 0.109375 3.410156 -0.0195312 2.796875 -0.28125 C 2.179688 -0.539062 1.695312 -0.914062 1.34375 -1.40625 C 0.988281 -1.894531 0.804688 -2.476562 0.796875 -3.15625 L 3.15625 -3.15625 C 3.1875 -2.695312 3.34375 -2.335938 3.625 -2.078125 C 3.914062 -1.816406 4.3125 -1.6875 4.8125 -1.6875 C 5.320312 -1.6875 5.722656 -1.804688 6.015625 -2.046875 C 6.304688 -2.296875 6.453125 -2.625 6.453125 -3.03125 C 6.453125 -3.351562 6.351562 -3.617188 6.15625 -3.828125 C 5.957031 -4.035156 5.707031 -4.195312 5.40625 -4.3125 C 5.113281 -4.4375 4.707031 -4.570312 4.1875 -4.71875 C 3.476562 -4.925781 2.898438 -5.128906 2.453125 -5.328125 C 2.003906 -5.535156 1.617188 -5.84375 1.296875 -6.25 C 0.984375 -6.664062 0.828125 -7.222656 0.828125 -7.921875 C 0.828125 -8.566406 0.988281 -9.128906 1.3125 -9.609375 C 1.632812 -10.085938 2.085938 -10.453125 2.671875 -10.703125 C 3.265625 -10.960938 3.9375 -11.09375 4.6875 -11.09375 C 5.8125 -11.09375 6.726562 -10.816406 7.4375 -10.265625 C 8.144531 -9.722656 8.535156 -8.960938 8.609375 -7.984375 L 6.1875 -7.984375 C 6.164062 -8.359375 6.003906 -8.664062 5.703125 -8.90625 C 5.410156 -9.15625 5.019531 -9.28125 4.53125 -9.28125 C 4.101562 -9.28125 3.757812 -9.171875 3.5 -8.953125 C 3.25 -8.734375 3.125 -8.414062 3.125 -8 C 3.125 -7.695312 3.21875 -7.445312 3.40625 -7.25 C 3.601562 -7.0625 3.84375 -6.90625 4.125 -6.78125 C 4.414062 -6.664062 4.820312 -6.53125 5.34375 -6.375 C 6.050781 -6.164062 6.628906 -5.957031 7.078125 -5.75 C 7.523438 -5.539062 7.910156 -5.226562 8.234375 -4.8125 C 8.566406 -4.394531 8.734375 -3.847656 8.734375 -3.171875 C 8.734375 -2.578125 8.578125 -2.03125 8.265625 -1.53125 C 7.960938 -1.03125 7.519531 -0.628906 6.9375 -0.328125 C 6.351562 -0.0351562 5.660156 0.109375 4.859375 0.109375 Z M 4.859375 0.109375 "/></g></g></g><g fill="#023e8a" fill-opacity="1"><g transform="translate(54.550246, 21.907895)"><g><path d="M 4.859375 0.109375 C 4.097656 0.109375 3.410156 -0.0195312 2.796875 -0.28125 C 2.179688 -0.539062 1.695312 -0.914062 1.34375 -1.40625 C 0.988281 -1.894531 0.804688 -2.476562 0.796875 -3.15625 L 3.15625 -3.15625 C 3.1875 -2.695312 3.34375 -2.335938 3.625 -2.078125 C 3.914062 -1.816406 4.3125 -1.6875 4.8125 -1.6875 C 5.320312 -1.6875 5.722656 -1.804688 6.015625 -2.046875 C 6.304688 -2.296875 6.453125 -2.625 6.453125 -3.03125 C 6.453125 -3.351562 6.351562 -3.617188 6.15625 -3.828125 C 5.957031 -4.035156 5.707031 -4.195312 5.40625 -4.3125 C 5.113281 -4.4375 4.707031 -4.570312 4.1875 -4.71875 C 3.476562 -4.925781 2.898438 -5.128906 2.453125 -5.328125 C 2.003906 -5.535156 1.617188 -5.84375 1.296875 -6.25 C 0.984375 -6.664062 0.828125 -7.222656 0.828125 -7.921875 C 0.828125 -8.566406 0.988281 -9.128906 1.3125 -9.609375 C 1.632812 -10.085938 2.085938 -10.453125 2.671875 -10.703125 C 3.265625 -10.960938 3.9375 -11.09375 4.6875 -11.09375 C 5.8125 -11.09375 6.726562 -10.816406 7.4375 -10.265625 C 8.144531 -9.722656 8.535156 -8.960938 8.609375 -7.984375 L 6.1875 -7.984375 C 6.164062 -8.359375 6.003906 -8.664062 5.703125 -8.90625 C 5.410156 -9.15625 5.019531 -9.28125 4.53125 -9.28125 C 4.101562 -9.28125 3.757812 -9.171875 3.5 -8.953125 C 3.25 -8.734375 3.125 -8.414062 3.125 -8 C 3.125 -7.695312 3.21875 -7.445312 3.40625 -7.25 C 3.601562 -7.0625 3.84375 -6.90625 4.125 -6.78125 C 4.414062 -6.664062 4.820312 -6.53125 5.34375 -6.375 C 6.050781 -6.164062 6.628906 -5.957031 7.078125 -5.75 C 7.523438 -5.539062 7.910156 -5.226562 8.234375 -4.8125 C 8.566406 -4.394531 8.734375 -3.847656 8.734375 -3.171875 C 8.734375 -2.578125 8.578125 -2.03125 8.265625 -1.53125 C 7.960938 -1.03125 7.519531 -0.628906 6.9375 -0.328125 C 6.351562 -0.0351562 5.660156 0.109375 4.859375 0.109375 Z M 4.859375 0.109375 "/></g></g></g><g fill="#023e8a" fill-opacity="1"><g transform="translate(64.744427, 21.907895)"><g><path d="M 3.25 -10.9375 L 3.25 -4.171875 C 3.25 -3.429688 3.441406 -2.863281 3.828125 -2.46875 C 4.210938 -2.070312 4.753906 -1.875 5.453125 -1.875 C 6.160156 -1.875 6.707031 -2.070312 7.09375 -2.46875 C 7.476562 -2.863281 7.671875 -3.429688 7.671875 -4.171875 L 7.671875 -10.9375 L 9.890625 -10.9375 L 9.890625 -4.1875 C 9.890625 -3.257812 9.6875 -2.472656 9.28125 -1.828125 C 8.882812 -1.179688 8.347656 -0.695312 7.671875 -0.375 C 6.992188 -0.0507812 6.242188 0.109375 5.421875 0.109375 C 4.609375 0.109375 3.867188 -0.0507812 3.203125 -0.375 C 2.535156 -0.695312 2.007812 -1.179688 1.625 -1.828125 C 1.238281 -2.472656 1.046875 -3.257812 1.046875 -4.1875 L 1.046875 -10.9375 Z M 3.25 -10.9375 "/></g></g></g><g fill="#f25305" fill-opacity="1"><g transform="translate(76.327665, 21.907895)"><g><path d="M 7.84375 -10.9375 L 7.84375 -9.171875 L 3.28125 -9.171875 L 3.28125 -6.359375 L 6.765625 -6.359375 L 6.765625 -4.625 L 3.28125 -4.625 L 3.28125 0 L 1.078125 0 L 1.078125 -10.9375 Z M 7.84375 -10.9375 "/></g></g></g><g fill="#f25305" fill-opacity="1"><g transform="translate(85.284822, 21.907895)"><g><path d="M 3.28125 -1.734375 L 6.875 -1.734375 L 6.875 0 L 1.078125 0 L 1.078125 -10.9375 L 3.28125 -10.9375 Z M 3.28125 -1.734375 "/></g></g></g><g fill="#f25305" fill-opacity="1"><g transform="translate(93.130234, 21.907895)"><g><path d="M 3.28125 -9.171875 L 3.28125 -6.421875 L 6.953125 -6.421875 L 6.953125 -4.6875 L 3.28125 -4.6875 L 3.28125 -1.78125 L 7.421875 -1.78125 L 7.421875 0 L 1.078125 0 L 1.078125 -10.953125 L 7.421875 -10.953125 L 7.421875 -9.171875 Z M 3.28125 -9.171875 "/></g></g></g><g fill="#f25305" fill-opacity="1"><g transform="translate(102.118707, 21.907895)"><g><path d="M 7.625 0 L 5.265625 -3.6875 L 3.125 0 L 0.640625 0 L 4.09375 -5.515625 L 0.59375 -10.9375 L 3.125 -10.9375 L 5.484375 -7.265625 L 7.609375 -10.9375 L 10.09375 -10.9375 L 6.65625 -5.4375 L 10.15625 0 Z M 7.625 0 "/></g></g></g><g fill="#023e8a" fill-opacity="1"><g transform="translate(34.523577, 29.662441)"><g><path d="M 1.5 0.03125 C 1.269531 0.03125 1.0625 -0.00390625 0.875 -0.078125 C 0.695312 -0.160156 0.550781 -0.273438 0.4375 -0.421875 C 0.332031 -0.578125 0.28125 -0.753906 0.28125 -0.953125 L 0.890625 -0.953125 C 0.898438 -0.796875 0.957031 -0.671875 1.0625 -0.578125 C 1.164062 -0.484375 1.3125 -0.4375 1.5 -0.4375 C 1.695312 -0.4375 1.847656 -0.484375 1.953125 -0.578125 C 2.066406 -0.671875 2.125 -0.789062 2.125 -0.9375 C 2.125 -1.050781 2.085938 -1.144531 2.015625 -1.21875 C 1.953125 -1.289062 1.867188 -1.347656 1.765625 -1.390625 C 1.660156 -1.429688 1.519531 -1.472656 1.34375 -1.515625 C 1.125 -1.578125 0.941406 -1.640625 0.796875 -1.703125 C 0.660156 -1.765625 0.539062 -1.859375 0.4375 -1.984375 C 0.34375 -2.109375 0.296875 -2.28125 0.296875 -2.5 C 0.296875 -2.695312 0.34375 -2.867188 0.4375 -3.015625 C 0.539062 -3.160156 0.679688 -3.269531 0.859375 -3.34375 C 1.035156 -3.425781 1.238281 -3.46875 1.46875 -3.46875 C 1.800781 -3.46875 2.070312 -3.382812 2.28125 -3.21875 C 2.5 -3.0625 2.617188 -2.835938 2.640625 -2.546875 L 2.03125 -2.546875 C 2.019531 -2.671875 1.957031 -2.773438 1.84375 -2.859375 C 1.738281 -2.953125 1.597656 -3 1.421875 -3 C 1.253906 -3 1.117188 -2.957031 1.015625 -2.875 C 0.921875 -2.789062 0.875 -2.671875 0.875 -2.515625 C 0.875 -2.410156 0.90625 -2.320312 0.96875 -2.25 C 1.03125 -2.1875 1.109375 -2.132812 1.203125 -2.09375 C 1.304688 -2.0625 1.441406 -2.019531 1.609375 -1.96875 C 1.835938 -1.90625 2.023438 -1.84375 2.171875 -1.78125 C 2.316406 -1.71875 2.4375 -1.617188 2.53125 -1.484375 C 2.632812 -1.359375 2.6875 -1.1875 2.6875 -0.96875 C 2.6875 -0.800781 2.640625 -0.640625 2.546875 -0.484375 C 2.453125 -0.328125 2.3125 -0.203125 2.125 -0.109375 C 1.945312 -0.015625 1.738281 0.03125 1.5 0.03125 Z M 1.5 0.03125 "/></g></g></g><g fill="#023e8a" fill-opacity="1"><g transform="translate(37.424915, 29.662441)"><g><path d="M 2.4375 -0.703125 L 1 -0.703125 L 0.75 0 L 0.171875 0 L 1.390625 -3.4375 L 2.046875 -3.4375 L 3.28125 0 L 2.6875 0 Z M 2.28125 -1.15625 L 1.71875 -2.75 L 1.15625 -1.15625 Z M 2.28125 -1.15625 "/></g></g></g><g fill="#023e8a" fill-opacity="1"><g transform="translate(40.785139, 29.662441)"><g><path d="M 3.1875 0 L 2.625 0 L 0.9375 -2.5625 L 0.9375 0 L 0.375 0 L 0.375 -3.4375 L 0.9375 -3.4375 L 2.625 -0.875 L 2.625 -3.4375 L 3.1875 -3.4375 Z M 3.1875 0 "/></g></g></g><g fill="#023e8a" fill-opacity="1"><g transform="translate(44.263783, 29.662441)"><g><path d="M 2.59375 -3.4375 L 2.59375 -2.96875 L 1.671875 -2.96875 L 1.671875 0 L 1.109375 0 L 1.109375 -2.96875 L 0.1875 -2.96875 L 0.1875 -3.4375 Z M 2.59375 -3.4375 "/></g></g></g><g fill="#023e8a" fill-opacity="1"><g transform="translate(46.967754, 29.662441)"><g><path d="M 0.9375 -2.984375 L 0.9375 -1.96875 L 2.125 -1.96875 L 2.125 -1.515625 L 0.9375 -1.515625 L 0.9375 -0.453125 L 2.265625 -0.453125 L 2.265625 0 L 0.375 0 L 0.375 -3.4375 L 2.265625 -3.4375 L 2.265625 -2.984375 Z M 1.796875 -4.171875 L 0.703125 -3.625 L 0.703125 -4.046875 L 1.796875 -4.65625 Z M 1.796875 -4.171875 "/></g></g></g><g fill="#023e8a" fill-opacity="1"><g transform="translate(49.474352, 29.662441)"><g/></g></g><g fill="#023e8a" fill-opacity="1"><g transform="translate(50.67831, 29.662441)"><g><path d="M 3.015625 0 L 2.59375 -0.421875 C 2.425781 -0.253906 2.242188 -0.128906 2.046875 -0.046875 C 1.859375 0.0234375 1.644531 0.0625 1.40625 0.0625 C 1.164062 0.0625 0.953125 0.0195312 0.765625 -0.0625 C 0.578125 -0.144531 0.429688 -0.265625 0.328125 -0.421875 C 0.222656 -0.585938 0.171875 -0.773438 0.171875 -0.984375 C 0.171875 -1.222656 0.238281 -1.4375 0.375 -1.625 C 0.507812 -1.8125 0.710938 -1.957031 0.984375 -2.0625 C 0.878906 -2.175781 0.804688 -2.28125 0.765625 -2.375 C 0.734375 -2.476562 0.71875 -2.59375 0.71875 -2.71875 C 0.71875 -2.875 0.753906 -3.007812 0.828125 -3.125 C 0.910156 -3.238281 1.019531 -3.332031 1.15625 -3.40625 C 1.300781 -3.476562 1.472656 -3.515625 1.671875 -3.515625 C 1.859375 -3.515625 2.019531 -3.472656 2.15625 -3.390625 C 2.300781 -3.316406 2.40625 -3.21875 2.46875 -3.09375 C 2.539062 -2.96875 2.566406 -2.828125 2.546875 -2.671875 L 1.984375 -2.671875 C 1.992188 -2.785156 1.96875 -2.875 1.90625 -2.9375 C 1.84375 -3.007812 1.753906 -3.046875 1.640625 -3.046875 C 1.535156 -3.046875 1.445312 -3.015625 1.375 -2.953125 C 1.3125 -2.890625 1.28125 -2.8125 1.28125 -2.71875 C 1.28125 -2.632812 1.304688 -2.546875 1.359375 -2.453125 C 1.410156 -2.367188 1.5 -2.257812 1.625 -2.125 L 2.53125 -1.21875 L 2.890625 -1.796875 L 3.484375 -1.796875 L 3.046875 -1.03125 L 2.921875 -0.828125 L 3.75 0 Z M 1.40625 -0.421875 C 1.71875 -0.421875 1.992188 -0.546875 2.234375 -0.796875 L 1.3125 -1.703125 C 0.925781 -1.546875 0.734375 -1.3125 0.734375 -1 C 0.734375 -0.832031 0.796875 -0.691406 0.921875 -0.578125 C 1.046875 -0.472656 1.207031 -0.421875 1.40625 -0.421875 Z M 1.40625 -0.421875 "/></g></g></g><g fill="#023e8a" fill-opacity="1"><g transform="translate(54.354326, 29.662441)"><g/></g></g><g fill="#023e8a" fill-opacity="1"><g transform="translate(55.558285, 29.662441)"><g><path d="M 2.765625 -2.40625 C 2.765625 -2.226562 2.722656 -2.0625 2.640625 -1.90625 C 2.554688 -1.757812 2.425781 -1.632812 2.25 -1.53125 C 2.070312 -1.4375 1.84375 -1.390625 1.5625 -1.390625 L 0.9375 -1.390625 L 0.9375 0 L 0.375 0 L 0.375 -3.4375 L 1.5625 -3.4375 C 1.820312 -3.4375 2.039062 -3.390625 2.21875 -3.296875 C 2.40625 -3.203125 2.539062 -3.078125 2.625 -2.921875 C 2.71875 -2.773438 2.765625 -2.601562 2.765625 -2.40625 Z M 1.5625 -1.84375 C 1.769531 -1.84375 1.925781 -1.890625 2.03125 -1.984375 C 2.132812 -2.085938 2.1875 -2.226562 2.1875 -2.40625 C 2.1875 -2.78125 1.976562 -2.96875 1.5625 -2.96875 L 0.9375 -2.96875 L 0.9375 -1.84375 Z M 1.5625 -1.84375 "/></g></g></g><g fill="#023e8a" fill-opacity="1"><g transform="translate(58.415213, 29.662441)"><g><path d="M 2.15625 0 L 1.359375 -1.375 L 0.9375 -1.375 L 0.9375 0 L 0.375 0 L 0.375 -3.4375 L 1.5625 -3.4375 C 1.820312 -3.4375 2.039062 -3.390625 2.21875 -3.296875 C 2.40625 -3.203125 2.539062 -3.078125 2.625 -2.921875 C 2.71875 -2.765625 2.765625 -2.59375 2.765625 -2.40625 C 2.765625 -2.175781 2.695312 -1.96875 2.5625 -1.78125 C 2.4375 -1.601562 2.238281 -1.484375 1.96875 -1.421875 L 2.828125 0 Z M 0.9375 -1.828125 L 1.5625 -1.828125 C 1.769531 -1.828125 1.925781 -1.878906 2.03125 -1.984375 C 2.132812 -2.085938 2.1875 -2.226562 2.1875 -2.40625 C 2.1875 -2.582031 2.132812 -2.71875 2.03125 -2.8125 C 1.925781 -2.914062 1.769531 -2.96875 1.5625 -2.96875 L 0.9375 -2.96875 Z M 0.9375 -1.828125 "/></g></g></g><g fill="#023e8a" fill-opacity="1"><g transform="translate(61.454714, 29.662441)"><g><path d="M 0.9375 -2.984375 L 0.9375 -1.96875 L 2.125 -1.96875 L 2.125 -1.515625 L 0.9375 -1.515625 L 0.9375 -0.453125 L 2.265625 -0.453125 L 2.265625 0 L 0.375 0 L 0.375 -3.4375 L 2.265625 -3.4375 L 2.265625 -2.984375 Z M 1.796875 -4.171875 L 0.703125 -3.625 L 0.703125 -4.046875 L 1.796875 -4.65625 Z M 1.796875 -4.171875 "/></g></g></g><g fill="#023e8a" fill-opacity="1"><g transform="translate(63.961311, 29.662441)"><g><path d="M 3.328125 -3.4375 L 2.046875 0 L 1.390625 0 L 0.09375 -3.4375 L 0.703125 -3.4375 L 1.71875 -0.578125 L 2.734375 -3.4375 Z M 3.328125 -3.4375 "/></g></g></g><g fill="#023e8a" fill-opacity="1"><g transform="translate(67.306734, 29.662441)"><g><path d="M 1.9375 0.03125 C 1.613281 0.03125 1.316406 -0.0390625 1.046875 -0.1875 C 0.785156 -0.34375 0.578125 -0.550781 0.421875 -0.8125 C 0.265625 -1.082031 0.1875 -1.382812 0.1875 -1.71875 C 0.1875 -2.0625 0.265625 -2.363281 0.421875 -2.625 C 0.578125 -2.894531 0.785156 -3.101562 1.046875 -3.25 C 1.316406 -3.394531 1.613281 -3.46875 1.9375 -3.46875 C 2.257812 -3.46875 2.550781 -3.394531 2.8125 -3.25 C 3.082031 -3.101562 3.296875 -2.894531 3.453125 -2.625 C 3.609375 -2.363281 3.6875 -2.0625 3.6875 -1.71875 C 3.6875 -1.382812 3.609375 -1.082031 3.453125 -0.8125 C 3.296875 -0.550781 3.082031 -0.34375 2.8125 -0.1875 C 2.550781 -0.0390625 2.257812 0.03125 1.9375 0.03125 Z M 1.9375 -0.453125 C 2.164062 -0.453125 2.367188 -0.503906 2.546875 -0.609375 C 2.722656 -0.710938 2.859375 -0.859375 2.953125 -1.046875 C 3.054688 -1.242188 3.109375 -1.46875 3.109375 -1.71875 C 3.109375 -1.976562 3.054688 -2.203125 2.953125 -2.390625 C 2.859375 -2.578125 2.722656 -2.722656 2.546875 -2.828125 C 2.367188 -2.929688 2.164062 -2.984375 1.9375 -2.984375 C 1.707031 -2.984375 1.503906 -2.929688 1.328125 -2.828125 C 1.148438 -2.722656 1.007812 -2.578125 0.90625 -2.390625 C 0.8125 -2.203125 0.765625 -1.976562 0.765625 -1.71875 C 0.765625 -1.46875 0.8125 -1.242188 0.90625 -1.046875 C 1.007812 -0.859375 1.148438 -0.710938 1.328125 -0.609375 C 1.503906 -0.503906 1.707031 -0.453125 1.9375 -0.453125 Z M 1.9375 -0.453125 "/></g></g></g><g fill="#023e8a" fill-opacity="1"><g transform="translate(71.096238, 29.662441)"><g><path d="M 2.90625 -3.4375 L 1.78125 -1.25 L 1.78125 0 L 1.21875 0 L 1.21875 -1.25 L 0.078125 -3.4375 L 0.703125 -3.4375 L 1.5 -1.75 L 2.296875 -3.4375 Z M 2.90625 -3.4375 "/></g></g></g><g fill="#023e8a" fill-opacity="1"><g transform="translate(74.002512, 29.662441)"><g><path d="M 2.4375 -0.703125 L 1 -0.703125 L 0.75 0 L 0.171875 0 L 1.390625 -3.4375 L 2.046875 -3.4375 L 3.28125 0 L 2.6875 0 Z M 2.28125 -1.15625 L 1.71875 -2.75 L 1.15625 -1.15625 Z M 2.28125 -1.15625 "/></g></g></g><g fill="#023e8a" fill-opacity="1"><g transform="translate(77.362737, 29.662441)"><g><path d="M 3.1875 0 L 2.625 0 L 0.9375 -2.5625 L 0.9375 0 L 0.375 0 L 0.375 -3.4375 L 0.9375 -3.4375 L 2.625 -0.875 L 2.625 -3.4375 L 3.1875 -3.4375 Z M 3.1875 0 "/></g></g></g><g fill="#023e8a" fill-opacity="1"><g transform="translate(80.84138, 29.662441)"><g><path d="M 0.1875 -1.71875 C 0.1875 -2.0625 0.265625 -2.363281 0.421875 -2.625 C 0.578125 -2.894531 0.785156 -3.101562 1.046875 -3.25 C 1.316406 -3.394531 1.613281 -3.46875 1.9375 -3.46875 C 2.300781 -3.46875 2.625 -3.378906 2.90625 -3.203125 C 3.195312 -3.023438 3.40625 -2.769531 3.53125 -2.4375 L 2.859375 -2.4375 C 2.765625 -2.625 2.640625 -2.757812 2.484375 -2.84375 C 2.328125 -2.9375 2.144531 -2.984375 1.9375 -2.984375 C 1.707031 -2.984375 1.503906 -2.929688 1.328125 -2.828125 C 1.148438 -2.722656 1.007812 -2.578125 0.90625 -2.390625 C 0.8125 -2.203125 0.765625 -1.976562 0.765625 -1.71875 C 0.765625 -1.46875 0.8125 -1.242188 0.90625 -1.046875 C 1.007812 -0.859375 1.148438 -0.710938 1.328125 -0.609375 C 1.503906 -0.503906 1.707031 -0.453125 1.9375 -0.453125 C 2.144531 -0.453125 2.328125 -0.492188 2.484375 -0.578125 C 2.640625 -0.671875 2.765625 -0.8125 2.859375 -1 L 3.53125 -1 C 3.40625 -0.664062 3.195312 -0.410156 2.90625 -0.234375 C 2.625 -0.0546875 2.300781 0.03125 1.9375 0.03125 C 1.613281 0.03125 1.316406 -0.0390625 1.046875 -0.1875 C 0.785156 -0.34375 0.578125 -0.550781 0.421875 -0.8125 C 0.265625 -1.082031 0.1875 -1.382812 0.1875 -1.71875 Z M 0.1875 -1.71875 "/></g></g></g><g fill="#023e8a" fill-opacity="1"><g transform="translate(84.576605, 29.662441)"><g><path d="M 0.9375 -2.984375 L 0.9375 -1.96875 L 2.125 -1.96875 L 2.125 -1.515625 L 0.9375 -1.515625 L 0.9375 -0.453125 L 2.265625 -0.453125 L 2.265625 0 L 0.375 0 L 0.375 -3.4375 L 2.265625 -3.4375 L 2.265625 -2.984375 Z M 0.9375 -2.984375 "/></g></g></g><g fill="#023e8a" fill-opacity="1"><g transform="translate(87.083202, 29.662441)"><g/></g></g><g fill="#023e8a" fill-opacity="1"><g transform="translate(88.287164, 29.662441)"><g><path d="M 1.484375 -3.4375 C 1.859375 -3.4375 2.179688 -3.363281 2.453125 -3.21875 C 2.722656 -3.082031 2.929688 -2.882812 3.078125 -2.625 C 3.234375 -2.363281 3.3125 -2.054688 3.3125 -1.703125 C 3.3125 -1.359375 3.234375 -1.054688 3.078125 -0.796875 C 2.929688 -0.535156 2.722656 -0.335938 2.453125 -0.203125 C 2.179688 -0.0664062 1.859375 0 1.484375 0 L 0.375 0 L 0.375 -3.4375 Z M 1.484375 -0.453125 C 1.890625 -0.453125 2.195312 -0.5625 2.40625 -0.78125 C 2.625 -1 2.734375 -1.304688 2.734375 -1.703125 C 2.734375 -2.097656 2.625 -2.40625 2.40625 -2.625 C 2.195312 -2.851562 1.890625 -2.96875 1.484375 -2.96875 L 0.9375 -2.96875 L 0.9375 -0.453125 Z M 1.484375 -0.453125 "/></g></g></g><g fill="#023e8a" fill-opacity="1"><g transform="translate(91.706598, 29.662441)"><g><path d="M 0.453125 -3.4375 L 1.078125 -3.4375 L 0.546875 -2.25 L 0.15625 -2.25 Z M 0.453125 -3.4375 "/></g></g></g><g fill="#023e8a" fill-opacity="1"><g transform="translate(92.821739, 29.662441)"><g><path d="M 0.9375 -2.984375 L 0.9375 -1.96875 L 2.125 -1.96875 L 2.125 -1.515625 L 0.9375 -1.515625 L 0.9375 -0.453125 L 2.265625 -0.453125 L 2.265625 0 L 0.375 0 L 0.375 -3.4375 L 2.265625 -3.4375 L 2.265625 -2.984375 Z M 0.9375 -2.984375 "/></g></g></g><g fill="#023e8a" fill-opacity="1"><g transform="translate(95.328336, 29.662441)"><g><path d="M 1.953125 -1.71875 L 3.015625 0 L 2.375 0 L 1.609375 -1.25 L 0.875 0 L 0.25 0 L 1.3125 -1.71875 L 0.25 -3.4375 L 0.875 -3.4375 L 1.65625 -2.171875 L 2.390625 -3.4375 L 3.015625 -3.4375 Z M 1.953125 -1.71875 "/></g></g></g><g fill="#023e8a" fill-opacity="1"><g transform="translate(98.505994, 29.662441)"><g><path d="M 0.1875 -1.71875 C 0.1875 -2.0625 0.265625 -2.363281 0.421875 -2.625 C 0.578125 -2.894531 0.785156 -3.101562 1.046875 -3.25 C 1.316406 -3.394531 1.613281 -3.46875 1.9375 -3.46875 C 2.300781 -3.46875 2.625 -3.378906 2.90625 -3.203125 C 3.195312 -3.023438 3.40625 -2.769531 3.53125 -2.4375 L 2.859375 -2.4375 C 2.765625 -2.625 2.640625 -2.757812 2.484375 -2.84375 C 2.328125 -2.9375 2.144531 -2.984375 1.9375 -2.984375 C 1.707031 -2.984375 1.503906 -2.929688 1.328125 -2.828125 C 1.148438 -2.722656 1.007812 -2.578125 0.90625 -2.390625 C 0.8125 -2.203125 0.765625 -1.976562 0.765625 -1.71875 C 0.765625 -1.46875 0.8125 -1.242188 0.90625 -1.046875 C 1.007812 -0.859375 1.148438 -0.710938 1.328125 -0.609375 C 1.503906 -0.503906 1.707031 -0.453125 1.9375 -0.453125 C 2.144531 -0.453125 2.328125 -0.492188 2.484375 -0.578125 C 2.640625 -0.671875 2.765625 -0.8125 2.859375 -1 L 3.53125 -1 C 3.40625 -0.664062 3.195312 -0.410156 2.90625 -0.234375 C 2.625 -0.0546875 2.300781 0.03125 1.9375 0.03125 C 1.613281 0.03125 1.316406 -0.0390625 1.046875 -0.1875 C 0.785156 -0.34375 0.578125 -0.550781 0.421875 -0.8125 C 0.265625 -1.082031 0.1875 -1.382812 0.1875 -1.71875 Z M 0.1875 -1.71875 "/></g></g></g><g fill="#023e8a" fill-opacity="1"><g transform="translate(102.24122, 29.662441)"><g><path d="M 0.9375 -2.984375 L 0.9375 -1.96875 L 2.125 -1.96875 L 2.125 -1.515625 L 0.9375 -1.515625 L 0.9375 -0.453125 L 2.265625 -0.453125 L 2.265625 0 L 0.375 0 L 0.375 -3.4375 L 2.265625 -3.4375 L 2.265625 -2.984375 Z M 0.9375 -2.984375 "/></g></g></g><g fill="#023e8a" fill-opacity="1"><g transform="translate(104.747817, 29.662441)"><g><path d="M 0.9375 -0.453125 L 2.09375 -0.453125 L 2.09375 0 L 0.375 0 L 0.375 -3.4375 L 0.9375 -3.4375 Z M 0.9375 -0.453125 "/></g></g></g><g fill="#023e8a" fill-opacity="1"><g transform="translate(106.859674, 29.662441)"><g><path d="M 0.9375 -0.453125 L 2.09375 -0.453125 L 2.09375 0 L 0.375 0 L 0.375 -3.4375 L 0.9375 -3.4375 Z M 0.9375 -0.453125 "/></g></g></g><g fill="#023e8a" fill-opacity="1"><g transform="translate(108.971531, 29.662441)"><g><path d="M 0.9375 -2.984375 L 0.9375 -1.96875 L 2.125 -1.96875 L 2.125 -1.515625 L 0.9375 -1.515625 L 0.9375 -0.453125 L 2.265625 -0.453125 L 2.265625 0 L 0.375 0 L 0.375 -3.4375 L 2.265625 -3.4375 L 2.265625 -2.984375 Z M 0.9375 -2.984375 "/></g></g></g><g fill="#023e8a" fill-opacity="1"><g transform="translate(111.478128, 29.662441)"><g><path d="M 3.1875 0 L 2.625 0 L 0.9375 -2.5625 L 0.9375 0 L 0.375 0 L 0.375 -3.4375 L 0.9375 -3.4375 L 2.625 -0.875 L 2.625 -3.4375 L 3.1875 -3.4375 Z M 3.1875 0 "/></g></g></g><g fill="#023e8a" fill-opacity="1"><g transform="translate(114.956771, 29.662441)"><g><path d="M 0.1875 -1.71875 C 0.1875 -2.0625 0.265625 -2.363281 0.421875 -2.625 C 0.578125 -2.894531 0.785156 -3.101562 1.046875 -3.25 C 1.316406 -3.394531 1.613281 -3.46875 1.9375 -3.46875 C 2.300781 -3.46875 2.625 -3.378906 2.90625 -3.203125 C 3.195312 -3.023438 3.40625 -2.769531 3.53125 -2.4375 L 2.859375 -2.4375 C 2.765625 -2.625 2.640625 -2.757812 2.484375 -2.84375 C 2.328125 -2.9375 2.144531 -2.984375 1.9375 -2.984375 C 1.707031 -2.984375 1.503906 -2.929688 1.328125 -2.828125 C 1.148438 -2.722656 1.007812 -2.578125 0.90625 -2.390625 C 0.8125 -2.203125 0.765625 -1.976562 0.765625 -1.71875 C 0.765625 -1.46875 0.8125 -1.242188 0.90625 -1.046875 C 1.007812 -0.859375 1.148438 -0.710938 1.328125 -0.609375 C 1.503906 -0.503906 1.707031 -0.453125 1.9375 -0.453125 C 2.144531 -0.453125 2.328125 -0.492188 2.484375 -0.578125 C 2.640625 -0.671875 2.765625 -0.8125 2.859375 -1 L 3.53125 -1 C 3.40625 -0.664062 3.195312 -0.410156 2.90625 -0.234375 C 2.625 -0.0546875 2.300781 0.03125 1.9375 0.03125 C 1.613281 0.03125 1.316406 -0.0390625 1.046875 -0.1875 C 0.785156 -0.34375 0.578125 -0.550781 0.421875 -0.8125 C 0.265625 -1.082031 0.1875 -1.382812 0.1875 -1.71875 Z M 0.1875 -1.71875 "/></g></g></g><g fill="#023e8a" fill-opacity="1"><g transform="translate(118.691997, 29.662441)"><g><path d="M 0.9375 -2.984375 L 0.9375 -1.96875 L 2.125 -1.96875 L 2.125 -1.515625 L 0.9375 -1.515625 L 0.9375 -0.453125 L 2.265625 -0.453125 L 2.265625 0 L 0.375 0 L 0.375 -3.4375 L 2.265625 -3.4375 L 2.265625 -2.984375 Z M 0.9375 -2.984375 "/></g></g></g></svg>