<svg xmlns="http://www.w3.org/2000/svg" xmlns:xlink="http://www.w3.org/1999/xlink" width="200" zoomAndPan="magnify" viewBox="0 0 150 37.5" height="50" preserveAspectRatio="xMidYMid meet" version="1.0"><defs><g/><clipPath id="1e6b21642a"><path d="M 8.921875 2.160156 L 30 2.160156 L 30 34.726562 L 8.921875 34.726562 Z M 8.921875 2.160156 " clip-rule="nonzero"/></clipPath><clipPath id="d250382197"><path d="M 13.558594 34.820312 C 12.90625 34.820312 12.21875 34.683594 11.570312 34.375 C 9.273438 33.273438 8.277344 30.527344 9.375 28.191406 L 20.378906 4.945312 C 21.472656 2.644531 24.214844 1.648438 26.546875 2.75 C 28.84375 3.847656 29.835938 6.59375 28.738281 8.929688 L 17.738281 32.175781 C 16.949219 33.859375 15.269531 34.820312 13.558594 34.820312 Z M 13.558594 34.820312 " clip-rule="nonzero"/></clipPath><linearGradient x1="86.966678" gradientTransform="matrix(0.18056, 0, 0, 0.18056, 8.928716, 2.159502)" y1="-28.272335" x2="151.038183" gradientUnits="userSpaceOnUse" y2="168.907638" id="4c4f3c75ad"><stop stop-opacity="1" stop-color="rgb(94.898987%, 54.499817%, 18.798828%)" offset="0"/><stop stop-opacity="1" stop-color="rgb(94.898987%, 54.499817%, 18.798828%)" offset="0.125"/><stop stop-opacity="1" stop-color="rgb(94.898987%, 54.499817%, 18.798828%)" offset="0.15625"/><stop stop-opacity="1" stop-color="rgb(94.898987%, 54.473877%, 18.778992%)" offset="0.171875"/><stop stop-opacity="1" stop-color="rgb(94.898987%, 54.336548%, 18.675232%)" offset="0.17266"/><stop stop-opacity="1" stop-color="rgb(94.898987%, 54.226685%, 18.591309%)" offset="0.179688"/><stop stop-opacity="1" stop-color="rgb(94.898987%, 54.115295%, 18.505859%)" offset="0.1875"/><stop stop-opacity="1" stop-color="rgb(94.898987%, 53.894043%, 18.336487%)" offset="0.195312"/><stop stop-opacity="1" stop-color="rgb(94.898987%, 53.672791%, 18.16864%)" offset="0.203125"/><stop stop-opacity="1" stop-color="rgb(94.898987%, 53.451538%, 17.999268%)" offset="0.210938"/><stop stop-opacity="1" stop-color="rgb(94.898987%, 53.230286%, 17.829895%)" offset="0.21875"/><stop stop-opacity="1" stop-color="rgb(94.898987%, 53.009033%, 17.662048%)" offset="0.226562"/><stop stop-opacity="1" stop-color="rgb(94.898987%, 52.787781%, 17.492676%)" offset="0.234375"/><stop stop-opacity="1" stop-color="rgb(94.898987%, 52.566528%, 17.323303%)" offset="0.242188"/><stop stop-opacity="1" stop-color="rgb(94.898987%, 52.345276%, 17.155457%)" offset="0.25"/><stop stop-opacity="1" stop-color="rgb(94.898987%, 52.124023%, 16.986084%)" offset="0.257813"/><stop stop-opacity="1" stop-color="rgb(94.898987%, 51.904297%, 16.816711%)" offset="0.265625"/><stop stop-opacity="1" stop-color="rgb(94.898987%, 51.683044%, 16.648865%)" offset="0.273438"/><stop stop-opacity="1" stop-color="rgb(94.898987%, 51.461792%, 16.479492%)" offset="0.28125"/><stop stop-opacity="1" stop-color="rgb(94.898987%, 51.24054%, 16.31012%)" offset="0.289062"/><stop stop-opacity="1" stop-color="rgb(94.898987%, 51.019287%, 16.142273%)" offset="0.296875"/><stop stop-opacity="1" stop-color="rgb(94.898987%, 50.798035%, 15.9729%)" offset="0.304688"/><stop stop-opacity="1" stop-color="rgb(94.898987%, 50.576782%, 15.803528%)" offset="0.3125"/><stop stop-opacity="1" stop-color="rgb(94.898987%, 50.35553%, 15.635681%)" offset="0.320312"/><stop stop-opacity="1" stop-color="rgb(94.898987%, 50.134277%, 15.466309%)" offset="0.328125"/><stop stop-opacity="1" stop-color="rgb(94.898987%, 49.913025%, 15.296936%)" offset="0.335938"/><stop stop-opacity="1" stop-color="rgb(94.898987%, 49.691772%, 15.127563%)" offset="0.34375"/><stop stop-opacity="1" stop-color="rgb(94.898987%, 49.47052%, 14.959717%)" offset="0.351563"/><stop stop-opacity="1" stop-color="rgb(94.898987%, 49.249268%, 14.790344%)" offset="0.359375"/><stop stop-opacity="1" stop-color="rgb(94.898987%, 49.028015%, 14.620972%)" offset="0.367188"/><stop stop-opacity="1" stop-color="rgb(94.898987%, 48.806763%, 14.453125%)" offset="0.375"/><stop stop-opacity="1" stop-color="rgb(94.898987%, 48.58551%, 14.283752%)" offset="0.382812"/><stop stop-opacity="1" stop-color="rgb(94.898987%, 48.365784%, 14.11438%)" offset="0.390625"/><stop stop-opacity="1" stop-color="rgb(94.898987%, 48.144531%, 13.946533%)" offset="0.398438"/><stop stop-opacity="1" stop-color="rgb(94.898987%, 47.923279%, 13.777161%)" offset="0.40625"/><stop stop-opacity="1" stop-color="rgb(94.898987%, 47.702026%, 13.607788%)" offset="0.414062"/><stop stop-opacity="1" stop-color="rgb(94.898987%, 47.480774%, 13.439941%)" offset="0.421875"/><stop stop-opacity="1" stop-color="rgb(94.898987%, 47.259521%, 13.270569%)" offset="0.429688"/><stop stop-opacity="1" stop-color="rgb(94.898987%, 47.038269%, 13.101196%)" offset="0.4375"/><stop stop-opacity="1" stop-color="rgb(94.898987%, 46.817017%, 12.93335%)" offset="0.445313"/><stop stop-opacity="1" stop-color="rgb(94.898987%, 46.595764%, 12.763977%)" offset="0.453125"/><stop stop-opacity="1" stop-color="rgb(94.898987%, 46.374512%, 12.594604%)" offset="0.460938"/><stop stop-opacity="1" stop-color="rgb(94.898987%, 46.153259%, 12.426758%)" offset="0.46875"/><stop stop-opacity="1" stop-color="rgb(94.898987%, 45.932007%, 12.257385%)" offset="0.476562"/><stop stop-opacity="1" stop-color="rgb(94.898987%, 45.710754%, 12.088013%)" offset="0.484375"/><stop stop-opacity="1" stop-color="rgb(94.898987%, 45.489502%, 11.920166%)" offset="0.492188"/><stop stop-opacity="1" stop-color="rgb(94.898987%, 45.26825%, 11.750793%)" offset="0.5"/><stop stop-opacity="1" stop-color="rgb(94.898987%, 45.046997%, 11.581421%)" offset="0.507812"/><stop stop-opacity="1" stop-color="rgb(94.898987%, 44.827271%, 11.413574%)" offset="0.515625"/><stop stop-opacity="1" stop-color="rgb(94.898987%, 44.606018%, 11.244202%)" offset="0.523438"/><stop stop-opacity="1" stop-color="rgb(94.898987%, 44.384766%, 11.074829%)" offset="0.53125"/><stop stop-opacity="1" stop-color="rgb(94.898987%, 44.163513%, 10.905457%)" offset="0.539063"/><stop stop-opacity="1" stop-color="rgb(94.898987%, 43.942261%, 10.73761%)" offset="0.546875"/><stop stop-opacity="1" stop-color="rgb(94.898987%, 43.721008%, 10.568237%)" offset="0.554688"/><stop stop-opacity="1" stop-color="rgb(94.898987%, 43.499756%, 10.398865%)" offset="0.5625"/><stop stop-opacity="1" stop-color="rgb(94.898987%, 43.278503%, 10.231018%)" offset="0.570312"/><stop stop-opacity="1" stop-color="rgb(94.898987%, 43.057251%, 10.061646%)" offset="0.578125"/><stop stop-opacity="1" stop-color="rgb(94.898987%, 42.835999%, 9.892273%)" offset="0.585938"/><stop stop-opacity="1" stop-color="rgb(94.898987%, 42.614746%, 9.724426%)" offset="0.59375"/><stop stop-opacity="1" stop-color="rgb(94.898987%, 42.393494%, 9.555054%)" offset="0.601563"/><stop stop-opacity="1" stop-color="rgb(94.898987%, 42.172241%, 9.385681%)" offset="0.609375"/><stop stop-opacity="1" stop-color="rgb(94.898987%, 41.950989%, 9.217834%)" offset="0.617188"/><stop stop-opacity="1" stop-color="rgb(94.898987%, 41.729736%, 9.048462%)" offset="0.625"/><stop stop-opacity="1" stop-color="rgb(94.898987%, 41.508484%, 8.879089%)" offset="0.632813"/><stop stop-opacity="1" stop-color="rgb(94.898987%, 41.288757%, 8.711243%)" offset="0.640625"/><stop stop-opacity="1" stop-color="rgb(94.898987%, 41.067505%, 8.54187%)" offset="0.648438"/><stop stop-opacity="1" stop-color="rgb(94.898987%, 40.846252%, 8.372498%)" offset="0.65625"/><stop stop-opacity="1" stop-color="rgb(94.898987%, 40.625%, 8.204651%)" offset="0.664062"/><stop stop-opacity="1" stop-color="rgb(94.898987%, 40.403748%, 8.035278%)" offset="0.671875"/><stop stop-opacity="1" stop-color="rgb(94.898987%, 40.182495%, 7.865906%)" offset="0.679688"/><stop stop-opacity="1" stop-color="rgb(94.898987%, 39.961243%, 7.698059%)" offset="0.6875"/><stop stop-opacity="1" stop-color="rgb(94.898987%, 39.73999%, 7.528687%)" offset="0.695313"/><stop stop-opacity="1" stop-color="rgb(94.898987%, 39.518738%, 7.359314%)" offset="0.703125"/><stop stop-opacity="1" stop-color="rgb(94.898987%, 39.297485%, 7.191467%)" offset="0.710938"/><stop stop-opacity="1" stop-color="rgb(94.898987%, 39.076233%, 7.022095%)" offset="0.71875"/><stop stop-opacity="1" stop-color="rgb(94.898987%, 38.85498%, 6.852722%)" offset="0.726563"/><stop stop-opacity="1" stop-color="rgb(94.898987%, 38.633728%, 6.68335%)" offset="0.734375"/><stop stop-opacity="1" stop-color="rgb(94.898987%, 38.412476%, 6.515503%)" offset="0.742188"/><stop stop-opacity="1" stop-color="rgb(94.898987%, 38.191223%, 6.34613%)" offset="0.75"/><stop stop-opacity="1" stop-color="rgb(94.898987%, 37.969971%, 6.176758%)" offset="0.757812"/><stop stop-opacity="1" stop-color="rgb(94.898987%, 37.750244%, 6.008911%)" offset="0.765625"/><stop stop-opacity="1" stop-color="rgb(94.898987%, 37.528992%, 5.839539%)" offset="0.773438"/><stop stop-opacity="1" stop-color="rgb(94.898987%, 37.307739%, 5.670166%)" offset="0.78125"/><stop stop-opacity="1" stop-color="rgb(94.898987%, 37.086487%, 5.502319%)" offset="0.789063"/><stop stop-opacity="1" stop-color="rgb(94.898987%, 36.865234%, 5.332947%)" offset="0.796875"/><stop stop-opacity="1" stop-color="rgb(94.898987%, 36.643982%, 5.163574%)" offset="0.804688"/><stop stop-opacity="1" stop-color="rgb(94.898987%, 36.422729%, 4.995728%)" offset="0.8125"/><stop stop-opacity="1" stop-color="rgb(94.898987%, 36.201477%, 4.826355%)" offset="0.820312"/><stop stop-opacity="1" stop-color="rgb(94.898987%, 35.980225%, 4.656982%)" offset="0.82734"/><stop stop-opacity="1" stop-color="rgb(94.898987%, 35.870361%, 4.573059%)" offset="0.828125"/><stop stop-opacity="1" stop-color="rgb(94.898987%, 35.758972%, 4.489136%)" offset="0.835938"/><stop stop-opacity="1" stop-color="rgb(94.898987%, 35.53772%, 4.319763%)" offset="0.84375"/><stop stop-opacity="1" stop-color="rgb(94.898987%, 35.316467%, 4.150391%)" offset="0.851562"/><stop stop-opacity="1" stop-color="rgb(94.898987%, 35.095215%, 3.982544%)" offset="0.859375"/><stop stop-opacity="1" stop-color="rgb(94.898987%, 34.873962%, 3.813171%)" offset="0.867188"/><stop stop-opacity="1" stop-color="rgb(94.898987%, 34.65271%, 3.643799%)" offset="0.875"/><stop stop-opacity="1" stop-color="rgb(94.898987%, 34.431458%, 3.475952%)" offset="0.882813"/><stop stop-opacity="1" stop-color="rgb(94.898987%, 34.211731%, 3.30658%)" offset="0.890625"/><stop stop-opacity="1" stop-color="rgb(94.898987%, 33.990479%, 3.137207%)" offset="0.898438"/><stop stop-opacity="1" stop-color="rgb(94.898987%, 33.769226%, 2.96936%)" offset="0.90625"/><stop stop-opacity="1" stop-color="rgb(94.898987%, 33.547974%, 2.799988%)" offset="0.914062"/><stop stop-opacity="1" stop-color="rgb(94.898987%, 33.326721%, 2.630615%)" offset="0.921875"/><stop stop-opacity="1" stop-color="rgb(94.898987%, 33.105469%, 2.461243%)" offset="0.929688"/><stop stop-opacity="1" stop-color="rgb(94.898987%, 32.884216%, 2.293396%)" offset="0.9375"/><stop stop-opacity="1" stop-color="rgb(94.898987%, 32.637024%, 2.104187%)" offset="1"/></linearGradient><clipPath id="965fb02571"><path d="M 19 2.160156 L 40.007812 2.160156 L 40.007812 34.726562 L 19 34.726562 Z M 19 2.160156 " clip-rule="nonzero"/></clipPath><clipPath id="fea3f3bc4c"><path d="M 35.558594 34.820312 C 33.8125 34.820312 32.167969 33.824219 31.378906 32.175781 L 20.378906 8.929688 C 19.28125 6.628906 20.273438 3.847656 22.570312 2.75 C 24.867188 1.648438 27.644531 2.644531 28.738281 4.945312 L 39.742188 28.191406 C 40.839844 30.492188 39.84375 33.273438 37.546875 34.375 C 36.898438 34.683594 36.246094 34.820312 35.558594 34.820312 Z M 35.558594 34.820312 " clip-rule="nonzero"/></clipPath><linearGradient x1="175.652749" gradientTransform="matrix(0.18056, 0, 0, 0.18056, 8.928716, 2.159502)" y1="171.57942" x2="14.400936" gradientUnits="userSpaceOnUse" y2="106.697755" id="0240e08b4b"><stop stop-opacity="1" stop-color="rgb(94.898987%, 54.499817%, 18.798828%)" offset="0"/><stop stop-opacity="1" stop-color="rgb(94.898987%, 54.499817%, 18.798828%)" offset="0.0625"/><stop stop-opacity="1" stop-color="rgb(94.898987%, 54.499817%, 18.798828%)" offset="0.09375"/><stop stop-opacity="1" stop-color="rgb(94.898987%, 54.499817%, 18.798828%)" offset="0.109375"/><stop stop-opacity="1" stop-color="rgb(94.898987%, 54.399109%, 18.722534%)" offset="0.117187"/><stop stop-opacity="1" stop-color="rgb(94.898987%, 54.190063%, 18.562317%)" offset="0.125"/><stop stop-opacity="1" stop-color="rgb(94.898987%, 53.971863%, 18.395996%)" offset="0.132812"/><stop stop-opacity="1" stop-color="rgb(94.898987%, 53.753662%, 18.229675%)" offset="0.140625"/><stop stop-opacity="1" stop-color="rgb(94.898987%, 53.535461%, 18.063354%)" offset="0.148437"/><stop stop-opacity="1" stop-color="rgb(94.898987%, 53.317261%, 17.897034%)" offset="0.15625"/><stop stop-opacity="1" stop-color="rgb(94.898987%, 53.09906%, 17.730713%)" offset="0.164062"/><stop stop-opacity="1" stop-color="rgb(94.898987%, 52.880859%, 17.562866%)" offset="0.171875"/><stop stop-opacity="1" stop-color="rgb(94.898987%, 52.662659%, 17.396545%)" offset="0.179687"/><stop stop-opacity="1" stop-color="rgb(94.898987%, 52.444458%, 17.230225%)" offset="0.1875"/><stop stop-opacity="1" stop-color="rgb(94.898987%, 52.226257%, 17.063904%)" offset="0.195312"/><stop stop-opacity="1" stop-color="rgb(94.898987%, 52.009583%, 16.897583%)" offset="0.203125"/><stop stop-opacity="1" stop-color="rgb(94.898987%, 51.791382%, 16.731262%)" offset="0.210937"/><stop stop-opacity="1" stop-color="rgb(94.898987%, 51.573181%, 16.564941%)" offset="0.21875"/><stop stop-opacity="1" stop-color="rgb(94.898987%, 51.35498%, 16.397095%)" offset="0.226562"/><stop stop-opacity="1" stop-color="rgb(94.898987%, 51.13678%, 16.230774%)" offset="0.234375"/><stop stop-opacity="1" stop-color="rgb(94.898987%, 50.918579%, 16.064453%)" offset="0.242188"/><stop stop-opacity="1" stop-color="rgb(94.898987%, 50.700378%, 15.898132%)" offset="0.25"/><stop stop-opacity="1" stop-color="rgb(94.898987%, 50.482178%, 15.731812%)" offset="0.257812"/><stop stop-opacity="1" stop-color="rgb(94.898987%, 50.263977%, 15.565491%)" offset="0.265625"/><stop stop-opacity="1" stop-color="rgb(94.898987%, 50.045776%, 15.39917%)" offset="0.273438"/><stop stop-opacity="1" stop-color="rgb(94.898987%, 49.827576%, 15.231323%)" offset="0.28125"/><stop stop-opacity="1" stop-color="rgb(94.898987%, 49.609375%, 15.065002%)" offset="0.289062"/><stop stop-opacity="1" stop-color="rgb(94.898987%, 49.391174%, 14.898682%)" offset="0.296875"/><stop stop-opacity="1" stop-color="rgb(94.898987%, 49.172974%, 14.732361%)" offset="0.304687"/><stop stop-opacity="1" stop-color="rgb(94.898987%, 48.956299%, 14.56604%)" offset="0.3125"/><stop stop-opacity="1" stop-color="rgb(94.898987%, 48.738098%, 14.399719%)" offset="0.320312"/><stop stop-opacity="1" stop-color="rgb(94.898987%, 48.519897%, 14.233398%)" offset="0.328125"/><stop stop-opacity="1" stop-color="rgb(94.898987%, 48.301697%, 14.065552%)" offset="0.335938"/><stop stop-opacity="1" stop-color="rgb(94.898987%, 48.083496%, 13.899231%)" offset="0.34375"/><stop stop-opacity="1" stop-color="rgb(94.898987%, 47.865295%, 13.73291%)" offset="0.351562"/><stop stop-opacity="1" stop-color="rgb(94.898987%, 47.647095%, 13.566589%)" offset="0.359375"/><stop stop-opacity="1" stop-color="rgb(94.898987%, 47.428894%, 13.400269%)" offset="0.367187"/><stop stop-opacity="1" stop-color="rgb(94.898987%, 47.210693%, 13.233948%)" offset="0.375"/><stop stop-opacity="1" stop-color="rgb(94.898987%, 46.992493%, 13.066101%)" offset="0.382812"/><stop stop-opacity="1" stop-color="rgb(94.898987%, 46.774292%, 12.89978%)" offset="0.387333"/><stop stop-opacity="1" stop-color="rgb(94.898987%, 46.665955%, 12.817383%)" offset="0.390625"/><stop stop-opacity="1" stop-color="rgb(94.898987%, 46.556091%, 12.733459%)" offset="0.398438"/><stop stop-opacity="1" stop-color="rgb(94.898987%, 46.337891%, 12.567139%)" offset="0.40625"/><stop stop-opacity="1" stop-color="rgb(94.898987%, 46.11969%, 12.400818%)" offset="0.414062"/><stop stop-opacity="1" stop-color="rgb(94.898987%, 45.901489%, 12.234497%)" offset="0.421875"/><stop stop-opacity="1" stop-color="rgb(94.898987%, 45.684814%, 12.068176%)" offset="0.429687"/><stop stop-opacity="1" stop-color="rgb(94.898987%, 45.466614%, 11.90033%)" offset="0.4375"/><stop stop-opacity="1" stop-color="rgb(94.898987%, 45.248413%, 11.734009%)" offset="0.445312"/><stop stop-opacity="1" stop-color="rgb(94.898987%, 45.030212%, 11.567688%)" offset="0.453125"/><stop stop-opacity="1" stop-color="rgb(94.898987%, 44.812012%, 11.401367%)" offset="0.460937"/><stop stop-opacity="1" stop-color="rgb(94.898987%, 44.593811%, 11.235046%)" offset="0.46875"/><stop stop-opacity="1" stop-color="rgb(94.898987%, 44.37561%, 11.068726%)" offset="0.476562"/><stop stop-opacity="1" stop-color="rgb(94.898987%, 44.15741%, 10.902405%)" offset="0.484375"/><stop stop-opacity="1" stop-color="rgb(94.898987%, 43.939209%, 10.734558%)" offset="0.492188"/><stop stop-opacity="1" stop-color="rgb(94.898987%, 43.721008%, 10.568237%)" offset="0.5"/><stop stop-opacity="1" stop-color="rgb(94.898987%, 43.502808%, 10.401917%)" offset="0.507812"/><stop stop-opacity="1" stop-color="rgb(94.898987%, 43.284607%, 10.235596%)" offset="0.515625"/><stop stop-opacity="1" stop-color="rgb(94.898987%, 43.066406%, 10.069275%)" offset="0.523437"/><stop stop-opacity="1" stop-color="rgb(94.898987%, 42.848206%, 9.902954%)" offset="0.53125"/><stop stop-opacity="1" stop-color="rgb(94.898987%, 42.630005%, 9.736633%)" offset="0.539062"/><stop stop-opacity="1" stop-color="rgb(94.898987%, 42.41333%, 9.568787%)" offset="0.546875"/><stop stop-opacity="1" stop-color="rgb(94.898987%, 42.195129%, 9.402466%)" offset="0.554688"/><stop stop-opacity="1" stop-color="rgb(94.898987%, 41.976929%, 9.236145%)" offset="0.5625"/><stop stop-opacity="1" stop-color="rgb(94.898987%, 41.758728%, 9.069824%)" offset="0.570312"/><stop stop-opacity="1" stop-color="rgb(94.898987%, 41.540527%, 8.903503%)" offset="0.578125"/><stop stop-opacity="1" stop-color="rgb(94.898987%, 41.322327%, 8.737183%)" offset="0.585938"/><stop stop-opacity="1" stop-color="rgb(94.898987%, 41.104126%, 8.569336%)" offset="0.59375"/><stop stop-opacity="1" stop-color="rgb(94.898987%, 40.885925%, 8.403015%)" offset="0.601562"/><stop stop-opacity="1" stop-color="rgb(94.898987%, 40.667725%, 8.236694%)" offset="0.609375"/><stop stop-opacity="1" stop-color="rgb(94.898987%, 40.449524%, 8.070374%)" offset="0.612667"/><stop stop-opacity="1" stop-color="rgb(94.898987%, 40.341187%, 7.987976%)" offset="0.617188"/><stop stop-opacity="1" stop-color="rgb(94.898987%, 40.231323%, 7.904053%)" offset="0.625"/><stop stop-opacity="1" stop-color="rgb(94.898987%, 40.013123%, 7.737732%)" offset="0.632812"/><stop stop-opacity="1" stop-color="rgb(94.898987%, 39.794922%, 7.571411%)" offset="0.640625"/><stop stop-opacity="1" stop-color="rgb(94.898987%, 39.576721%, 7.403564%)" offset="0.648437"/><stop stop-opacity="1" stop-color="rgb(94.898987%, 39.358521%, 7.237244%)" offset="0.65625"/><stop stop-opacity="1" stop-color="rgb(94.898987%, 39.141846%, 7.070923%)" offset="0.664062"/><stop stop-opacity="1" stop-color="rgb(94.898987%, 38.923645%, 6.904602%)" offset="0.671875"/><stop stop-opacity="1" stop-color="rgb(94.898987%, 38.705444%, 6.738281%)" offset="0.679687"/><stop stop-opacity="1" stop-color="rgb(94.898987%, 38.487244%, 6.57196%)" offset="0.6875"/><stop stop-opacity="1" stop-color="rgb(94.898987%, 38.269043%, 6.40564%)" offset="0.695312"/><stop stop-opacity="1" stop-color="rgb(94.898987%, 38.050842%, 6.237793%)" offset="0.703125"/><stop stop-opacity="1" stop-color="rgb(94.898987%, 37.832642%, 6.071472%)" offset="0.710938"/><stop stop-opacity="1" stop-color="rgb(94.898987%, 37.614441%, 5.905151%)" offset="0.71875"/><stop stop-opacity="1" stop-color="rgb(94.898987%, 37.39624%, 5.738831%)" offset="0.726562"/><stop stop-opacity="1" stop-color="rgb(94.898987%, 37.17804%, 5.57251%)" offset="0.734375"/><stop stop-opacity="1" stop-color="rgb(94.898987%, 36.959839%, 5.406189%)" offset="0.742187"/><stop stop-opacity="1" stop-color="rgb(94.898987%, 36.741638%, 5.239868%)" offset="0.75"/><stop stop-opacity="1" stop-color="rgb(94.898987%, 36.523438%, 5.072021%)" offset="0.757812"/><stop stop-opacity="1" stop-color="rgb(94.898987%, 36.305237%, 4.905701%)" offset="0.765625"/><stop stop-opacity="1" stop-color="rgb(94.898987%, 36.087036%, 4.73938%)" offset="0.773437"/><stop stop-opacity="1" stop-color="rgb(94.898987%, 35.870361%, 4.573059%)" offset="0.78125"/><stop stop-opacity="1" stop-color="rgb(94.898987%, 35.652161%, 4.406738%)" offset="0.789062"/><stop stop-opacity="1" stop-color="rgb(94.898987%, 35.43396%, 4.240417%)" offset="0.796875"/><stop stop-opacity="1" stop-color="rgb(94.898987%, 35.215759%, 4.072571%)" offset="0.804687"/><stop stop-opacity="1" stop-color="rgb(94.898987%, 34.997559%, 3.90625%)" offset="0.8125"/><stop stop-opacity="1" stop-color="rgb(94.898987%, 34.779358%, 3.739929%)" offset="0.820312"/><stop stop-opacity="1" stop-color="rgb(94.898987%, 34.561157%, 3.573608%)" offset="0.828125"/><stop stop-opacity="1" stop-color="rgb(94.898987%, 34.342957%, 3.407288%)" offset="0.835937"/><stop stop-opacity="1" stop-color="rgb(94.898987%, 34.124756%, 3.240967%)" offset="0.84375"/><stop stop-opacity="1" stop-color="rgb(94.898987%, 33.906555%, 3.074646%)" offset="0.851562"/><stop stop-opacity="1" stop-color="rgb(94.898987%, 33.688354%, 2.906799%)" offset="0.859375"/><stop stop-opacity="1" stop-color="rgb(94.898987%, 33.470154%, 2.740479%)" offset="0.867188"/><stop stop-opacity="1" stop-color="rgb(94.898987%, 33.251953%, 2.574158%)" offset="0.875"/><stop stop-opacity="1" stop-color="rgb(94.898987%, 33.033752%, 2.407837%)" offset="0.882812"/><stop stop-opacity="1" stop-color="rgb(94.898987%, 32.817078%, 2.241516%)" offset="0.890625"/><stop stop-opacity="1" stop-color="rgb(94.898987%, 32.603455%, 2.078247%)" offset="0.90625"/><stop stop-opacity="1" stop-color="rgb(94.898987%, 32.499695%, 1.998901%)" offset="0.9375"/><stop stop-opacity="1" stop-color="rgb(94.898987%, 32.499695%, 1.998901%)" offset="1"/></linearGradient></defs><g clip-path="url(#1e6b21642a)"><g clip-path="url(#d250382197)"><path fill="url(#4c4f3c75ad)" d="M 8.921875 2.160156 L 8.921875 34.726562 L 29.835938 34.726562 L 29.835938 2.160156 Z M 8.921875 2.160156 " fill-rule="nonzero"/></g></g><g clip-path="url(#965fb02571)"><g clip-path="url(#fea3f3bc4c)"><path fill="url(#0240e08b4b)" d="M 19.28125 2.160156 L 19.28125 34.726562 L 40.007812 34.726562 L 40.007812 2.160156 Z M 19.28125 2.160156 " fill-rule="nonzero"/></g></g><g fill="#023e8a" fill-opacity="1"><g transform="translate(42.24197, 21.756961)"><g><path d="M 8.5 -2.140625 L 3.828125 -2.140625 L 2.96875 0 L -0.21875 0 L 4.65625 -11.046875 L 7.734375 -11.046875 L 12.625 0 L 9.375 0 Z M 7.59375 -4.453125 L 6.171875 -7.984375 L 4.75 -4.453125 Z M 7.59375 -4.453125 "/></g></g></g><g fill="#023e8a" fill-opacity="1"><g transform="translate(55.312674, 21.756961)"><g><path d="M 4.984375 0.21875 C 4.085938 0.21875 3.21875 0.109375 2.375 -0.109375 C 1.539062 -0.328125 0.859375 -0.625 0.328125 -1 L 1.359375 -3.296875 C 1.847656 -2.972656 2.421875 -2.707031 3.078125 -2.5 C 3.734375 -2.300781 4.375 -2.203125 5 -2.203125 C 6.195312 -2.203125 6.796875 -2.503906 6.796875 -3.109375 C 6.796875 -3.421875 6.625 -3.65625 6.28125 -3.8125 C 5.945312 -3.96875 5.398438 -4.128906 4.640625 -4.296875 C 3.804688 -4.472656 3.109375 -4.660156 2.546875 -4.859375 C 1.992188 -5.066406 1.515625 -5.394531 1.109375 -5.84375 C 0.710938 -6.300781 0.515625 -6.914062 0.515625 -7.6875 C 0.515625 -8.363281 0.695312 -8.972656 1.0625 -9.515625 C 1.4375 -10.054688 1.988281 -10.484375 2.71875 -10.796875 C 3.445312 -11.109375 4.34375 -11.265625 5.40625 -11.265625 C 6.132812 -11.265625 6.847656 -11.179688 7.546875 -11.015625 C 8.253906 -10.859375 8.878906 -10.625 9.421875 -10.3125 L 8.453125 -7.984375 C 7.398438 -8.554688 6.378906 -8.84375 5.390625 -8.84375 C 4.773438 -8.84375 4.320312 -8.75 4.03125 -8.5625 C 3.75 -8.375 3.609375 -8.132812 3.609375 -7.84375 C 3.609375 -7.550781 3.773438 -7.328125 4.109375 -7.171875 C 4.453125 -7.023438 5 -6.875 5.75 -6.71875 C 6.582031 -6.539062 7.273438 -6.347656 7.828125 -6.140625 C 8.378906 -5.941406 8.859375 -5.617188 9.265625 -5.171875 C 9.671875 -4.722656 9.875 -4.113281 9.875 -3.34375 C 9.875 -2.675781 9.691406 -2.070312 9.328125 -1.53125 C 8.960938 -1 8.410156 -0.570312 7.671875 -0.25 C 6.929688 0.0625 6.035156 0.21875 4.984375 0.21875 Z M 4.984375 0.21875 "/></g></g></g><g fill="#023e8a" fill-opacity="1"><g transform="translate(66.189163, 21.756961)"><g><path d="M 4.984375 0.21875 C 4.085938 0.21875 3.21875 0.109375 2.375 -0.109375 C 1.539062 -0.328125 0.859375 -0.625 0.328125 -1 L 1.359375 -3.296875 C 1.847656 -2.972656 2.421875 -2.707031 3.078125 -2.5 C 3.734375 -2.300781 4.375 -2.203125 5 -2.203125 C 6.195312 -2.203125 6.796875 -2.503906 6.796875 -3.109375 C 6.796875 -3.421875 6.625 -3.65625 6.28125 -3.8125 C 5.945312 -3.96875 5.398438 -4.128906 4.640625 -4.296875 C 3.804688 -4.472656 3.109375 -4.660156 2.546875 -4.859375 C 1.992188 -5.066406 1.515625 -5.394531 1.109375 -5.84375 C 0.710938 -6.300781 0.515625 -6.914062 0.515625 -7.6875 C 0.515625 -8.363281 0.695312 -8.972656 1.0625 -9.515625 C 1.4375 -10.054688 1.988281 -10.484375 2.71875 -10.796875 C 3.445312 -11.109375 4.34375 -11.265625 5.40625 -11.265625 C 6.132812 -11.265625 6.847656 -11.179688 7.546875 -11.015625 C 8.253906 -10.859375 8.878906 -10.625 9.421875 -10.3125 L 8.453125 -7.984375 C 7.398438 -8.554688 6.378906 -8.84375 5.390625 -8.84375 C 4.773438 -8.84375 4.320312 -8.75 4.03125 -8.5625 C 3.75 -8.375 3.609375 -8.132812 3.609375 -7.84375 C 3.609375 -7.550781 3.773438 -7.328125 4.109375 -7.171875 C 4.453125 -7.023438 5 -6.875 5.75 -6.71875 C 6.582031 -6.539062 7.273438 -6.347656 7.828125 -6.140625 C 8.378906 -5.941406 8.859375 -5.617188 9.265625 -5.171875 C 9.671875 -4.722656 9.875 -4.113281 9.875 -3.34375 C 9.875 -2.675781 9.691406 -2.070312 9.328125 -1.53125 C 8.960938 -1 8.410156 -0.570312 7.671875 -0.25 C 6.929688 0.0625 6.035156 0.21875 4.984375 0.21875 Z M 4.984375 0.21875 "/></g></g></g><g fill="#023e8a" fill-opacity="1"><g transform="translate(77.065652, 21.756961)"><g><path d="M 6.203125 0.21875 C 4.554688 0.21875 3.28125 -0.226562 2.375 -1.125 C 1.46875 -2.019531 1.015625 -3.285156 1.015625 -4.921875 L 1.015625 -11.046875 L 4.140625 -11.046875 L 4.140625 -5.015625 C 4.140625 -3.242188 4.835938 -2.359375 6.234375 -2.359375 C 7.617188 -2.359375 8.3125 -3.242188 8.3125 -5.015625 L 8.3125 -11.046875 L 11.390625 -11.046875 L 11.390625 -4.921875 C 11.390625 -3.285156 10.929688 -2.019531 10.015625 -1.125 C 9.109375 -0.226562 7.835938 0.21875 6.203125 0.21875 Z M 6.203125 0.21875 "/></g></g></g><g fill="#f76201" fill-opacity="1"><g transform="translate(90.142358, 21.756961)"><g><path d="M 4.234375 -8.625 L 4.234375 -6.203125 L 9.109375 -6.203125 L 9.109375 -3.78125 L 4.234375 -3.78125 L 4.234375 0 L 1.109375 0 L 1.109375 -11.046875 L 9.765625 -11.046875 L 9.765625 -8.625 Z M 4.234375 -8.625 "/></g></g></g><g fill="#f76201" fill-opacity="1"><g transform="translate(100.939928, 21.756961)"><g><path d="M 1.109375 -11.046875 L 4.234375 -11.046875 L 4.234375 -2.484375 L 9.5 -2.484375 L 9.5 0 L 1.109375 0 Z M 1.109375 -11.046875 "/></g></g></g><g fill="#f76201" fill-opacity="1"><g transform="translate(111.232351, 21.756961)"><g><path d="M 9.96875 -2.421875 L 9.96875 0 L 1.109375 0 L 1.109375 -11.046875 L 9.765625 -11.046875 L 9.765625 -8.625 L 4.203125 -8.625 L 4.203125 -6.765625 L 9.109375 -6.765625 L 9.109375 -4.4375 L 4.203125 -4.4375 L 4.203125 -2.421875 Z M 9.96875 -2.421875 "/></g></g></g><g fill="#f76201" fill-opacity="1"><g transform="translate(122.503491, 21.756961)"><g><path d="M 8.078125 0 L 5.796875 -3.421875 L 3.53125 0 L -0.03125 0 L 4 -5.59375 L 0.140625 -11.046875 L 3.65625 -11.046875 L 5.875 -7.859375 L 8.046875 -11.046875 L 11.421875 -11.046875 L 7.578125 -5.71875 L 11.671875 0 Z M 8.078125 0 "/></g></g></g><g fill="#023e8a" fill-opacity="1"><g transform="translate(42.154773, 31.209517)"><g><path d="M 2.046875 0.046875 C 1.703125 0.046875 1.363281 -0.00390625 1.03125 -0.109375 C 0.707031 -0.210938 0.453125 -0.351562 0.265625 -0.53125 L 0.515625 -1.046875 C 0.691406 -0.890625 0.914062 -0.757812 1.1875 -0.65625 C 1.46875 -0.5625 1.753906 -0.515625 2.046875 -0.515625 C 2.429688 -0.515625 2.71875 -0.578125 2.90625 -0.703125 C 3.09375 -0.835938 3.1875 -1.007812 3.1875 -1.21875 C 3.1875 -1.382812 3.132812 -1.515625 3.03125 -1.609375 C 2.925781 -1.710938 2.796875 -1.789062 2.640625 -1.84375 C 2.492188 -1.894531 2.28125 -1.953125 2 -2.015625 C 1.65625 -2.097656 1.375 -2.179688 1.15625 -2.265625 C 0.945312 -2.347656 0.765625 -2.476562 0.609375 -2.65625 C 0.460938 -2.832031 0.390625 -3.066406 0.390625 -3.359375 C 0.390625 -3.609375 0.453125 -3.832031 0.578125 -4.03125 C 0.710938 -4.226562 0.910156 -4.382812 1.171875 -4.5 C 1.429688 -4.625 1.757812 -4.6875 2.15625 -4.6875 C 2.4375 -4.6875 2.707031 -4.648438 2.96875 -4.578125 C 3.226562 -4.515625 3.457031 -4.414062 3.65625 -4.28125 L 3.4375 -3.75 C 3.238281 -3.875 3.03125 -3.96875 2.8125 -4.03125 C 2.59375 -4.09375 2.375 -4.125 2.15625 -4.125 C 1.78125 -4.125 1.5 -4.054688 1.3125 -3.921875 C 1.125 -3.785156 1.03125 -3.609375 1.03125 -3.390625 C 1.03125 -3.234375 1.082031 -3.101562 1.1875 -3 C 1.289062 -2.90625 1.421875 -2.828125 1.578125 -2.765625 C 1.742188 -2.710938 1.957031 -2.65625 2.21875 -2.59375 C 2.570312 -2.507812 2.851562 -2.425781 3.0625 -2.34375 C 3.28125 -2.257812 3.460938 -2.128906 3.609375 -1.953125 C 3.765625 -1.785156 3.84375 -1.554688 3.84375 -1.265625 C 3.84375 -1.023438 3.773438 -0.800781 3.640625 -0.59375 C 3.503906 -0.394531 3.300781 -0.238281 3.03125 -0.125 C 2.769531 -0.0078125 2.441406 0.046875 2.046875 0.046875 Z M 2.046875 0.046875 "/></g></g></g><g fill="#023e8a" fill-opacity="1"><g transform="translate(46.160037, 31.209517)"><g><path d="M 1.875 -3.546875 C 2.363281 -3.546875 2.738281 -3.425781 3 -3.1875 C 3.257812 -2.945312 3.390625 -2.59375 3.390625 -2.125 L 3.390625 0 L 2.78125 0 L 2.78125 -0.46875 C 2.675781 -0.300781 2.523438 -0.171875 2.328125 -0.078125 C 2.128906 0.00390625 1.894531 0.046875 1.625 0.046875 C 1.238281 0.046875 0.925781 -0.046875 0.6875 -0.234375 C 0.445312 -0.429688 0.328125 -0.6875 0.328125 -1 C 0.328125 -1.300781 0.4375 -1.546875 0.65625 -1.734375 C 0.882812 -1.921875 1.25 -2.015625 1.75 -2.015625 L 2.75 -2.015625 L 2.75 -2.140625 C 2.75 -2.421875 2.664062 -2.632812 2.5 -2.78125 C 2.34375 -2.925781 2.113281 -3 1.8125 -3 C 1.601562 -3 1.398438 -2.960938 1.203125 -2.890625 C 1.003906 -2.828125 0.835938 -2.734375 0.703125 -2.609375 L 0.4375 -3.09375 C 0.613281 -3.238281 0.828125 -3.347656 1.078125 -3.421875 C 1.328125 -3.503906 1.59375 -3.546875 1.875 -3.546875 Z M 1.734375 -0.453125 C 1.972656 -0.453125 2.179688 -0.503906 2.359375 -0.609375 C 2.535156 -0.722656 2.664062 -0.878906 2.75 -1.078125 L 2.75 -1.5625 L 1.765625 -1.5625 C 1.222656 -1.5625 0.953125 -1.378906 0.953125 -1.015625 C 0.953125 -0.835938 1.019531 -0.695312 1.15625 -0.59375 C 1.300781 -0.5 1.492188 -0.453125 1.734375 -0.453125 Z M 1.734375 -0.453125 "/></g></g></g><g fill="#023e8a" fill-opacity="1"><g transform="translate(50.013035, 31.209517)"><g><path d="M 2.484375 -3.546875 C 2.921875 -3.546875 3.269531 -3.414062 3.53125 -3.15625 C 3.800781 -2.894531 3.9375 -2.515625 3.9375 -2.015625 L 3.9375 0 L 3.296875 0 L 3.296875 -1.953125 C 3.296875 -2.285156 3.210938 -2.535156 3.046875 -2.703125 C 2.890625 -2.878906 2.660156 -2.96875 2.359375 -2.96875 C 2.003906 -2.96875 1.726562 -2.867188 1.53125 -2.671875 C 1.332031 -2.472656 1.234375 -2.1875 1.234375 -1.8125 L 1.234375 0 L 0.609375 0 L 0.609375 -3.515625 L 1.21875 -3.515625 L 1.21875 -2.984375 C 1.34375 -3.160156 1.515625 -3.296875 1.734375 -3.390625 C 1.953125 -3.492188 2.203125 -3.546875 2.484375 -3.546875 Z M 2.484375 -3.546875 "/></g></g></g><g fill="#023e8a" fill-opacity="1"><g transform="translate(54.415512, 31.209517)"><g><path d="M 2.578125 -0.203125 C 2.484375 -0.128906 2.367188 -0.0664062 2.234375 -0.015625 C 2.097656 0.0234375 1.957031 0.046875 1.8125 0.046875 C 1.457031 0.046875 1.179688 -0.046875 0.984375 -0.234375 C 0.796875 -0.429688 0.703125 -0.707031 0.703125 -1.0625 L 0.703125 -2.984375 L 0.09375 -2.984375 L 0.09375 -3.515625 L 0.703125 -3.515625 L 0.703125 -4.28125 L 1.328125 -4.28125 L 1.328125 -3.515625 L 2.34375 -3.515625 L 2.34375 -2.984375 L 1.328125 -2.984375 L 1.328125 -1.09375 C 1.328125 -0.894531 1.375 -0.742188 1.46875 -0.640625 C 1.5625 -0.546875 1.695312 -0.5 1.875 -0.5 C 2.070312 -0.5 2.238281 -0.550781 2.375 -0.65625 Z M 2.578125 -0.203125 "/></g></g></g><g fill="#023e8a" fill-opacity="1"><g transform="translate(56.931211, 31.209517)"><g><path d="M 3.78125 -1.734375 C 3.78125 -1.679688 3.773438 -1.617188 3.765625 -1.546875 L 0.921875 -1.546875 C 0.953125 -1.234375 1.082031 -0.984375 1.3125 -0.796875 C 1.550781 -0.609375 1.84375 -0.515625 2.1875 -0.515625 C 2.601562 -0.515625 2.941406 -0.65625 3.203125 -0.9375 L 3.546875 -0.53125 C 3.390625 -0.34375 3.191406 -0.195312 2.953125 -0.09375 C 2.722656 0 2.460938 0.046875 2.171875 0.046875 C 1.796875 0.046875 1.460938 -0.03125 1.171875 -0.1875 C 0.890625 -0.34375 0.671875 -0.554688 0.515625 -0.828125 C 0.359375 -1.097656 0.28125 -1.40625 0.28125 -1.75 C 0.28125 -2.09375 0.351562 -2.398438 0.5 -2.671875 C 0.65625 -2.953125 0.863281 -3.164062 1.125 -3.3125 C 1.394531 -3.46875 1.703125 -3.546875 2.046875 -3.546875 C 2.378906 -3.546875 2.675781 -3.46875 2.9375 -3.3125 C 3.195312 -3.164062 3.398438 -2.953125 3.546875 -2.671875 C 3.703125 -2.398438 3.78125 -2.085938 3.78125 -1.734375 Z M 2.046875 -3 C 1.734375 -3 1.472656 -2.90625 1.265625 -2.71875 C 1.066406 -2.539062 0.953125 -2.300781 0.921875 -2 L 3.171875 -2 C 3.128906 -2.289062 3.003906 -2.53125 2.796875 -2.71875 C 2.597656 -2.90625 2.347656 -3 2.046875 -3 Z M 2.4375 -4.875 L 3.234375 -4.875 L 2.125 -4.015625 L 1.53125 -4.015625 Z M 2.4375 -4.875 "/></g></g></g><g fill="#023e8a" fill-opacity="1"><g transform="translate(60.876892, 31.209517)"><g/></g></g><g fill="#023e8a" fill-opacity="1"><g transform="translate(62.551822, 31.209517)"><g><path d="M 4.09375 0.078125 L 3.46875 -0.546875 C 3.0625 -0.148438 2.546875 0.046875 1.921875 0.046875 C 1.609375 0.046875 1.328125 0 1.078125 -0.09375 C 0.835938 -0.195312 0.644531 -0.335938 0.5 -0.515625 C 0.363281 -0.703125 0.296875 -0.914062 0.296875 -1.15625 C 0.296875 -1.4375 0.382812 -1.6875 0.5625 -1.90625 C 0.738281 -2.125 1.023438 -2.347656 1.421875 -2.578125 C 1.222656 -2.773438 1.082031 -2.957031 1 -3.125 C 0.914062 -3.289062 0.875 -3.460938 0.875 -3.640625 C 0.875 -3.953125 0.984375 -4.203125 1.203125 -4.390625 C 1.429688 -4.578125 1.738281 -4.671875 2.125 -4.671875 C 2.476562 -4.671875 2.753906 -4.582031 2.953125 -4.40625 C 3.160156 -4.238281 3.265625 -4.003906 3.265625 -3.703125 C 3.265625 -3.472656 3.1875 -3.265625 3.03125 -3.078125 C 2.882812 -2.890625 2.632812 -2.695312 2.28125 -2.5 L 3.4375 -1.359375 C 3.5625 -1.609375 3.65625 -1.890625 3.71875 -2.203125 L 4.234375 -2.03125 C 4.148438 -1.625 4.015625 -1.269531 3.828125 -0.96875 L 4.453125 -0.34375 Z M 2.125 -4.21875 C 1.914062 -4.21875 1.75 -4.164062 1.625 -4.0625 C 1.507812 -3.957031 1.453125 -3.820312 1.453125 -3.65625 C 1.453125 -3.53125 1.484375 -3.410156 1.546875 -3.296875 C 1.617188 -3.191406 1.742188 -3.046875 1.921875 -2.859375 C 2.234375 -3.023438 2.445312 -3.171875 2.5625 -3.296875 C 2.675781 -3.421875 2.734375 -3.554688 2.734375 -3.703125 C 2.734375 -3.859375 2.675781 -3.984375 2.5625 -4.078125 C 2.457031 -4.171875 2.3125 -4.21875 2.125 -4.21875 Z M 1.96875 -0.484375 C 2.425781 -0.484375 2.800781 -0.628906 3.09375 -0.921875 L 1.78125 -2.21875 C 1.457031 -2.050781 1.234375 -1.890625 1.109375 -1.734375 C 0.984375 -1.578125 0.921875 -1.40625 0.921875 -1.21875 C 0.921875 -1 1.015625 -0.820312 1.203125 -0.6875 C 1.398438 -0.550781 1.65625 -0.484375 1.96875 -0.484375 Z M 1.96875 -0.484375 "/></g></g></g><g fill="#023e8a" fill-opacity="1"><g transform="translate(66.987398, 31.209517)"><g/></g></g><g fill="#023e8a" fill-opacity="1"><g transform="translate(68.662328, 31.209517)"><g><path d="M 2.46875 -3.546875 C 2.800781 -3.546875 3.101562 -3.46875 3.375 -3.3125 C 3.644531 -3.164062 3.851562 -2.957031 4 -2.6875 C 4.15625 -2.414062 4.234375 -2.101562 4.234375 -1.75 C 4.234375 -1.394531 4.15625 -1.082031 4 -0.8125 C 3.851562 -0.539062 3.644531 -0.328125 3.375 -0.171875 C 3.101562 -0.0234375 2.800781 0.046875 2.46875 0.046875 C 2.21875 0.046875 1.984375 0 1.765625 -0.09375 C 1.554688 -0.195312 1.378906 -0.34375 1.234375 -0.53125 L 1.234375 1.28125 L 0.609375 1.28125 L 0.609375 -3.515625 L 1.21875 -3.515625 L 1.21875 -2.953125 C 1.351562 -3.148438 1.53125 -3.296875 1.75 -3.390625 C 1.96875 -3.492188 2.207031 -3.546875 2.46875 -3.546875 Z M 2.40625 -0.515625 C 2.632812 -0.515625 2.835938 -0.566406 3.015625 -0.671875 C 3.191406 -0.773438 3.332031 -0.921875 3.4375 -1.109375 C 3.539062 -1.296875 3.59375 -1.507812 3.59375 -1.75 C 3.59375 -2 3.539062 -2.21875 3.4375 -2.40625 C 3.332031 -2.59375 3.191406 -2.734375 3.015625 -2.828125 C 2.835938 -2.929688 2.632812 -2.984375 2.40625 -2.984375 C 2.1875 -2.984375 1.988281 -2.929688 1.8125 -2.828125 C 1.632812 -2.722656 1.492188 -2.578125 1.390625 -2.390625 C 1.285156 -2.210938 1.234375 -2 1.234375 -1.75 C 1.234375 -1.507812 1.28125 -1.296875 1.375 -1.109375 C 1.476562 -0.921875 1.617188 -0.773438 1.796875 -0.671875 C 1.984375 -0.566406 2.1875 -0.515625 2.40625 -0.515625 Z M 2.40625 -0.515625 "/></g></g></g><g fill="#023e8a" fill-opacity="1"><g transform="translate(73.071421, 31.209517)"><g><path d="M 1.21875 -2.921875 C 1.320312 -3.117188 1.484375 -3.269531 1.703125 -3.375 C 1.921875 -3.488281 2.179688 -3.546875 2.484375 -3.546875 L 2.484375 -2.921875 C 2.453125 -2.929688 2.40625 -2.9375 2.34375 -2.9375 C 2 -2.9375 1.726562 -2.832031 1.53125 -2.625 C 1.332031 -2.414062 1.234375 -2.125 1.234375 -1.75 L 1.234375 0 L 0.609375 0 L 0.609375 -3.515625 L 1.21875 -3.515625 Z M 1.21875 -2.921875 "/></g></g></g><g fill="#023e8a" fill-opacity="1"><g transform="translate(75.600361, 31.209517)"><g><path d="M 3.78125 -1.734375 C 3.78125 -1.679688 3.773438 -1.617188 3.765625 -1.546875 L 0.921875 -1.546875 C 0.953125 -1.234375 1.082031 -0.984375 1.3125 -0.796875 C 1.550781 -0.609375 1.84375 -0.515625 2.1875 -0.515625 C 2.601562 -0.515625 2.941406 -0.65625 3.203125 -0.9375 L 3.546875 -0.53125 C 3.390625 -0.34375 3.191406 -0.195312 2.953125 -0.09375 C 2.722656 0 2.460938 0.046875 2.171875 0.046875 C 1.796875 0.046875 1.460938 -0.03125 1.171875 -0.1875 C 0.890625 -0.34375 0.671875 -0.554688 0.515625 -0.828125 C 0.359375 -1.097656 0.28125 -1.40625 0.28125 -1.75 C 0.28125 -2.09375 0.351562 -2.398438 0.5 -2.671875 C 0.65625 -2.953125 0.863281 -3.164062 1.125 -3.3125 C 1.394531 -3.46875 1.703125 -3.546875 2.046875 -3.546875 C 2.378906 -3.546875 2.675781 -3.46875 2.9375 -3.3125 C 3.195312 -3.164062 3.398438 -2.953125 3.546875 -2.671875 C 3.703125 -2.398438 3.78125 -2.085938 3.78125 -1.734375 Z M 2.046875 -3 C 1.734375 -3 1.472656 -2.90625 1.265625 -2.71875 C 1.066406 -2.539062 0.953125 -2.300781 0.921875 -2 L 3.171875 -2 C 3.128906 -2.289062 3.003906 -2.53125 2.796875 -2.71875 C 2.597656 -2.90625 2.347656 -3 2.046875 -3 Z M 2.4375 -4.875 L 3.234375 -4.875 L 2.125 -4.015625 L 1.53125 -4.015625 Z M 2.4375 -4.875 "/></g></g></g><g fill="#023e8a" fill-opacity="1"><g transform="translate(79.479841, 31.209517)"><g><path d="M 3.703125 -3.515625 L 2.171875 0 L 1.53125 0 L -0.015625 -3.515625 L 0.65625 -3.515625 L 1.859375 -0.703125 L 3.09375 -3.515625 Z M 3.703125 -3.515625 "/></g></g></g><g fill="#023e8a" fill-opacity="1"><g transform="translate(82.975349, 31.209517)"><g><path d="M 2.109375 0.046875 C 1.753906 0.046875 1.4375 -0.03125 1.15625 -0.1875 C 0.882812 -0.34375 0.671875 -0.554688 0.515625 -0.828125 C 0.359375 -1.097656 0.28125 -1.40625 0.28125 -1.75 C 0.28125 -2.09375 0.359375 -2.398438 0.515625 -2.671875 C 0.671875 -2.953125 0.882812 -3.164062 1.15625 -3.3125 C 1.4375 -3.46875 1.753906 -3.546875 2.109375 -3.546875 C 2.453125 -3.546875 2.757812 -3.46875 3.03125 -3.3125 C 3.3125 -3.164062 3.53125 -2.953125 3.6875 -2.671875 C 3.84375 -2.398438 3.921875 -2.09375 3.921875 -1.75 C 3.921875 -1.40625 3.84375 -1.097656 3.6875 -0.828125 C 3.53125 -0.554688 3.3125 -0.34375 3.03125 -0.1875 C 2.757812 -0.03125 2.453125 0.046875 2.109375 0.046875 Z M 2.109375 -0.515625 C 2.328125 -0.515625 2.523438 -0.566406 2.703125 -0.671875 C 2.890625 -0.773438 3.03125 -0.921875 3.125 -1.109375 C 3.226562 -1.296875 3.28125 -1.507812 3.28125 -1.75 C 3.28125 -2 3.226562 -2.21875 3.125 -2.40625 C 3.03125 -2.59375 2.890625 -2.734375 2.703125 -2.828125 C 2.523438 -2.929688 2.328125 -2.984375 2.109375 -2.984375 C 1.878906 -2.984375 1.675781 -2.929688 1.5 -2.828125 C 1.320312 -2.734375 1.179688 -2.59375 1.078125 -2.40625 C 0.972656 -2.21875 0.921875 -2 0.921875 -1.75 C 0.921875 -1.507812 0.972656 -1.296875 1.078125 -1.109375 C 1.179688 -0.921875 1.320312 -0.773438 1.5 -0.671875 C 1.675781 -0.566406 1.878906 -0.515625 2.109375 -0.515625 Z M 2.109375 -0.515625 "/></g></g></g><g fill="#023e8a" fill-opacity="1"><g transform="translate(86.973996, 31.209517)"><g><path d="M 3.703125 -3.515625 L 2 0.34375 C 1.851562 0.707031 1.675781 0.960938 1.46875 1.109375 C 1.269531 1.253906 1.03125 1.328125 0.75 1.328125 C 0.582031 1.328125 0.414062 1.296875 0.25 1.234375 C 0.09375 1.179688 -0.0351562 1.101562 -0.140625 1 L 0.125 0.515625 C 0.300781 0.691406 0.507812 0.78125 0.75 0.78125 C 0.90625 0.78125 1.035156 0.738281 1.140625 0.65625 C 1.242188 0.570312 1.335938 0.429688 1.421875 0.234375 L 1.53125 0 L -0.015625 -3.515625 L 0.65625 -3.515625 L 1.875 -0.703125 L 3.09375 -3.515625 Z M 3.703125 -3.515625 "/></g></g></g><g fill="#023e8a" fill-opacity="1"><g transform="translate(90.456262, 31.209517)"><g><path d="M 1.875 -3.546875 C 2.363281 -3.546875 2.738281 -3.425781 3 -3.1875 C 3.257812 -2.945312 3.390625 -2.59375 3.390625 -2.125 L 3.390625 0 L 2.78125 0 L 2.78125 -0.46875 C 2.675781 -0.300781 2.523438 -0.171875 2.328125 -0.078125 C 2.128906 0.00390625 1.894531 0.046875 1.625 0.046875 C 1.238281 0.046875 0.925781 -0.046875 0.6875 -0.234375 C 0.445312 -0.429688 0.328125 -0.6875 0.328125 -1 C 0.328125 -1.300781 0.4375 -1.546875 0.65625 -1.734375 C 0.882812 -1.921875 1.25 -2.015625 1.75 -2.015625 L 2.75 -2.015625 L 2.75 -2.140625 C 2.75 -2.421875 2.664062 -2.632812 2.5 -2.78125 C 2.34375 -2.925781 2.113281 -3 1.8125 -3 C 1.601562 -3 1.398438 -2.960938 1.203125 -2.890625 C 1.003906 -2.828125 0.835938 -2.734375 0.703125 -2.609375 L 0.4375 -3.09375 C 0.613281 -3.238281 0.828125 -3.347656 1.078125 -3.421875 C 1.328125 -3.503906 1.59375 -3.546875 1.875 -3.546875 Z M 1.734375 -0.453125 C 1.972656 -0.453125 2.179688 -0.503906 2.359375 -0.609375 C 2.535156 -0.722656 2.664062 -0.878906 2.75 -1.078125 L 2.75 -1.5625 L 1.765625 -1.5625 C 1.222656 -1.5625 0.953125 -1.378906 0.953125 -1.015625 C 0.953125 -0.835938 1.019531 -0.695312 1.15625 -0.59375 C 1.300781 -0.5 1.492188 -0.453125 1.734375 -0.453125 Z M 1.734375 -0.453125 "/></g></g></g><g fill="#023e8a" fill-opacity="1"><g transform="translate(94.309259, 31.209517)"><g><path d="M 2.484375 -3.546875 C 2.921875 -3.546875 3.269531 -3.414062 3.53125 -3.15625 C 3.800781 -2.894531 3.9375 -2.515625 3.9375 -2.015625 L 3.9375 0 L 3.296875 0 L 3.296875 -1.953125 C 3.296875 -2.285156 3.210938 -2.535156 3.046875 -2.703125 C 2.890625 -2.878906 2.660156 -2.96875 2.359375 -2.96875 C 2.003906 -2.96875 1.726562 -2.867188 1.53125 -2.671875 C 1.332031 -2.472656 1.234375 -2.1875 1.234375 -1.8125 L 1.234375 0 L 0.609375 0 L 0.609375 -3.515625 L 1.21875 -3.515625 L 1.21875 -2.984375 C 1.34375 -3.160156 1.515625 -3.296875 1.734375 -3.390625 C 1.953125 -3.492188 2.203125 -3.546875 2.484375 -3.546875 Z M 2.484375 -3.546875 "/></g></g></g><g fill="#023e8a" fill-opacity="1"><g transform="translate(98.731594, 31.209517)"><g><path d="M 2.140625 0.046875 C 1.773438 0.046875 1.453125 -0.03125 1.171875 -0.1875 C 0.890625 -0.34375 0.671875 -0.554688 0.515625 -0.828125 C 0.359375 -1.097656 0.28125 -1.40625 0.28125 -1.75 C 0.28125 -2.09375 0.359375 -2.398438 0.515625 -2.671875 C 0.671875 -2.953125 0.890625 -3.164062 1.171875 -3.3125 C 1.453125 -3.46875 1.773438 -3.546875 2.140625 -3.546875 C 2.453125 -3.546875 2.734375 -3.476562 2.984375 -3.34375 C 3.234375 -3.21875 3.425781 -3.035156 3.5625 -2.796875 L 3.078125 -2.484375 C 2.972656 -2.648438 2.835938 -2.773438 2.671875 -2.859375 C 2.503906 -2.941406 2.320312 -2.984375 2.125 -2.984375 C 1.894531 -2.984375 1.6875 -2.929688 1.5 -2.828125 C 1.320312 -2.734375 1.179688 -2.59375 1.078125 -2.40625 C 0.972656 -2.21875 0.921875 -2 0.921875 -1.75 C 0.921875 -1.507812 0.972656 -1.296875 1.078125 -1.109375 C 1.179688 -0.921875 1.320312 -0.773438 1.5 -0.671875 C 1.6875 -0.566406 1.894531 -0.515625 2.125 -0.515625 C 2.320312 -0.515625 2.503906 -0.554688 2.671875 -0.640625 C 2.835938 -0.722656 2.972656 -0.847656 3.078125 -1.015625 L 3.5625 -0.71875 C 3.425781 -0.46875 3.234375 -0.273438 2.984375 -0.140625 C 2.734375 -0.015625 2.453125 0.046875 2.140625 0.046875 Z M 2.140625 0.046875 "/></g></g></g><g fill="#023e8a" fill-opacity="1"><g transform="translate(102.352885, 31.209517)"><g><path d="M 3.78125 -1.734375 C 3.78125 -1.679688 3.773438 -1.617188 3.765625 -1.546875 L 0.921875 -1.546875 C 0.953125 -1.234375 1.082031 -0.984375 1.3125 -0.796875 C 1.550781 -0.609375 1.84375 -0.515625 2.1875 -0.515625 C 2.601562 -0.515625 2.941406 -0.65625 3.203125 -0.9375 L 3.546875 -0.53125 C 3.390625 -0.34375 3.191406 -0.195312 2.953125 -0.09375 C 2.722656 0 2.460938 0.046875 2.171875 0.046875 C 1.796875 0.046875 1.460938 -0.03125 1.171875 -0.1875 C 0.890625 -0.34375 0.671875 -0.554688 0.515625 -0.828125 C 0.359375 -1.097656 0.28125 -1.40625 0.28125 -1.75 C 0.28125 -2.09375 0.351562 -2.398438 0.5 -2.671875 C 0.65625 -2.953125 0.863281 -3.164062 1.125 -3.3125 C 1.394531 -3.46875 1.703125 -3.546875 2.046875 -3.546875 C 2.378906 -3.546875 2.675781 -3.46875 2.9375 -3.3125 C 3.195312 -3.164062 3.398438 -2.953125 3.546875 -2.671875 C 3.703125 -2.398438 3.78125 -2.085938 3.78125 -1.734375 Z M 2.046875 -3 C 1.734375 -3 1.472656 -2.90625 1.265625 -2.71875 C 1.066406 -2.539062 0.953125 -2.300781 0.921875 -2 L 3.171875 -2 C 3.128906 -2.289062 3.003906 -2.53125 2.796875 -2.71875 C 2.597656 -2.90625 2.347656 -3 2.046875 -3 Z M 2.046875 -3 "/></g></g></g><g fill="#023e8a" fill-opacity="1"><g transform="translate(106.298564, 31.209517)"><g/></g></g><g fill="#023e8a" fill-opacity="1"><g transform="translate(107.973494, 31.209517)"><g><path d="M 3.921875 -4.921875 L 3.921875 0 L 3.3125 0 L 3.3125 -0.5625 C 3.164062 -0.363281 2.984375 -0.210938 2.765625 -0.109375 C 2.546875 -0.00390625 2.304688 0.046875 2.046875 0.046875 C 1.710938 0.046875 1.410156 -0.0234375 1.140625 -0.171875 C 0.867188 -0.328125 0.65625 -0.539062 0.5 -0.8125 C 0.351562 -1.082031 0.28125 -1.394531 0.28125 -1.75 C 0.28125 -2.101562 0.351562 -2.414062 0.5 -2.6875 C 0.65625 -2.957031 0.867188 -3.164062 1.140625 -3.3125 C 1.410156 -3.46875 1.710938 -3.546875 2.046875 -3.546875 C 2.304688 -3.546875 2.539062 -3.5 2.75 -3.40625 C 2.957031 -3.3125 3.132812 -3.171875 3.28125 -2.984375 L 3.28125 -4.921875 Z M 2.109375 -0.515625 C 2.328125 -0.515625 2.523438 -0.566406 2.703125 -0.671875 C 2.890625 -0.773438 3.03125 -0.921875 3.125 -1.109375 C 3.226562 -1.296875 3.28125 -1.507812 3.28125 -1.75 C 3.28125 -2 3.226562 -2.21875 3.125 -2.40625 C 3.03125 -2.59375 2.890625 -2.734375 2.703125 -2.828125 C 2.523438 -2.929688 2.328125 -2.984375 2.109375 -2.984375 C 1.878906 -2.984375 1.675781 -2.929688 1.5 -2.828125 C 1.320312 -2.734375 1.179688 -2.59375 1.078125 -2.40625 C 0.972656 -2.21875 0.921875 -2 0.921875 -1.75 C 0.921875 -1.507812 0.972656 -1.296875 1.078125 -1.109375 C 1.179688 -0.921875 1.320312 -0.773438 1.5 -0.671875 C 1.675781 -0.566406 1.878906 -0.515625 2.109375 -0.515625 Z M 2.109375 -0.515625 "/></g></g></g><g fill="#023e8a" fill-opacity="1"><g transform="translate(112.382587, 31.209517)"><g><path d="M 0.765625 -4.953125 C 0.890625 -4.953125 0.988281 -4.910156 1.0625 -4.828125 C 1.144531 -4.742188 1.1875 -4.632812 1.1875 -4.5 C 1.1875 -4.4375 1.179688 -4.375 1.171875 -4.3125 C 1.160156 -4.25 1.132812 -4.15625 1.09375 -4.03125 L 0.765625 -3.109375 L 0.34375 -3.109375 L 0.59375 -4.09375 C 0.507812 -4.125 0.441406 -4.175781 0.390625 -4.25 C 0.335938 -4.320312 0.3125 -4.40625 0.3125 -4.5 C 0.3125 -4.632812 0.351562 -4.742188 0.4375 -4.828125 C 0.519531 -4.910156 0.628906 -4.953125 0.765625 -4.953125 Z M 0.765625 -4.953125 "/></g></g></g><g fill="#023e8a" fill-opacity="1"><g transform="translate(113.600716, 31.209517)"><g><path d="M 3.78125 -1.734375 C 3.78125 -1.679688 3.773438 -1.617188 3.765625 -1.546875 L 0.921875 -1.546875 C 0.953125 -1.234375 1.082031 -0.984375 1.3125 -0.796875 C 1.550781 -0.609375 1.84375 -0.515625 2.1875 -0.515625 C 2.601562 -0.515625 2.941406 -0.65625 3.203125 -0.9375 L 3.546875 -0.53125 C 3.390625 -0.34375 3.191406 -0.195312 2.953125 -0.09375 C 2.722656 0 2.460938 0.046875 2.171875 0.046875 C 1.796875 0.046875 1.460938 -0.03125 1.171875 -0.1875 C 0.890625 -0.34375 0.671875 -0.554688 0.515625 -0.828125 C 0.359375 -1.097656 0.28125 -1.40625 0.28125 -1.75 C 0.28125 -2.09375 0.351562 -2.398438 0.5 -2.671875 C 0.65625 -2.953125 0.863281 -3.164062 1.125 -3.3125 C 1.394531 -3.46875 1.703125 -3.546875 2.046875 -3.546875 C 2.378906 -3.546875 2.675781 -3.46875 2.9375 -3.3125 C 3.195312 -3.164062 3.398438 -2.953125 3.546875 -2.671875 C 3.703125 -2.398438 3.78125 -2.085938 3.78125 -1.734375 Z M 2.046875 -3 C 1.734375 -3 1.472656 -2.90625 1.265625 -2.71875 C 1.066406 -2.539062 0.953125 -2.300781 0.921875 -2 L 3.171875 -2 C 3.128906 -2.289062 3.003906 -2.53125 2.796875 -2.71875 C 2.597656 -2.90625 2.347656 -3 2.046875 -3 Z M 2.046875 -3 "/></g></g></g><g fill="#023e8a" fill-opacity="1"><g transform="translate(117.447097, 31.209517)"><g><path d="M 2.84375 0 L 1.828125 -1.34375 L 0.796875 0 L 0.09375 0 L 1.484375 -1.796875 L 0.15625 -3.515625 L 0.875 -3.515625 L 1.828125 -2.25 L 2.796875 -3.515625 L 3.484375 -3.515625 L 2.171875 -1.796875 L 3.5625 0 Z M 2.84375 0 "/></g></g></g><g fill="#023e8a" fill-opacity="1"><g transform="translate(120.876397, 31.209517)"><g><path d="M 2.140625 0.046875 C 1.773438 0.046875 1.453125 -0.03125 1.171875 -0.1875 C 0.890625 -0.34375 0.671875 -0.554688 0.515625 -0.828125 C 0.359375 -1.097656 0.28125 -1.40625 0.28125 -1.75 C 0.28125 -2.09375 0.359375 -2.398438 0.515625 -2.671875 C 0.671875 -2.953125 0.890625 -3.164062 1.171875 -3.3125 C 1.453125 -3.46875 1.773438 -3.546875 2.140625 -3.546875 C 2.453125 -3.546875 2.734375 -3.476562 2.984375 -3.34375 C 3.234375 -3.21875 3.425781 -3.035156 3.5625 -2.796875 L 3.078125 -2.484375 C 2.972656 -2.648438 2.835938 -2.773438 2.671875 -2.859375 C 2.503906 -2.941406 2.320312 -2.984375 2.125 -2.984375 C 1.894531 -2.984375 1.6875 -2.929688 1.5 -2.828125 C 1.320312 -2.734375 1.179688 -2.59375 1.078125 -2.40625 C 0.972656 -2.21875 0.921875 -2 0.921875 -1.75 C 0.921875 -1.507812 0.972656 -1.296875 1.078125 -1.109375 C 1.179688 -0.921875 1.320312 -0.773438 1.5 -0.671875 C 1.6875 -0.566406 1.894531 -0.515625 2.125 -0.515625 C 2.320312 -0.515625 2.503906 -0.554688 2.671875 -0.640625 C 2.835938 -0.722656 2.972656 -0.847656 3.078125 -1.015625 L 3.5625 -0.71875 C 3.425781 -0.46875 3.234375 -0.273438 2.984375 -0.140625 C 2.734375 -0.015625 2.453125 0.046875 2.140625 0.046875 Z M 2.140625 0.046875 "/></g></g></g><g fill="#023e8a" fill-opacity="1"><g transform="translate(124.497687, 31.209517)"><g><path d="M 3.78125 -1.734375 C 3.78125 -1.679688 3.773438 -1.617188 3.765625 -1.546875 L 0.921875 -1.546875 C 0.953125 -1.234375 1.082031 -0.984375 1.3125 -0.796875 C 1.550781 -0.609375 1.84375 -0.515625 2.1875 -0.515625 C 2.601562 -0.515625 2.941406 -0.65625 3.203125 -0.9375 L 3.546875 -0.53125 C 3.390625 -0.34375 3.191406 -0.195312 2.953125 -0.09375 C 2.722656 0 2.460938 0.046875 2.171875 0.046875 C 1.796875 0.046875 1.460938 -0.03125 1.171875 -0.1875 C 0.890625 -0.34375 0.671875 -0.554688 0.515625 -0.828125 C 0.359375 -1.097656 0.28125 -1.40625 0.28125 -1.75 C 0.28125 -2.09375 0.351562 -2.398438 0.5 -2.671875 C 0.65625 -2.953125 0.863281 -3.164062 1.125 -3.3125 C 1.394531 -3.46875 1.703125 -3.546875 2.046875 -3.546875 C 2.378906 -3.546875 2.675781 -3.46875 2.9375 -3.3125 C 3.195312 -3.164062 3.398438 -2.953125 3.546875 -2.671875 C 3.703125 -2.398438 3.78125 -2.085938 3.78125 -1.734375 Z M 2.046875 -3 C 1.734375 -3 1.472656 -2.90625 1.265625 -2.71875 C 1.066406 -2.539062 0.953125 -2.300781 0.921875 -2 L 3.171875 -2 C 3.128906 -2.289062 3.003906 -2.53125 2.796875 -2.71875 C 2.597656 -2.90625 2.347656 -3 2.046875 -3 Z M 2.046875 -3 "/></g></g></g><g fill="#023e8a" fill-opacity="1"><g transform="translate(128.443367, 31.209517)"><g><path d="M 0.609375 -4.921875 L 1.234375 -4.921875 L 1.234375 0 L 0.609375 0 Z M 0.609375 -4.921875 "/></g></g></g><g fill="#023e8a" fill-opacity="1"><g transform="translate(130.184496, 31.209517)"><g><path d="M 0.609375 -4.921875 L 1.234375 -4.921875 L 1.234375 0 L 0.609375 0 Z M 0.609375 -4.921875 "/></g></g></g><g fill="#023e8a" fill-opacity="1"><g transform="translate(131.925625, 31.209517)"><g><path d="M 3.78125 -1.734375 C 3.78125 -1.679688 3.773438 -1.617188 3.765625 -1.546875 L 0.921875 -1.546875 C 0.953125 -1.234375 1.082031 -0.984375 1.3125 -0.796875 C 1.550781 -0.609375 1.84375 -0.515625 2.1875 -0.515625 C 2.601562 -0.515625 2.941406 -0.65625 3.203125 -0.9375 L 3.546875 -0.53125 C 3.390625 -0.34375 3.191406 -0.195312 2.953125 -0.09375 C 2.722656 0 2.460938 0.046875 2.171875 0.046875 C 1.796875 0.046875 1.460938 -0.03125 1.171875 -0.1875 C 0.890625 -0.34375 0.671875 -0.554688 0.515625 -0.828125 C 0.359375 -1.097656 0.28125 -1.40625 0.28125 -1.75 C 0.28125 -2.09375 0.351562 -2.398438 0.5 -2.671875 C 0.65625 -2.953125 0.863281 -3.164062 1.125 -3.3125 C 1.394531 -3.46875 1.703125 -3.546875 2.046875 -3.546875 C 2.378906 -3.546875 2.675781 -3.46875 2.9375 -3.3125 C 3.195312 -3.164062 3.398438 -2.953125 3.546875 -2.671875 C 3.703125 -2.398438 3.78125 -2.085938 3.78125 -1.734375 Z M 2.046875 -3 C 1.734375 -3 1.472656 -2.90625 1.265625 -2.71875 C 1.066406 -2.539062 0.953125 -2.300781 0.921875 -2 L 3.171875 -2 C 3.128906 -2.289062 3.003906 -2.53125 2.796875 -2.71875 C 2.597656 -2.90625 2.347656 -3 2.046875 -3 Z M 2.046875 -3 "/></g></g></g><g fill="#023e8a" fill-opacity="1"><g transform="translate(135.871305, 31.209517)"><g><path d="M 2.484375 -3.546875 C 2.921875 -3.546875 3.269531 -3.414062 3.53125 -3.15625 C 3.800781 -2.894531 3.9375 -2.515625 3.9375 -2.015625 L 3.9375 0 L 3.296875 0 L 3.296875 -1.953125 C 3.296875 -2.285156 3.210938 -2.535156 3.046875 -2.703125 C 2.890625 -2.878906 2.660156 -2.96875 2.359375 -2.96875 C 2.003906 -2.96875 1.726562 -2.867188 1.53125 -2.671875 C 1.332031 -2.472656 1.234375 -2.1875 1.234375 -1.8125 L 1.234375 0 L 0.609375 0 L 0.609375 -3.515625 L 1.21875 -3.515625 L 1.21875 -2.984375 C 1.34375 -3.160156 1.515625 -3.296875 1.734375 -3.390625 C 1.953125 -3.492188 2.203125 -3.546875 2.484375 -3.546875 Z M 2.484375 -3.546875 "/></g></g></g><g fill="#023e8a" fill-opacity="1"><g transform="translate(140.29364, 31.209517)"><g><path d="M 2.140625 0.046875 C 1.773438 0.046875 1.453125 -0.03125 1.171875 -0.1875 C 0.890625 -0.34375 0.671875 -0.554688 0.515625 -0.828125 C 0.359375 -1.097656 0.28125 -1.40625 0.28125 -1.75 C 0.28125 -2.09375 0.359375 -2.398438 0.515625 -2.671875 C 0.671875 -2.953125 0.890625 -3.164062 1.171875 -3.3125 C 1.453125 -3.46875 1.773438 -3.546875 2.140625 -3.546875 C 2.453125 -3.546875 2.734375 -3.476562 2.984375 -3.34375 C 3.234375 -3.21875 3.425781 -3.035156 3.5625 -2.796875 L 3.078125 -2.484375 C 2.972656 -2.648438 2.835938 -2.773438 2.671875 -2.859375 C 2.503906 -2.941406 2.320312 -2.984375 2.125 -2.984375 C 1.894531 -2.984375 1.6875 -2.929688 1.5 -2.828125 C 1.320312 -2.734375 1.179688 -2.59375 1.078125 -2.40625 C 0.972656 -2.21875 0.921875 -2 0.921875 -1.75 C 0.921875 -1.507812 0.972656 -1.296875 1.078125 -1.109375 C 1.179688 -0.921875 1.320312 -0.773438 1.5 -0.671875 C 1.6875 -0.566406 1.894531 -0.515625 2.125 -0.515625 C 2.320312 -0.515625 2.503906 -0.554688 2.671875 -0.640625 C 2.835938 -0.722656 2.972656 -0.847656 3.078125 -1.015625 L 3.5625 -0.71875 C 3.425781 -0.46875 3.234375 -0.273438 2.984375 -0.140625 C 2.734375 -0.015625 2.453125 0.046875 2.140625 0.046875 Z M 2.140625 0.046875 "/></g></g></g><g fill="#023e8a" fill-opacity="1"><g transform="translate(143.914931, 31.209517)"><g><path d="M 3.78125 -1.734375 C 3.78125 -1.679688 3.773438 -1.617188 3.765625 -1.546875 L 0.921875 -1.546875 C 0.953125 -1.234375 1.082031 -0.984375 1.3125 -0.796875 C 1.550781 -0.609375 1.84375 -0.515625 2.1875 -0.515625 C 2.601562 -0.515625 2.941406 -0.65625 3.203125 -0.9375 L 3.546875 -0.53125 C 3.390625 -0.34375 3.191406 -0.195312 2.953125 -0.09375 C 2.722656 0 2.460938 0.046875 2.171875 0.046875 C 1.796875 0.046875 1.460938 -0.03125 1.171875 -0.1875 C 0.890625 -0.34375 0.671875 -0.554688 0.515625 -0.828125 C 0.359375 -1.097656 0.28125 -1.40625 0.28125 -1.75 C 0.28125 -2.09375 0.351562 -2.398438 0.5 -2.671875 C 0.65625 -2.953125 0.863281 -3.164062 1.125 -3.3125 C 1.394531 -3.46875 1.703125 -3.546875 2.046875 -3.546875 C 2.378906 -3.546875 2.675781 -3.46875 2.9375 -3.3125 C 3.195312 -3.164062 3.398438 -2.953125 3.546875 -2.671875 C 3.703125 -2.398438 3.78125 -2.085938 3.78125 -1.734375 Z M 2.046875 -3 C 1.734375 -3 1.472656 -2.90625 1.265625 -2.71875 C 1.066406 -2.539062 0.953125 -2.300781 0.921875 -2 L 3.171875 -2 C 3.128906 -2.289062 3.003906 -2.53125 2.796875 -2.71875 C 2.597656 -2.90625 2.347656 -3 2.046875 -3 Z M 2.046875 -3 "/></g></g></g></svg>