<svg xmlns="http://www.w3.org/2000/svg" xmlns:xlink="http://www.w3.org/1999/xlink" width="375" zoomAndPan="magnify" viewBox="0 0 281.25 281.249989" height="375" preserveAspectRatio="xMidYMid meet" version="1.0"><defs><clipPath id="dc4032aaec"><path d="M 78.167969 49 L 158 49 L 158 177.023438 L 78.167969 177.023438 Z M 78.167969 49 " clip-rule="nonzero"/></clipPath><clipPath id="4bc196879c"><path d="M 96.421875 177.109375 C 93.859375 177.109375 91.160156 176.570312 88.589844 175.351562 C 79.550781 171.027344 75.640625 160.210938 79.957031 151.011719 L 123.28125 59.46875 C 127.597656 50.410156 138.398438 46.484375 147.574219 50.8125 C 156.617188 55.140625 160.53125 65.960938 156.214844 75.15625 L 112.886719 166.699219 C 109.785156 173.328125 103.167969 177.109375 96.421875 177.109375 Z M 96.421875 177.109375 " clip-rule="nonzero"/></clipPath><linearGradient x1="86.967175" gradientTransform="matrix(0.711047, 0, 0, 0.711047, 78.195899, 48.493303)" y1="-28.271469" x2="150.816044" gradientUnits="userSpaceOnUse" y2="168.222771" id="4b76301469"><stop stop-opacity="1" stop-color="rgb(94.898987%, 54.499817%, 18.798828%)" offset="0"/><stop stop-opacity="1" stop-color="rgb(94.898987%, 54.499817%, 18.798828%)" offset="0.125"/><stop stop-opacity="1" stop-color="rgb(94.898987%, 54.499817%, 18.798828%)" offset="0.15625"/><stop stop-opacity="1" stop-color="rgb(94.898987%, 54.499817%, 18.798828%)" offset="0.167934"/><stop stop-opacity="1" stop-color="rgb(94.898987%, 54.499817%, 18.798828%)" offset="0.171875"/><stop stop-opacity="1" stop-color="rgb(94.898987%, 54.330444%, 18.630981%)" offset="0.179688"/><stop stop-opacity="1" stop-color="rgb(94.898987%, 54.130554%, 18.431091%)" offset="0.1875"/><stop stop-opacity="1" stop-color="rgb(94.898987%, 53.918457%, 18.399048%)" offset="0.195312"/><stop stop-opacity="1" stop-color="rgb(94.898987%, 53.718567%, 18.222046%)" offset="0.203125"/><stop stop-opacity="1" stop-color="rgb(94.898987%, 53.527832%, 18.022156%)" offset="0.210938"/><stop stop-opacity="1" stop-color="rgb(94.898987%, 53.327942%, 17.834473%)" offset="0.21875"/><stop stop-opacity="1" stop-color="rgb(94.898987%, 53.140259%, 17.634583%)" offset="0.226562"/><stop stop-opacity="1" stop-color="rgb(94.898987%, 52.940369%, 17.599487%)" offset="0.234375"/><stop stop-opacity="1" stop-color="rgb(94.898987%, 52.726746%, 17.469788%)" offset="0.242187"/><stop stop-opacity="1" stop-color="rgb(94.898987%, 52.401733%, 17.318726%)" offset="0.25"/><stop stop-opacity="1" stop-color="rgb(94.898987%, 52.223206%, 17.137146%)" offset="0.257812"/><stop stop-opacity="1" stop-color="rgb(94.898987%, 52.043152%, 16.937256%)" offset="0.265625"/><stop stop-opacity="1" stop-color="rgb(94.898987%, 51.843262%, 16.72821%)" offset="0.273438"/><stop stop-opacity="1" stop-color="rgb(94.898987%, 51.629639%, 16.52832%)" offset="0.28125"/><stop stop-opacity="1" stop-color="rgb(94.898987%, 51.272583%, 16.340637%)" offset="0.296875"/><stop stop-opacity="1" stop-color="rgb(94.898987%, 50.889587%, 16.140747%)" offset="0.304688"/><stop stop-opacity="1" stop-color="rgb(94.898987%, 50.646973%, 15.953064%)" offset="0.3125"/><stop stop-opacity="1" stop-color="rgb(94.898987%, 50.437927%, 15.753174%)" offset="0.320312"/><stop stop-opacity="1" stop-color="rgb(94.898987%, 50.238037%, 15.539551%)" offset="0.328125"/><stop stop-opacity="1" stop-color="rgb(94.898987%, 50.045776%, 15.339661%)" offset="0.335937"/><stop stop-opacity="1" stop-color="rgb(94.898987%, 49.84436%, 15.299988%)" offset="0.34375"/><stop stop-opacity="1" stop-color="rgb(94.898987%, 49.656677%, 15.156555%)" offset="0.351563"/><stop stop-opacity="1" stop-color="rgb(94.898987%, 49.456787%, 14.956665%)" offset="0.359375"/><stop stop-opacity="1" stop-color="rgb(94.898987%, 49.243164%, 14.743042%)" offset="0.367188"/><stop stop-opacity="1" stop-color="rgb(94.898987%, 48.892212%, 14.543152%)" offset="0.375"/><stop stop-opacity="1" stop-color="rgb(94.898987%, 48.648071%, 14.353943%)" offset="0.382812"/><stop stop-opacity="1" stop-color="rgb(94.898987%, 48.460388%, 14.154053%)" offset="0.390625"/><stop stop-opacity="1" stop-color="rgb(94.898987%, 48.260498%, 14.099121%)" offset="0.398438"/><stop stop-opacity="1" stop-color="rgb(94.898987%, 48.046875%, 13.946533%)" offset="0.40625"/><stop stop-opacity="1" stop-color="rgb(94.898987%, 47.740173%, 13.604736%)" offset="0.421875"/><stop stop-opacity="1" stop-color="rgb(94.898987%, 47.407532%, 13.357544%)" offset="0.429688"/><stop stop-opacity="1" stop-color="rgb(94.898987%, 47.163391%, 13.169861%)" offset="0.4375"/><stop stop-opacity="1" stop-color="rgb(94.898987%, 46.957397%, 12.969971%)" offset="0.445312"/><stop stop-opacity="1" stop-color="rgb(94.898987%, 46.757507%, 12.89978%)" offset="0.453125"/><stop stop-opacity="1" stop-color="rgb(94.898987%, 46.562195%, 12.760925%)" offset="0.460938"/><stop stop-opacity="1" stop-color="rgb(94.898987%, 46.362305%, 12.561035%)" offset="0.46875"/><stop stop-opacity="1" stop-color="rgb(94.898987%, 46.173096%, 12.405396%)" offset="0.476562"/><stop stop-opacity="1" stop-color="rgb(94.898987%, 45.973206%, 12.254333%)" offset="0.484375"/><stop stop-opacity="1" stop-color="rgb(94.898987%, 45.759583%, 12.059021%)" offset="0.492187"/><stop stop-opacity="1" stop-color="rgb(94.898987%, 45.425415%, 11.859131%)" offset="0.5"/><stop stop-opacity="1" stop-color="rgb(94.898987%, 45.16449%, 11.671448%)" offset="0.507812"/><stop stop-opacity="1" stop-color="rgb(94.898987%, 44.976807%, 11.471558%)" offset="0.515625"/><stop stop-opacity="1" stop-color="rgb(94.898987%, 44.776917%, 11.399841%)" offset="0.523438"/><stop stop-opacity="1" stop-color="rgb(94.898987%, 44.563293%, 11.262512%)" offset="0.53125"/><stop stop-opacity="1" stop-color="rgb(94.898987%, 44.238281%, 10.9375%)" offset="0.546875"/><stop stop-opacity="1" stop-color="rgb(94.898987%, 43.855286%, 10.673523%)" offset="0.554688"/><stop stop-opacity="1" stop-color="rgb(94.898987%, 43.580627%, 10.48584%)" offset="0.5625"/><stop stop-opacity="1" stop-color="rgb(94.898987%, 43.37616%, 10.28595%)" offset="0.570312"/><stop stop-opacity="1" stop-color="rgb(94.898987%, 43.17627%, 10.198975%)" offset="0.578125"/><stop stop-opacity="1" stop-color="rgb(94.898987%, 42.977905%, 10.07843%)" offset="0.585937"/><stop stop-opacity="1" stop-color="rgb(94.898987%, 42.778015%, 9.87854%)" offset="0.59375"/><stop stop-opacity="1" stop-color="rgb(94.898987%, 42.616272%, 9.689331%)" offset="0.601562"/><stop stop-opacity="1" stop-color="rgb(94.898987%, 42.347717%, 9.489441%)" offset="0.609375"/><stop stop-opacity="1" stop-color="rgb(94.898987%, 42.080688%, 9.275818%)" offset="0.617188"/><stop stop-opacity="1" stop-color="rgb(94.898987%, 41.882324%, 9.075928%)" offset="0.625"/><stop stop-opacity="1" stop-color="rgb(94.898987%, 41.575623%, 8.892822%)" offset="0.640625"/><stop stop-opacity="1" stop-color="rgb(94.898987%, 41.293335%, 8.692932%)" offset="0.648438"/><stop stop-opacity="1" stop-color="rgb(94.898987%, 41.079712%, 8.479309%)" offset="0.65625"/><stop stop-opacity="1" stop-color="rgb(94.898987%, 40.771484%, 8.171082%)" offset="0.671875"/><stop stop-opacity="1" stop-color="rgb(94.898987%, 40.388489%, 7.89032%)" offset="0.679688"/><stop stop-opacity="1" stop-color="rgb(94.898987%, 40.097046%, 7.798767%)" offset="0.6875"/><stop stop-opacity="1" stop-color="rgb(94.898987%, 39.89563%, 7.720947%)" offset="0.695312"/><stop stop-opacity="1" stop-color="rgb(94.898987%, 39.69574%, 7.571411%)" offset="0.703125"/><stop stop-opacity="1" stop-color="rgb(94.898987%, 39.494324%, 7.394409%)" offset="0.710938"/><stop stop-opacity="1" stop-color="rgb(94.898987%, 39.294434%, 7.194519%)" offset="0.71875"/><stop stop-opacity="1" stop-color="rgb(94.898987%, 39.10675%, 7.006836%)" offset="0.726562"/><stop stop-opacity="1" stop-color="rgb(94.898987%, 38.806152%, 6.80542%)" offset="0.730469"/><stop stop-opacity="1" stop-color="rgb(94.898987%, 38.600159%, 6.698608%)" offset="0.734375"/><stop stop-opacity="1" stop-color="rgb(94.898987%, 38.499451%, 6.698608%)" offset="0.742188"/><stop stop-opacity="1" stop-color="rgb(94.898987%, 38.298035%, 6.5979%)" offset="0.75"/><stop stop-opacity="1" stop-color="rgb(94.898987%, 38.008118%, 6.307983%)" offset="0.765625"/><stop stop-opacity="1" stop-color="rgb(94.898987%, 37.709045%, 6.008911%)" offset="0.773438"/><stop stop-opacity="1" stop-color="rgb(94.898987%, 37.521362%, 5.795288%)" offset="0.78125"/><stop stop-opacity="1" stop-color="rgb(94.898987%, 37.27417%, 5.595398%)" offset="0.789063"/><stop stop-opacity="1" stop-color="rgb(94.898987%, 37.001038%, 5.499268%)" offset="0.796875"/><stop stop-opacity="1" stop-color="rgb(94.898987%, 36.813354%, 5.413818%)" offset="0.804688"/><stop stop-opacity="1" stop-color="rgb(94.898987%, 36.613464%, 5.213928%)" offset="0.8125"/><stop stop-opacity="1" stop-color="rgb(94.898987%, 36.413574%, 5.014038%)" offset="0.820312"/><stop stop-opacity="1" stop-color="rgb(94.898987%, 36.213684%, 4.814148%)" offset="0.828125"/><stop stop-opacity="1" stop-color="rgb(94.898987%, 35.899353%, 4.611206%)" offset="0.832031"/><stop stop-opacity="1" stop-color="rgb(94.898987%, 35.699463%, 4.524231%)" offset="0.835938"/><stop stop-opacity="1" stop-color="rgb(94.898987%, 35.699463%, 4.411316%)" offset="0.84375"/><stop stop-opacity="1" stop-color="rgb(94.898987%, 35.623169%, 4.223633%)" offset="0.851562"/><stop stop-opacity="1" stop-color="rgb(94.898987%, 35.342407%, 4.022217%)" offset="0.855469"/><stop stop-opacity="1" stop-color="rgb(94.898987%, 35.137939%, 3.898621%)" offset="0.859375"/><stop stop-opacity="1" stop-color="rgb(94.898987%, 35.018921%, 3.898621%)" offset="0.867188"/><stop stop-opacity="1" stop-color="rgb(94.898987%, 34.814453%, 3.814697%)" offset="0.875"/><stop stop-opacity="1" stop-color="rgb(94.898987%, 34.541321%, 3.541565%)" offset="0.890625"/><stop stop-opacity="1" stop-color="rgb(94.898987%, 34.225464%, 3.225708%)" offset="0.898437"/><stop stop-opacity="1" stop-color="rgb(94.898987%, 34.011841%, 3.012085%)" offset="0.90625"/><stop stop-opacity="1" stop-color="rgb(94.898987%, 33.732605%, 2.812195%)" offset="0.914062"/><stop stop-opacity="1" stop-color="rgb(94.898987%, 33.418274%, 2.69928%)" offset="0.921875"/><stop stop-opacity="1" stop-color="rgb(94.898987%, 33.229065%, 2.6474%)" offset="0.929688"/><stop stop-opacity="1" stop-color="rgb(94.898987%, 33.029175%, 2.496338%)" offset="0.9375"/><stop stop-opacity="1" stop-color="rgb(94.898987%, 32.71637%, 2.215576%)" offset="1"/></linearGradient><clipPath id="4bbe2958f9"><path d="M 121 49 L 201.714844 49 L 201.714844 177.023438 L 121 177.023438 Z M 121 49 " clip-rule="nonzero"/></clipPath><clipPath id="b059e7757a"><path d="M 183.074219 177.109375 C 176.1875 177.109375 169.710938 173.191406 166.609375 166.699219 L 123.28125 75.15625 C 118.960938 66.097656 122.878906 55.140625 131.917969 50.8125 C 140.960938 46.484375 151.894531 50.410156 156.214844 59.46875 L 199.539062 151.011719 C 203.855469 160.074219 199.945312 171.027344 190.898438 175.355469 C 188.335938 176.570312 185.769531 177.109375 183.074219 177.109375 Z M 183.074219 177.109375 " clip-rule="nonzero"/></clipPath><linearGradient x1="177.161118" gradientTransform="matrix(0.711047, 0, 0, 0.711047, 78.195899, 48.493303)" y1="172.186645" x2="16.628203" gradientUnits="userSpaceOnUse" y2="107.594142" id="2548e5bd84"><stop stop-opacity="1" stop-color="rgb(94.898987%, 54.499817%, 18.798828%)" offset="0"/><stop stop-opacity="1" stop-color="rgb(94.898987%, 54.499817%, 18.798828%)" offset="0.125"/><stop stop-opacity="1" stop-color="rgb(94.898987%, 54.348755%, 18.649292%)" offset="0.132812"/><stop stop-opacity="1" stop-color="rgb(94.898987%, 54.148865%, 18.449402%)" offset="0.140625"/><stop stop-opacity="1" stop-color="rgb(94.898987%, 53.944397%, 18.243408%)" offset="0.148437"/><stop stop-opacity="1" stop-color="rgb(94.898987%, 53.744507%, 18.043518%)" offset="0.15625"/><stop stop-opacity="1" stop-color="rgb(94.898987%, 53.553772%, 17.999268%)" offset="0.164062"/><stop stop-opacity="1" stop-color="rgb(94.898987%, 53.215027%, 17.860413%)" offset="0.171875"/><stop stop-opacity="1" stop-color="rgb(94.898987%, 52.836609%, 17.567444%)" offset="0.1875"/><stop stop-opacity="1" stop-color="rgb(94.898987%, 52.474976%, 17.222595%)" offset="0.203125"/><stop stop-opacity="1" stop-color="rgb(94.898987%, 52.128601%, 16.964722%)" offset="0.21875"/><stop stop-opacity="1" stop-color="rgb(94.898987%, 51.768494%, 16.78772%)" offset="0.226562"/><stop stop-opacity="1" stop-color="rgb(94.898987%, 51.487732%, 16.58783%)" offset="0.234375"/><stop stop-opacity="1" stop-color="rgb(94.898987%, 51.277161%, 16.377258%)" offset="0.242188"/><stop stop-opacity="1" stop-color="rgb(94.898987%, 51.077271%, 16.177368%)" offset="0.25"/><stop stop-opacity="1" stop-color="rgb(94.898987%, 50.891113%, 15.991211%)" offset="0.257812"/><stop stop-opacity="1" stop-color="rgb(94.898987%, 50.691223%, 15.791321%)" offset="0.265625"/><stop stop-opacity="1" stop-color="rgb(94.898987%, 50.492859%, 15.699768%)" offset="0.273437"/><stop stop-opacity="1" stop-color="rgb(94.898987%, 50.292969%, 15.588379%)" offset="0.28125"/><stop stop-opacity="1" stop-color="rgb(94.898987%, 50.09613%, 15.388489%)" offset="0.289062"/><stop stop-opacity="1" stop-color="rgb(94.898987%, 49.80011%, 15.203857%)" offset="0.296875"/><stop stop-opacity="1" stop-color="rgb(94.898987%, 49.423218%, 14.923096%)" offset="0.3125"/><stop stop-opacity="1" stop-color="rgb(94.898987%, 49.118042%, 14.61792%)" offset="0.320312"/><stop stop-opacity="1" stop-color="rgb(94.898987%, 48.907471%, 14.498901%)" offset="0.328125"/><stop stop-opacity="1" stop-color="rgb(94.898987%, 48.707581%, 14.414978%)" offset="0.335937"/><stop stop-opacity="1" stop-color="rgb(94.898987%, 48.522949%, 14.215088%)" offset="0.34375"/><stop stop-opacity="1" stop-color="rgb(94.898987%, 48.254395%, 14.030457%)" offset="0.351562"/><stop stop-opacity="1" stop-color="rgb(94.898987%, 47.930908%, 13.830566%)" offset="0.359375"/><stop stop-opacity="1" stop-color="rgb(94.898987%, 47.740173%, 13.619995%)" offset="0.367187"/><stop stop-opacity="1" stop-color="rgb(94.898987%, 47.589111%, 13.420105%)" offset="0.375"/><stop stop-opacity="1" stop-color="rgb(94.898987%, 47.434998%, 13.299561%)" offset="0.382812"/><stop stop-opacity="1" stop-color="rgb(94.898987%, 47.225952%, 13.09967%)" offset="0.386719"/><stop stop-opacity="1" stop-color="rgb(94.898987%, 47.080994%, 12.89978%)" offset="0.390625"/><stop stop-opacity="1" stop-color="rgb(94.898987%, 46.890259%, 12.831116%)" offset="0.40625"/><stop stop-opacity="1" stop-color="rgb(94.898987%, 46.638489%, 12.631226%)" offset="0.414062"/><stop stop-opacity="1" stop-color="rgb(94.898987%, 46.386719%, 12.460327%)" offset="0.421875"/><stop stop-opacity="1" stop-color="rgb(94.898987%, 46.008301%, 12.309265%)" offset="0.4375"/><stop stop-opacity="1" stop-color="rgb(94.898987%, 45.6604%, 12.164307%)" offset="0.445312"/><stop stop-opacity="1" stop-color="rgb(94.898987%, 45.449829%, 11.964417%)" offset="0.453125"/><stop stop-opacity="1" stop-color="rgb(94.898987%, 45.249939%, 11.758423%)" offset="0.460938"/><stop stop-opacity="1" stop-color="rgb(94.898987%, 45.065308%, 11.558533%)" offset="0.46875"/><stop stop-opacity="1" stop-color="rgb(94.898987%, 44.865417%, 11.372375%)" offset="0.476562"/><stop stop-opacity="1" stop-color="rgb(94.898987%, 44.677734%, 11.172485%)" offset="0.484375"/><stop stop-opacity="1" stop-color="rgb(94.898987%, 44.441223%, 10.998535%)" offset="0.488281"/><stop stop-opacity="1" stop-color="rgb(94.898987%, 44.226074%, 10.998535%)" offset="0.492188"/><stop stop-opacity="1" stop-color="rgb(94.898987%, 44.062805%, 10.969543%)" offset="0.5"/><stop stop-opacity="1" stop-color="rgb(94.898987%, 43.876648%, 10.769653%)" offset="0.507812"/><stop stop-opacity="1" stop-color="rgb(94.898987%, 43.676758%, 10.585022%)" offset="0.515625"/><stop stop-opacity="1" stop-color="rgb(94.898987%, 43.490601%, 10.385132%)" offset="0.523438"/><stop stop-opacity="1" stop-color="rgb(94.898987%, 43.29071%, 10.174561%)" offset="0.53125"/><stop stop-opacity="1" stop-color="rgb(94.898987%, 43.081665%, 9.97467%)" offset="0.539062"/><stop stop-opacity="1" stop-color="rgb(94.898987%, 42.874146%, 9.799194%)" offset="0.546875"/><stop stop-opacity="1" stop-color="rgb(94.898987%, 42.541504%, 9.603882%)" offset="0.5625"/><stop stop-opacity="1" stop-color="rgb(94.898987%, 42.211914%, 9.403992%)" offset="0.570312"/><stop stop-opacity="1" stop-color="rgb(94.898987%, 42.00592%, 9.199524%)" offset="0.574219"/><stop stop-opacity="1" stop-color="rgb(94.898987%, 41.989136%, 8.999634%)" offset="0.578125"/><stop stop-opacity="1" stop-color="rgb(94.898987%, 41.793823%, 8.808899%)" offset="0.59375"/><stop stop-opacity="1" stop-color="rgb(94.898987%, 41.415405%, 8.609009%)" offset="0.601562"/><stop stop-opacity="1" stop-color="rgb(94.898987%, 41.215515%, 8.599854%)" offset="0.609375"/><stop stop-opacity="1" stop-color="rgb(94.898987%, 41.00647%, 8.406067%)" offset="0.61007"/><stop stop-opacity="1" stop-color="rgb(94.898987%, 40.814209%, 8.213806%)" offset="0.617188"/><stop stop-opacity="1" stop-color="rgb(94.898987%, 40.606689%, 8.206177%)" offset="0.621094"/><stop stop-opacity="1" stop-color="rgb(94.898987%, 40.39917%, 8.198547%)" offset="0.625"/><stop stop-opacity="1" stop-color="rgb(94.898987%, 40.39917%, 8.02002%)" offset="0.632812"/><stop stop-opacity="1" stop-color="rgb(94.898987%, 40.226746%, 7.820129%)" offset="0.640625"/><stop stop-opacity="1" stop-color="rgb(94.898987%, 40.026855%, 7.675171%)" offset="0.648438"/><stop stop-opacity="1" stop-color="rgb(94.898987%, 39.819336%, 7.525635%)" offset="0.65625"/><stop stop-opacity="1" stop-color="rgb(94.898987%, 39.453125%, 7.331848%)" offset="0.671875"/><stop stop-opacity="1" stop-color="rgb(94.898987%, 39.071655%, 7.131958%)" offset="0.679688"/><stop stop-opacity="1" stop-color="rgb(94.898987%, 38.838196%, 6.947327%)" offset="0.6875"/><stop stop-opacity="1" stop-color="rgb(94.898987%, 38.653564%, 6.745911%)" offset="0.695312"/><stop stop-opacity="1" stop-color="rgb(94.898987%, 38.453674%, 6.541443%)" offset="0.703125"/><stop stop-opacity="1" stop-color="rgb(94.898987%, 38.243103%, 6.341553%)" offset="0.710938"/><stop stop-opacity="1" stop-color="rgb(94.898987%, 38.043213%, 6.298828%)" offset="0.71875"/><stop stop-opacity="1" stop-color="rgb(94.898987%, 37.858582%, 6.158447%)" offset="0.726562"/><stop stop-opacity="1" stop-color="rgb(94.898987%, 37.658691%, 5.958557%)" offset="0.734375"/><stop stop-opacity="1" stop-color="rgb(94.898987%, 37.490845%, 5.755615%)" offset="0.742188"/><stop stop-opacity="1" stop-color="rgb(94.898987%, 37.197876%, 5.555725%)" offset="0.75"/><stop stop-opacity="1" stop-color="rgb(94.898987%, 36.955261%, 5.363464%)" offset="0.757813"/><stop stop-opacity="1" stop-color="rgb(94.898987%, 36.77063%, 5.163574%)" offset="0.765625"/><stop stop-opacity="1" stop-color="rgb(94.898987%, 36.57074%, 5.099487%)" offset="0.773438"/><stop stop-opacity="1" stop-color="rgb(94.898987%, 36.367798%, 4.968262%)" offset="0.78125"/><stop stop-opacity="1" stop-color="rgb(94.898987%, 36.044312%, 4.644775%)" offset="0.796875"/><stop stop-opacity="1" stop-color="rgb(94.898987%, 35.658264%, 4.374695%)" offset="0.804688"/><stop stop-opacity="1" stop-color="rgb(94.898987%, 35.38208%, 4.190063%)" offset="0.8125"/><stop stop-opacity="1" stop-color="rgb(94.898987%, 35.197449%, 3.988647%)" offset="0.820313"/><stop stop-opacity="1" stop-color="rgb(94.898987%, 34.997559%, 3.898621%)" offset="0.828125"/><stop stop-opacity="1" stop-color="rgb(94.898987%, 34.786987%, 3.785706%)" offset="0.835938"/><stop stop-opacity="1" stop-color="rgb(94.898987%, 34.585571%, 3.585815%)" offset="0.84375"/><stop stop-opacity="1" stop-color="rgb(94.898987%, 34.40094%, 3.401184%)" offset="0.851563"/><stop stop-opacity="1" stop-color="rgb(94.898987%, 34.20105%, 3.201294%)" offset="0.859375"/><stop stop-opacity="1" stop-color="rgb(94.898987%, 34.004211%, 3.004456%)" offset="0.867188"/><stop stop-opacity="1" stop-color="rgb(94.898987%, 33.703613%, 2.804565%)" offset="0.871094"/><stop stop-opacity="1" stop-color="rgb(94.898987%, 33.49762%, 2.69928%)" offset="0.875"/><stop stop-opacity="1" stop-color="rgb(94.898987%, 33.311462%, 2.633667%)" offset="0.890625"/><stop stop-opacity="1" stop-color="rgb(94.898987%, 32.974243%, 2.445984%)" offset="0.90625"/><stop stop-opacity="1" stop-color="rgb(94.898987%, 32.661438%, 2.160645%)" offset="0.9375"/><stop stop-opacity="1" stop-color="rgb(94.898987%, 32.499695%, 1.998901%)" offset="1"/></linearGradient></defs><g clip-path="url(#dc4032aaec)"><g clip-path="url(#4bc196879c)"><path fill="url(#4b76301469)" d="M 78.167969 48.492188 L 78.167969 177.023438 L 158 177.023438 L 158 48.492188 Z M 78.167969 48.492188 " fill-rule="nonzero"/></g></g><g clip-path="url(#4bbe2958f9)"><g clip-path="url(#b059e7757a)"><path fill="url(#2548e5bd84)" d="M 120.800781 48.492188 L 120.800781 177.023438 L 201.714844 177.023438 L 201.714844 48.492188 Z M 120.800781 48.492188 " fill-rule="nonzero"/></g></g><path fill="#023e8a" d="M 66.792969 219.074219 L 57.886719 219.074219 L 56.269531 223.597656 L 53.445312 223.597656 L 60.816406 203.339844 L 63.886719 203.339844 L 71.234375 223.597656 L 68.410156 223.597656 Z M 66.023438 216.914062 L 62.328125 206.617188 L 58.65625 216.914062 Z M 66.023438 216.914062 " fill-opacity="1" fill-rule="nonzero"/><path fill="#023e8a" d="M 86.75 223.804688 C 85.390625 223.804688 84.179688 223.570312 83.117188 223.101562 C 82.0625 222.617188 81.234375 221.953125 80.625 221.105469 C 80.027344 220.25 79.71875 219.269531 79.691406 218.160156 L 82.535156 218.160156 C 82.628906 219.113281 83.023438 219.917969 83.71875 220.566406 C 84.410156 221.222656 85.421875 221.542969 86.75 221.542969 C 88.003906 221.542969 89 221.230469 89.738281 220.609375 C 90.46875 219.976562 90.839844 219.15625 90.839844 218.160156 C 90.839844 217.386719 90.621094 216.757812 90.195312 216.269531 C 89.765625 215.773438 89.222656 215.398438 88.574219 215.148438 C 87.9375 214.902344 87.070312 214.632812 85.980469 214.339844 C 84.636719 213.980469 83.558594 213.628906 82.742188 213.28125 C 81.9375 212.9375 81.25 212.390625 80.667969 211.640625 C 80.097656 210.882812 79.816406 209.871094 79.816406 208.613281 C 79.816406 207.492188 80.097656 206.507812 80.667969 205.664062 C 81.234375 204.808594 82.023438 204.144531 83.035156 203.671875 C 84.054688 203.203125 85.234375 202.964844 86.5625 202.964844 C 88.472656 202.964844 90.035156 203.441406 91.253906 204.398438 C 92.46875 205.351562 93.152344 206.617188 93.308594 208.195312 L 90.402344 208.195312 C 90.304688 207.421875 89.886719 206.738281 89.15625 206.140625 C 88.433594 205.550781 87.480469 205.25 86.292969 205.25 C 85.183594 205.25 84.277344 205.539062 83.574219 206.121094 C 82.878906 206.691406 82.535156 207.484375 82.535156 208.507812 C 82.535156 209.253906 82.742188 209.867188 83.15625 210.335938 C 83.574219 210.804688 84.082031 211.164062 84.695312 211.414062 C 85.316406 211.652344 86.179688 211.921875 87.289062 212.222656 C 88.628906 212.597656 89.707031 212.964844 90.527344 213.324219 C 91.355469 213.6875 92.0625 214.246094 92.644531 215.003906 C 93.226562 215.75 93.515625 216.765625 93.515625 218.035156 C 93.515625 219.03125 93.25 219.976562 92.726562 220.859375 C 92.199219 221.730469 91.417969 222.445312 90.382812 222.996094 C 89.355469 223.535156 88.144531 223.804688 86.75 223.804688 Z M 86.75 223.804688 " fill-opacity="1" fill-rule="nonzero"/><path fill="#023e8a" d="M 109.746094 223.804688 C 108.386719 223.804688 107.179688 223.570312 106.113281 223.101562 C 105.0625 222.617188 104.230469 221.953125 103.625 221.105469 C 103.027344 220.25 102.714844 219.269531 102.6875 218.160156 L 105.53125 218.160156 C 105.625 219.113281 106.019531 219.917969 106.714844 220.566406 C 107.40625 221.222656 108.417969 221.542969 109.746094 221.542969 C 111.003906 221.542969 112 221.230469 112.734375 220.609375 C 113.46875 219.976562 113.835938 219.15625 113.835938 218.160156 C 113.835938 217.386719 113.617188 216.757812 113.191406 216.269531 C 112.761719 215.773438 112.222656 215.398438 111.574219 215.148438 C 110.933594 214.902344 110.070312 214.632812 108.980469 214.339844 C 107.632812 213.980469 106.554688 213.628906 105.742188 213.28125 C 104.9375 212.9375 104.246094 212.390625 103.664062 211.640625 C 103.09375 210.882812 102.8125 209.871094 102.8125 208.613281 C 102.8125 207.492188 103.09375 206.507812 103.664062 205.664062 C 104.230469 204.808594 105.019531 204.144531 106.03125 203.671875 C 107.054688 203.203125 108.230469 202.964844 109.558594 202.964844 C 111.46875 202.964844 113.03125 203.441406 114.25 204.398438 C 115.464844 205.351562 116.148438 206.617188 116.304688 208.195312 L 113.398438 208.195312 C 113.300781 207.421875 112.886719 206.738281 112.15625 206.140625 C 111.433594 205.550781 110.476562 205.25 109.289062 205.25 C 108.179688 205.25 107.277344 205.539062 106.570312 206.121094 C 105.875 206.691406 105.53125 207.484375 105.53125 208.507812 C 105.53125 209.253906 105.742188 209.867188 106.15625 210.335938 C 106.570312 210.804688 107.078125 211.164062 107.691406 211.414062 C 108.316406 211.652344 109.175781 211.921875 110.285156 212.222656 C 111.625 212.597656 112.703125 212.964844 113.523438 213.324219 C 114.355469 213.6875 115.0625 214.246094 115.640625 215.003906 C 116.222656 215.75 116.511719 216.765625 116.511719 218.035156 C 116.511719 219.03125 116.25 219.976562 115.726562 220.859375 C 115.195312 221.730469 114.417969 222.445312 113.378906 222.996094 C 112.351562 223.535156 111.144531 223.804688 109.746094 223.804688 Z M 109.746094 223.804688 " fill-opacity="1" fill-rule="nonzero"/><path fill="#023e8a" d="M 128.882812 203.234375 L 128.882812 216.125 C 128.882812 217.925781 129.324219 219.269531 130.210938 220.152344 C 131.09375 221.023438 132.328125 221.460938 133.90625 221.460938 C 135.46875 221.460938 136.695312 221.023438 137.582031 220.152344 C 138.464844 219.269531 138.910156 217.925781 138.910156 216.125 L 138.910156 203.234375 L 141.566406 203.234375 L 141.566406 216.082031 C 141.566406 217.785156 141.21875 219.21875 140.527344 220.378906 C 139.847656 221.53125 138.929688 222.390625 137.769531 222.953125 C 136.617188 223.523438 135.320312 223.804688 133.867188 223.804688 C 132.421875 223.804688 131.125 223.523438 129.964844 222.953125 C 128.8125 222.390625 127.898438 221.53125 127.222656 220.378906 C 126.558594 219.21875 126.226562 217.785156 126.226562 216.082031 L 126.226562 203.234375 Z M 128.882812 203.234375 " fill-opacity="1" fill-rule="nonzero"/><path fill="#f25305" d="M 163.363281 203.234375 L 163.363281 205.394531 L 154.523438 205.394531 L 154.523438 212.265625 L 161.703125 212.265625 L 161.703125 214.421875 L 154.523438 214.421875 L 154.523438 223.597656 L 151.84375 223.597656 L 151.84375 203.234375 Z M 163.363281 203.234375 " fill-opacity="1" fill-rule="nonzero"/><path fill="#f25305" d="M 175.09375 221.4375 L 182.214844 221.4375 L 182.214844 223.597656 L 172.417969 223.597656 L 172.417969 203.234375 L 175.09375 203.234375 Z M 175.09375 221.4375 " fill-opacity="1" fill-rule="nonzero"/><path fill="#f25305" d="M 193.5625 205.394531 L 193.5625 212.203125 L 200.972656 212.203125 L 200.972656 214.382812 L 193.5625 214.382812 L 193.5625 221.398438 L 201.847656 221.398438 L 201.847656 223.597656 L 190.886719 223.597656 L 190.886719 203.195312 L 201.847656 203.195312 L 201.847656 205.394531 Z M 193.5625 205.394531 " fill-opacity="1" fill-rule="nonzero"/><path fill="#f25305" d="M 220.066406 213.425781 L 226.3125 223.597656 L 223.304688 223.597656 L 218.425781 215.648438 L 213.777344 223.597656 L 210.828125 223.597656 L 217.054688 213.425781 L 210.789062 203.234375 L 213.777344 203.234375 L 218.695312 211.207031 L 223.367188 203.234375 L 226.335938 203.234375 Z M 220.066406 213.425781 " fill-opacity="1" fill-rule="nonzero"/></svg>