<svg xmlns="http://www.w3.org/2000/svg" xmlns:xlink="http://www.w3.org/1999/xlink" width="375" zoomAndPan="magnify" viewBox="0 0 281.25 281.249989" height="375" preserveAspectRatio="xMidYMid meet" version="1.0"><defs><clipPath id="aab76df82c"><path d="M 57.617188 18.097656 L 163.9375 18.097656 L 163.9375 189.273438 L 57.617188 189.273438 Z M 57.617188 18.097656 " clip-rule="nonzero"/></clipPath><clipPath id="1f15001d3a"><path d="M 81.929688 189.390625 C 78.515625 189.390625 74.921875 188.671875 71.5 187.050781 C 59.460938 181.292969 54.25 166.882812 60 154.636719 L 117.703125 32.714844 C 123.453125 20.648438 137.835938 15.421875 150.054688 21.1875 C 162.101562 26.949219 167.3125 41.359375 161.5625 53.605469 L 103.859375 175.527344 C 99.726562 184.355469 90.914062 189.390625 81.929688 189.390625 Z M 81.929688 189.390625 " clip-rule="nonzero"/></clipPath><linearGradient x1="86.967191" gradientTransform="matrix(0.946995, 0, 0, 0.946995, 57.654835, 18.095933)" y1="-28.271419" x2="150.816058" gradientUnits="userSpaceOnUse" y2="168.222813" id="7d62a8c0d3"><stop stop-opacity="1" stop-color="rgb(94.898987%, 54.499817%, 18.798828%)" offset="0"/><stop stop-opacity="1" stop-color="rgb(94.898987%, 54.499817%, 18.798828%)" offset="0.125"/><stop stop-opacity="1" stop-color="rgb(94.898987%, 54.499817%, 18.798828%)" offset="0.15625"/><stop stop-opacity="1" stop-color="rgb(94.898987%, 54.499817%, 18.798828%)" offset="0.167934"/><stop stop-opacity="1" stop-color="rgb(94.898987%, 54.499817%, 18.798828%)" offset="0.171875"/><stop stop-opacity="1" stop-color="rgb(94.898987%, 54.330444%, 18.630981%)" offset="0.179688"/><stop stop-opacity="1" stop-color="rgb(94.898987%, 54.130554%, 18.431091%)" offset="0.1875"/><stop stop-opacity="1" stop-color="rgb(94.898987%, 53.918457%, 18.399048%)" offset="0.195312"/><stop stop-opacity="1" stop-color="rgb(94.898987%, 53.718567%, 18.222046%)" offset="0.203125"/><stop stop-opacity="1" stop-color="rgb(94.898987%, 53.527832%, 18.022156%)" offset="0.210938"/><stop stop-opacity="1" stop-color="rgb(94.898987%, 53.327942%, 17.834473%)" offset="0.21875"/><stop stop-opacity="1" stop-color="rgb(94.898987%, 53.140259%, 17.634583%)" offset="0.226562"/><stop stop-opacity="1" stop-color="rgb(94.898987%, 52.940369%, 17.599487%)" offset="0.234375"/><stop stop-opacity="1" stop-color="rgb(94.898987%, 52.726746%, 17.469788%)" offset="0.242188"/><stop stop-opacity="1" stop-color="rgb(94.898987%, 52.401733%, 17.318726%)" offset="0.25"/><stop stop-opacity="1" stop-color="rgb(94.898987%, 52.223206%, 17.137146%)" offset="0.257812"/><stop stop-opacity="1" stop-color="rgb(94.898987%, 52.043152%, 16.937256%)" offset="0.265625"/><stop stop-opacity="1" stop-color="rgb(94.898987%, 51.843262%, 16.72821%)" offset="0.273437"/><stop stop-opacity="1" stop-color="rgb(94.898987%, 51.629639%, 16.52832%)" offset="0.28125"/><stop stop-opacity="1" stop-color="rgb(94.898987%, 51.272583%, 16.340637%)" offset="0.296875"/><stop stop-opacity="1" stop-color="rgb(94.898987%, 50.889587%, 16.140747%)" offset="0.304688"/><stop stop-opacity="1" stop-color="rgb(94.898987%, 50.646973%, 15.953064%)" offset="0.3125"/><stop stop-opacity="1" stop-color="rgb(94.898987%, 50.437927%, 15.753174%)" offset="0.320312"/><stop stop-opacity="1" stop-color="rgb(94.898987%, 50.238037%, 15.539551%)" offset="0.328125"/><stop stop-opacity="1" stop-color="rgb(94.898987%, 50.045776%, 15.339661%)" offset="0.335937"/><stop stop-opacity="1" stop-color="rgb(94.898987%, 49.84436%, 15.299988%)" offset="0.34375"/><stop stop-opacity="1" stop-color="rgb(94.898987%, 49.656677%, 15.156555%)" offset="0.351562"/><stop stop-opacity="1" stop-color="rgb(94.898987%, 49.456787%, 14.956665%)" offset="0.359375"/><stop stop-opacity="1" stop-color="rgb(94.898987%, 49.243164%, 14.743042%)" offset="0.367188"/><stop stop-opacity="1" stop-color="rgb(94.898987%, 48.892212%, 14.543152%)" offset="0.375"/><stop stop-opacity="1" stop-color="rgb(94.898987%, 48.648071%, 14.353943%)" offset="0.382812"/><stop stop-opacity="1" stop-color="rgb(94.898987%, 48.460388%, 14.154053%)" offset="0.390625"/><stop stop-opacity="1" stop-color="rgb(94.898987%, 48.260498%, 14.099121%)" offset="0.398438"/><stop stop-opacity="1" stop-color="rgb(94.898987%, 48.046875%, 13.946533%)" offset="0.40625"/><stop stop-opacity="1" stop-color="rgb(94.898987%, 47.740173%, 13.604736%)" offset="0.421875"/><stop stop-opacity="1" stop-color="rgb(94.898987%, 47.407532%, 13.357544%)" offset="0.429688"/><stop stop-opacity="1" stop-color="rgb(94.898987%, 47.163391%, 13.169861%)" offset="0.4375"/><stop stop-opacity="1" stop-color="rgb(94.898987%, 46.957397%, 12.969971%)" offset="0.445312"/><stop stop-opacity="1" stop-color="rgb(94.898987%, 46.757507%, 12.89978%)" offset="0.453125"/><stop stop-opacity="1" stop-color="rgb(94.898987%, 46.562195%, 12.760925%)" offset="0.460938"/><stop stop-opacity="1" stop-color="rgb(94.898987%, 46.362305%, 12.561035%)" offset="0.46875"/><stop stop-opacity="1" stop-color="rgb(94.898987%, 46.173096%, 12.405396%)" offset="0.476562"/><stop stop-opacity="1" stop-color="rgb(94.898987%, 45.973206%, 12.254333%)" offset="0.484375"/><stop stop-opacity="1" stop-color="rgb(94.898987%, 45.759583%, 12.059021%)" offset="0.492188"/><stop stop-opacity="1" stop-color="rgb(94.898987%, 45.425415%, 11.859131%)" offset="0.5"/><stop stop-opacity="1" stop-color="rgb(94.898987%, 45.16449%, 11.671448%)" offset="0.507812"/><stop stop-opacity="1" stop-color="rgb(94.898987%, 44.976807%, 11.471558%)" offset="0.515625"/><stop stop-opacity="1" stop-color="rgb(94.898987%, 44.776917%, 11.399841%)" offset="0.523438"/><stop stop-opacity="1" stop-color="rgb(94.898987%, 44.563293%, 11.262512%)" offset="0.53125"/><stop stop-opacity="1" stop-color="rgb(94.898987%, 44.238281%, 10.9375%)" offset="0.546875"/><stop stop-opacity="1" stop-color="rgb(94.898987%, 43.855286%, 10.673523%)" offset="0.554688"/><stop stop-opacity="1" stop-color="rgb(94.898987%, 43.580627%, 10.48584%)" offset="0.5625"/><stop stop-opacity="1" stop-color="rgb(94.898987%, 43.37616%, 10.28595%)" offset="0.570312"/><stop stop-opacity="1" stop-color="rgb(94.898987%, 43.17627%, 10.198975%)" offset="0.578125"/><stop stop-opacity="1" stop-color="rgb(94.898987%, 42.977905%, 10.07843%)" offset="0.585937"/><stop stop-opacity="1" stop-color="rgb(94.898987%, 42.778015%, 9.87854%)" offset="0.59375"/><stop stop-opacity="1" stop-color="rgb(94.898987%, 42.616272%, 9.689331%)" offset="0.601562"/><stop stop-opacity="1" stop-color="rgb(94.898987%, 42.347717%, 9.489441%)" offset="0.609375"/><stop stop-opacity="1" stop-color="rgb(94.898987%, 42.080688%, 9.275818%)" offset="0.617187"/><stop stop-opacity="1" stop-color="rgb(94.898987%, 41.882324%, 9.075928%)" offset="0.625"/><stop stop-opacity="1" stop-color="rgb(94.898987%, 41.575623%, 8.892822%)" offset="0.640625"/><stop stop-opacity="1" stop-color="rgb(94.898987%, 41.293335%, 8.692932%)" offset="0.648438"/><stop stop-opacity="1" stop-color="rgb(94.898987%, 41.079712%, 8.479309%)" offset="0.65625"/><stop stop-opacity="1" stop-color="rgb(94.898987%, 40.771484%, 8.171082%)" offset="0.671875"/><stop stop-opacity="1" stop-color="rgb(94.898987%, 40.388489%, 7.89032%)" offset="0.679688"/><stop stop-opacity="1" stop-color="rgb(94.898987%, 40.097046%, 7.798767%)" offset="0.6875"/><stop stop-opacity="1" stop-color="rgb(94.898987%, 39.89563%, 7.720947%)" offset="0.695312"/><stop stop-opacity="1" stop-color="rgb(94.898987%, 39.69574%, 7.571411%)" offset="0.703125"/><stop stop-opacity="1" stop-color="rgb(94.898987%, 39.494324%, 7.394409%)" offset="0.710937"/><stop stop-opacity="1" stop-color="rgb(94.898987%, 39.294434%, 7.194519%)" offset="0.71875"/><stop stop-opacity="1" stop-color="rgb(94.898987%, 39.10675%, 7.006836%)" offset="0.726562"/><stop stop-opacity="1" stop-color="rgb(94.898987%, 38.806152%, 6.80542%)" offset="0.730469"/><stop stop-opacity="1" stop-color="rgb(94.898987%, 38.600159%, 6.698608%)" offset="0.734375"/><stop stop-opacity="1" stop-color="rgb(94.898987%, 38.499451%, 6.698608%)" offset="0.742188"/><stop stop-opacity="1" stop-color="rgb(94.898987%, 38.298035%, 6.5979%)" offset="0.75"/><stop stop-opacity="1" stop-color="rgb(94.898987%, 38.008118%, 6.307983%)" offset="0.765625"/><stop stop-opacity="1" stop-color="rgb(94.898987%, 37.709045%, 6.008911%)" offset="0.773438"/><stop stop-opacity="1" stop-color="rgb(94.898987%, 37.521362%, 5.795288%)" offset="0.78125"/><stop stop-opacity="1" stop-color="rgb(94.898987%, 37.27417%, 5.595398%)" offset="0.789062"/><stop stop-opacity="1" stop-color="rgb(94.898987%, 37.001038%, 5.499268%)" offset="0.796875"/><stop stop-opacity="1" stop-color="rgb(94.898987%, 36.813354%, 5.413818%)" offset="0.804688"/><stop stop-opacity="1" stop-color="rgb(94.898987%, 36.613464%, 5.213928%)" offset="0.8125"/><stop stop-opacity="1" stop-color="rgb(94.898987%, 36.413574%, 5.014038%)" offset="0.820312"/><stop stop-opacity="1" stop-color="rgb(94.898987%, 36.213684%, 4.814148%)" offset="0.828125"/><stop stop-opacity="1" stop-color="rgb(94.898987%, 35.899353%, 4.611206%)" offset="0.832031"/><stop stop-opacity="1" stop-color="rgb(94.898987%, 35.699463%, 4.524231%)" offset="0.835937"/><stop stop-opacity="1" stop-color="rgb(94.898987%, 35.699463%, 4.411316%)" offset="0.84375"/><stop stop-opacity="1" stop-color="rgb(94.898987%, 35.623169%, 4.223633%)" offset="0.851562"/><stop stop-opacity="1" stop-color="rgb(94.898987%, 35.342407%, 4.022217%)" offset="0.855469"/><stop stop-opacity="1" stop-color="rgb(94.898987%, 35.137939%, 3.898621%)" offset="0.859375"/><stop stop-opacity="1" stop-color="rgb(94.898987%, 35.018921%, 3.898621%)" offset="0.867188"/><stop stop-opacity="1" stop-color="rgb(94.898987%, 34.814453%, 3.814697%)" offset="0.875"/><stop stop-opacity="1" stop-color="rgb(94.898987%, 34.541321%, 3.541565%)" offset="0.890625"/><stop stop-opacity="1" stop-color="rgb(94.898987%, 34.225464%, 3.225708%)" offset="0.898438"/><stop stop-opacity="1" stop-color="rgb(94.898987%, 34.011841%, 3.012085%)" offset="0.90625"/><stop stop-opacity="1" stop-color="rgb(94.898987%, 33.732605%, 2.812195%)" offset="0.914063"/><stop stop-opacity="1" stop-color="rgb(94.898987%, 33.418274%, 2.69928%)" offset="0.921875"/><stop stop-opacity="1" stop-color="rgb(94.898987%, 33.229065%, 2.6474%)" offset="0.929688"/><stop stop-opacity="1" stop-color="rgb(94.898987%, 33.029175%, 2.496338%)" offset="0.9375"/><stop stop-opacity="1" stop-color="rgb(94.898987%, 32.71637%, 2.215576%)" offset="1"/></linearGradient><clipPath id="2eb55f5700"><path d="M 115 18.097656 L 222 18.097656 L 222 189.273438 L 115 189.273438 Z M 115 18.097656 " clip-rule="nonzero"/></clipPath><clipPath id="9fe07acd7c"><path d="M 197.332031 189.390625 C 188.164062 189.390625 179.535156 184.175781 175.402344 175.527344 L 117.703125 53.605469 C 111.945312 41.539062 117.164062 26.949219 129.203125 21.1875 C 141.25 15.421875 155.8125 20.648438 161.5625 32.714844 L 219.261719 154.636719 C 225.011719 166.703125 219.800781 181.292969 207.753906 187.054688 C 204.339844 188.671875 200.925781 189.390625 197.332031 189.390625 Z M 197.332031 189.390625 " clip-rule="nonzero"/></clipPath><linearGradient x1="177.161135" gradientTransform="matrix(0.946995, 0, 0, 0.946995, 57.654835, 18.095933)" y1="172.186652" x2="16.628228" gradientUnits="userSpaceOnUse" y2="107.594152" id="7a6d33bd0d"><stop stop-opacity="1" stop-color="rgb(94.898987%, 54.499817%, 18.798828%)" offset="0"/><stop stop-opacity="1" stop-color="rgb(94.898987%, 54.499817%, 18.798828%)" offset="0.125"/><stop stop-opacity="1" stop-color="rgb(94.898987%, 54.348755%, 18.649292%)" offset="0.132812"/><stop stop-opacity="1" stop-color="rgb(94.898987%, 54.148865%, 18.449402%)" offset="0.140625"/><stop stop-opacity="1" stop-color="rgb(94.898987%, 53.944397%, 18.243408%)" offset="0.148438"/><stop stop-opacity="1" stop-color="rgb(94.898987%, 53.744507%, 18.043518%)" offset="0.15625"/><stop stop-opacity="1" stop-color="rgb(94.898987%, 53.553772%, 17.999268%)" offset="0.164063"/><stop stop-opacity="1" stop-color="rgb(94.898987%, 53.215027%, 17.860413%)" offset="0.171875"/><stop stop-opacity="1" stop-color="rgb(94.898987%, 52.836609%, 17.567444%)" offset="0.1875"/><stop stop-opacity="1" stop-color="rgb(94.898987%, 52.474976%, 17.222595%)" offset="0.203125"/><stop stop-opacity="1" stop-color="rgb(94.898987%, 52.128601%, 16.964722%)" offset="0.21875"/><stop stop-opacity="1" stop-color="rgb(94.898987%, 51.768494%, 16.78772%)" offset="0.226562"/><stop stop-opacity="1" stop-color="rgb(94.898987%, 51.487732%, 16.58783%)" offset="0.234375"/><stop stop-opacity="1" stop-color="rgb(94.898987%, 51.277161%, 16.377258%)" offset="0.242188"/><stop stop-opacity="1" stop-color="rgb(94.898987%, 51.077271%, 16.177368%)" offset="0.25"/><stop stop-opacity="1" stop-color="rgb(94.898987%, 50.891113%, 15.991211%)" offset="0.257813"/><stop stop-opacity="1" stop-color="rgb(94.898987%, 50.691223%, 15.791321%)" offset="0.265625"/><stop stop-opacity="1" stop-color="rgb(94.898987%, 50.492859%, 15.699768%)" offset="0.273438"/><stop stop-opacity="1" stop-color="rgb(94.898987%, 50.292969%, 15.588379%)" offset="0.28125"/><stop stop-opacity="1" stop-color="rgb(94.898987%, 50.09613%, 15.388489%)" offset="0.289063"/><stop stop-opacity="1" stop-color="rgb(94.898987%, 49.80011%, 15.203857%)" offset="0.296875"/><stop stop-opacity="1" stop-color="rgb(94.898987%, 49.423218%, 14.923096%)" offset="0.3125"/><stop stop-opacity="1" stop-color="rgb(94.898987%, 49.118042%, 14.61792%)" offset="0.320312"/><stop stop-opacity="1" stop-color="rgb(94.898987%, 48.907471%, 14.498901%)" offset="0.328125"/><stop stop-opacity="1" stop-color="rgb(94.898987%, 48.707581%, 14.414978%)" offset="0.335938"/><stop stop-opacity="1" stop-color="rgb(94.898987%, 48.522949%, 14.215088%)" offset="0.34375"/><stop stop-opacity="1" stop-color="rgb(94.898987%, 48.254395%, 14.030457%)" offset="0.351562"/><stop stop-opacity="1" stop-color="rgb(94.898987%, 47.930908%, 13.830566%)" offset="0.359375"/><stop stop-opacity="1" stop-color="rgb(94.898987%, 47.740173%, 13.619995%)" offset="0.367188"/><stop stop-opacity="1" stop-color="rgb(94.898987%, 47.589111%, 13.420105%)" offset="0.375"/><stop stop-opacity="1" stop-color="rgb(94.898987%, 47.434998%, 13.299561%)" offset="0.382813"/><stop stop-opacity="1" stop-color="rgb(94.898987%, 47.225952%, 13.09967%)" offset="0.386719"/><stop stop-opacity="1" stop-color="rgb(94.898987%, 47.080994%, 12.89978%)" offset="0.390625"/><stop stop-opacity="1" stop-color="rgb(94.898987%, 46.890259%, 12.831116%)" offset="0.40625"/><stop stop-opacity="1" stop-color="rgb(94.898987%, 46.638489%, 12.631226%)" offset="0.414063"/><stop stop-opacity="1" stop-color="rgb(94.898987%, 46.386719%, 12.460327%)" offset="0.421875"/><stop stop-opacity="1" stop-color="rgb(94.898987%, 46.008301%, 12.309265%)" offset="0.4375"/><stop stop-opacity="1" stop-color="rgb(94.898987%, 45.6604%, 12.164307%)" offset="0.445313"/><stop stop-opacity="1" stop-color="rgb(94.898987%, 45.449829%, 11.964417%)" offset="0.453125"/><stop stop-opacity="1" stop-color="rgb(94.898987%, 45.249939%, 11.758423%)" offset="0.460938"/><stop stop-opacity="1" stop-color="rgb(94.898987%, 45.065308%, 11.558533%)" offset="0.46875"/><stop stop-opacity="1" stop-color="rgb(94.898987%, 44.865417%, 11.372375%)" offset="0.476563"/><stop stop-opacity="1" stop-color="rgb(94.898987%, 44.677734%, 11.172485%)" offset="0.484375"/><stop stop-opacity="1" stop-color="rgb(94.898987%, 44.441223%, 10.998535%)" offset="0.488281"/><stop stop-opacity="1" stop-color="rgb(94.898987%, 44.226074%, 10.998535%)" offset="0.492188"/><stop stop-opacity="1" stop-color="rgb(94.898987%, 44.062805%, 10.969543%)" offset="0.5"/><stop stop-opacity="1" stop-color="rgb(94.898987%, 43.876648%, 10.769653%)" offset="0.507812"/><stop stop-opacity="1" stop-color="rgb(94.898987%, 43.676758%, 10.585022%)" offset="0.515625"/><stop stop-opacity="1" stop-color="rgb(94.898987%, 43.490601%, 10.385132%)" offset="0.523438"/><stop stop-opacity="1" stop-color="rgb(94.898987%, 43.29071%, 10.174561%)" offset="0.53125"/><stop stop-opacity="1" stop-color="rgb(94.898987%, 43.081665%, 9.97467%)" offset="0.539062"/><stop stop-opacity="1" stop-color="rgb(94.898987%, 42.874146%, 9.799194%)" offset="0.546875"/><stop stop-opacity="1" stop-color="rgb(94.898987%, 42.541504%, 9.603882%)" offset="0.5625"/><stop stop-opacity="1" stop-color="rgb(94.898987%, 42.211914%, 9.403992%)" offset="0.570312"/><stop stop-opacity="1" stop-color="rgb(94.898987%, 42.00592%, 9.199524%)" offset="0.574219"/><stop stop-opacity="1" stop-color="rgb(94.898987%, 41.989136%, 8.999634%)" offset="0.578125"/><stop stop-opacity="1" stop-color="rgb(94.898987%, 41.793823%, 8.808899%)" offset="0.59375"/><stop stop-opacity="1" stop-color="rgb(94.898987%, 41.415405%, 8.609009%)" offset="0.601562"/><stop stop-opacity="1" stop-color="rgb(94.898987%, 41.215515%, 8.599854%)" offset="0.609375"/><stop stop-opacity="1" stop-color="rgb(94.898987%, 41.00647%, 8.406067%)" offset="0.61007"/><stop stop-opacity="1" stop-color="rgb(94.898987%, 40.814209%, 8.213806%)" offset="0.617188"/><stop stop-opacity="1" stop-color="rgb(94.898987%, 40.606689%, 8.206177%)" offset="0.621094"/><stop stop-opacity="1" stop-color="rgb(94.898987%, 40.39917%, 8.198547%)" offset="0.625"/><stop stop-opacity="1" stop-color="rgb(94.898987%, 40.39917%, 8.02002%)" offset="0.632813"/><stop stop-opacity="1" stop-color="rgb(94.898987%, 40.226746%, 7.820129%)" offset="0.640625"/><stop stop-opacity="1" stop-color="rgb(94.898987%, 40.026855%, 7.675171%)" offset="0.648438"/><stop stop-opacity="1" stop-color="rgb(94.898987%, 39.819336%, 7.525635%)" offset="0.65625"/><stop stop-opacity="1" stop-color="rgb(94.898987%, 39.453125%, 7.331848%)" offset="0.671875"/><stop stop-opacity="1" stop-color="rgb(94.898987%, 39.071655%, 7.131958%)" offset="0.679688"/><stop stop-opacity="1" stop-color="rgb(94.898987%, 38.838196%, 6.947327%)" offset="0.6875"/><stop stop-opacity="1" stop-color="rgb(94.898987%, 38.653564%, 6.745911%)" offset="0.695313"/><stop stop-opacity="1" stop-color="rgb(94.898987%, 38.453674%, 6.541443%)" offset="0.703125"/><stop stop-opacity="1" stop-color="rgb(94.898987%, 38.243103%, 6.341553%)" offset="0.710938"/><stop stop-opacity="1" stop-color="rgb(94.898987%, 38.043213%, 6.298828%)" offset="0.71875"/><stop stop-opacity="1" stop-color="rgb(94.898987%, 37.858582%, 6.158447%)" offset="0.726562"/><stop stop-opacity="1" stop-color="rgb(94.898987%, 37.658691%, 5.958557%)" offset="0.734375"/><stop stop-opacity="1" stop-color="rgb(94.898987%, 37.490845%, 5.755615%)" offset="0.742188"/><stop stop-opacity="1" stop-color="rgb(94.898987%, 37.197876%, 5.555725%)" offset="0.75"/><stop stop-opacity="1" stop-color="rgb(94.898987%, 36.955261%, 5.363464%)" offset="0.757812"/><stop stop-opacity="1" stop-color="rgb(94.898987%, 36.77063%, 5.163574%)" offset="0.765625"/><stop stop-opacity="1" stop-color="rgb(94.898987%, 36.57074%, 5.099487%)" offset="0.773438"/><stop stop-opacity="1" stop-color="rgb(94.898987%, 36.367798%, 4.968262%)" offset="0.78125"/><stop stop-opacity="1" stop-color="rgb(94.898987%, 36.044312%, 4.644775%)" offset="0.796875"/><stop stop-opacity="1" stop-color="rgb(94.898987%, 35.658264%, 4.374695%)" offset="0.804687"/><stop stop-opacity="1" stop-color="rgb(94.898987%, 35.38208%, 4.190063%)" offset="0.8125"/><stop stop-opacity="1" stop-color="rgb(94.898987%, 35.197449%, 3.988647%)" offset="0.820312"/><stop stop-opacity="1" stop-color="rgb(94.898987%, 34.997559%, 3.898621%)" offset="0.828125"/><stop stop-opacity="1" stop-color="rgb(94.898987%, 34.786987%, 3.785706%)" offset="0.835938"/><stop stop-opacity="1" stop-color="rgb(94.898987%, 34.585571%, 3.585815%)" offset="0.84375"/><stop stop-opacity="1" stop-color="rgb(94.898987%, 34.40094%, 3.401184%)" offset="0.851562"/><stop stop-opacity="1" stop-color="rgb(94.898987%, 34.20105%, 3.201294%)" offset="0.859375"/><stop stop-opacity="1" stop-color="rgb(94.898987%, 34.004211%, 3.004456%)" offset="0.867188"/><stop stop-opacity="1" stop-color="rgb(94.898987%, 33.703613%, 2.804565%)" offset="0.871094"/><stop stop-opacity="1" stop-color="rgb(94.898987%, 33.49762%, 2.69928%)" offset="0.875"/><stop stop-opacity="1" stop-color="rgb(94.898987%, 33.311462%, 2.633667%)" offset="0.890625"/><stop stop-opacity="1" stop-color="rgb(94.898987%, 32.974243%, 2.445984%)" offset="0.90625"/><stop stop-opacity="1" stop-color="rgb(94.898987%, 32.661438%, 2.160645%)" offset="0.9375"/><stop stop-opacity="1" stop-color="rgb(94.898987%, 32.499695%, 1.998901%)" offset="1"/></linearGradient></defs><g clip-path="url(#aab76df82c)"><g clip-path="url(#1f15001d3a)"><path fill="url(#7d62a8c0d3)" d="M 57.617188 18.097656 L 57.617188 189.273438 L 163.9375 189.273438 L 163.9375 18.097656 Z M 57.617188 18.097656 " fill-rule="nonzero"/></g></g><g clip-path="url(#2eb55f5700)"><g clip-path="url(#9fe07acd7c)"><path fill="url(#7a6d33bd0d)" d="M 114.398438 18.097656 L 114.398438 189.273438 L 222.160156 189.273438 L 222.160156 18.097656 Z M 114.398438 18.097656 " fill-rule="nonzero"/></g></g><path fill="#023e8a" d="M 42.46875 245.28125 L 30.609375 245.28125 L 28.453125 251.304688 L 24.691406 251.304688 L 34.503906 224.324219 L 38.597656 224.324219 L 48.382812 251.304688 L 44.625 251.304688 Z M 41.445312 242.40625 L 36.523438 228.691406 L 31.628906 242.40625 Z M 41.445312 242.40625 " fill-opacity="1" fill-rule="nonzero"/><path fill="#023e8a" d="M 69.046875 251.582031 C 67.234375 251.582031 65.625 251.273438 64.207031 250.640625 C 62.804688 250 61.699219 249.113281 60.890625 247.988281 C 60.097656 246.847656 59.679688 245.542969 59.648438 244.0625 L 63.433594 244.0625 C 63.558594 245.335938 64.082031 246.40625 65.011719 247.269531 C 65.929688 248.140625 67.277344 248.570312 69.046875 248.570312 C 70.71875 248.570312 72.046875 248.15625 73.027344 247.324219 C 74 246.480469 74.492188 245.390625 74.492188 244.0625 C 74.492188 243.035156 74.203125 242.195312 73.636719 241.546875 C 73.0625 240.882812 72.34375 240.386719 71.480469 240.054688 C 70.628906 239.722656 69.472656 239.363281 68.023438 238.976562 C 66.234375 238.5 64.796875 238.03125 63.710938 237.566406 C 62.640625 237.109375 61.71875 236.378906 60.945312 235.382812 C 60.1875 234.375 59.8125 233.027344 59.8125 231.347656 C 59.8125 229.851562 60.1875 228.546875 60.945312 227.421875 C 61.699219 226.28125 62.75 225.394531 64.097656 224.765625 C 65.460938 224.144531 67.027344 223.828125 68.796875 223.828125 C 71.339844 223.828125 73.421875 224.460938 75.046875 225.734375 C 76.664062 227.007812 77.574219 228.691406 77.78125 230.792969 L 73.910156 230.792969 C 73.78125 229.761719 73.226562 228.851562 72.253906 228.054688 C 71.292969 227.269531 70.019531 226.867188 68.4375 226.867188 C 66.957031 226.867188 65.757812 227.253906 64.816406 228.027344 C 63.890625 228.789062 63.433594 229.847656 63.433594 231.207031 C 63.433594 232.203125 63.710938 233.019531 64.261719 233.640625 C 64.816406 234.269531 65.492188 234.746094 66.308594 235.078125 C 67.136719 235.394531 68.285156 235.753906 69.765625 236.15625 C 71.546875 236.652344 72.984375 237.144531 74.078125 237.621094 C 75.183594 238.105469 76.125 238.851562 76.898438 239.859375 C 77.671875 240.855469 78.058594 242.203125 78.058594 243.898438 C 78.058594 245.222656 77.707031 246.480469 77.007812 247.65625 C 76.304688 248.816406 75.265625 249.773438 73.882812 250.503906 C 72.515625 251.222656 70.90625 251.582031 69.046875 251.582031 Z M 69.046875 251.582031 " fill-opacity="1" fill-rule="nonzero"/><path fill="#023e8a" d="M 99.675781 251.582031 C 97.863281 251.582031 96.253906 251.273438 94.835938 250.640625 C 93.433594 250 92.328125 249.113281 91.519531 247.988281 C 90.726562 246.847656 90.3125 245.542969 90.277344 244.0625 L 94.0625 244.0625 C 94.1875 245.335938 94.714844 246.40625 95.640625 247.269531 C 96.558594 248.140625 97.90625 248.570312 99.675781 248.570312 C 101.347656 248.570312 102.675781 248.15625 103.65625 247.324219 C 104.628906 246.480469 105.121094 245.390625 105.121094 244.0625 C 105.121094 243.035156 104.832031 242.195312 104.265625 241.546875 C 103.691406 240.882812 102.972656 240.386719 102.109375 240.054688 C 101.257812 239.722656 100.105469 239.363281 98.652344 238.976562 C 96.863281 238.5 95.425781 238.03125 94.339844 237.566406 C 93.269531 237.109375 92.347656 236.378906 91.574219 235.382812 C 90.816406 234.375 90.441406 233.027344 90.441406 231.347656 C 90.441406 229.851562 90.816406 228.546875 91.574219 227.421875 C 92.328125 226.28125 93.378906 225.394531 94.726562 224.765625 C 96.089844 224.144531 97.65625 223.828125 99.425781 223.828125 C 101.96875 223.828125 104.050781 224.460938 105.675781 225.734375 C 107.292969 227.007812 108.203125 228.691406 108.410156 230.792969 L 104.539062 230.792969 C 104.410156 229.761719 103.855469 228.851562 102.882812 228.054688 C 101.921875 227.269531 100.648438 226.867188 99.066406 226.867188 C 97.589844 226.867188 96.386719 227.253906 95.445312 228.027344 C 94.519531 228.789062 94.0625 229.847656 94.0625 231.207031 C 94.0625 232.203125 94.339844 233.019531 94.894531 233.640625 C 95.445312 234.269531 96.121094 234.746094 96.9375 235.078125 C 97.769531 235.394531 98.914062 235.753906 100.394531 236.15625 C 102.175781 236.652344 103.613281 237.144531 104.707031 237.621094 C 105.8125 238.105469 106.753906 238.851562 107.527344 239.859375 C 108.300781 240.855469 108.6875 242.203125 108.6875 243.898438 C 108.6875 245.222656 108.335938 246.480469 107.636719 247.65625 C 106.933594 248.816406 105.894531 249.773438 104.511719 250.503906 C 103.144531 251.222656 101.535156 251.582031 99.675781 251.582031 Z M 99.675781 251.582031 " fill-opacity="1" fill-rule="nonzero"/><path fill="#023e8a" d="M 125.164062 224.1875 L 125.164062 241.355469 C 125.164062 243.753906 125.75 245.542969 126.933594 246.71875 C 128.105469 247.878906 129.75 248.457031 131.851562 248.457031 C 133.933594 248.457031 135.5625 247.878906 136.746094 246.71875 C 137.921875 245.542969 138.515625 243.753906 138.515625 241.355469 L 138.515625 224.1875 L 142.054688 224.1875 L 142.054688 241.296875 C 142.054688 243.566406 141.589844 245.472656 140.671875 247.019531 C 139.765625 248.554688 138.542969 249.695312 136.996094 250.449219 C 135.460938 251.210938 133.734375 251.582031 131.796875 251.582031 C 129.875 251.582031 128.148438 251.210938 126.601562 250.449219 C 125.066406 249.695312 123.847656 248.554688 122.949219 247.019531 C 122.066406 245.472656 121.625 243.566406 121.625 241.296875 L 121.625 224.1875 Z M 125.164062 224.1875 " fill-opacity="1" fill-rule="nonzero"/><path fill="#f25305" d="M 171.085938 224.1875 L 171.085938 227.0625 L 159.308594 227.0625 L 159.308594 236.210938 L 168.875 236.210938 L 168.875 239.085938 L 159.308594 239.085938 L 159.308594 251.304688 L 155.742188 251.304688 L 155.742188 224.1875 Z M 171.085938 224.1875 " fill-opacity="1" fill-rule="nonzero"/><path fill="#f25305" d="M 186.707031 248.429688 L 196.191406 248.429688 L 196.191406 251.304688 L 183.140625 251.304688 L 183.140625 224.1875 L 186.707031 224.1875 Z M 186.707031 248.429688 " fill-opacity="1" fill-rule="nonzero"/><path fill="#f25305" d="M 211.304688 227.0625 L 211.304688 236.128906 L 221.175781 236.128906 L 221.175781 239.03125 L 211.304688 239.03125 L 211.304688 248.375 L 222.335938 248.375 L 222.335938 251.304688 L 207.738281 251.304688 L 207.738281 224.132812 L 222.335938 224.132812 L 222.335938 227.0625 Z M 211.304688 227.0625 " fill-opacity="1" fill-rule="nonzero"/><path fill="#f25305" d="M 246.601562 237.761719 L 254.921875 251.304688 L 250.914062 251.304688 L 244.417969 240.71875 L 238.226562 251.304688 L 234.300781 251.304688 L 242.59375 237.761719 L 234.246094 224.1875 L 238.226562 224.1875 L 244.777344 234.800781 L 250.996094 224.1875 L 254.949219 224.1875 Z M 246.601562 237.761719 " fill-opacity="1" fill-rule="nonzero"/></svg>